  0
SECTION
  2
HEADER
  9
$ACADVER
  1
AC1021
  9
$ACADMAINTVER
 70
    25
  9
$DWGCODEPAGE
  3
ANSI_1252
  9
$INSBASE
 10
0.0
 20
0.0
 30
0.0
  9
$EXTMIN
 10
-5.22646
 20
-6.72646
 30
0.0
  9
$EXTMAX
 10
5.22646
 20
6.72646
 30
0.0
  9
$LIMMIN
 10
0.0
 20
0.0
  9
$LIMMAX
 10
12.0
 20
9.0
  9
$ORTHOMODE
 70
     0
  9
$REGENMODE
 70
     1
  9
$FILLMODE
 70
     1
  9
$QTEXTMODE
 70
     0
  9
$MIRRTEXT
 70
     1
  9
$LTSCALE
 40
1.0
  9
$ATTMODE
 70
     1
  9
$TEXTSIZE
 40
0.2
  9
$TRACEWID
 40
0.05
  9
$TEXTSTYLE
  7
Standard
  9
$CLAYER
  8
0
  9
$CELTYPE
  6
ByLayer
  9
$CECOLOR
 62
   256
  9
$CELTSCALE
 40
1.0
  9
$DISPSILH
 70
     0
  9
$DIMSCALE
 40
1.0
  9
$DIMASZ
 40
0.18
  9
$DIMEXO
 40
0.0625
  9
$DIMDLI
 40
0.38
  9
$DIMRND
 40
0.0
  9
$DIMDLE
 40
0.0
  9
$DIMEXE
 40
0.18
  9
$DIMTP
 40
0.0
  9
$DIMTM
 40
0.0
  9
$DIMTXT
 40
0.18
  9
$DIMCEN
 40
0.09
  9
$DIMTSZ
 40
0.0
  9
$DIMTOL
 70
     0
  9
$DIMLIM
 70
     0
  9
$DIMTIH
 70
     1
  9
$DIMTOH
 70
     1
  9
$DIMSE1
 70
     0
  9
$DIMSE2
 70
     0
  9
$DIMTAD
 70
     0
  9
$DIMZIN
 70
     0
  9
$DIMBLK
  1

  9
$DIMASO
 70
     1
  9
$DIMSHO
 70
     1
  9
$DIMPOST
  1

  9
$DIMAPOST
  1

  9
$DIMALT
 70
     0
  9
$DIMALTD
 70
     2
  9
$DIMALTF
 40
25.4
  9
$DIMLFAC
 40
1.0
  9
$DIMTOFL
 70
     0
  9
$DIMTVP
 40
0.0
  9
$DIMTIX
 70
     0
  9
$DIMSOXD
 70
     0
  9
$DIMSAH
 70
     0
  9
$DIMBLK1
  1

  9
$DIMBLK2
  1

  9
$DIMSTYLE
  2
Standard
  9
$DIMCLRD
 70
     0
  9
$DIMCLRE
 70
     0
  9
$DIMCLRT
 70
     0
  9
$DIMTFAC
 40
1.0
  9
$DIMGAP
 40
0.09
  9
$DIMJUST
 70
     0
  9
$DIMSD1
 70
     0
  9
$DIMSD2
 70
     0
  9
$DIMTOLJ
 70
     1
  9
$DIMTZIN
 70
     0
  9
$DIMALTZ
 70
     0
  9
$DIMALTTZ
 70
     0
  9
$DIMUPT
 70
     0
  9
$DIMDEC
 70
     4
  9
$DIMTDEC
 70
     4
  9
$DIMALTU
 70
     2
  9
$DIMALTTD
 70
     2
  9
$DIMTXSTY
  7
Standard
  9
$DIMAUNIT
 70
     0
  9
$DIMADEC
 70
     0
  9
$DIMALTRND
 40
0.0
  9
$DIMAZIN
 70
     0
  9
$DIMDSEP
 70
    46
  9
$DIMATFIT
 70
     3
  9
$DIMFRAC
 70
     0
  9
$DIMLDRBLK
  1

  9
$DIMLUNIT
 70
     2
  9
$DIMLWD
 70
    -2
  9
$DIMLWE
 70
    -2
  9
$DIMTMOVE
 70
     0
  9
$DIMFXL
 40
1.0
  9
$DIMFXLON
 70
     0
  9
$DIMJOGANG
 40
0.7853981633974483
  9
$DIMTFILL
 70
     0
  9
$DIMTFILLCLR
 70
     0
  9
$DIMARCSYM
 70
     0
  9
$DIMLTYPE
  6

  9
$DIMLTEX1
  6

  9
$DIMLTEX2
  6

  9
$LUNITS
 70
     2
  9
$LUPREC
 70
     4
  9
$SKETCHINC
 40
0.1
  9
$FILLETRAD
 40
0.5
  9
$AUNITS
 70
     0
  9
$AUPREC
 70
     0
  9
$MENU
  1
.
  9
$ELEVATION
 40
0.0
  9
$PELEVATION
 40
0.0
  9
$THICKNESS
 40
0.0
  9
$LIMCHECK
 70
     0
  9
$CHAMFERA
 40
0.5
  9
$CHAMFERB
 40
0.5
  9
$CHAMFERC
 40
1.0
  9
$CHAMFERD
 40
0.0
  9
$SKPOLY
 70
     0
  9
$TDCREATE
 40
2460500.719524676
  9
$TDUCREATE
 40
2460500.677858009
  9
$TDUPDATE
 40
2460500.719524769
  9
$TDUUPDATE
 40
2460500.677858102
  9
$TDINDWG
 40
0.0000000116
  9
$TDUSRTIMER
 40
0.0000000116
  9
$USRTIMER
 70
     1
  9
$ANGBASE
 50
0.0
  9
$ANGDIR
 70
     0
  9
$PDMODE
 70
     0
  9
$PDSIZE
 40
0.0
  9
$PLINEWID
 40
0.0
  9
$SPLFRAME
 70
     0
  9
$SPLINETYPE
 70
     6
  9
$SPLINESEGS
 70
     8
  9
$HANDSEED
  5
A7
  9
$SURFTAB1
 70
     6
  9
$SURFTAB2
 70
     6
  9
$SURFTYPE
 70
     6
  9
$SURFU
 70
     6
  9
$SURFV
 70
     6
  9
$UCSBASE
  2

  9
$UCSNAME
  2

  9
$UCSORG
 10
0.0
 20
0.0
 30
0.0
  9
$UCSXDIR
 10
1.0
 20
0.0
 30
0.0
  9
$UCSYDIR
 10
0.0
 20
1.0
 30
0.0
  9
$UCSORTHOREF
  2

  9
$UCSORTHOVIEW
 70
     0
  9
$UCSORGTOP
 10
0.0
 20
0.0
 30
0.0
  9
$UCSORGBOTTOM
 10
0.0
 20
0.0
 30
0.0
  9
$UCSORGLEFT
 10
0.0
 20
0.0
 30
0.0
  9
$UCSORGRIGHT
 10
0.0
 20
0.0
 30
0.0
  9
$UCSORGFRONT
 10
0.0
 20
0.0
 30
0.0
  9
$UCSORGBACK
 10
0.0
 20
0.0
 30
0.0
  9
$PUCSBASE
  2

  9
$PUCSNAME
  2

  9
$PUCSORG
 10
0.0
 20
0.0
 30
0.0
  9
$PUCSXDIR
 10
1.0
 20
0.0
 30
0.0
  9
$PUCSYDIR
 10
0.0
 20
1.0
 30
0.0
  9
$PUCSORTHOREF
  2

  9
$PUCSORTHOVIEW
 70
     0
  9
$PUCSORGTOP
 10
0.0
 20
0.0
 30
0.0
  9
$PUCSORGBOTTOM
 10
0.0
 20
0.0
 30
0.0
  9
$PUCSORGLEFT
 10
0.0
 20
0.0
 30
0.0
  9
$PUCSORGRIGHT
 10
0.0
 20
0.0
 30
0.0
  9
$PUCSORGFRONT
 10
0.0
 20
0.0
 30
0.0
  9
$PUCSORGBACK
 10
0.0
 20
0.0
 30
0.0
  9
$USERI1
 70
     0
  9
$USERI2
 70
     0
  9
$USERI3
 70
     0
  9
$USERI4
 70
     0
  9
$USERI5
 70
     0
  9
$USERR1
 40
0.0
  9
$USERR2
 40
0.0
  9
$USERR3
 40
0.0
  9
$USERR4
 40
0.0
  9
$USERR5
 40
0.0
  9
$WORLDVIEW
 70
     1
  9
$SHADEDGE
 70
     3
  9
$SHADEDIF
 70
    70
  9
$TILEMODE
 70
     1
  9
$MAXACTVP
 70
    64
  9
$PINSBASE
 10
0.0
 20
0.0
 30
0.0
  9
$PLIMCHECK
 70
     0
  9
$PEXTMIN
 10
1.000000000000000E+20
 20
1.000000000000000E+20
 30
1.000000000000000E+20
  9
$PEXTMAX
 10
-1.000000000000000E+20
 20
-1.000000000000000E+20
 30
-1.000000000000000E+20
  9
$PLIMMIN
 10
0.0
 20
0.0
  9
$PLIMMAX
 10
12.0
 20
9.0
  9
$UNITMODE
 70
     0
  9
$VISRETAIN
 70
     1
  9
$PLINEGEN
 70
     0
  9
$PSLTSCALE
 70
     1
  9
$TREEDEPTH
 70
  3020
  9
$CMLSTYLE
  2
Standard
  9
$CMLJUST
 70
     0
  9
$CMLSCALE
 40
1.0
  9
$PROXYGRAPHICS
 70
     1
  9
$MEASUREMENT
 70
     0
  9
$CELWEIGHT
370
    -1
  9
$ENDCAPS
280
     0
  9
$JOINSTYLE
280
     0
  9
$LWDISPLAY
290
     0
  9
$INSUNITS
 70
     5
  9
$HYPERLINKBASE
  1

  9
$STYLESHEET
  1

  9
$XEDIT
290
     1
  9
$CEPSNTYPE
380
     0
  9
$PSTYLEMODE
290
     1
  9
$FINGERPRINTGUID
  2
{49E63145-6C4A-4B51-8197-4F63390207FE}
  9
$VERSIONGUID
  2
{FAEB1C32-E019-11D5-929B-00C0DF256EC4}
  9
$EXTNAMES
290
     1
  9
$PSVPSCALE
 40
0.0
  9
$OLESTARTUP
290
     0
  9
$SORTENTS
280
   127
  9
$INDEXCTL
280
     0
  9
$HIDETEXT
280
     1
  9
$XCLIPFRAME
290
     0
  9
$HALOGAP
280
     0
  9
$OBSCOLOR
 70
   257
  9
$OBSLTYPE
280
     0
  9
$INTERSECTIONDISPLAY
280
     0
  9
$INTERSECTIONCOLOR
 70
   257
  9
$DIMASSOC
280
     2
  9
$PROJECTNAME
  1

  9
$CAMERADISPLAY
290
     0
  9
$LENSLENGTH
 40
50.0
  9
$CAMERAHEIGHT
 40
0.0
  9
$STEPSPERSEC
 40
2.0
  9
$STEPSIZE
 40
6.0
  9
$3DDWFPREC
 40
2.0
  9
$PSOLWIDTH
 40
0.25
  9
$PSOLHEIGHT
 40
4.0
  9
$LOFTANG1
 40
1.570796326794897
  9
$LOFTANG2
 40
1.570796326794897
  9
$LOFTMAG1
 40
0.0
  9
$LOFTMAG2
 40
0.0
  9
$LOFTPARAM
 70
     7
  9
$LOFTNORMALS
280
     1
  9
$LATITUDE
 40
37.795
  9
$LONGITUDE
 40
-122.394
  9
$NORTHDIRECTION
 40
0.0
  9
$TIMEZONE
 70
 -8000
  9
$LIGHTGLYPHDISPLAY
280
     1
  9
$TILEMODELIGHTSYNCH
280
     1
  9
$SOLIDHIST
280
     1
  9
$SHOWHIST
280
     1
  9
$DWFFRAME
280
     2
  9
$DGNFRAME
280
     2
  9
$REALWORLDSCALE
290
     1
  9
$INTERFERECOLOR
 62
   256
  9
$CSHADOW
280
     0
  9
$SHADOWPLANELOCATION
 40
0.0
  0
ENDSEC
  0
SECTION
  2
CLASSES
  0
CLASS
  1
ACDBDICTIONARYWDFLT
  2
AcDbDictionaryWithDefault
  3
ObjectDBX Classes
 90
        0
 91
        4
280
     0
281
     0
  0
CLASS
  1
VISUALSTYLE
  2
AcDbVisualStyle
  3
ObjectDBX Classes
 90
     4095
 91
        4
280
     0
281
     0
  0
CLASS
  1
MATERIAL
  2
AcDbMaterial
  3
ObjectDBX Classes
 90
     1153
 91
        4
280
     0
281
     0
  0
ENDSEC
  0
SECTION
  2
TABLES
  0
TABLE
  2
VPORT
  5
8
330
0
100
AcDbSymbolTable
 70
     1
  0
VPORT
  5
29
330
8
100
AcDbSymbolTableRecord
100
AcDbViewportTableRecord
  2
*Active
 70
     0
 10
0.0
 20
0.0
 11
1.0
 21
1.0
 12
10.42990654205607
 22
4.5
 13
0.0
 23
0.0
 14
0.5
 24
0.5
 15
0.5
 25
0.5
 16
0.0
 26
0.0
 36
1.0
 17
0.0
 27
0.0
 37
0.0
 40
9.0
 41
1.972972972850329
 42
50.0
 43
0.0
 44
0.0
 50
0.0
 51
0.0
 71
     0
 72
   100
 73
     1
 74
     3
 75
     0
 76
     0
 77
     0
 78
     0
281
     0
 65
     1
110
0.0
120
0.0
130
0.0
111
1.0
121
0.0
131
0.0
112
0.0
122
1.0
132
0.0
 79
     0
146
0.0
 60
     3
 61
     5
292
     1
282
     1
141
0.0
142
0.0
 63
   250
  0
ENDTAB
  0
TABLE
  2
LTYPE
  5
5
330
0
100
AcDbSymbolTable
 70
     1
  0
LTYPE
  5
14
330
5
100
AcDbSymbolTableRecord
100
AcDbLinetypeTableRecord
  2
ByBlock
 70
     0
  3

 72
    65
 73
     0
 40
0.0
  0
LTYPE
  5
15
330
5
100
AcDbSymbolTableRecord
100
AcDbLinetypeTableRecord
  2
ByLayer
 70
     0
  3

 72
    65
 73
     0
 40
0.0
  0
LTYPE
  5
16
330
5
100
AcDbSymbolTableRecord
100
AcDbLinetypeTableRecord
  2
Continuous
 70
     0
  3
Solid line
 72
    65
 73
     0
 40
0.0
  0
ENDTAB
  0
TABLE
  2
LAYER
  5
2
330
0
100
AcDbSymbolTable
 70
     2
  0
LAYER
  5
10
330
2
100
AcDbSymbolTableRecord
100
AcDbLayerTableRecord
  2
0
 70
     0
 62
     7
  6
Continuous
370
    -3
390
F
347
3E
  0
LAYER
  5
40
330
2
100
AcDbSymbolTableRecord
100
AcDbLayerTableRecord
  2
Layer 1
 70
     0
 62
     7
  6
Continuous
370
    -3
390
F
347
3E
  0
ENDTAB
  0
TABLE
  2
STYLE
  5
3
330
0
100
AcDbSymbolTable
 70
     1
  0
STYLE
  5
11
330
3
100
AcDbSymbolTableRecord
100
AcDbTextStyleTableRecord
  2
Standard
 70
     0
 40
0.0
 41
1.0
 50
0.0
 71
     0
 42
0.2
  3
txt
  4

  0
ENDTAB
  0
TABLE
  2
VIEW
  5
6
330
0
100
AcDbSymbolTable
 70
     0
  0
ENDTAB
  0
TABLE
  2
UCS
  5
7
330
0
100
AcDbSymbolTable
 70
     0
  0
ENDTAB
  0
TABLE
  2
APPID
  5
9
330
0
100
AcDbSymbolTable
 70
     2
  0
APPID
  5
12
330
9
100
AcDbSymbolTableRecord
100
AcDbRegAppTableRecord
  2
ACAD
 70
     0
  0
APPID
  5
3F
330
9
100
AcDbSymbolTableRecord
100
AcDbRegAppTableRecord
  2
ODA
 70
     0
  0
ENDTAB
  0
TABLE
  2
DIMSTYLE
  5
A
330
0
100
AcDbSymbolTable
 70
     1
100
AcDbDimStyleTable
  0
DIMSTYLE
105
27
330
A
100
AcDbSymbolTableRecord
100
AcDbDimStyleTableRecord
  2
Standard
 70
     0
178
     0
340
11
  0
ENDTAB
  0
TABLE
  2
BLOCK_RECORD
  5
1
330
0
100
AcDbSymbolTable
 70
     1
  0
BLOCK_RECORD
  5
1F
330
1
100
AcDbSymbolTableRecord
100
AcDbBlockTableRecord
  2
*Model_Space
340
22
 70
     0
280
     1
281
     0
  0
BLOCK_RECORD
  5
1B
330
1
100
AcDbSymbolTableRecord
100
AcDbBlockTableRecord
  2
*Paper_Space
340
1E
 70
     0
280
     1
281
     0
  0
BLOCK_RECORD
  5
23
330
1
100
AcDbSymbolTableRecord
100
AcDbBlockTableRecord
  2
*Paper_Space0
340
26
 70
     0
280
     1
281
     0
  0
ENDTAB
  0
ENDSEC
  0
SECTION
  2
BLOCKS
  0
BLOCK
  5
20
330
1F
100
AcDbEntity
  8
0
100
AcDbBlockBegin
  2
*Model_Space
 70
     0
 10
0.0
 20
0.0
 30
0.0
  3
*Model_Space
  1

  0
ENDBLK
  5
21
330
1F
100
AcDbEntity
  8
0
100
AcDbBlockEnd
  0
BLOCK
  5
1C
330
1B
100
AcDbEntity
 67
     1
  8
0
100
AcDbBlockBegin
  2
*Paper_Space
 70
     0
 10
0.0
 20
0.0
 30
0.0
  3
*Paper_Space
  1

  0
ENDBLK
  5
1D
330
1B
100
AcDbEntity
 67
     1
  8
0
100
AcDbBlockEnd
  0
BLOCK
  5
24
330
23
100
AcDbEntity
  8
0
100
AcDbBlockBegin
  2
*Paper_Space0
 70
     0
 10
0.0
 20
0.0
 30
0.0
  3
*Paper_Space0
  1

  0
ENDBLK
  5
25
330
23
100
AcDbEntity
  8
0
100
AcDbBlockEnd
  0
ENDSEC
  0
SECTION
  2
ENTITIES
  0
SPLINE
  5
41
330
1F
100
AcDbEntity
  8
Layer 1
370
    53
100
AcDbSpline
210
0.0
220
0.0
230
1.0
 70
    11
 71
     3
 72
    36
 73
    32
 74
     0
 42
0.0000000001
 43
0.0000000001
 12
1.0
 22
0.0
 32
0.0
 13
1.0
 23
0.0
 33
0.0
 40
0.0
 40
0.0
 40
0.0
 40
0.0
 40
0.1111111111111111
 40
0.1111111111111111
 40
0.1111111111111111
 40
0.1111111111111111
 40
0.2222222222222222
 40
0.2222222222222222
 40
0.2222222222222222
 40
0.2222222222222222
 40
0.3333333333333333
 40
0.3333333333333333
 40
0.3333333333333333
 40
0.3333333333333333
 40
0.4444444444444444
 40
0.4444444444444444
 40
0.4444444444444444
 40
0.4444444444444444
 40
0.5555555555555556
 40
0.5555555555555556
 40
0.5555555555555556
 40
0.5555555555555556
 40
0.6666666666666666
 40
0.6666666666666666
 40
0.6666666666666666
 40
0.6666666666666666
 40
0.7777777777777778
 40
0.7777777777777778
 40
0.7777777777777778
 40
0.7777777777777778
 40
1.0
 40
1.0
 40
1.0
 40
1.0
 10
-5.2
 20
2.8
 30
0.0
 10
-5.2
 20
2.8
 30
0.0
 10
-5.2
 20
6.2
 30
0.0
 10
-5.2
 20
6.2
 30
0.0
 10
-5.2
 20
6.2
 30
0.0
 10
-5.2
 20
6.47614
 30
0.0
 10
-4.97614
 20
6.7
 30
0.0
 10
-4.7
 20
6.7
 30
0.0
 10
-4.7
 20
6.7
 30
0.0
 10
-4.7
 20
6.7
 30
0.0
 10
4.7
 20
6.7
 30
0.0
 10
4.7
 20
6.7
 30
0.0
 10
4.7
 20
6.7
 30
0.0
 10
4.97614
 20
6.7
 30
0.0
 10
5.2
 20
6.47614
 30
0.0
 10
5.2
 20
6.2
 30
0.0
 10
5.2
 20
6.2
 30
0.0
 10
5.2
 20
6.2
 30
0.0
 10
5.2
 20
2.8
 30
0.0
 10
5.2
 20
2.8
 30
0.0
 10
5.2
 20
2.8
 30
0.0
 10
5.2
 20
2.52386
 30
0.0
 10
4.97614
 20
2.3
 30
0.0
 10
4.7
 20
2.3
 30
0.0
 10
4.7
 20
2.3
 30
0.0
 10
4.7
 20
2.3
 30
0.0
 10
-4.7
 20
2.3
 30
0.0
 10
-4.7
 20
2.3
 30
0.0
 10
-4.7
 20
2.3
 30
0.0
 10
-4.97614
 20
2.3
 30
0.0
 10
-5.2
 20
2.52386
 30
0.0
 10
-5.2
 20
2.8
 30
0.0
  0
ELLIPSE
  5
42
330
1F
100
AcDbEntity
  8
Layer 1
370
    53
100
AcDbEllipse
 10
3.00001
 20
5.99999
 30
0.0
 11
0.0
 21
0.30001
 31
0.0
210
0.0
220
0.0
230
1.0
 40
1.0
 41
0.0
 42
6.283185307179586
  0
ELLIPSE
  5
43
330
1F
100
AcDbEntity
  8
Layer 1
370
    53
100
AcDbEllipse
 10
4.50001
 20
5.99999
 30
0.0
 11
0.0
 21
0.30001
 31
0.0
210
0.0
220
0.0
230
1.0
 40
1.0
 41
0.0
 42
6.283185307179586
  0
ELLIPSE
  5
44
330
1F
100
AcDbEntity
  8
Layer 1
370
    53
100
AcDbEllipse
 10
2.25
 20
6.0
 30
0.0
 11
0.0
 21
0.15
 31
0.0
210
0.0
220
0.0
230
1.0
 40
1.0
 41
0.0
 42
6.283185307179586
  0
ELLIPSE
  5
45
330
1F
100
AcDbEntity
  8
Layer 1
370
    53
100
AcDbEllipse
 10
3.75
 20
6.0
 30
0.0
 11
0.0
 21
0.15
 31
0.0
210
0.0
220
0.0
230
1.0
 40
1.0
 41
0.0
 42
6.283185307179586
  0
ELLIPSE
  5
46
330
1F
100
AcDbEntity
  8
Layer 1
370
    53
100
AcDbEllipse
 10
1.50001
 20
5.99999
 30
0.0
 11
0.0
 21
0.30001
 31
0.0
210
0.0
220
0.0
230
1.0
 40
1.0
 41
0.0
 42
6.283185307179586
  0
ELLIPSE
  5
47
330
1F
100
AcDbEntity
  8
Layer 1
370
    53
100
AcDbEllipse
 10
0.75
 20
6.0
 30
0.0
 11
0.0
 21
0.15
 31
0.0
210
0.0
220
0.0
230
1.0
 40
1.0
 41
0.0
 42
6.283185307179586
  0
ELLIPSE
  5
48
330
1F
100
AcDbEntity
  8
Layer 1
370
    53
100
AcDbEllipse
 10
0.00001
 20
5.99999
 30
0.0
 11
0.0
 21
0.30001
 31
0.0
210
0.0
220
0.0
230
1.0
 40
1.0
 41
0.0
 42
6.283185307179586
  0
ELLIPSE
  5
49
330
1F
100
AcDbEntity
  8
Layer 1
370
    53
100
AcDbEllipse
 10
-0.75
 20
6.0
 30
0.0
 11
0.0
 21
0.15
 31
0.0
210
0.0
220
0.0
230
1.0
 40
1.0
 41
0.0
 42
6.283185307179586
  0
ELLIPSE
  5
4A
330
1F
100
AcDbEntity
  8
Layer 1
370
    53
100
AcDbEllipse
 10
-1.49999
 20
5.99999
 30
0.0
 11
0.0
 21
0.30001
 31
0.0
210
0.0
220
0.0
230
1.0
 40
1.0
 41
0.0
 42
6.283185307179586
  0
ELLIPSE
  5
4B
330
1F
100
AcDbEntity
  8
Layer 1
370
    53
100
AcDbEllipse
 10
-2.25
 20
6.0
 30
0.0
 11
0.0
 21
0.15
 31
0.0
210
0.0
220
0.0
230
1.0
 40
1.0
 41
0.0
 42
6.283185307179586
  0
ELLIPSE
  5
4C
330
1F
100
AcDbEntity
  8
Layer 1
370
    53
100
AcDbEllipse
 10
-2.99999
 20
5.99999
 30
0.0
 11
0.0
 21
0.30001
 31
0.0
210
0.0
220
0.0
230
1.0
 40
1.0
 41
0.0
 42
6.283185307179586
  0
ELLIPSE
  5
4D
330
1F
100
AcDbEntity
  8
Layer 1
370
    53
100
AcDbEllipse
 10
-3.75
 20
6.0
 30
0.0
 11
0.0
 21
0.15
 31
0.0
210
0.0
220
0.0
230
1.0
 40
1.0
 41
0.0
 42
6.283185307179586
  0
ELLIPSE
  5
4E
330
1F
100
AcDbEntity
  8
Layer 1
370
    53
100
AcDbEllipse
 10
-4.49999
 20
5.99999
 30
0.0
 11
0.0
 21
0.30001
 31
0.0
210
0.0
220
0.0
230
1.0
 40
1.0
 41
0.0
 42
6.283185307179586
  0
SPLINE
  5
4F
330
1F
100
AcDbEntity
  8
Layer 1
 62
     5
370
    53
100
AcDbSpline
210
0.0
220
0.0
230
1.0
 70
    11
 71
     3
 72
    48
 73
    44
 74
     0
 42
0.0000000001
 43
0.0000000001
 12
1.0
 22
0.0
 32
0.0
 13
1.0
 23
0.0
 33
0.0
 40
0.0
 40
0.0
 40
0.0
 40
0.0
 40
0.0833333333333333
 40
0.0833333333333333
 40
0.0833333333333333
 40
0.0833333333333333
 40
0.1666666666666667
 40
0.1666666666666667
 40
0.1666666666666667
 40
0.1666666666666667
 40
0.25
 40
0.25
 40
0.25
 40
0.25
 40
0.3333333333333333
 40
0.3333333333333333
 40
0.3333333333333333
 40
0.3333333333333333
 40
0.4166666666666667
 40
0.4166666666666667
 40
0.4166666666666667
 40
0.4166666666666667
 40
0.5
 40
0.5
 40
0.5
 40
0.5
 40
0.5833333333333334
 40
0.5833333333333334
 40
0.5833333333333334
 40
0.5833333333333334
 40
0.6666666666666666
 40
0.6666666666666666
 40
0.6666666666666666
 40
0.6666666666666666
 40
0.75
 40
0.75
 40
0.75
 40
0.75
 40
0.8333333333333334
 40
0.8333333333333334
 40
0.8333333333333334
 40
0.8333333333333334
 40
1.0
 40
1.0
 40
1.0
 40
1.0
 10
-0.91242
 20
4.00709
 30
0.0
 10
-0.91242
 20
3.67821
 30
0.0
 10
-1.07223
 20
3.51364
 30
0.0
 10
-1.39211
 20
3.51364
 30
0.0
 10
-1.39211
 20
3.51364
 30
0.0
 10
-1.41778
 20
3.51364
 30
0.0
 10
-1.449
 20
3.51681
 30
0.0
 10
-1.48498
 20
3.5229
 30
0.0
 10
-1.48498
 20
3.5229
 30
0.0
 10
-1.52123
 20
3.52925
 30
0.0
 10
-1.55774
 20
3.53851
 30
0.0
 10
-1.59505
 20
3.55068
 30
0.0
 10
-1.59505
 20
3.55068
 30
0.0
 10
-1.59505
 20
3.55068
 30
0.0
 10
-1.59505
 20
3.85972
 30
0.0
 10
-1.59505
 20
3.85972
 30
0.0
 10
-1.59505
 20
3.85972
 30
0.0
 10
-1.56859
 20
3.84172
 30
0.0
 10
-1.53922
 20
3.82717
 30
0.0
 10
-1.50694
 20
3.81606
 30
0.0
 10
-1.50694
 20
3.81606
 30
0.0
 10
-1.47466
 20
3.80495
 30
0.0
 10
-1.44794
 20
3.79939
 30
0.0
 10
-1.42677
 20
3.79939
 30
0.0
 10
-1.42677
 20
3.79939
 30
0.0
 10
-1.36671
 20
3.79939
 30
0.0
 10
-1.32174
 20
3.81791
 30
0.0
 10
-1.2921
 20
3.85469
 30
0.0
 10
-1.2921
 20
3.85469
 30
0.0
 10
-1.2622
 20
3.89173
 30
0.0
 10
-1.24739
 20
3.94888
 30
0.0
 10
-1.24739
 20
4.0264
 30
0.0
 10
-1.24739
 20
4.0264
 30
0.0
 10
-1.24739
 20
4.0264
 30
0.0
 10
-1.24739
 20
4.64394
 30
0.0
 10
-1.24739
 20
4.64394
 30
0.0
 10
-1.24739
 20
4.64394
 30
0.0
 10
-1.24739
 20
4.64394
 30
0.0
 10
-0.91242
 20
4.64394
 30
0.0
 10
-0.91242
 20
4.64394
 30
0.0
 10
-0.91242
 20
4.64394
 30
0.0
 10
-0.91242
 20
4.64394
 30
0.0
 10
-0.91242
 20
4.00709
 30
0.0
 10
-0.91242
 20
4.00709
 30
0.0
  0
SPLINE
  5
50
330
1F
100
AcDbEntity
  8
Layer 1
 62
     5
370
    53
100
AcDbSpline
210
0.0
220
0.0
230
1.0
 70
    11
 71
     3
 72
    72
 73
    68
 74
     0
 42
0.0000000001
 43
0.0000000001
 12
1.0
 22
0.0
 32
0.0
 13
1.0
 23
0.0
 33
0.0
 40
0.0
 40
0.0
 40
0.0
 40
0.0
 40
0.0555555555555556
 40
0.0555555555555556
 40
0.0555555555555556
 40
0.0555555555555556
 40
0.1111111111111111
 40
0.1111111111111111
 40
0.1111111111111111
 40
0.1111111111111111
 40
0.1666666666666667
 40
0.1666666666666667
 40
0.1666666666666667
 40
0.1666666666666667
 40
0.2222222222222222
 40
0.2222222222222222
 40
0.2222222222222222
 40
0.2222222222222222
 40
0.2777777777777778
 40
0.2777777777777778
 40
0.2777777777777778
 40
0.2777777777777778
 40
0.3333333333333333
 40
0.3333333333333333
 40
0.3333333333333333
 40
0.3333333333333333
 40
0.3888888888888889
 40
0.3888888888888889
 40
0.3888888888888889
 40
0.3888888888888889
 40
0.4444444444444444
 40
0.4444444444444444
 40
0.4444444444444444
 40
0.4444444444444444
 40
0.5
 40
0.5
 40
0.5
 40
0.5
 40
0.5555555555555556
 40
0.5555555555555556
 40
0.5555555555555556
 40
0.5555555555555556
 40
0.6111111111111112
 40
0.6111111111111112
 40
0.6111111111111112
 40
0.6111111111111112
 40
0.6666666666666666
 40
0.6666666666666666
 40
0.6666666666666666
 40
0.6666666666666666
 40
0.7222222222222222
 40
0.7222222222222222
 40
0.7222222222222222
 40
0.7222222222222222
 40
0.7777777777777778
 40
0.7777777777777778
 40
0.7777777777777778
 40
0.7777777777777778
 40
0.8333333333333334
 40
0.8333333333333334
 40
0.8333333333333334
 40
0.8333333333333334
 40
0.8888888888888888
 40
0.8888888888888888
 40
0.8888888888888888
 40
0.8888888888888888
 40
1.0
 40
1.0
 40
1.0
 40
1.0
 10
-0.23112
 20
3.53269
 30
0.0
 10
-0.23112
 20
3.53269
 30
0.0
 10
-0.23112
 20
3.65493
 30
0.0
 10
-0.23112
 20
3.65493
 30
0.0
 10
-0.23112
 20
3.65493
 30
0.0
 10
-0.23112
 20
3.65493
 30
0.0
 10
-0.23429
 20
3.65493
 30
0.0
 10
-0.23429
 20
3.65493
 30
0.0
 10
-0.23429
 20
3.65493
 30
0.0
 10
-0.26155
 20
3.61736
 30
0.0
 10
-0.28615
 20
3.58984
 30
0.0
 10
-0.30811
 20
3.57238
 30
0.0
 10
-0.30811
 20
3.57238
 30
0.0
 10
-0.33007
 20
3.55492
 30
0.0
 10
-0.35494
 20
3.54063
 30
0.0
 10
-0.38246
 20
3.52978
 30
0.0
 10
-0.38246
 20
3.52978
 30
0.0
 10
-0.41024
 20
3.51893
 30
0.0
 10
-0.44226
 20
3.51364
 30
0.0
 10
-0.47903
 20
3.51364
 30
0.0
 10
-0.47903
 20
3.51364
 30
0.0
 10
-0.56582
 20
3.51364
 30
0.0
 10
-0.63196
 20
3.54169
 30
0.0
 10
-0.67721
 20
3.59804
 30
0.0
 10
-0.67721
 20
3.59804
 30
0.0
 10
-0.72272
 20
3.6544
 30
0.0
 10
-0.74547
 20
3.73748
 30
0.0
 10
-0.74547
 20
3.84754
 30
0.0
 10
-0.74547
 20
3.84754
 30
0.0
 10
-0.74547
 20
3.84754
 30
0.0
 10
-0.74547
 20
4.32644
 30
0.0
 10
-0.74547
 20
4.32644
 30
0.0
 10
-0.74547
 20
4.32644
 30
0.0
 10
-0.74547
 20
4.32644
 30
0.0
 10
-0.41527
 20
4.32644
 30
0.0
 10
-0.41527
 20
4.32644
 30
0.0
 10
-0.41527
 20
4.32644
 30
0.0
 10
-0.41527
 20
4.32644
 30
0.0
 10
-0.41527
 20
3.87215
 30
0.0
 10
-0.41527
 20
3.87215
 30
0.0
 10
-0.41527
 20
3.87215
 30
0.0
 10
-0.41527
 20
3.7941
 30
0.0
 10
-0.38617
 20
3.75494
 30
0.0
 10
-0.32796
 20
3.75494
 30
0.0
 10
-0.32796
 20
3.75494
 30
0.0
 10
-0.29594
 20
3.75494
 30
0.0
 10
-0.27187
 20
3.76552
 30
0.0
 10
-0.25546
 20
3.78669
 30
0.0
 10
-0.25546
 20
3.78669
 30
0.0
 10
-0.23932
 20
3.80786
 30
0.0
 10
-0.23112
 20
3.83802
 30
0.0
 10
-0.23112
 20
3.87665
 30
0.0
 10
-0.23112
 20
3.87665
 30
0.0
 10
-0.23112
 20
3.87665
 30
0.0
 10
-0.23112
 20
4.32644
 30
0.0
 10
-0.23112
 20
4.32644
 30
0.0
 10
-0.23112
 20
4.32644
 30
0.0
 10
-0.23112
 20
4.32644
 30
0.0
 10
0.09908
 20
4.32644
 30
0.0
 10
0.09908
 20
4.32644
 30
0.0
 10
0.09908
 20
4.32644
 30
0.0
 10
0.09908
 20
4.32644
 30
0.0
 10
0.09908
 20
3.53269
 30
0.0
 10
0.09908
 20
3.53269
 30
0.0
 10
0.09908
 20
3.53269
 30
0.0
 10
0.09908
 20
3.53269
 30
0.0
 10
-0.23112
 20
3.53269
 30
0.0
 10
-0.23112
 20
3.53269
 30
0.0
  0
SPLINE
  5
51
330
1F
100
AcDbEntity
  8
Layer 1
 62
     5
370
    53
100
AcDbSpline
210
0.0
220
0.0
230
1.0
 70
    11
 71
     3
 72
    20
 73
    16
 74
     0
 42
0.0000000001
 43
0.0000000001
 12
1.0
 22
0.0
 32
0.0
 13
1.0
 23
0.0
 33
0.0
 40
0.0
 40
0.0
 40
0.0
 40
0.0
 40
0.2
 40
0.2
 40
0.2
 40
0.2
 40
0.4
 40
0.4
 40
0.4
 40
0.4
 40
0.6
 40
0.6
 40
0.6
 40
0.6
 40
1.0
 40
1.0
 40
1.0
 40
1.0
 10
0.25784
 20
3.53269
 30
0.0
 10
0.25784
 20
3.53269
 30
0.0
 10
0.25784
 20
4.70744
 30
0.0
 10
0.25784
 20
4.70744
 30
0.0
 10
0.25784
 20
4.70744
 30
0.0
 10
0.25784
 20
4.70744
 30
0.0
 10
0.58804
 20
4.70744
 30
0.0
 10
0.58804
 20
4.70744
 30
0.0
 10
0.58804
 20
4.70744
 30
0.0
 10
0.58804
 20
4.70744
 30
0.0
 10
0.58804
 20
3.53269
 30
0.0
 10
0.58804
 20
3.53269
 30
0.0
 10
0.58804
 20
3.53269
 30
0.0
 10
0.58804
 20
3.53269
 30
0.0
 10
0.25784
 20
3.53269
 30
0.0
 10
0.25784
 20
3.53269
 30
0.0
  0
SPLINE
  5
52
330
1F
100
AcDbEntity
  8
Layer 1
 62
     5
370
    53
100
AcDbSpline
210
0.0
220
0.0
230
1.0
 70
    11
 71
     3
 72
    76
 73
    72
 74
     0
 42
0.0000000001
 43
0.0000000001
 12
1.0
 22
0.0
 32
0.0
 13
1.0
 23
0.0
 33
0.0
 40
0.0
 40
0.0
 40
0.0
 40
0.0
 40
0.0526315789473684
 40
0.0526315789473684
 40
0.0526315789473684
 40
0.0526315789473684
 40
0.1052631578947368
 40
0.1052631578947368
 40
0.1052631578947368
 40
0.1052631578947368
 40
0.1578947368421053
 40
0.1578947368421053
 40
0.1578947368421053
 40
0.1578947368421053
 40
0.2105263157894737
 40
0.2105263157894737
 40
0.2105263157894737
 40
0.2105263157894737
 40
0.2631578947368421
 40
0.2631578947368421
 40
0.2631578947368421
 40
0.2631578947368421
 40
0.3157894736842105
 40
0.3157894736842105
 40
0.3157894736842105
 40
0.3157894736842105
 40
0.3684210526315789
 40
0.3684210526315789
 40
0.3684210526315789
 40
0.3684210526315789
 40
0.4210526315789473
 40
0.4210526315789473
 40
0.4210526315789473
 40
0.4210526315789473
 40
0.4736842105263158
 40
0.4736842105263158
 40
0.4736842105263158
 40
0.4736842105263158
 40
0.5263157894736842
 40
0.5263157894736842
 40
0.5263157894736842
 40
0.5263157894736842
 40
0.5789473684210527
 40
0.5789473684210527
 40
0.5789473684210527
 40
0.5789473684210527
 40
0.631578947368421
 40
0.631578947368421
 40
0.631578947368421
 40
0.631578947368421
 40
0.6842105263157895
 40
0.6842105263157895
 40
0.6842105263157895
 40
0.6842105263157895
 40
0.7368421052631579
 40
0.7368421052631579
 40
0.7368421052631579
 40
0.7368421052631579
 40
0.7894736842105263
 40
0.7894736842105263
 40
0.7894736842105263
 40
0.7894736842105263
 40
0.8421052631578947
 40
0.8421052631578947
 40
0.8421052631578947
 40
0.8421052631578947
 40
0.8947368421052632
 40
0.8947368421052632
 40
0.8947368421052632
 40
0.8947368421052632
 40
1.0
 40
1.0
 40
1.0
 40
1.0
 10
0.90103
 20
3.15963
 30
0.0
 10
0.87008
 20
3.15963
 30
0.0
 10
0.83674
 20
3.16227
 30
0.0
 10
0.80102
 20
3.16783
 30
0.0
 10
0.80102
 20
3.16783
 30
0.0
 10
0.76557
 20
3.17312
 30
0.0
 10
0.73355
 20
3.18106
 30
0.0
 10
0.70577
 20
3.19138
 30
0.0
 10
0.70577
 20
3.19138
 30
0.0
 10
0.70577
 20
3.19138
 30
0.0
 10
0.70577
 20
3.44061
 30
0.0
 10
0.70577
 20
3.44061
 30
0.0
 10
0.70577
 20
3.44061
 30
0.0
 10
0.71873
 20
3.43083
 30
0.0
 10
0.73778
 20
3.42156
 30
0.0
 10
0.76345
 20
3.41336
 30
0.0
 10
0.76345
 20
3.41336
 30
0.0
 10
0.78885
 20
3.40516
 30
0.0
 10
0.81319
 20
3.40093
 30
0.0
 10
0.83568
 20
3.40093
 30
0.0
 10
0.83568
 20
3.40093
 30
0.0
 10
0.89706
 20
3.40093
 30
0.0
 10
0.93781
 20
3.42527
 30
0.0
 10
0.95792
 20
3.47369
 30
0.0
 10
0.95792
 20
3.47369
 30
0.0
 10
0.95792
 20
3.47369
 30
0.0
 10
0.98358
 20
3.53587
 30
0.0
 10
0.98358
 20
3.53587
 30
0.0
 10
0.98358
 20
3.53587
 30
0.0
 10
0.98358
 20
3.53587
 30
0.0
 10
0.65179
 20
4.32644
 30
0.0
 10
0.65179
 20
4.32644
 30
0.0
 10
0.65179
 20
4.32644
 30
0.0
 10
0.65179
 20
4.32644
 30
0.0
 10
1.01692
 20
4.32644
 30
0.0
 10
1.01692
 20
4.32644
 30
0.0
 10
1.01692
 20
4.32644
 30
0.0
 10
1.01692
 20
4.32644
 30
0.0
 10
1.11323
 20
3.94359
 30
0.0
 10
1.11323
 20
3.94359
 30
0.0
 10
1.11323
 20
3.94359
 30
0.0
 10
1.13175
 20
3.87215
 30
0.0
 10
1.1418
 20
3.82426
 30
0.0
 10
1.14339
 20
3.79939
 30
0.0
 10
1.14339
 20
3.79939
 30
0.0
 10
1.14339
 20
3.79939
 30
0.0
 10
1.14657
 20
3.79939
 30
0.0
 10
1.14657
 20
3.79939
 30
0.0
 10
1.14657
 20
3.79939
 30
0.0
 10
1.14815
 20
3.81077
 30
0.0
 10
1.15027
 20
3.82347
 30
0.0
 10
1.15318
 20
3.83749
 30
0.0
 10
1.15318
 20
3.83749
 30
0.0
 10
1.15609
 20
3.85125
 30
0.0
 10
1.19631
 20
4.01423
 30
0.0
 10
1.27383
 20
4.32644
 30
0.0
 10
1.27383
 20
4.32644
 30
0.0
 10
1.27383
 20
4.32644
 30
0.0
 10
1.59477
 20
4.32644
 30
0.0
 10
1.59477
 20
4.32644
 30
0.0
 10
1.59477
 20
4.32644
 30
0.0
 10
1.59477
 20
4.32644
 30
0.0
 10
1.30267
 20
3.50994
 30
0.0
 10
1.30267
 20
3.50994
 30
0.0
 10
1.30267
 20
3.50994
 30
0.0
 10
1.25875
 20
3.38505
 30
0.0
 10
1.20425
 20
3.29536
 30
0.0
 10
1.13942
 20
3.24112
 30
0.0
 10
1.13942
 20
3.24112
 30
0.0
 10
1.0746
 20
3.18688
 30
0.0
 10
0.99522
 20
3.15963
 30
0.0
 10
0.90103
 20
3.15963
 30
0.0
  0
SPLINE
  5
53
330
1F
100
AcDbEntity
  8
Layer 1
370
    53
100
AcDbSpline
210
0.0
220
0.0
230
1.0
 70
    11
 71
     3
 72
    36
 73
    32
 74
     0
 42
0.0000000001
 43
0.0000000001
 12
1.0
 22
0.0
 32
0.0
 13
1.0
 23
0.0
 33
0.0
 40
0.0
 40
0.0
 40
0.0
 40
0.0
 40
0.1111111111111111
 40
0.1111111111111111
 40
0.1111111111111111
 40
0.1111111111111111
 40
0.2222222222222222
 40
0.2222222222222222
 40
0.2222222222222222
 40
0.2222222222222222
 40
0.3333333333333333
 40
0.3333333333333333
 40
0.3333333333333333
 40
0.3333333333333333
 40
0.4444444444444444
 40
0.4444444444444444
 40
0.4444444444444444
 40
0.4444444444444444
 40
0.5555555555555556
 40
0.5555555555555556
 40
0.5555555555555556
 40
0.5555555555555556
 40
0.6666666666666666
 40
0.6666666666666666
 40
0.6666666666666666
 40
0.6666666666666666
 40
0.7777777777777778
 40
0.7777777777777778
 40
0.7777777777777778
 40
0.7777777777777778
 40
1.0
 40
1.0
 40
1.0
 40
1.0
 10
-5.2
 20
-1.7
 30
0.0
 10
-5.2
 20
-1.7
 30
0.0
 10
-5.2
 20
1.7
 30
0.0
 10
-5.2
 20
1.7
 30
0.0
 10
-5.2
 20
1.7
 30
0.0
 10
-5.2
 20
1.97614
 30
0.0
 10
-4.97614
 20
2.2
 30
0.0
 10
-4.7
 20
2.2
 30
0.0
 10
-4.7
 20
2.2
 30
0.0
 10
-4.7
 20
2.2
 30
0.0
 10
4.7
 20
2.2
 30
0.0
 10
4.7
 20
2.2
 30
0.0
 10
4.7
 20
2.2
 30
0.0
 10
4.97614
 20
2.2
 30
0.0
 10
5.2
 20
1.97614
 30
0.0
 10
5.2
 20
1.7
 30
0.0
 10
5.2
 20
1.7
 30
0.0
 10
5.2
 20
1.7
 30
0.0
 10
5.2
 20
-1.7
 30
0.0
 10
5.2
 20
-1.7
 30
0.0
 10
5.2
 20
-1.7
 30
0.0
 10
5.2
 20
-1.97614
 30
0.0
 10
4.97614
 20
-2.2
 30
0.0
 10
4.7
 20
-2.2
 30
0.0
 10
4.7
 20
-2.2
 30
0.0
 10
4.7
 20
-2.2
 30
0.0
 10
-4.7
 20
-2.2
 30
0.0
 10
-4.7
 20
-2.2
 30
0.0
 10
-4.7
 20
-2.2
 30
0.0
 10
-4.97614
 20
-2.2
 30
0.0
 10
-5.2
 20
-1.97614
 30
0.0
 10
-5.2
 20
-1.7
 30
0.0
  0
ELLIPSE
  5
54
330
1F
100
AcDbEntity
  8
Layer 1
370
    53
100
AcDbEllipse
 10
3.00001
 20
1.49999
 30
0.0
 11
0.0
 21
0.30001
 31
0.0
210
0.0
220
0.0
230
1.0
 40
1.0
 41
0.0
 42
6.283185307179586
  0
ELLIPSE
  5
55
330
1F
100
AcDbEntity
  8
Layer 1
370
    53
100
AcDbEllipse
 10
4.50001
 20
1.49999
 30
0.0
 11
0.0
 21
0.30001
 31
0.0
210
0.0
220
0.0
230
1.0
 40
1.0
 41
0.0
 42
6.283185307179586
  0
ELLIPSE
  5
56
330
1F
100
AcDbEntity
  8
Layer 1
370
    53
100
AcDbEllipse
 10
2.25
 20
1.5
 30
0.0
 11
0.0
 21
0.15
 31
0.0
210
0.0
220
0.0
230
1.0
 40
1.0
 41
0.0
 42
6.283185307179586
  0
ELLIPSE
  5
57
330
1F
100
AcDbEntity
  8
Layer 1
370
    53
100
AcDbEllipse
 10
3.75
 20
1.5
 30
0.0
 11
0.0
 21
0.15
 31
0.0
210
0.0
220
0.0
230
1.0
 40
1.0
 41
0.0
 42
6.283185307179586
  0
ELLIPSE
  5
58
330
1F
100
AcDbEntity
  8
Layer 1
370
    53
100
AcDbEllipse
 10
1.50001
 20
1.49999
 30
0.0
 11
0.0
 21
0.30001
 31
0.0
210
0.0
220
0.0
230
1.0
 40
1.0
 41
0.0
 42
6.283185307179586
  0
ELLIPSE
  5
59
330
1F
100
AcDbEntity
  8
Layer 1
370
    53
100
AcDbEllipse
 10
0.75
 20
1.5
 30
0.0
 11
0.0
 21
0.15
 31
0.0
210
0.0
220
0.0
230
1.0
 40
1.0
 41
0.0
 42
6.283185307179586
  0
ELLIPSE
  5
5A
330
1F
100
AcDbEntity
  8
Layer 1
370
    53
100
AcDbEllipse
 10
0.00001
 20
1.49999
 30
0.0
 11
0.0
 21
0.30001
 31
0.0
210
0.0
220
0.0
230
1.0
 40
1.0
 41
0.0
 42
6.283185307179586
  0
ELLIPSE
  5
5B
330
1F
100
AcDbEntity
  8
Layer 1
370
    53
100
AcDbEllipse
 10
-0.75
 20
1.5
 30
0.0
 11
0.0
 21
0.15
 31
0.0
210
0.0
220
0.0
230
1.0
 40
1.0
 41
0.0
 42
6.283185307179586
  0
ELLIPSE
  5
5C
330
1F
100
AcDbEntity
  8
Layer 1
370
    53
100
AcDbEllipse
 10
-1.49999
 20
1.49999
 30
0.0
 11
0.0
 21
0.30001
 31
0.0
210
0.0
220
0.0
230
1.0
 40
1.0
 41
0.0
 42
6.283185307179586
  0
ELLIPSE
  5
5D
330
1F
100
AcDbEntity
  8
Layer 1
370
    53
100
AcDbEllipse
 10
-2.25
 20
1.5
 30
0.0
 11
0.0
 21
0.15
 31
0.0
210
0.0
220
0.0
230
1.0
 40
1.0
 41
0.0
 42
6.283185307179586
  0
ELLIPSE
  5
5E
330
1F
100
AcDbEntity
  8
Layer 1
370
    53
100
AcDbEllipse
 10
-2.99999
 20
1.49999
 30
0.0
 11
0.0
 21
0.30001
 31
0.0
210
0.0
220
0.0
230
1.0
 40
1.0
 41
0.0
 42
6.283185307179586
  0
ELLIPSE
  5
5F
330
1F
100
AcDbEntity
  8
Layer 1
370
    53
100
AcDbEllipse
 10
-3.75
 20
1.5
 30
0.0
 11
0.0
 21
0.15
 31
0.0
210
0.0
220
0.0
230
1.0
 40
1.0
 41
0.0
 42
6.283185307179586
  0
ELLIPSE
  5
60
330
1F
100
AcDbEntity
  8
Layer 1
370
    53
100
AcDbEllipse
 10
-4.49999
 20
1.49999
 30
0.0
 11
0.0
 21
0.30001
 31
0.0
210
0.0
220
0.0
230
1.0
 40
1.0
 41
0.0
 42
6.283185307179586
  0
SPLINE
  5
61
330
1F
100
AcDbEntity
  8
Layer 1
 62
     5
370
    53
100
AcDbSpline
210
0.0
220
0.0
230
1.0
 70
    11
 71
     3
 72
    36
 73
    32
 74
     0
 42
0.0000000001
 43
0.0000000001
 12
1.0
 22
0.0
 32
0.0
 13
1.0
 23
0.0
 33
0.0
 40
0.0
 40
0.0
 40
0.0
 40
0.0
 40
0.1111111111111111
 40
0.1111111111111111
 40
0.1111111111111111
 40
0.1111111111111111
 40
0.2222222222222222
 40
0.2222222222222222
 40
0.2222222222222222
 40
0.2222222222222222
 40
0.3333333333333333
 40
0.3333333333333333
 40
0.3333333333333333
 40
0.3333333333333333
 40
0.4444444444444444
 40
0.4444444444444444
 40
0.4444444444444444
 40
0.4444444444444444
 40
0.5555555555555556
 40
0.5555555555555556
 40
0.5555555555555556
 40
0.5555555555555556
 40
0.6666666666666666
 40
0.6666666666666666
 40
0.6666666666666666
 40
0.6666666666666666
 40
0.7777777777777778
 40
0.7777777777777778
 40
0.7777777777777778
 40
0.7777777777777778
 40
1.0
 40
1.0
 40
1.0
 40
1.0
 10
-2.03043
 20
-0.96731
 30
0.0
 10
-2.03043
 20
-0.96731
 30
0.0
 10
-2.07938
 20
-0.76252
 30
0.0
 10
-2.07938
 20
-0.76252
 30
0.0
 10
-2.07938
 20
-0.76252
 30
0.0
 10
-2.07938
 20
-0.76252
 30
0.0
 10
-2.41117
 20
-0.76252
 30
0.0
 10
-2.41117
 20
-0.76252
 30
0.0
 10
-2.41117
 20
-0.76252
 30
0.0
 10
-2.41117
 20
-0.76252
 30
0.0
 10
-2.46382
 20
-0.96731
 30
0.0
 10
-2.46382
 20
-0.96731
 30
0.0
 10
-2.46382
 20
-0.96731
 30
0.0
 10
-2.46382
 20
-0.96731
 30
0.0
 10
-2.82577
 20
-0.96731
 30
0.0
 10
-2.82577
 20
-0.96731
 30
0.0
 10
-2.82577
 20
-0.96731
 30
0.0
 10
-2.82577
 20
-0.96731
 30
0.0
 10
-2.44292
 20
0.14394
 30
0.0
 10
-2.44292
 20
0.14394
 30
0.0
 10
-2.44292
 20
0.14394
 30
0.0
 10
-2.44292
 20
0.14394
 30
0.0
 10
-2.02725
 20
0.14394
 30
0.0
 10
-2.02725
 20
0.14394
 30
0.0
 10
-2.02725
 20
0.14394
 30
0.0
 10
-2.02725
 20
0.14394
 30
0.0
 10
-1.66689
 20
-0.96731
 30
0.0
 10
-1.66689
 20
-0.96731
 30
0.0
 10
-1.66689
 20
-0.96731
 30
0.0
 10
-1.66689
 20
-0.96731
 30
0.0
 10
-2.03043
 20
-0.96731
 30
0.0
 10
-2.03043
 20
-0.96731
 30
0.0
  0
SPLINE
  5
62
330
1F
100
AcDbEntity
  8
Layer 1
 62
     5
370
    53
100
AcDbSpline
210
0.0
220
0.0
230
1.0
 70
    11
 71
     3
 72
    28
 73
    24
 74
     0
 42
0.0000000001
 43
0.0000000001
 12
1.0
 22
0.0
 32
0.0
 13
1.0
 23
0.0
 33
0.0
 40
0.0
 40
0.0
 40
0.0
 40
0.0
 40
0.1428571428571428
 40
0.1428571428571428
 40
0.1428571428571428
 40
0.1428571428571428
 40
0.2857142857142857
 40
0.2857142857142857
 40
0.2857142857142857
 40
0.2857142857142857
 40
0.4285714285714285
 40
0.4285714285714285
 40
0.4285714285714285
 40
0.4285714285714285
 40
0.5714285714285714
 40
0.5714285714285714
 40
0.5714285714285714
 40
0.5714285714285714
 40
0.7142857142857143
 40
0.7142857142857143
 40
0.7142857142857143
 40
0.7142857142857143
 40
1.0
 40
1.0
 40
1.0
 40
1.0
 10
-2.24183
 20
-0.09736
 30
0.0
 10
-2.24183
 20
-0.09736
 30
0.0
 10
-2.2495
 20
-0.09736
 30
0.0
 10
-2.2495
 20
-0.09736
 30
0.0
 10
-2.2495
 20
-0.09736
 30
0.0
 10
-2.25056
 20
-0.1098
 30
0.0
 10
-2.254
 20
-0.13017
 30
0.0
 10
-2.26035
 20
-0.15848
 30
0.0
 10
-2.26035
 20
-0.15848
 30
0.0
 10
-2.26644
 20
-0.18705
 30
0.0
 10
-2.29792
 20
-0.30903
 30
0.0
 10
-2.35428
 20
-0.5244
 30
0.0
 10
-2.35428
 20
-0.5244
 30
0.0
 10
-2.35428
 20
-0.5244
 30
0.0
 10
-2.14155
 20
-0.5244
 30
0.0
 10
-2.14155
 20
-0.5244
 30
0.0
 10
-2.14155
 20
-0.5244
 30
0.0
 10
-2.14155
 20
-0.5244
 30
0.0
 10
-2.21908
 20
-0.22224
 30
0.0
 10
-2.21908
 20
-0.22224
 30
0.0
 10
-2.21908
 20
-0.22224
 30
0.0
 10
-2.22993
 20
-0.17779
 30
0.0
 10
-2.2376
 20
-0.13599
 30
0.0
 10
-2.24183
 20
-0.09736
 30
0.0
  0
SPLINE
  5
63
330
1F
100
AcDbEntity
  8
Layer 1
 62
     5
370
    53
100
AcDbSpline
210
0.0
220
0.0
230
1.0
 70
    11
 71
     3
 72
    72
 73
    68
 74
     0
 42
0.0000000001
 43
0.0000000001
 12
1.0
 22
0.0
 32
0.0
 13
1.0
 23
0.0
 33
0.0
 40
0.0
 40
0.0
 40
0.0
 40
0.0
 40
0.0555555555555556
 40
0.0555555555555556
 40
0.0555555555555556
 40
0.0555555555555556
 40
0.1111111111111111
 40
0.1111111111111111
 40
0.1111111111111111
 40
0.1111111111111111
 40
0.1666666666666667
 40
0.1666666666666667
 40
0.1666666666666667
 40
0.1666666666666667
 40
0.2222222222222222
 40
0.2222222222222222
 40
0.2222222222222222
 40
0.2222222222222222
 40
0.2777777777777778
 40
0.2777777777777778
 40
0.2777777777777778
 40
0.2777777777777778
 40
0.3333333333333333
 40
0.3333333333333333
 40
0.3333333333333333
 40
0.3333333333333333
 40
0.3888888888888889
 40
0.3888888888888889
 40
0.3888888888888889
 40
0.3888888888888889
 40
0.4444444444444444
 40
0.4444444444444444
 40
0.4444444444444444
 40
0.4444444444444444
 40
0.5
 40
0.5
 40
0.5
 40
0.5
 40
0.5555555555555556
 40
0.5555555555555556
 40
0.5555555555555556
 40
0.5555555555555556
 40
0.6111111111111112
 40
0.6111111111111112
 40
0.6111111111111112
 40
0.6111111111111112
 40
0.6666666666666666
 40
0.6666666666666666
 40
0.6666666666666666
 40
0.6666666666666666
 40
0.7222222222222222
 40
0.7222222222222222
 40
0.7222222222222222
 40
0.7222222222222222
 40
0.7777777777777778
 40
0.7777777777777778
 40
0.7777777777777778
 40
0.7777777777777778
 40
0.8333333333333334
 40
0.8333333333333334
 40
0.8333333333333334
 40
0.8333333333333334
 40
0.8888888888888888
 40
0.8888888888888888
 40
0.8888888888888888
 40
0.8888888888888888
 40
1.0
 40
1.0
 40
1.0
 40
1.0
 10
-1.06205
 20
-0.96731
 30
0.0
 10
-1.06205
 20
-0.96731
 30
0.0
 10
-1.06205
 20
-0.84507
 30
0.0
 10
-1.06205
 20
-0.84507
 30
0.0
 10
-1.06205
 20
-0.84507
 30
0.0
 10
-1.06205
 20
-0.84507
 30
0.0
 10
-1.06522
 20
-0.84507
 30
0.0
 10
-1.06522
 20
-0.84507
 30
0.0
 10
-1.06522
 20
-0.84507
 30
0.0
 10
-1.09248
 20
-0.88264
 30
0.0
 10
-1.11708
 20
-0.91016
 30
0.0
 10
-1.13904
 20
-0.92762
 30
0.0
 10
-1.13904
 20
-0.92762
 30
0.0
 10
-1.161
 20
-0.94508
 30
0.0
 10
-1.18587
 20
-0.95937
 30
0.0
 10
-1.21339
 20
-0.97022
 30
0.0
 10
-1.21339
 20
-0.97022
 30
0.0
 10
-1.24117
 20
-0.98107
 30
0.0
 10
-1.27319
 20
-0.98636
 30
0.0
 10
-1.30996
 20
-0.98636
 30
0.0
 10
-1.30996
 20
-0.98636
 30
0.0
 10
-1.39675
 20
-0.98636
 30
0.0
 10
-1.46289
 20
-0.95831
 30
0.0
 10
-1.50814
 20
-0.90196
 30
0.0
 10
-1.50814
 20
-0.90196
 30
0.0
 10
-1.55365
 20
-0.8456
 30
0.0
 10
-1.5764
 20
-0.76252
 30
0.0
 10
-1.5764
 20
-0.65246
 30
0.0
 10
-1.5764
 20
-0.65246
 30
0.0
 10
-1.5764
 20
-0.65246
 30
0.0
 10
-1.5764
 20
-0.17356
 30
0.0
 10
-1.5764
 20
-0.17356
 30
0.0
 10
-1.5764
 20
-0.17356
 30
0.0
 10
-1.5764
 20
-0.17356
 30
0.0
 10
-1.2462
 20
-0.17356
 30
0.0
 10
-1.2462
 20
-0.17356
 30
0.0
 10
-1.2462
 20
-0.17356
 30
0.0
 10
-1.2462
 20
-0.17356
 30
0.0
 10
-1.2462
 20
-0.62785
 30
0.0
 10
-1.2462
 20
-0.62785
 30
0.0
 10
-1.2462
 20
-0.62785
 30
0.0
 10
-1.2462
 20
-0.7059
 30
0.0
 10
-1.2171
 20
-0.74506
 30
0.0
 10
-1.15889
 20
-0.74506
 30
0.0
 10
-1.15889
 20
-0.74506
 30
0.0
 10
-1.12687
 20
-0.74506
 30
0.0
 10
-1.1028
 20
-0.73448
 30
0.0
 10
-1.08639
 20
-0.71331
 30
0.0
 10
-1.08639
 20
-0.71331
 30
0.0
 10
-1.07025
 20
-0.69214
 30
0.0
 10
-1.06205
 20
-0.66198
 30
0.0
 10
-1.06205
 20
-0.62335
 30
0.0
 10
-1.06205
 20
-0.62335
 30
0.0
 10
-1.06205
 20
-0.62335
 30
0.0
 10
-1.06205
 20
-0.17356
 30
0.0
 10
-1.06205
 20
-0.17356
 30
0.0
 10
-1.06205
 20
-0.17356
 30
0.0
 10
-1.06205
 20
-0.17356
 30
0.0
 10
-0.73185
 20
-0.17356
 30
0.0
 10
-0.73185
 20
-0.17356
 30
0.0
 10
-0.73185
 20
-0.17356
 30
0.0
 10
-0.73185
 20
-0.17356
 30
0.0
 10
-0.73185
 20
-0.96731
 30
0.0
 10
-0.73185
 20
-0.96731
 30
0.0
 10
-0.73185
 20
-0.96731
 30
0.0
 10
-0.73185
 20
-0.96731
 30
0.0
 10
-1.06205
 20
-0.96731
 30
0.0
 10
-1.06205
 20
-0.96731
 30
0.0
  0
SPLINE
  5
64
330
1F
100
AcDbEntity
  8
Layer 1
 62
     5
370
    53
100
AcDbSpline
210
0.0
220
0.0
230
1.0
 70
    11
 71
     3
 72
    96
 73
    92
 74
     0
 42
0.0000000001
 43
0.0000000001
 12
1.0
 22
0.0
 32
0.0
 13
1.0
 23
0.0
 33
0.0
 40
0.0
 40
0.0
 40
0.0
 40
0.0
 40
0.0416666666666667
 40
0.0416666666666667
 40
0.0416666666666667
 40
0.0416666666666667
 40
0.0833333333333333
 40
0.0833333333333333
 40
0.0833333333333333
 40
0.0833333333333333
 40
0.125
 40
0.125
 40
0.125
 40
0.125
 40
0.1666666666666667
 40
0.1666666666666667
 40
0.1666666666666667
 40
0.1666666666666667
 40
0.2083333333333333
 40
0.2083333333333333
 40
0.2083333333333333
 40
0.2083333333333333
 40
0.25
 40
0.25
 40
0.25
 40
0.25
 40
0.2916666666666667
 40
0.2916666666666667
 40
0.2916666666666667
 40
0.2916666666666667
 40
0.3333333333333333
 40
0.3333333333333333
 40
0.3333333333333333
 40
0.3333333333333333
 40
0.375
 40
0.375
 40
0.375
 40
0.375
 40
0.4166666666666667
 40
0.4166666666666667
 40
0.4166666666666667
 40
0.4166666666666667
 40
0.4583333333333333
 40
0.4583333333333333
 40
0.4583333333333333
 40
0.4583333333333333
 40
0.5
 40
0.5
 40
0.5
 40
0.5
 40
0.5416666666666666
 40
0.5416666666666666
 40
0.5416666666666666
 40
0.5416666666666666
 40
0.5833333333333334
 40
0.5833333333333334
 40
0.5833333333333334
 40
0.5833333333333334
 40
0.625
 40
0.625
 40
0.625
 40
0.625
 40
0.6666666666666666
 40
0.6666666666666666
 40
0.6666666666666666
 40
0.6666666666666666
 40
0.7083333333333334
 40
0.7083333333333334
 40
0.7083333333333334
 40
0.7083333333333334
 40
0.75
 40
0.75
 40
0.75
 40
0.75
 40
0.7916666666666666
 40
0.7916666666666666
 40
0.7916666666666666
 40
0.7916666666666666
 40
0.8333333333333334
 40
0.8333333333333334
 40
0.8333333333333334
 40
0.8333333333333334
 40
0.875
 40
0.875
 40
0.875
 40
0.875
 40
0.9166666666666666
 40
0.9166666666666666
 40
0.9166666666666666
 40
0.9166666666666666
 40
1.0
 40
1.0
 40
1.0
 40
1.0
 10
0.28733
 20
-0.85645
 30
0.0
 10
0.28733
 20
-1.00911
 30
0.0
 10
0.23944
 20
-1.12791
 30
0.0
 10
0.1434
 20
-1.21284
 30
0.0
 10
0.1434
 20
-1.21284
 30
0.0
 10
0.04762
 20
-1.29777
 30
0.0
 10
-0.09235
 20
-1.34037
 30
0.0
 10
-0.2765
 20
-1.34037
 30
0.0
 10
-0.2765
 20
-1.34037
 30
0.0
 10
-0.32597
 20
-1.34037
 30
0.0
 10
-0.37413
 20
-1.3364
 30
0.0
 10
-0.42069
 20
-1.32873
 30
0.0
 10
-0.42069
 20
-1.32873
 30
0.0
 10
-0.46726
 20
-1.32106
 30
0.0
 10
-0.5006
 20
-1.31233
 30
0.0
 10
-0.52071
 20
-1.30227
 30
0.0
 10
-0.52071
 20
-1.30227
 30
0.0
 10
-0.52071
 20
-1.30227
 30
0.0
 10
-0.52071
 20
-1.04351
 30
0.0
 10
-0.52071
 20
-1.04351
 30
0.0
 10
-0.52071
 20
-1.04351
 30
0.0
 10
-0.48763
 20
-1.06415
 30
0.0
 10
-0.44874
 20
-1.08082
 30
0.0
 10
-0.40429
 20
-1.09325
 30
0.0
 10
-0.40429
 20
-1.09325
 30
0.0
 10
-0.35984
 20
-1.10569
 30
0.0
 10
-0.32042
 20
-1.11177
 30
0.0
 10
-0.28576
 20
-1.11177
 30
0.0
 10
-0.28576
 20
-1.11177
 30
0.0
 10
-0.21167
 20
-1.11177
 30
0.0
 10
-0.15241
 20
-1.09405
 30
0.0
 10
-0.10796
 20
-1.05833
 30
0.0
 10
-0.10796
 20
-1.05833
 30
0.0
 10
-0.06351
 20
-1.02261
 30
0.0
 10
-0.04128
 20
-0.97525
 30
0.0
 10
-0.04128
 20
-0.91625
 30
0.0
 10
-0.04128
 20
-0.91625
 30
0.0
 10
-0.04128
 20
-0.91625
 30
0.0
 10
-0.04128
 20
-0.8673
 30
0.0
 10
-0.04128
 20
-0.8673
 30
0.0
 10
-0.04128
 20
-0.8673
 30
0.0
 10
-0.04128
 20
-0.8673
 30
0.0
 10
-0.04446
 20
-0.8673
 30
0.0
 10
-0.04446
 20
-0.8673
 30
0.0
 10
-0.04446
 20
-0.8673
 30
0.0
 10
-0.06827
 20
-0.90328
 30
0.0
 10
-0.10081
 20
-0.93212
 30
0.0
 10
-0.14235
 20
-0.95382
 30
0.0
 10
-0.14235
 20
-0.95382
 30
0.0
 10
-0.18416
 20
-0.97551
 30
0.0
 10
-0.22861
 20
-0.98636
 30
0.0
 10
-0.27623
 20
-0.98636
 30
0.0
 10
-0.27623
 20
-0.98636
 30
0.0
 10
-0.37863
 20
-0.98636
 30
0.0
 10
-0.45932
 20
-0.95091
 30
0.0
 10
-0.51886
 20
-0.87973
 30
0.0
 10
-0.51886
 20
-0.87973
 30
0.0
 10
-0.57839
 20
-0.80882
 30
0.0
 10
-0.60802
 20
-0.71093
 30
0.0
 10
-0.60802
 20
-0.58605
 30
0.0
 10
-0.60802
 20
-0.58605
 30
0.0
 10
-0.60802
 20
-0.50032
 30
0.0
 10
-0.59241
 20
-0.42465
 30
0.0
 10
-0.56145
 20
-0.35903
 30
0.0
 10
-0.56145
 20
-0.35903
 30
0.0
 10
-0.5305
 20
-0.29342
 30
0.0
 10
-0.48737
 20
-0.24288
 30
0.0
 10
-0.43207
 20
-0.20769
 30
0.0
 10
-0.43207
 20
-0.20769
 30
0.0
 10
-0.37677
 20
-0.17224
 30
0.0
 10
-0.31566
 20
-0.15451
 30
0.0
 10
-0.24898
 20
-0.15451
 30
0.0
 10
-0.24898
 20
-0.15451
 30
0.0
 10
-0.1577
 20
-0.15451
 30
0.0
 10
-0.08944
 20
-0.18838
 30
0.0
 10
-0.04446
 20
-0.25611
 30
0.0
 10
-0.04446
 20
-0.25611
 30
0.0
 10
-0.04446
 20
-0.25611
 30
0.0
 10
-0.04128
 20
-0.25611
 30
0.0
 10
-0.04128
 20
-0.25611
 30
0.0
 10
-0.04128
 20
-0.25611
 30
0.0
 10
-0.04128
 20
-0.25611
 30
0.0
 10
-0.04128
 20
-0.17356
 30
0.0
 10
-0.04128
 20
-0.17356
 30
0.0
 10
-0.04128
 20
-0.17356
 30
0.0
 10
-0.04128
 20
-0.17356
 30
0.0
 10
0.28733
 20
-0.17356
 30
0.0
 10
0.28733
 20
-0.17356
 30
0.0
 10
0.28733
 20
-0.17356
 30
0.0
 10
0.28733
 20
-0.17356
 30
0.0
 10
0.28733
 20
-0.85645
 30
0.0
 10
0.28733
 20
-0.85645
 30
0.0
  0
SPLINE
  5
65
330
1F
100
AcDbEntity
  8
Layer 1
 62
     5
370
    53
100
AcDbSpline
210
0.0
220
0.0
230
1.0
 70
    11
 71
     3
 72
    40
 73
    36
 74
     0
 42
0.0000000001
 43
0.0000000001
 12
1.0
 22
0.0
 32
0.0
 13
1.0
 23
0.0
 33
0.0
 40
0.0
 40
0.0
 40
0.0
 40
0.0
 40
0.1
 40
0.1
 40
0.1
 40
0.1
 40
0.2
 40
0.2
 40
0.2
 40
0.2
 40
0.3
 40
0.3
 40
0.3
 40
0.3
 40
0.4
 40
0.4
 40
0.4
 40
0.4
 40
0.5
 40
0.5
 40
0.5
 40
0.5
 40
0.6
 40
0.6
 40
0.6
 40
0.6
 40
0.7
 40
0.7
 40
0.7
 40
0.7
 40
0.8
 40
0.8
 40
0.8
 40
0.8
 40
1.0
 40
1.0
 40
1.0
 40
1.0
 10
-0.03573
 20
-0.54795
 30
0.0
 10
-0.03573
 20
-0.50138
 30
0.0
 10
-0.04631
 20
-0.46434
 30
0.0
 10
-0.06721
 20
-0.43682
 30
0.0
 10
-0.06721
 20
-0.43682
 30
0.0
 10
-0.08811
 20
-0.40957
 30
0.0
 10
-0.11589
 20
-0.39581
 30
0.0
 10
-0.15056
 20
-0.39581
 30
0.0
 10
-0.15056
 20
-0.39581
 30
0.0
 10
-0.18786
 20
-0.39581
 30
0.0
 10
-0.21749
 20
-0.41248
 30
0.0
 10
-0.23972
 20
-0.44555
 30
0.0
 10
-0.23972
 20
-0.44555
 30
0.0
 10
-0.26194
 20
-0.47862
 30
0.0
 10
-0.27306
 20
-0.52281
 30
0.0
 10
-0.27306
 20
-0.57811
 30
0.0
 10
-0.27306
 20
-0.57811
 30
0.0
 10
-0.27306
 20
-0.62944
 30
0.0
 10
-0.2638
 20
-0.66992
 30
0.0
 10
-0.24528
 20
-0.70008
 30
0.0
 10
-0.24528
 20
-0.70008
 30
0.0
 10
-0.22649
 20
-0.72998
 30
0.0
 10
-0.19712
 20
-0.74506
 30
0.0
 10
-0.15664
 20
-0.74506
 30
0.0
 10
-0.15664
 20
-0.74506
 30
0.0
 10
-0.11907
 20
-0.74506
 30
0.0
 10
-0.08944
 20
-0.72971
 30
0.0
 10
-0.06801
 20
-0.69876
 30
0.0
 10
-0.06801
 20
-0.69876
 30
0.0
 10
-0.04657
 20
-0.66807
 30
0.0
 10
-0.03573
 20
-0.62679
 30
0.0
 10
-0.03573
 20
-0.5752
 30
0.0
 10
-0.03573
 20
-0.5752
 30
0.0
 10
-0.03573
 20
-0.5752
 30
0.0
 10
-0.03573
 20
-0.54795
 30
0.0
 10
-0.03573
 20
-0.54795
 30
0.0
  0
SPLINE
  5
66
330
1F
100
AcDbEntity
  8
Layer 1
 62
     5
370
    53
100
AcDbSpline
210
0.0
220
0.0
230
1.0
 70
    11
 71
     3
 72
    72
 73
    68
 74
     0
 42
0.0000000001
 43
0.0000000001
 12
1.0
 22
0.0
 32
0.0
 13
1.0
 23
0.0
 33
0.0
 40
0.0
 40
0.0
 40
0.0
 40
0.0
 40
0.0555555555555556
 40
0.0555555555555556
 40
0.0555555555555556
 40
0.0555555555555556
 40
0.1111111111111111
 40
0.1111111111111111
 40
0.1111111111111111
 40
0.1111111111111111
 40
0.1666666666666667
 40
0.1666666666666667
 40
0.1666666666666667
 40
0.1666666666666667
 40
0.2222222222222222
 40
0.2222222222222222
 40
0.2222222222222222
 40
0.2222222222222222
 40
0.2777777777777778
 40
0.2777777777777778
 40
0.2777777777777778
 40
0.2777777777777778
 40
0.3333333333333333
 40
0.3333333333333333
 40
0.3333333333333333
 40
0.3333333333333333
 40
0.3888888888888889
 40
0.3888888888888889
 40
0.3888888888888889
 40
0.3888888888888889
 40
0.4444444444444444
 40
0.4444444444444444
 40
0.4444444444444444
 40
0.4444444444444444
 40
0.5
 40
0.5
 40
0.5
 40
0.5
 40
0.5555555555555556
 40
0.5555555555555556
 40
0.5555555555555556
 40
0.5555555555555556
 40
0.6111111111111112
 40
0.6111111111111112
 40
0.6111111111111112
 40
0.6111111111111112
 40
0.6666666666666666
 40
0.6666666666666666
 40
0.6666666666666666
 40
0.6666666666666666
 40
0.7222222222222222
 40
0.7222222222222222
 40
0.7222222222222222
 40
0.7222222222222222
 40
0.7777777777777778
 40
0.7777777777777778
 40
0.7777777777777778
 40
0.7777777777777778
 40
0.8333333333333334
 40
0.8333333333333334
 40
0.8333333333333334
 40
0.8333333333333334
 40
0.8888888888888888
 40
0.8888888888888888
 40
0.8888888888888888
 40
0.8888888888888888
 40
1.0
 40
1.0
 40
1.0
 40
1.0
 10
0.95117
 20
-0.96731
 30
0.0
 10
0.95117
 20
-0.96731
 30
0.0
 10
0.95117
 20
-0.84507
 30
0.0
 10
0.95117
 20
-0.84507
 30
0.0
 10
0.95117
 20
-0.84507
 30
0.0
 10
0.95117
 20
-0.84507
 30
0.0
 10
0.948
 20
-0.84507
 30
0.0
 10
0.948
 20
-0.84507
 30
0.0
 10
0.948
 20
-0.84507
 30
0.0
 10
0.92074
 20
-0.88264
 30
0.0
 10
0.89614
 20
-0.91016
 30
0.0
 10
0.87418
 20
-0.92762
 30
0.0
 10
0.87418
 20
-0.92762
 30
0.0
 10
0.85222
 20
-0.94508
 30
0.0
 10
0.82735
 20
-0.95937
 30
0.0
 10
0.79983
 20
-0.97022
 30
0.0
 10
0.79983
 20
-0.97022
 30
0.0
 10
0.77205
 20
-0.98107
 30
0.0
 10
0.74003
 20
-0.98636
 30
0.0
 10
0.70326
 20
-0.98636
 30
0.0
 10
0.70326
 20
-0.98636
 30
0.0
 10
0.61647
 20
-0.98636
 30
0.0
 10
0.55033
 20
-0.95831
 30
0.0
 10
0.50508
 20
-0.90196
 30
0.0
 10
0.50508
 20
-0.90196
 30
0.0
 10
0.45957
 20
-0.8456
 30
0.0
 10
0.43682
 20
-0.76252
 30
0.0
 10
0.43682
 20
-0.65246
 30
0.0
 10
0.43682
 20
-0.65246
 30
0.0
 10
0.43682
 20
-0.65246
 30
0.0
 10
0.43682
 20
-0.17356
 30
0.0
 10
0.43682
 20
-0.17356
 30
0.0
 10
0.43682
 20
-0.17356
 30
0.0
 10
0.43682
 20
-0.17356
 30
0.0
 10
0.76702
 20
-0.17356
 30
0.0
 10
0.76702
 20
-0.17356
 30
0.0
 10
0.76702
 20
-0.17356
 30
0.0
 10
0.76702
 20
-0.17356
 30
0.0
 10
0.76702
 20
-0.62785
 30
0.0
 10
0.76702
 20
-0.62785
 30
0.0
 10
0.76702
 20
-0.62785
 30
0.0
 10
0.76702
 20
-0.7059
 30
0.0
 10
0.79612
 20
-0.74506
 30
0.0
 10
0.85433
 20
-0.74506
 30
0.0
 10
0.85433
 20
-0.74506
 30
0.0
 10
0.88635
 20
-0.74506
 30
0.0
 10
0.91042
 20
-0.73448
 30
0.0
 10
0.92683
 20
-0.71331
 30
0.0
 10
0.92683
 20
-0.71331
 30
0.0
 10
0.94297
 20
-0.69214
 30
0.0
 10
0.95117
 20
-0.66198
 30
0.0
 10
0.95117
 20
-0.62335
 30
0.0
 10
0.95117
 20
-0.62335
 30
0.0
 10
0.95117
 20
-0.62335
 30
0.0
 10
0.95117
 20
-0.17356
 30
0.0
 10
0.95117
 20
-0.17356
 30
0.0
 10
0.95117
 20
-0.17356
 30
0.0
 10
0.95117
 20
-0.17356
 30
0.0
 10
1.28137
 20
-0.17356
 30
0.0
 10
1.28137
 20
-0.17356
 30
0.0
 10
1.28137
 20
-0.17356
 30
0.0
 10
1.28137
 20
-0.17356
 30
0.0
 10
1.28137
 20
-0.96731
 30
0.0
 10
1.28137
 20
-0.96731
 30
0.0
 10
1.28137
 20
-0.96731
 30
0.0
 10
1.28137
 20
-0.96731
 30
0.0
 10
0.95117
 20
-0.96731
 30
0.0
 10
0.95117
 20
-0.96731
 30
0.0
  0
SPLINE
  5
67
330
1F
100
AcDbEntity
  8
Layer 1
 62
     5
370
    53
100
AcDbSpline
210
0.0
220
0.0
230
1.0
 70
    11
 71
     3
 72
    96
 73
    92
 74
     0
 42
0.0000000001
 43
0.0000000001
 12
1.0
 22
0.0
 32
0.0
 13
1.0
 23
0.0
 33
0.0
 40
0.0
 40
0.0
 40
0.0
 40
0.0
 40
0.0416666666666667
 40
0.0416666666666667
 40
0.0416666666666667
 40
0.0416666666666667
 40
0.0833333333333333
 40
0.0833333333333333
 40
0.0833333333333333
 40
0.0833333333333333
 40
0.125
 40
0.125
 40
0.125
 40
0.125
 40
0.1666666666666667
 40
0.1666666666666667
 40
0.1666666666666667
 40
0.1666666666666667
 40
0.2083333333333333
 40
0.2083333333333333
 40
0.2083333333333333
 40
0.2083333333333333
 40
0.25
 40
0.25
 40
0.25
 40
0.25
 40
0.2916666666666667
 40
0.2916666666666667
 40
0.2916666666666667
 40
0.2916666666666667
 40
0.3333333333333333
 40
0.3333333333333333
 40
0.3333333333333333
 40
0.3333333333333333
 40
0.375
 40
0.375
 40
0.375
 40
0.375
 40
0.4166666666666667
 40
0.4166666666666667
 40
0.4166666666666667
 40
0.4166666666666667
 40
0.4583333333333333
 40
0.4583333333333333
 40
0.4583333333333333
 40
0.4583333333333333
 40
0.5
 40
0.5
 40
0.5
 40
0.5
 40
0.5416666666666666
 40
0.5416666666666666
 40
0.5416666666666666
 40
0.5416666666666666
 40
0.5833333333333334
 40
0.5833333333333334
 40
0.5833333333333334
 40
0.5833333333333334
 40
0.625
 40
0.625
 40
0.625
 40
0.625
 40
0.6666666666666666
 40
0.6666666666666666
 40
0.6666666666666666
 40
0.6666666666666666
 40
0.7083333333333334
 40
0.7083333333333334
 40
0.7083333333333334
 40
0.7083333333333334
 40
0.75
 40
0.75
 40
0.75
 40
0.75
 40
0.7916666666666666
 40
0.7916666666666666
 40
0.7916666666666666
 40
0.7916666666666666
 40
0.8333333333333334
 40
0.8333333333333334
 40
0.8333333333333334
 40
0.8333333333333334
 40
0.875
 40
0.875
 40
0.875
 40
0.875
 40
0.9166666666666666
 40
0.9166666666666666
 40
0.9166666666666666
 40
0.9166666666666666
 40
1.0
 40
1.0
 40
1.0
 40
1.0
 10
2.08465
 20
-0.70352
 30
0.0
 10
2.08465
 20
-0.79321
 30
0.0
 10
2.05052
 20
-0.86306
 30
0.0
 10
1.98199
 20
-0.91228
 30
0.0
 10
1.98199
 20
-0.91228
 30
0.0
 10
1.91346
 20
-0.96175
 30
0.0
 10
1.81821
 20
-0.98636
 30
0.0
 10
1.69571
 20
-0.98636
 30
0.0
 10
1.69571
 20
-0.98636
 30
0.0
 10
1.65999
 20
-0.98636
 30
0.0
 10
1.61607
 20
-0.98266
 30
0.0
 10
1.56369
 20
-0.97551
 30
0.0
 10
1.56369
 20
-0.97551
 30
0.0
 10
1.51103
 20
-0.96837
 30
0.0
 10
1.46844
 20
-0.95964
 30
0.0
 10
1.43536
 20
-0.94932
 30
0.0
 10
1.43536
 20
-0.94932
 30
0.0
 10
1.43536
 20
-0.94932
 30
0.0
 10
1.43536
 20
-0.71807
 30
0.0
 10
1.43536
 20
-0.71807
 30
0.0
 10
1.43536
 20
-0.71807
 30
0.0
 10
1.53299
 20
-0.76146
 30
0.0
 10
1.61449
 20
-0.78316
 30
0.0
 10
1.67984
 20
-0.78316
 30
0.0
 10
1.67984
 20
-0.78316
 30
0.0
 10
1.7444
 20
-0.78316
 30
0.0
 10
1.77668
 20
-0.76649
 30
0.0
 10
1.77668
 20
-0.73289
 30
0.0
 10
1.77668
 20
-0.73289
 30
0.0
 10
1.77668
 20
-0.71887
 30
0.0
 10
1.76927
 20
-0.70722
 30
0.0
 10
1.75419
 20
-0.69823
 30
0.0
 10
1.75419
 20
-0.69823
 30
0.0
 10
1.73937
 20
-0.68923
 30
0.0
 10
1.69995
 20
-0.67415
 30
0.0
 10
1.63671
 20
-0.65298
 30
0.0
 10
1.63671
 20
-0.65298
 30
0.0
 10
1.56633
 20
-0.63076
 30
0.0
 10
1.51527
 20
-0.60113
 30
0.0
 10
1.48325
 20
-0.56461
 30
0.0
 10
1.48325
 20
-0.56461
 30
0.0
 10
1.45124
 20
-0.52784
 30
0.0
 10
1.43536
 20
-0.47995
 30
0.0
 10
1.43536
 20
-0.42121
 30
0.0
 10
1.43536
 20
-0.42121
 30
0.0
 10
1.43536
 20
-0.33892
 30
0.0
 10
1.46817
 20
-0.2741
 30
0.0
 10
1.53352
 20
-0.22621
 30
0.0
 10
1.53352
 20
-0.22621
 30
0.0
 10
1.59888
 20
-0.17832
 30
0.0
 10
1.69069
 20
-0.15451
 30
0.0
 10
1.80895
 20
-0.15451
 30
0.0
 10
1.80895
 20
-0.15451
 30
0.0
 10
1.87828
 20
-0.15451
 30
0.0
 10
1.95156
 20
-0.16456
 30
0.0
 10
2.02909
 20
-0.18467
 30
0.0
 10
2.02909
 20
-0.18467
 30
0.0
 10
2.02909
 20
-0.18467
 30
0.0
 10
2.02909
 20
-0.40692
 30
0.0
 10
2.02909
 20
-0.40692
 30
0.0
 10
2.02909
 20
-0.40692
 30
0.0
 10
1.99654
 20
-0.3929
 30
0.0
 10
1.96083
 20
-0.38126
 30
0.0
 10
1.92193
 20
-0.37173
 30
0.0
 10
1.92193
 20
-0.37173
 30
0.0
 10
1.8833
 20
-0.36247
 30
0.0
 10
1.85076
 20
-0.35771
 30
0.0
 10
1.8243
 20
-0.35771
 30
0.0
 10
1.8243
 20
-0.35771
 30
0.0
 10
1.8026
 20
-0.35771
 30
0.0
 10
1.78514
 20
-0.36141
 30
0.0
 10
1.77218
 20
-0.36856
 30
0.0
 10
1.77218
 20
-0.36856
 30
0.0
 10
1.75921
 20
-0.3757
 30
0.0
 10
1.75286
 20
-0.38576
 30
0.0
 10
1.75286
 20
-0.39872
 30
0.0
 10
1.75286
 20
-0.39872
 30
0.0
 10
1.75286
 20
-0.4138
 30
0.0
 10
1.75974
 20
-0.42597
 30
0.0
 10
1.77376
 20
-0.43523
 30
0.0
 10
1.77376
 20
-0.43523
 30
0.0
 10
1.78779
 20
-0.44449
 30
0.0
 10
1.81557
 20
-0.45561
 30
0.0
 10
1.85764
 20
-0.46857
 30
0.0
 10
1.85764
 20
-0.46857
 30
0.0
 10
1.9386
 20
-0.49238
 30
0.0
 10
1.99681
 20
-0.52281
 30
0.0
 10
2.032
 20
-0.56012
 30
0.0
 10
2.032
 20
-0.56012
 30
0.0
 10
2.06719
 20
-0.59716
 30
0.0
 10
2.08465
 20
-0.64505
 30
0.0
 10
2.08465
 20
-0.70352
 30
0.0
  0
SPLINE
  5
68
330
1F
100
AcDbEntity
  8
Layer 1
 62
     5
370
    53
100
AcDbSpline
210
0.0
220
0.0
230
1.0
 70
    11
 71
     3
 72
    76
 73
    72
 74
     0
 42
0.0000000001
 43
0.0000000001
 12
1.0
 22
0.0
 32
0.0
 13
1.0
 23
0.0
 33
0.0
 40
0.0
 40
0.0
 40
0.0
 40
0.0
 40
0.0526315789473684
 40
0.0526315789473684
 40
0.0526315789473684
 40
0.0526315789473684
 40
0.1052631578947368
 40
0.1052631578947368
 40
0.1052631578947368
 40
0.1052631578947368
 40
0.1578947368421053
 40
0.1578947368421053
 40
0.1578947368421053
 40
0.1578947368421053
 40
0.2105263157894737
 40
0.2105263157894737
 40
0.2105263157894737
 40
0.2105263157894737
 40
0.2631578947368421
 40
0.2631578947368421
 40
0.2631578947368421
 40
0.2631578947368421
 40
0.3157894736842105
 40
0.3157894736842105
 40
0.3157894736842105
 40
0.3157894736842105
 40
0.3684210526315789
 40
0.3684210526315789
 40
0.3684210526315789
 40
0.3684210526315789
 40
0.4210526315789473
 40
0.4210526315789473
 40
0.4210526315789473
 40
0.4210526315789473
 40
0.4736842105263158
 40
0.4736842105263158
 40
0.4736842105263158
 40
0.4736842105263158
 40
0.5263157894736842
 40
0.5263157894736842
 40
0.5263157894736842
 40
0.5263157894736842
 40
0.5789473684210527
 40
0.5789473684210527
 40
0.5789473684210527
 40
0.5789473684210527
 40
0.631578947368421
 40
0.631578947368421
 40
0.631578947368421
 40
0.631578947368421
 40
0.6842105263157895
 40
0.6842105263157895
 40
0.6842105263157895
 40
0.6842105263157895
 40
0.7368421052631579
 40
0.7368421052631579
 40
0.7368421052631579
 40
0.7368421052631579
 40
0.7894736842105263
 40
0.7894736842105263
 40
0.7894736842105263
 40
0.7894736842105263
 40
0.8421052631578947
 40
0.8421052631578947
 40
0.8421052631578947
 40
0.8421052631578947
 40
0.8947368421052632
 40
0.8947368421052632
 40
0.8947368421052632
 40
0.8947368421052632
 40
1.0
 40
1.0
 40
1.0
 40
1.0
 10
2.76543
 20
-0.9562
 30
0.0
 10
2.75034
 20
-0.96334
 30
0.0
 10
2.726
 20
-0.97022
 30
0.0
 10
2.69187
 20
-0.97657
 30
0.0
 10
2.69187
 20
-0.97657
 30
0.0
 10
2.65774
 20
-0.98319
 30
0.0
 10
2.61673
 20
-0.98636
 30
0.0
 10
2.56858
 20
-0.98636
 30
0.0
 10
2.56858
 20
-0.98636
 30
0.0
 10
2.47676
 20
-0.98636
 30
0.0
 10
2.4048
 20
-0.96096
 30
0.0
 10
2.35268
 20
-0.91042
 30
0.0
 10
2.35268
 20
-0.91042
 30
0.0
 10
2.30082
 20
-0.85989
 30
0.0
 10
2.27489
 20
-0.78766
 30
0.0
 10
2.27489
 20
-0.69426
 30
0.0
 10
2.27489
 20
-0.69426
 30
0.0
 10
2.27489
 20
-0.69426
 30
0.0
 10
2.27489
 20
-0.40216
 30
0.0
 10
2.27489
 20
-0.40216
 30
0.0
 10
2.27489
 20
-0.40216
 30
0.0
 10
2.27489
 20
-0.40216
 30
0.0
 10
2.14948
 20
-0.40216
 30
0.0
 10
2.14948
 20
-0.40216
 30
0.0
 10
2.14948
 20
-0.40216
 30
0.0
 10
2.14948
 20
-0.40216
 30
0.0
 10
2.14948
 20
-0.17356
 30
0.0
 10
2.14948
 20
-0.17356
 30
0.0
 10
2.14948
 20
-0.17356
 30
0.0
 10
2.14948
 20
-0.17356
 30
0.0
 10
2.27489
 20
-0.17356
 30
0.0
 10
2.27489
 20
-0.17356
 30
0.0
 10
2.27489
 20
-0.17356
 30
0.0
 10
2.27489
 20
-0.17356
 30
0.0
 10
2.27489
 20
-0.01746
 30
0.0
 10
2.27489
 20
-0.01746
 30
0.0
 10
2.27489
 20
-0.01746
 30
0.0
 10
2.27489
 20
-0.01746
 30
0.0
 10
2.60033
 20
0.0725
 30
0.0
 10
2.60033
 20
0.0725
 30
0.0
 10
2.60033
 20
0.0725
 30
0.0
 10
2.60033
 20
0.0725
 30
0.0
 10
2.60033
 20
-0.17356
 30
0.0
 10
2.60033
 20
-0.17356
 30
0.0
 10
2.60033
 20
-0.17356
 30
0.0
 10
2.60033
 20
-0.17356
 30
0.0
 10
2.76543
 20
-0.17356
 30
0.0
 10
2.76543
 20
-0.17356
 30
0.0
 10
2.76543
 20
-0.17356
 30
0.0
 10
2.76543
 20
-0.17356
 30
0.0
 10
2.76543
 20
-0.40216
 30
0.0
 10
2.76543
 20
-0.40216
 30
0.0
 10
2.76543
 20
-0.40216
 30
0.0
 10
2.76543
 20
-0.40216
 30
0.0
 10
2.60033
 20
-0.40216
 30
0.0
 10
2.60033
 20
-0.40216
 30
0.0
 10
2.60033
 20
-0.40216
 30
0.0
 10
2.60033
 20
-0.40216
 30
0.0
 10
2.60033
 20
-0.64028
 30
0.0
 10
2.60033
 20
-0.64028
 30
0.0
 10
2.60033
 20
-0.64028
 30
0.0
 10
2.60033
 20
-0.71013
 30
0.0
 10
2.62811
 20
-0.74506
 30
0.0
 10
2.6834
 20
-0.74506
 30
0.0
 10
2.6834
 20
-0.74506
 30
0.0
 10
2.70907
 20
-0.74506
 30
0.0
 10
2.73659
 20
-0.73924
 30
0.0
 10
2.76543
 20
-0.7276
 30
0.0
 10
2.76543
 20
-0.7276
 30
0.0
 10
2.76543
 20
-0.7276
 30
0.0
 10
2.76543
 20
-0.9562
 30
0.0
 10
2.76543
 20
-0.9562
 30
0.0
  0
SPLINE
  5
69
330
1F
100
AcDbEntity
  8
Layer 1
370
    53
100
AcDbSpline
210
0.0
220
0.0
230
1.0
 70
    11
 71
     3
 72
    36
 73
    32
 74
     0
 42
0.0000000001
 43
0.0000000001
 12
1.0
 22
0.0
 32
0.0
 13
1.0
 23
0.0
 33
0.0
 40
0.0
 40
0.0
 40
0.0
 40
0.0
 40
0.1111111111111111
 40
0.1111111111111111
 40
0.1111111111111111
 40
0.1111111111111111
 40
0.2222222222222222
 40
0.2222222222222222
 40
0.2222222222222222
 40
0.2222222222222222
 40
0.3333333333333333
 40
0.3333333333333333
 40
0.3333333333333333
 40
0.3333333333333333
 40
0.4444444444444444
 40
0.4444444444444444
 40
0.4444444444444444
 40
0.4444444444444444
 40
0.5555555555555556
 40
0.5555555555555556
 40
0.5555555555555556
 40
0.5555555555555556
 40
0.6666666666666666
 40
0.6666666666666666
 40
0.6666666666666666
 40
0.6666666666666666
 40
0.7777777777777778
 40
0.7777777777777778
 40
0.7777777777777778
 40
0.7777777777777778
 40
1.0
 40
1.0
 40
1.0
 40
1.0
 10
-5.2
 20
-6.2
 30
0.0
 10
-5.2
 20
-6.2
 30
0.0
 10
-5.2
 20
-2.8
 30
0.0
 10
-5.2
 20
-2.8
 30
0.0
 10
-5.2
 20
-2.8
 30
0.0
 10
-5.2
 20
-2.52386
 30
0.0
 10
-4.97614
 20
-2.3
 30
0.0
 10
-4.7
 20
-2.3
 30
0.0
 10
-4.7
 20
-2.3
 30
0.0
 10
-4.7
 20
-2.3
 30
0.0
 10
4.7
 20
-2.3
 30
0.0
 10
4.7
 20
-2.3
 30
0.0
 10
4.7
 20
-2.3
 30
0.0
 10
4.97614
 20
-2.3
 30
0.0
 10
5.2
 20
-2.52386
 30
0.0
 10
5.2
 20
-2.8
 30
0.0
 10
5.2
 20
-2.8
 30
0.0
 10
5.2
 20
-2.8
 30
0.0
 10
5.2
 20
-6.2
 30
0.0
 10
5.2
 20
-6.2
 30
0.0
 10
5.2
 20
-6.2
 30
0.0
 10
5.2
 20
-6.47614
 30
0.0
 10
4.97614
 20
-6.7
 30
0.0
 10
4.7
 20
-6.7
 30
0.0
 10
4.7
 20
-6.7
 30
0.0
 10
4.7
 20
-6.7
 30
0.0
 10
-4.7
 20
-6.7
 30
0.0
 10
-4.7
 20
-6.7
 30
0.0
 10
-4.7
 20
-6.7
 30
0.0
 10
-4.97614
 20
-6.7
 30
0.0
 10
-5.2
 20
-6.47614
 30
0.0
 10
-5.2
 20
-6.2
 30
0.0
  0
ELLIPSE
  5
6A
330
1F
100
AcDbEntity
  8
Layer 1
370
    53
100
AcDbEllipse
 10
3.00001
 20
-3.00001
 30
0.0
 11
0.0
 21
0.30001
 31
0.0
210
0.0
220
0.0
230
1.0
 40
1.0
 41
0.0
 42
6.283185307179586
  0
ELLIPSE
  5
6B
330
1F
100
AcDbEntity
  8
Layer 1
370
    53
100
AcDbEllipse
 10
4.50001
 20
-3.00001
 30
0.0
 11
0.0
 21
0.30001
 31
0.0
210
0.0
220
0.0
230
1.0
 40
1.0
 41
0.0
 42
6.283185307179586
  0
ELLIPSE
  5
6C
330
1F
100
AcDbEntity
  8
Layer 1
370
    53
100
AcDbEllipse
 10
2.25
 20
-3.0
 30
0.0
 11
0.0
 21
0.15
 31
0.0
210
0.0
220
0.0
230
1.0
 40
1.0
 41
0.0
 42
6.283185307179586
  0
ELLIPSE
  5
6D
330
1F
100
AcDbEntity
  8
Layer 1
370
    53
100
AcDbEllipse
 10
3.75
 20
-3.0
 30
0.0
 11
0.0
 21
0.15
 31
0.0
210
0.0
220
0.0
230
1.0
 40
1.0
 41
0.0
 42
6.283185307179586
  0
ELLIPSE
  5
6E
330
1F
100
AcDbEntity
  8
Layer 1
370
    53
100
AcDbEllipse
 10
1.50001
 20
-3.00001
 30
0.0
 11
0.0
 21
0.30001
 31
0.0
210
0.0
220
0.0
230
1.0
 40
1.0
 41
0.0
 42
6.283185307179586
  0
ELLIPSE
  5
6F
330
1F
100
AcDbEntity
  8
Layer 1
370
    53
100
AcDbEllipse
 10
0.75
 20
-3.0
 30
0.0
 11
0.0
 21
0.15
 31
0.0
210
0.0
220
0.0
230
1.0
 40
1.0
 41
0.0
 42
6.283185307179586
  0
ELLIPSE
  5
70
330
1F
100
AcDbEntity
  8
Layer 1
370
    53
100
AcDbEllipse
 10
0.00001
 20
-3.00001
 30
0.0
 11
0.0
 21
0.30001
 31
0.0
210
0.0
220
0.0
230
1.0
 40
1.0
 41
0.0
 42
6.283185307179586
  0
ELLIPSE
  5
71
330
1F
100
AcDbEntity
  8
Layer 1
370
    53
100
AcDbEllipse
 10
-0.75
 20
-3.0
 30
0.0
 11
0.0
 21
0.15
 31
0.0
210
0.0
220
0.0
230
1.0
 40
1.0
 41
0.0
 42
6.283185307179586
  0
ELLIPSE
  5
72
330
1F
100
AcDbEntity
  8
Layer 1
370
    53
100
AcDbEllipse
 10
-1.49999
 20
-3.00001
 30
0.0
 11
0.0
 21
0.30001
 31
0.0
210
0.0
220
0.0
230
1.0
 40
1.0
 41
0.0
 42
6.283185307179586
  0
ELLIPSE
  5
73
330
1F
100
AcDbEntity
  8
Layer 1
370
    53
100
AcDbEllipse
 10
-2.25
 20
-3.0
 30
0.0
 11
0.0
 21
0.15
 31
0.0
210
0.0
220
0.0
230
1.0
 40
1.0
 41
0.0
 42
6.283185307179586
  0
ELLIPSE
  5
74
330
1F
100
AcDbEntity
  8
Layer 1
370
    53
100
AcDbEllipse
 10
-2.99999
 20
-3.00001
 30
0.0
 11
0.0
 21
0.30001
 31
0.0
210
0.0
220
0.0
230
1.0
 40
1.0
 41
0.0
 42
6.283185307179586
  0
ELLIPSE
  5
75
330
1F
100
AcDbEntity
  8
Layer 1
370
    53
100
AcDbEllipse
 10
-3.75
 20
-3.0
 30
0.0
 11
0.0
 21
0.15
 31
0.0
210
0.0
220
0.0
230
1.0
 40
1.0
 41
0.0
 42
6.283185307179586
  0
ELLIPSE
  5
76
330
1F
100
AcDbEntity
  8
Layer 1
370
    53
100
AcDbEllipse
 10
-4.49999
 20
-3.00001
 30
0.0
 11
0.0
 21
0.30001
 31
0.0
210
0.0
220
0.0
230
1.0
 40
1.0
 41
0.0
 42
6.283185307179586
  0
SPLINE
  5
77
330
1F
100
AcDbEntity
  8
Layer 1
 62
     5
370
    53
100
AcDbSpline
210
0.0
220
0.0
230
1.0
 70
    11
 71
     3
 72
   108
 73
   104
 74
     0
 42
0.0000000001
 43
0.0000000001
 12
1.0
 22
0.0
 32
0.0
 13
1.0
 23
0.0
 33
0.0
 40
0.0
 40
0.0
 40
0.0
 40
0.0
 40
0.037037037037037
 40
0.037037037037037
 40
0.037037037037037
 40
0.037037037037037
 40
0.0740740740740741
 40
0.0740740740740741
 40
0.0740740740740741
 40
0.0740740740740741
 40
0.1111111111111111
 40
0.1111111111111111
 40
0.1111111111111111
 40
0.1111111111111111
 40
0.1481481481481481
 40
0.1481481481481481
 40
0.1481481481481481
 40
0.1481481481481481
 40
0.1851851851851852
 40
0.1851851851851852
 40
0.1851851851851852
 40
0.1851851851851852
 40
0.2222222222222222
 40
0.2222222222222222
 40
0.2222222222222222
 40
0.2222222222222222
 40
0.2592592592592592
 40
0.2592592592592592
 40
0.2592592592592592
 40
0.2592592592592592
 40
0.2962962962962963
 40
0.2962962962962963
 40
0.2962962962962963
 40
0.2962962962962963
 40
0.3333333333333333
 40
0.3333333333333333
 40
0.3333333333333333
 40
0.3333333333333333
 40
0.3703703703703703
 40
0.3703703703703703
 40
0.3703703703703703
 40
0.3703703703703703
 40
0.4074074074074074
 40
0.4074074074074074
 40
0.4074074074074074
 40
0.4074074074074074
 40
0.4444444444444444
 40
0.4444444444444444
 40
0.4444444444444444
 40
0.4444444444444444
 40
0.4814814814814815
 40
0.4814814814814815
 40
0.4814814814814815
 40
0.4814814814814815
 40
0.5185185185185185
 40
0.5185185185185185
 40
0.5185185185185185
 40
0.5185185185185185
 40
0.5555555555555556
 40
0.5555555555555556
 40
0.5555555555555556
 40
0.5555555555555556
 40
0.5925925925925926
 40
0.5925925925925926
 40
0.5925925925925926
 40
0.5925925925925926
 40
0.6296296296296297
 40
0.6296296296296297
 40
0.6296296296296297
 40
0.6296296296296297
 40
0.6666666666666666
 40
0.6666666666666666
 40
0.6666666666666666
 40
0.6666666666666666
 40
0.7037037037037037
 40
0.7037037037037037
 40
0.7037037037037037
 40
0.7037037037037037
 40
0.7407407407407407
 40
0.7407407407407407
 40
0.7407407407407407
 40
0.7407407407407407
 40
0.7777777777777778
 40
0.7777777777777778
 40
0.7777777777777778
 40
0.7777777777777778
 40
0.8148148148148148
 40
0.8148148148148148
 40
0.8148148148148148
 40
0.8148148148148148
 40
0.8518518518518519
 40
0.8518518518518519
 40
0.8518518518518519
 40
0.8518518518518519
 40
0.8888888888888888
 40
0.8888888888888888
 40
0.8888888888888888
 40
0.8888888888888888
 40
0.9259259259259259
 40
0.9259259259259259
 40
0.9259259259259259
 40
0.9259259259259259
 40
1.0
 40
1.0
 40
1.0
 40
1.0
 10
-3.38086
 20
-5.13076
 30
0.0
 10
-3.38086
 20
-5.20458
 30
0.0
 10
-3.4007
 20
-5.26887
 30
0.0
 10
-3.44012
 20
-5.32364
 30
0.0
 10
-3.44012
 20
-5.32364
 30
0.0
 10
-3.47955
 20
-5.37841
 30
0.0
 10
-3.53511
 20
-5.41916
 30
0.0
 10
-3.60628
 20
-5.44614
 30
0.0
 10
-3.60628
 20
-5.44614
 30
0.0
 10
-3.67746
 20
-5.47287
 30
0.0
 10
-3.76318
 20
-5.48636
 30
0.0
 10
-3.86346
 20
-5.48636
 30
0.0
 10
-3.86346
 20
-5.48636
 30
0.0
 10
-3.97961
 20
-5.48636
 30
0.0
 10
-4.08597
 20
-5.46678
 30
0.0
 10
-4.18254
 20
-5.42736
 30
0.0
 10
-4.18254
 20
-5.42736
 30
0.0
 10
-4.18254
 20
-5.42736
 30
0.0
 10
-4.18254
 20
-5.12282
 30
0.0
 10
-4.18254
 20
-5.12282
 30
0.0
 10
-4.18254
 20
-5.12282
 30
0.0
 10
-4.13598
 20
-5.15695
 30
0.0
 10
-4.08465
 20
-5.18473
 30
0.0
 10
-4.02829
 20
-5.20564
 30
0.0
 10
-4.02829
 20
-5.20564
 30
0.0
 10
-3.97194
 20
-5.22654
 30
0.0
 10
-3.91955
 20
-5.23712
 30
0.0
 10
-3.87087
 20
-5.23712
 30
0.0
 10
-3.87087
 20
-5.23712
 30
0.0
 10
-3.83435
 20
-5.23712
 30
0.0
 10
-3.80578
 20
-5.23051
 30
0.0
 10
-3.78567
 20
-5.21728
 30
0.0
 10
-3.78567
 20
-5.21728
 30
0.0
 10
-3.76556
 20
-5.20405
 30
0.0
 10
-3.75551
 20
-5.185
 30
0.0
 10
-3.75551
 20
-5.1596
 30
0.0
 10
-3.75551
 20
-5.1596
 30
0.0
 10
-3.75551
 20
-5.14161
 30
0.0
 10
-3.76053
 20
-5.12547
 30
0.0
 10
-3.77059
 20
-5.11197
 30
0.0
 10
-3.77059
 20
-5.11197
 30
0.0
 10
-3.78064
 20
-5.09822
 30
0.0
 10
-3.79599
 20
-5.08552
 30
0.0
 10
-3.81636
 20
-5.07361
 30
0.0
 10
-3.81636
 20
-5.07361
 30
0.0
 10
-3.83673
 20
-5.0617
 30
0.0
 10
-3.87457
 20
-5.0453
 30
0.0
 10
-3.93013
 20
-5.02466
 30
0.0
 10
-3.93013
 20
-5.02466
 30
0.0
 10
-4.10899
 20
-4.95587
 30
0.0
 10
-4.19842
 20
-4.84475
 30
0.0
 10
-4.19842
 20
-4.69129
 30
0.0
 10
-4.19842
 20
-4.69129
 30
0.0
 10
-4.19842
 20
-4.58387
 30
0.0
 10
-4.15767
 20
-4.49788
 30
0.0
 10
-4.07592
 20
-4.43358
 30
0.0
 10
-4.07592
 20
-4.43358
 30
0.0
 10
-3.99443
 20
-4.36929
 30
0.0
 10
-3.88489
 20
-4.33701
 30
0.0
 10
-3.74731
 20
-4.33701
 30
0.0
 10
-3.74731
 20
-4.33701
 30
0.0
 10
-3.70868
 20
-4.33701
 30
0.0
 10
-3.67296
 20
-4.3386
 30
0.0
 10
-3.64041
 20
-4.34177
 30
0.0
 10
-3.64041
 20
-4.34177
 30
0.0
 10
-3.60787
 20
-4.34468
 30
0.0
 10
-3.57824
 20
-4.34865
 30
0.0
 10
-3.55151
 20
-4.35315
 30
0.0
 10
-3.55151
 20
-4.35315
 30
0.0
 10
-3.52506
 20
-4.35791
 30
0.0
 10
-3.48775
 20
-4.36664
 30
0.0
 10
-3.43959
 20
-4.37961
 30
0.0
 10
-3.43959
 20
-4.37961
 30
0.0
 10
-3.43959
 20
-4.37961
 30
0.0
 10
-3.43959
 20
-4.66245
 30
0.0
 10
-3.43959
 20
-4.66245
 30
0.0
 10
-3.43959
 20
-4.66245
 30
0.0
 10
-3.53326
 20
-4.61165
 30
0.0
 10
-3.62507
 20
-4.58625
 30
0.0
 10
-3.71556
 20
-4.58625
 30
0.0
 10
-3.71556
 20
-4.58625
 30
0.0
 10
-3.75286
 20
-4.58625
 30
0.0
 10
-3.78276
 20
-4.59313
 30
0.0
 10
-3.80551
 20
-4.60715
 30
0.0
 10
-3.80551
 20
-4.60715
 30
0.0
 10
-3.82827
 20
-4.62117
 30
0.0
 10
-3.83964
 20
-4.64022
 30
0.0
 10
-3.83964
 20
-4.66456
 30
0.0
 10
-3.83964
 20
-4.66456
 30
0.0
 10
-3.83964
 20
-4.68758
 30
0.0
 10
-3.83038
 20
-4.7069
 30
0.0
 10
-3.81213
 20
-4.72224
 30
0.0
 10
-3.81213
 20
-4.72224
 30
0.0
 10
-3.79387
 20
-4.73732
 30
0.0
 10
-3.75551
 20
-4.75717
 30
0.0
 10
-3.69703
 20
-4.78151
 30
0.0
 10
-3.69703
 20
-4.78151
 30
0.0
 10
-3.58194
 20
-4.82781
 30
0.0
 10
-3.50045
 20
-4.87888
 30
0.0
 10
-3.45256
 20
-4.93417
 30
0.0
 10
-3.45256
 20
-4.93417
 30
0.0
 10
-3.40467
 20
-4.98921
 30
0.0
 10
-3.38086
 20
-5.05482
 30
0.0
 10
-3.38086
 20
-5.13076
 30
0.0
  0
SPLINE
  5
78
330
1F
100
AcDbEntity
  8
Layer 1
 62
     5
370
    53
100
AcDbSpline
210
0.0
220
0.0
230
1.0
 70
    11
 71
     3
 72
    64
 73
    60
 74
     0
 42
0.0000000001
 43
0.0000000001
 12
1.0
 22
0.0
 32
0.0
 13
1.0
 23
0.0
 33
0.0
 40
0.0
 40
0.0
 40
0.0
 40
0.0
 40
0.0625
 40
0.0625
 40
0.0625
 40
0.0625
 40
0.125
 40
0.125
 40
0.125
 40
0.125
 40
0.1875
 40
0.1875
 40
0.1875
 40
0.1875
 40
0.25
 40
0.25
 40
0.25
 40
0.25
 40
0.3125
 40
0.3125
 40
0.3125
 40
0.3125
 40
0.375
 40
0.375
 40
0.375
 40
0.375
 40
0.4375
 40
0.4375
 40
0.4375
 40
0.4375
 40
0.5
 40
0.5
 40
0.5
 40
0.5
 40
0.5625
 40
0.5625
 40
0.5625
 40
0.5625
 40
0.625
 40
0.625
 40
0.625
 40
0.625
 40
0.6875
 40
0.6875
 40
0.6875
 40
0.6875
 40
0.75
 40
0.75
 40
0.75
 40
0.75
 40
0.8125
 40
0.8125
 40
0.8125
 40
0.8125
 40
0.875
 40
0.875
 40
0.875
 40
0.875
 40
1.0
 40
1.0
 40
1.0
 40
1.0
 10
-2.99059
 20
-5.1641
 30
0.0
 10
-2.98477
 20
-5.19823
 30
0.0
 10
-2.96519
 20
-5.22495
 30
0.0
 10
-2.93159
 20
-5.24453
 30
0.0
 10
-2.93159
 20
-5.24453
 30
0.0
 10
-2.89799
 20
-5.26385
 30
0.0
 10
-2.85354
 20
-5.27363
 30
0.0
 10
-2.79824
 20
-5.27363
 30
0.0
 10
-2.79824
 20
-5.27363
 30
0.0
 10
-2.72125
 20
-5.27363
 30
0.0
 10
-2.64822
 20
-5.25882
 30
0.0
 10
-2.57943
 20
-5.22918
 30
0.0
 10
-2.57943
 20
-5.22918
 30
0.0
 10
-2.57943
 20
-5.22918
 30
0.0
 10
-2.57943
 20
-5.43821
 30
0.0
 10
-2.57943
 20
-5.43821
 30
0.0
 10
-2.57943
 20
-5.43821
 30
0.0
 10
-2.6596
 20
-5.47022
 30
0.0
 10
-2.7567
 20
-5.48636
 30
0.0
 10
-2.871
 20
-5.48636
 30
0.0
 10
-2.871
 20
-5.48636
 30
0.0
 10
-3.00938
 20
-5.48636
 30
0.0
 10
-3.11706
 20
-5.45091
 30
0.0
 10
-3.19406
 20
-5.38026
 30
0.0
 10
-3.19406
 20
-5.38026
 30
0.0
 10
-3.27105
 20
-5.30962
 30
0.0
 10
-3.30968
 20
-5.21225
 30
0.0
 10
-3.30968
 20
-5.08816
 30
0.0
 10
-3.30968
 20
-5.08816
 30
0.0
 10
-3.30968
 20
-5.00297
 30
0.0
 10
-3.29275
 20
-4.92782
 30
0.0
 10
-3.25888
 20
-4.86274
 30
0.0
 10
-3.25888
 20
-4.86274
 30
0.0
 10
-3.22501
 20
-4.79791
 30
0.0
 10
-3.17501
 20
-4.74685
 30
0.0
 10
-3.1086
 20
-4.70981
 30
0.0
 10
-3.1086
 20
-4.70981
 30
0.0
 10
-3.04219
 20
-4.67303
 30
0.0
 10
-2.96916
 20
-4.65451
 30
0.0
 10
-2.88899
 20
-4.65451
 30
0.0
 10
-2.88899
 20
-4.65451
 30
0.0
 10
-2.80697
 20
-4.65451
 30
0.0
 10
-2.73659
 20
-4.67038
 30
0.0
 10
-2.67812
 20
-4.7024
 30
0.0
 10
-2.67812
 20
-4.7024
 30
0.0
 10
-2.61991
 20
-4.73441
 30
0.0
 10
-2.57546
 20
-4.77939
 30
0.0
 10
-2.5453
 20
-4.83734
 30
0.0
 10
-2.5453
 20
-4.83734
 30
0.0
 10
-2.51514
 20
-4.89502
 30
0.0
 10
-2.50005
 20
-4.96275
 30
0.0
 10
-2.50005
 20
-5.04027
 30
0.0
 10
-2.50005
 20
-5.04027
 30
0.0
 10
-2.50005
 20
-5.04027
 30
0.0
 10
-2.50005
 20
-5.1641
 30
0.0
 10
-2.50005
 20
-5.1641
 30
0.0
 10
-2.50005
 20
-5.1641
 30
0.0
 10
-2.50005
 20
-5.1641
 30
0.0
 10
-2.99059
 20
-5.1641
 30
0.0
 10
-2.99059
 20
-5.1641
 30
0.0
  0
SPLINE
  5
79
330
1F
100
AcDbEntity
  8
Layer 1
 62
     5
370
    53
100
AcDbSpline
210
0.0
220
0.0
230
1.0
 70
    11
 71
     3
 72
    20
 73
    16
 74
     0
 42
0.0000000001
 43
0.0000000001
 12
1.0
 22
0.0
 32
0.0
 13
1.0
 23
0.0
 33
0.0
 40
0.0
 40
0.0
 40
0.0
 40
0.0
 40
0.2
 40
0.2
 40
0.2
 40
0.2
 40
0.4
 40
0.4
 40
0.4
 40
0.4
 40
0.6
 40
0.6
 40
0.6
 40
0.6
 40
1.0
 40
1.0
 40
1.0
 40
1.0
 10
-2.79215
 20
-4.99106
 30
0.0
 10
-2.79215
 20
-4.90004
 30
0.0
 10
-2.82496
 20
-4.85453
 30
0.0
 10
-2.89058
 20
-4.85453
 30
0.0
 10
-2.89058
 20
-4.85453
 30
0.0
 10
-2.9181
 20
-4.85453
 30
0.0
 10
-2.94085
 20
-4.86697
 30
0.0
 10
-2.95964
 20
-4.89184
 30
0.0
 10
-2.95964
 20
-4.89184
 30
0.0
 10
-2.97816
 20
-4.91698
 30
0.0
 10
-2.989
 20
-4.94978
 30
0.0
 10
-2.99218
 20
-4.99106
 30
0.0
 10
-2.99218
 20
-4.99106
 30
0.0
 10
-2.99218
 20
-4.99106
 30
0.0
 10
-2.79215
 20
-4.99106
 30
0.0
 10
-2.79215
 20
-4.99106
 30
0.0
  0
SPLINE
  5
7A
330
1F
100
AcDbEntity
  8
Layer 1
 62
     5
370
    53
100
AcDbSpline
210
0.0
220
0.0
230
1.0
 70
    11
 71
     3
 72
    64
 73
    60
 74
     0
 42
0.0000000001
 43
0.0000000001
 12
1.0
 22
0.0
 32
0.0
 13
1.0
 23
0.0
 33
0.0
 40
0.0
 40
0.0
 40
0.0
 40
0.0
 40
0.0625
 40
0.0625
 40
0.0625
 40
0.0625
 40
0.125
 40
0.125
 40
0.125
 40
0.125
 40
0.1875
 40
0.1875
 40
0.1875
 40
0.1875
 40
0.25
 40
0.25
 40
0.25
 40
0.25
 40
0.3125
 40
0.3125
 40
0.3125
 40
0.3125
 40
0.375
 40
0.375
 40
0.375
 40
0.375
 40
0.4375
 40
0.4375
 40
0.4375
 40
0.4375
 40
0.5
 40
0.5
 40
0.5
 40
0.5
 40
0.5625
 40
0.5625
 40
0.5625
 40
0.5625
 40
0.625
 40
0.625
 40
0.625
 40
0.625
 40
0.6875
 40
0.6875
 40
0.6875
 40
0.6875
 40
0.75
 40
0.75
 40
0.75
 40
0.75
 40
0.8125
 40
0.8125
 40
0.8125
 40
0.8125
 40
0.875
 40
0.875
 40
0.875
 40
0.875
 40
1.0
 40
1.0
 40
1.0
 40
1.0
 10
-1.4904
 20
-5.04636
 30
0.0
 10
-1.4904
 20
-5.13314
 30
0.0
 10
-1.50522
 20
-5.20987
 30
0.0
 10
-1.53459
 20
-5.27655
 30
0.0
 10
-1.53459
 20
-5.27655
 30
0.0
 10
-1.56396
 20
-5.34296
 30
0.0
 10
-1.60576
 20
-5.39481
 30
0.0
 10
-1.65947
 20
-5.43133
 30
0.0
 10
-1.65947
 20
-5.43133
 30
0.0
 10
-1.71318
 20
-5.4681
 30
0.0
 10
-1.77351
 20
-5.48636
 30
0.0
 10
-1.84071
 20
-5.48636
 30
0.0
 10
-1.84071
 20
-5.48636
 30
0.0
 10
-1.93385
 20
-5.48636
 30
0.0
 10
-2.00449
 20
-5.45249
 30
0.0
 10
-2.05238
 20
-5.38476
 30
0.0
 10
-2.05238
 20
-5.38476
 30
0.0
 10
-2.05238
 20
-5.38476
 30
0.0
 10
-2.05555
 20
-5.38476
 30
0.0
 10
-2.05555
 20
-5.38476
 30
0.0
 10
-2.05555
 20
-5.38476
 30
0.0
 10
-2.05555
 20
-5.38476
 30
0.0
 10
-2.05555
 20
-5.83244
 30
0.0
 10
-2.05555
 20
-5.83244
 30
0.0
 10
-2.05555
 20
-5.83244
 30
0.0
 10
-2.05555
 20
-5.83244
 30
0.0
 10
-2.38575
 20
-5.83244
 30
0.0
 10
-2.38575
 20
-5.83244
 30
0.0
 10
-2.38575
 20
-5.83244
 30
0.0
 10
-2.38575
 20
-5.83244
 30
0.0
 10
-2.38575
 20
-4.67356
 30
0.0
 10
-2.38575
 20
-4.67356
 30
0.0
 10
-2.38575
 20
-4.67356
 30
0.0
 10
-2.38575
 20
-4.67356
 30
0.0
 10
-2.05555
 20
-4.67356
 30
0.0
 10
-2.05555
 20
-4.67356
 30
0.0
 10
-2.05555
 20
-4.67356
 30
0.0
 10
-2.05555
 20
-4.67356
 30
0.0
 10
-2.05555
 20
-4.78151
 30
0.0
 10
-2.05555
 20
-4.78151
 30
0.0
 10
-2.05555
 20
-4.78151
 30
0.0
 10
-2.05555
 20
-4.78151
 30
0.0
 10
-2.05238
 20
-4.78151
 30
0.0
 10
-2.05238
 20
-4.78151
 30
0.0
 10
-2.05238
 20
-4.78151
 30
0.0
 10
-2.02619
 20
-4.74182
 30
0.0
 10
-1.99205
 20
-4.7106
 30
0.0
 10
-1.95025
 20
-4.68811
 30
0.0
 10
-1.95025
 20
-4.68811
 30
0.0
 10
-1.90818
 20
-4.66562
 30
0.0
 10
-1.86082
 20
-4.65451
 30
0.0
 10
-1.80738
 20
-4.65451
 30
0.0
 10
-1.80738
 20
-4.65451
 30
0.0
 10
-1.70525
 20
-4.65451
 30
0.0
 10
-1.62667
 20
-4.68864
 30
0.0
 10
-1.57216
 20
-4.75664
 30
0.0
 10
-1.57216
 20
-4.75664
 30
0.0
 10
-1.51766
 20
-4.8249
 30
0.0
 10
-1.4904
 20
-4.92147
 30
0.0
 10
-1.4904
 20
-5.04636
 30
0.0
  0
SPLINE
  5
7B
330
1F
100
AcDbEntity
  8
Layer 1
 62
     5
370
    53
100
AcDbSpline
210
0.0
220
0.0
230
1.0
 70
    11
 71
     3
 72
    40
 73
    36
 74
     0
 42
0.0000000001
 43
0.0000000001
 12
1.0
 22
0.0
 32
0.0
 13
1.0
 23
0.0
 33
0.0
 40
0.0
 40
0.0
 40
0.0
 40
0.0
 40
0.1
 40
0.1
 40
0.1
 40
0.1
 40
0.2
 40
0.2
 40
0.2
 40
0.2
 40
0.3
 40
0.3
 40
0.3
 40
0.3
 40
0.4
 40
0.4
 40
0.4
 40
0.4
 40
0.5
 40
0.5
 40
0.5
 40
0.5
 40
0.6
 40
0.6
 40
0.6
 40
0.6
 40
0.7
 40
0.7
 40
0.7
 40
0.7
 40
0.8
 40
0.8
 40
0.8
 40
0.8
 40
1.0
 40
1.0
 40
1.0
 40
1.0
 10
-1.82537
 20
-5.05641
 30
0.0
 10
-1.82537
 20
-5.00641
 30
0.0
 10
-1.83516
 20
-4.96698
 30
0.0
 10
-1.85447
 20
-4.93841
 30
0.0
 10
-1.85447
 20
-4.93841
 30
0.0
 10
-1.87379
 20
-4.9101
 30
0.0
 10
-1.90368
 20
-4.89581
 30
0.0
 10
-1.9439
 20
-4.89581
 30
0.0
 10
-1.9439
 20
-4.89581
 30
0.0
 10
-1.97909
 20
-4.89581
 30
0.0
 10
-2.0074
 20
-4.91089
 30
0.0
 10
-2.0291
 20
-4.94079
 30
0.0
 10
-2.0291
 20
-4.94079
 30
0.0
 10
-2.05079
 20
-4.97095
 30
0.0
 10
-2.06164
 20
-5.01196
 30
0.0
 10
-2.06164
 20
-5.06435
 30
0.0
 10
-2.06164
 20
-5.06435
 30
0.0
 10
-2.06164
 20
-5.06435
 30
0.0
 10
-2.06164
 20
-5.0797
 30
0.0
 10
-2.06164
 20
-5.0797
 30
0.0
 10
-2.06164
 20
-5.0797
 30
0.0
 10
-2.06164
 20
-5.12997
 30
0.0
 10
-2.05238
 20
-5.16992
 30
0.0
 10
-2.03386
 20
-5.20008
 30
0.0
 10
-2.03386
 20
-5.20008
 30
0.0
 10
-2.01534
 20
-5.22998
 30
0.0
 10
-1.98729
 20
-5.24506
 30
0.0
 10
-1.95025
 20
-5.24506
 30
0.0
 10
-1.95025
 20
-5.24506
 30
0.0
 10
-1.9103
 20
-5.24506
 30
0.0
 10
-1.87961
 20
-5.22866
 30
0.0
 10
-1.85791
 20
-5.19585
 30
0.0
 10
-1.85791
 20
-5.19585
 30
0.0
 10
-1.83622
 20
-5.16304
 30
0.0
 10
-1.82537
 20
-5.11647
 30
0.0
 10
-1.82537
 20
-5.05641
 30
0.0
  0
SPLINE
  5
7C
330
1F
100
AcDbEntity
  8
Layer 1
 62
     5
370
    53
100
AcDbSpline
210
0.0
220
0.0
230
1.0
 70
    11
 71
     3
 72
    76
 73
    72
 74
     0
 42
0.0000000001
 43
0.0000000001
 12
1.0
 22
0.0
 32
0.0
 13
1.0
 23
0.0
 33
0.0
 40
0.0
 40
0.0
 40
0.0
 40
0.0
 40
0.0526315789473684
 40
0.0526315789473684
 40
0.0526315789473684
 40
0.0526315789473684
 40
0.1052631578947368
 40
0.1052631578947368
 40
0.1052631578947368
 40
0.1052631578947368
 40
0.1578947368421053
 40
0.1578947368421053
 40
0.1578947368421053
 40
0.1578947368421053
 40
0.2105263157894737
 40
0.2105263157894737
 40
0.2105263157894737
 40
0.2105263157894737
 40
0.2631578947368421
 40
0.2631578947368421
 40
0.2631578947368421
 40
0.2631578947368421
 40
0.3157894736842105
 40
0.3157894736842105
 40
0.3157894736842105
 40
0.3157894736842105
 40
0.3684210526315789
 40
0.3684210526315789
 40
0.3684210526315789
 40
0.3684210526315789
 40
0.4210526315789473
 40
0.4210526315789473
 40
0.4210526315789473
 40
0.4210526315789473
 40
0.4736842105263158
 40
0.4736842105263158
 40
0.4736842105263158
 40
0.4736842105263158
 40
0.5263157894736842
 40
0.5263157894736842
 40
0.5263157894736842
 40
0.5263157894736842
 40
0.5789473684210527
 40
0.5789473684210527
 40
0.5789473684210527
 40
0.5789473684210527
 40
0.631578947368421
 40
0.631578947368421
 40
0.631578947368421
 40
0.631578947368421
 40
0.6842105263157895
 40
0.6842105263157895
 40
0.6842105263157895
 40
0.6842105263157895
 40
0.7368421052631579
 40
0.7368421052631579
 40
0.7368421052631579
 40
0.7368421052631579
 40
0.7894736842105263
 40
0.7894736842105263
 40
0.7894736842105263
 40
0.7894736842105263
 40
0.8421052631578947
 40
0.8421052631578947
 40
0.8421052631578947
 40
0.8421052631578947
 40
0.8947368421052632
 40
0.8947368421052632
 40
0.8947368421052632
 40
0.8947368421052632
 40
1.0
 40
1.0
 40
1.0
 40
1.0
 10
-0.80751
 20
-5.4562
 30
0.0
 10
-0.8226
 20
-5.46334
 30
0.0
 10
-0.84694
 20
-5.47022
 30
0.0
 10
-0.88107
 20
-5.47657
 30
0.0
 10
-0.88107
 20
-5.47657
 30
0.0
 10
-0.9152
 20
-5.48319
 30
0.0
 10
-0.95621
 20
-5.48636
 30
0.0
 10
-1.00436
 20
-5.48636
 30
0.0
 10
-1.00436
 20
-5.48636
 30
0.0
 10
-1.09618
 20
-5.48636
 30
0.0
 10
-1.16814
 20
-5.46096
 30
0.0
 10
-1.22026
 20
-5.41042
 30
0.0
 10
-1.22026
 20
-5.41042
 30
0.0
 10
-1.27212
 20
-5.35989
 30
0.0
 10
-1.29805
 20
-5.28766
 30
0.0
 10
-1.29805
 20
-5.19426
 30
0.0
 10
-1.29805
 20
-5.19426
 30
0.0
 10
-1.29805
 20
-5.19426
 30
0.0
 10
-1.29805
 20
-4.90216
 30
0.0
 10
-1.29805
 20
-4.90216
 30
0.0
 10
-1.29805
 20
-4.90216
 30
0.0
 10
-1.29805
 20
-4.90216
 30
0.0
 10
-1.42346
 20
-4.90216
 30
0.0
 10
-1.42346
 20
-4.90216
 30
0.0
 10
-1.42346
 20
-4.90216
 30
0.0
 10
-1.42346
 20
-4.90216
 30
0.0
 10
-1.42346
 20
-4.67356
 30
0.0
 10
-1.42346
 20
-4.67356
 30
0.0
 10
-1.42346
 20
-4.67356
 30
0.0
 10
-1.42346
 20
-4.67356
 30
0.0
 10
-1.29805
 20
-4.67356
 30
0.0
 10
-1.29805
 20
-4.67356
 30
0.0
 10
-1.29805
 20
-4.67356
 30
0.0
 10
-1.29805
 20
-4.67356
 30
0.0
 10
-1.29805
 20
-4.51746
 30
0.0
 10
-1.29805
 20
-4.51746
 30
0.0
 10
-1.29805
 20
-4.51746
 30
0.0
 10
-1.29805
 20
-4.51746
 30
0.0
 10
-0.97261
 20
-4.4275
 30
0.0
 10
-0.97261
 20
-4.4275
 30
0.0
 10
-0.97261
 20
-4.4275
 30
0.0
 10
-0.97261
 20
-4.4275
 30
0.0
 10
-0.97261
 20
-4.67356
 30
0.0
 10
-0.97261
 20
-4.67356
 30
0.0
 10
-0.97261
 20
-4.67356
 30
0.0
 10
-0.97261
 20
-4.67356
 30
0.0
 10
-0.80751
 20
-4.67356
 30
0.0
 10
-0.80751
 20
-4.67356
 30
0.0
 10
-0.80751
 20
-4.67356
 30
0.0
 10
-0.80751
 20
-4.67356
 30
0.0
 10
-0.80751
 20
-4.90216
 30
0.0
 10
-0.80751
 20
-4.90216
 30
0.0
 10
-0.80751
 20
-4.90216
 30
0.0
 10
-0.80751
 20
-4.90216
 30
0.0
 10
-0.97261
 20
-4.90216
 30
0.0
 10
-0.97261
 20
-4.90216
 30
0.0
 10
-0.97261
 20
-4.90216
 30
0.0
 10
-0.97261
 20
-4.90216
 30
0.0
 10
-0.97261
 20
-5.14028
 30
0.0
 10
-0.97261
 20
-5.14028
 30
0.0
 10
-0.97261
 20
-5.14028
 30
0.0
 10
-0.97261
 20
-5.21013
 30
0.0
 10
-0.94483
 20
-5.24506
 30
0.0
 10
-0.88954
 20
-5.24506
 30
0.0
 10
-0.88954
 20
-5.24506
 30
0.0
 10
-0.86387
 20
-5.24506
 30
0.0
 10
-0.83635
 20
-5.23924
 30
0.0
 10
-0.80751
 20
-5.2276
 30
0.0
 10
-0.80751
 20
-5.2276
 30
0.0
 10
-0.80751
 20
-5.2276
 30
0.0
 10
-0.80751
 20
-5.4562
 30
0.0
 10
-0.80751
 20
-5.4562
 30
0.0
  0
SPLINE
  5
7D
330
1F
100
AcDbEntity
  8
Layer 1
 62
     5
370
    53
100
AcDbSpline
210
0.0
220
0.0
230
1.0
 70
    11
 71
     3
 72
    64
 73
    60
 74
     0
 42
0.0000000001
 43
0.0000000001
 12
1.0
 22
0.0
 32
0.0
 13
1.0
 23
0.0
 33
0.0
 40
0.0
 40
0.0
 40
0.0
 40
0.0
 40
0.0625
 40
0.0625
 40
0.0625
 40
0.0625
 40
0.125
 40
0.125
 40
0.125
 40
0.125
 40
0.1875
 40
0.1875
 40
0.1875
 40
0.1875
 40
0.25
 40
0.25
 40
0.25
 40
0.25
 40
0.3125
 40
0.3125
 40
0.3125
 40
0.3125
 40
0.375
 40
0.375
 40
0.375
 40
0.375
 40
0.4375
 40
0.4375
 40
0.4375
 40
0.4375
 40
0.5
 40
0.5
 40
0.5
 40
0.5
 40
0.5625
 40
0.5625
 40
0.5625
 40
0.5625
 40
0.625
 40
0.625
 40
0.625
 40
0.625
 40
0.6875
 40
0.6875
 40
0.6875
 40
0.6875
 40
0.75
 40
0.75
 40
0.75
 40
0.75
 40
0.8125
 40
0.8125
 40
0.8125
 40
0.8125
 40
0.875
 40
0.875
 40
0.875
 40
0.875
 40
1.0
 40
1.0
 40
1.0
 40
1.0
 10
-0.42016
 20
-5.1641
 30
0.0
 10
-0.41434
 20
-5.19823
 30
0.0
 10
-0.39476
 20
-5.22495
 30
0.0
 10
-0.36116
 20
-5.24453
 30
0.0
 10
-0.36116
 20
-5.24453
 30
0.0
 10
-0.32756
 20
-5.26385
 30
0.0
 10
-0.28311
 20
-5.27363
 30
0.0
 10
-0.22781
 20
-5.27363
 30
0.0
 10
-0.22781
 20
-5.27363
 30
0.0
 10
-0.15082
 20
-5.27363
 30
0.0
 10
-0.07779
 20
-5.25882
 30
0.0
 10
-0.009
 20
-5.22918
 30
0.0
 10
-0.009
 20
-5.22918
 30
0.0
 10
-0.009
 20
-5.22918
 30
0.0
 10
-0.009
 20
-5.43821
 30
0.0
 10
-0.009
 20
-5.43821
 30
0.0
 10
-0.009
 20
-5.43821
 30
0.0
 10
-0.08917
 20
-5.47022
 30
0.0
 10
-0.18627
 20
-5.48636
 30
0.0
 10
-0.30057
 20
-5.48636
 30
0.0
 10
-0.30057
 20
-5.48636
 30
0.0
 10
-0.43895
 20
-5.48636
 30
0.0
 10
-0.54663
 20
-5.45091
 30
0.0
 10
-0.62363
 20
-5.38026
 30
0.0
 10
-0.62363
 20
-5.38026
 30
0.0
 10
-0.70062
 20
-5.30962
 30
0.0
 10
-0.73925
 20
-5.21225
 30
0.0
 10
-0.73925
 20
-5.08816
 30
0.0
 10
-0.73925
 20
-5.08816
 30
0.0
 10
-0.73925
 20
-5.00297
 30
0.0
 10
-0.72232
 20
-4.92782
 30
0.0
 10
-0.68845
 20
-4.86274
 30
0.0
 10
-0.68845
 20
-4.86274
 30
0.0
 10
-0.65458
 20
-4.79791
 30
0.0
 10
-0.60458
 20
-4.74685
 30
0.0
 10
-0.53817
 20
-4.70981
 30
0.0
 10
-0.53817
 20
-4.70981
 30
0.0
 10
-0.47176
 20
-4.67303
 30
0.0
 10
-0.39873
 20
-4.65451
 30
0.0
 10
-0.31856
 20
-4.65451
 30
0.0
 10
-0.31856
 20
-4.65451
 30
0.0
 10
-0.23654
 20
-4.65451
 30
0.0
 10
-0.16616
 20
-4.67038
 30
0.0
 10
-0.10769
 20
-4.7024
 30
0.0
 10
-0.10769
 20
-4.7024
 30
0.0
 10
-0.04948
 20
-4.73441
 30
0.0
 10
-0.00503
 20
-4.77939
 30
0.0
 10
0.02513
 20
-4.83734
 30
0.0
 10
0.02513
 20
-4.83734
 30
0.0
 10
0.05529
 20
-4.89502
 30
0.0
 10
0.07038
 20
-4.96275
 30
0.0
 10
0.07038
 20
-5.04027
 30
0.0
 10
0.07038
 20
-5.04027
 30
0.0
 10
0.07038
 20
-5.04027
 30
0.0
 10
0.07038
 20
-5.1641
 30
0.0
 10
0.07038
 20
-5.1641
 30
0.0
 10
0.07038
 20
-5.1641
 30
0.0
 10
0.07038
 20
-5.1641
 30
0.0
 10
-0.42016
 20
-5.1641
 30
0.0
 10
-0.42016
 20
-5.1641
 30
0.0
  0
SPLINE
  5
7E
330
1F
100
AcDbEntity
  8
Layer 1
 62
     5
370
    53
100
AcDbSpline
210
0.0
220
0.0
230
1.0
 70
    11
 71
     3
 72
    20
 73
    16
 74
     0
 42
0.0000000001
 43
0.0000000001
 12
1.0
 22
0.0
 32
0.0
 13
1.0
 23
0.0
 33
0.0
 40
0.0
 40
0.0
 40
0.0
 40
0.0
 40
0.2
 40
0.2
 40
0.2
 40
0.2
 40
0.4
 40
0.4
 40
0.4
 40
0.4
 40
0.6
 40
0.6
 40
0.6
 40
0.6
 40
1.0
 40
1.0
 40
1.0
 40
1.0
 10
-0.22172
 20
-4.99106
 30
0.0
 10
-0.22172
 20
-4.90004
 30
0.0
 10
-0.25453
 20
-4.85453
 30
0.0
 10
-0.32015
 20
-4.85453
 30
0.0
 10
-0.32015
 20
-4.85453
 30
0.0
 10
-0.34767
 20
-4.85453
 30
0.0
 10
-0.37042
 20
-4.86697
 30
0.0
 10
-0.38921
 20
-4.89184
 30
0.0
 10
-0.38921
 20
-4.89184
 30
0.0
 10
-0.40773
 20
-4.91698
 30
0.0
 10
-0.41857
 20
-4.94978
 30
0.0
 10
-0.42175
 20
-4.99106
 30
0.0
 10
-0.42175
 20
-4.99106
 30
0.0
 10
-0.42175
 20
-4.99106
 30
0.0
 10
-0.22172
 20
-4.99106
 30
0.0
 10
-0.22172
 20
-4.99106
 30
0.0
  0
SPLINE
  5
7F
330
1F
100
AcDbEntity
  8
Layer 1
 62
     5
370
    53
100
AcDbSpline
210
0.0
220
0.0
230
1.0
 70
    11
 71
     3
 72
   116
 73
   112
 74
     0
 42
0.0000000001
 43
0.0000000001
 12
1.0
 22
0.0
 32
0.0
 13
1.0
 23
0.0
 33
0.0
 40
0.0
 40
0.0
 40
0.0
 40
0.0
 40
0.0344827586206897
 40
0.0344827586206897
 40
0.0344827586206897
 40
0.0344827586206897
 40
0.0689655172413793
 40
0.0689655172413793
 40
0.0689655172413793
 40
0.0689655172413793
 40
0.103448275862069
 40
0.103448275862069
 40
0.103448275862069
 40
0.103448275862069
 40
0.1379310344827586
 40
0.1379310344827586
 40
0.1379310344827586
 40
0.1379310344827586
 40
0.1724137931034483
 40
0.1724137931034483
 40
0.1724137931034483
 40
0.1724137931034483
 40
0.2068965517241379
 40
0.2068965517241379
 40
0.2068965517241379
 40
0.2068965517241379
 40
0.2413793103448276
 40
0.2413793103448276
 40
0.2413793103448276
 40
0.2413793103448276
 40
0.2758620689655172
 40
0.2758620689655172
 40
0.2758620689655172
 40
0.2758620689655172
 40
0.3103448275862069
 40
0.3103448275862069
 40
0.3103448275862069
 40
0.3103448275862069
 40
0.3448275862068966
 40
0.3448275862068966
 40
0.3448275862068966
 40
0.3448275862068966
 40
0.3793103448275862
 40
0.3793103448275862
 40
0.3793103448275862
 40
0.3793103448275862
 40
0.4137931034482759
 40
0.4137931034482759
 40
0.4137931034482759
 40
0.4137931034482759
 40
0.4482758620689655
 40
0.4482758620689655
 40
0.4482758620689655
 40
0.4482758620689655
 40
0.4827586206896552
 40
0.4827586206896552
 40
0.4827586206896552
 40
0.4827586206896552
 40
0.5172413793103449
 40
0.5172413793103449
 40
0.5172413793103449
 40
0.5172413793103449
 40
0.5517241379310345
 40
0.5517241379310345
 40
0.5517241379310345
 40
0.5517241379310345
 40
0.5862068965517241
 40
0.5862068965517241
 40
0.5862068965517241
 40
0.5862068965517241
 40
0.6206896551724138
 40
0.6206896551724138
 40
0.6206896551724138
 40
0.6206896551724138
 40
0.6551724137931034
 40
0.6551724137931034
 40
0.6551724137931034
 40
0.6551724137931034
 40
0.6896551724137931
 40
0.6896551724137931
 40
0.6896551724137931
 40
0.6896551724137931
 40
0.7241379310344828
 40
0.7241379310344828
 40
0.7241379310344828
 40
0.7241379310344828
 40
0.7586206896551724
 40
0.7586206896551724
 40
0.7586206896551724
 40
0.7586206896551724
 40
0.7931034482758621
 40
0.7931034482758621
 40
0.7931034482758621
 40
0.7931034482758621
 40
0.8275862068965517
 40
0.8275862068965517
 40
0.8275862068965517
 40
0.8275862068965517
 40
0.8620689655172413
 40
0.8620689655172413
 40
0.8620689655172413
 40
0.8620689655172413
 40
0.896551724137931
 40
0.896551724137931
 40
0.896551724137931
 40
0.896551724137931
 40
0.9310344827586207
 40
0.9310344827586207
 40
0.9310344827586207
 40
0.9310344827586207
 40
1.0
 40
1.0
 40
1.0
 40
1.0
 10
1.21338
 20
-5.46731
 30
0.0
 10
1.21338
 20
-5.46731
 30
0.0
 10
1.21338
 20
-5.00985
 30
0.0
 10
1.21338
 20
-5.00985
 30
0.0
 10
1.21338
 20
-5.00985
 30
0.0
 10
1.21338
 20
-4.97148
 30
0.0
 10
1.2065
 20
-4.94291
 30
0.0
 10
1.193
 20
-4.92412
 30
0.0
 10
1.193
 20
-4.92412
 30
0.0
 10
1.17924
 20
-4.90533
 30
0.0
 10
1.15702
 20
-4.89581
 30
0.0
 10
1.12606
 20
-4.89581
 30
0.0
 10
1.12606
 20
-4.89581
 30
0.0
 10
1.09564
 20
-4.89581
 30
0.0
 10
1.07182
 20
-4.90719
 30
0.0
 10
1.05489
 20
-4.93021
 30
0.0
 10
1.05489
 20
-4.93021
 30
0.0
 10
1.03769
 20
-4.95322
 30
0.0
 10
1.02923
 20
-4.98524
 30
0.0
 10
1.02923
 20
-5.02598
 30
0.0
 10
1.02923
 20
-5.02598
 30
0.0
 10
1.02923
 20
-5.02598
 30
0.0
 10
1.02923
 20
-5.46731
 30
0.0
 10
1.02923
 20
-5.46731
 30
0.0
 10
1.02923
 20
-5.46731
 30
0.0
 10
1.02923
 20
-5.46731
 30
0.0
 10
0.69903
 20
-5.46731
 30
0.0
 10
0.69903
 20
-5.46731
 30
0.0
 10
0.69903
 20
-5.46731
 30
0.0
 10
0.69903
 20
-5.46731
 30
0.0
 10
0.69903
 20
-5.01752
 30
0.0
 10
0.69903
 20
-5.01752
 30
0.0
 10
0.69903
 20
-5.01752
 30
0.0
 10
0.69903
 20
-4.93629
 30
0.0
 10
0.67151
 20
-4.89581
 30
0.0
 10
0.61621
 20
-4.89581
 30
0.0
 10
0.61621
 20
-4.89581
 30
0.0
 10
0.58261
 20
-4.89581
 30
0.0
 10
0.55747
 20
-4.90745
 30
0.0
 10
0.54054
 20
-4.931
 30
0.0
 10
0.54054
 20
-4.931
 30
0.0
 10
0.52334
 20
-4.95455
 30
0.0
 10
0.51488
 20
-4.98841
 30
0.0
 10
0.51488
 20
-5.03233
 30
0.0
 10
0.51488
 20
-5.03233
 30
0.0
 10
0.51488
 20
-5.03233
 30
0.0
 10
0.51488
 20
-5.46731
 30
0.0
 10
0.51488
 20
-5.46731
 30
0.0
 10
0.51488
 20
-5.46731
 30
0.0
 10
0.51488
 20
-5.46731
 30
0.0
 10
0.18468
 20
-5.46731
 30
0.0
 10
0.18468
 20
-5.46731
 30
0.0
 10
0.18468
 20
-5.46731
 30
0.0
 10
0.18468
 20
-5.46731
 30
0.0
 10
0.18468
 20
-4.67356
 30
0.0
 10
0.18468
 20
-4.67356
 30
0.0
 10
0.18468
 20
-4.67356
 30
0.0
 10
0.18468
 20
-4.67356
 30
0.0
 10
0.51488
 20
-4.67356
 30
0.0
 10
0.51488
 20
-4.67356
 30
0.0
 10
0.51488
 20
-4.67356
 30
0.0
 10
0.51488
 20
-4.67356
 30
0.0
 10
0.51488
 20
-4.79897
 30
0.0
 10
0.51488
 20
-4.79897
 30
0.0
 10
0.51488
 20
-4.79897
 30
0.0
 10
0.51488
 20
-4.79897
 30
0.0
 10
0.51805
 20
-4.79897
 30
0.0
 10
0.51805
 20
-4.79897
 30
0.0
 10
0.51805
 20
-4.79897
 30
0.0
 10
0.53049
 20
-4.77675
 30
0.0
 10
0.55006
 20
-4.75426
 30
0.0
 10
0.57732
 20
-4.7315
 30
0.0
 10
0.57732
 20
-4.7315
 30
0.0
 10
0.6043
 20
-4.70848
 30
0.0
 10
0.635
 20
-4.68996
 30
0.0
 10
0.66913
 20
-4.67568
 30
0.0
 10
0.66913
 20
-4.67568
 30
0.0
 10
0.70299
 20
-4.66165
 30
0.0
 10
0.74004
 20
-4.65451
 30
0.0
 10
0.77972
 20
-4.65451
 30
0.0
 10
0.77972
 20
-4.65451
 30
0.0
 10
0.83608
 20
-4.65451
 30
0.0
 10
0.88344
 20
-4.66562
 30
0.0
 10
0.92207
 20
-4.68785
 30
0.0
 10
0.92207
 20
-4.68785
 30
0.0
 10
0.96043
 20
-4.70981
 30
0.0
 10
0.99245
 20
-4.745
 30
0.0
 10
1.01838
 20
-4.79289
 30
0.0
 10
1.01838
 20
-4.79289
 30
0.0
 10
1.04642
 20
-4.74844
 30
0.0
 10
1.08346
 20
-4.71431
 30
0.0
 10
1.13003
 20
-4.69049
 30
0.0
 10
1.13003
 20
-4.69049
 30
0.0
 10
1.1766
 20
-4.66642
 30
0.0
 10
1.22846
 20
-4.65451
 30
0.0
 10
1.28534
 20
-4.65451
 30
0.0
 10
1.28534
 20
-4.65451
 30
0.0
 10
1.36842
 20
-4.65451
 30
0.0
 10
1.43245
 20
-4.6815
 30
0.0
 10
1.4769
 20
-4.73574
 30
0.0
 10
1.4769
 20
-4.73574
 30
0.0
 10
1.52135
 20
-4.78998
 30
0.0
 10
1.54358
 20
-4.86829
 30
0.0
 10
1.54358
 20
-4.97069
 30
0.0
 10
1.54358
 20
-4.97069
 30
0.0
 10
1.54358
 20
-4.97069
 30
0.0
 10
1.54358
 20
-5.46731
 30
0.0
 10
1.54358
 20
-5.46731
 30
0.0
 10
1.54358
 20
-5.46731
 30
0.0
 10
1.54358
 20
-5.46731
 30
0.0
 10
1.21338
 20
-5.46731
 30
0.0
 10
1.21338
 20
-5.46731
 30
0.0
  0
SPLINE
  5
80
330
1F
100
AcDbEntity
  8
Layer 1
 62
     5
370
    53
100
AcDbSpline
210
0.0
220
0.0
230
1.0
 70
    11
 71
     3
 72
    68
 73
    64
 74
     0
 42
0.0000000001
 43
0.0000000001
 12
1.0
 22
0.0
 32
0.0
 13
1.0
 23
0.0
 33
0.0
 40
0.0
 40
0.0
 40
0.0
 40
0.0
 40
0.0588235294117647
 40
0.0588235294117647
 40
0.0588235294117647
 40
0.0588235294117647
 40
0.1176470588235294
 40
0.1176470588235294
 40
0.1176470588235294
 40
0.1176470588235294
 40
0.1764705882352941
 40
0.1764705882352941
 40
0.1764705882352941
 40
0.1764705882352941
 40
0.2352941176470588
 40
0.2352941176470588
 40
0.2352941176470588
 40
0.2352941176470588
 40
0.2941176470588235
 40
0.2941176470588235
 40
0.2941176470588235
 40
0.2941176470588235
 40
0.3529411764705883
 40
0.3529411764705883
 40
0.3529411764705883
 40
0.3529411764705883
 40
0.4117647058823529
 40
0.4117647058823529
 40
0.4117647058823529
 40
0.4117647058823529
 40
0.4705882352941176
 40
0.4705882352941176
 40
0.4705882352941176
 40
0.4705882352941176
 40
0.5294117647058824
 40
0.5294117647058824
 40
0.5294117647058824
 40
0.5294117647058824
 40
0.5882352941176471
 40
0.5882352941176471
 40
0.5882352941176471
 40
0.5882352941176471
 40
0.6470588235294118
 40
0.6470588235294118
 40
0.6470588235294118
 40
0.6470588235294118
 40
0.7058823529411765
 40
0.7058823529411765
 40
0.7058823529411765
 40
0.7058823529411765
 40
0.7647058823529411
 40
0.7647058823529411
 40
0.7647058823529411
 40
0.7647058823529411
 40
0.8235294117647058
 40
0.8235294117647058
 40
0.8235294117647058
 40
0.8235294117647058
 40
0.8823529411764706
 40
0.8823529411764706
 40
0.8823529411764706
 40
0.8823529411764706
 40
1.0
 40
1.0
 40
1.0
 40
1.0
 10
2.58842
 20
-5.04636
 30
0.0
 10
2.58842
 20
-5.13314
 30
0.0
 10
2.57413
 20
-5.20987
 30
0.0
 10
2.54529
 20
-5.27681
 30
0.0
 10
2.54529
 20
-5.27681
 30
0.0
 10
2.51671
 20
-5.34375
 30
0.0
 10
2.47597
 20
-5.39534
 30
0.0
 10
2.42332
 20
-5.43186
 30
0.0
 10
2.42332
 20
-5.43186
 30
0.0
 10
2.37066
 20
-5.4681
 30
0.0
 10
2.31087
 20
-5.48636
 30
0.0
 10
2.24419
 20
-5.48636
 30
0.0
 10
2.24419
 20
-5.48636
 30
0.0
 10
2.19313
 20
-5.48636
 30
0.0
 10
2.14921
 20
-5.47684
 30
0.0
 10
2.11269
 20
-5.45805
 30
0.0
 10
2.11269
 20
-5.45805
 30
0.0
 10
2.07645
 20
-5.43926
 30
0.0
 10
2.04761
 20
-5.41466
 30
0.0
 10
2.02644
 20
-5.38476
 30
0.0
 10
2.02644
 20
-5.38476
 30
0.0
 10
2.02644
 20
-5.38476
 30
0.0
 10
2.02327
 20
-5.38476
 30
0.0
 10
2.02327
 20
-5.38476
 30
0.0
 10
2.02327
 20
-5.38476
 30
0.0
 10
2.02327
 20
-5.38476
 30
0.0
 10
2.02327
 20
-5.46731
 30
0.0
 10
2.02327
 20
-5.46731
 30
0.0
 10
2.02327
 20
-5.46731
 30
0.0
 10
2.02327
 20
-5.46731
 30
0.0
 10
1.69307
 20
-5.46731
 30
0.0
 10
1.69307
 20
-5.46731
 30
0.0
 10
1.69307
 20
-5.46731
 30
0.0
 10
1.69307
 20
-5.46731
 30
0.0
 10
1.69307
 20
-4.29256
 30
0.0
 10
1.69307
 20
-4.29256
 30
0.0
 10
1.69307
 20
-4.29256
 30
0.0
 10
1.69307
 20
-4.29256
 30
0.0
 10
2.02327
 20
-4.29256
 30
0.0
 10
2.02327
 20
-4.29256
 30
0.0
 10
2.02327
 20
-4.29256
 30
0.0
 10
2.02327
 20
-4.29256
 30
0.0
 10
2.02327
 20
-4.78151
 30
0.0
 10
2.02327
 20
-4.78151
 30
0.0
 10
2.02327
 20
-4.78151
 30
0.0
 10
2.02327
 20
-4.78151
 30
0.0
 10
2.02644
 20
-4.78151
 30
0.0
 10
2.02644
 20
-4.78151
 30
0.0
 10
2.02644
 20
-4.78151
 30
0.0
 10
2.0521
 20
-4.74235
 30
0.0
 10
2.08729
 20
-4.7114
 30
0.0
 10
2.13148
 20
-4.68864
 30
0.0
 10
2.13148
 20
-4.68864
 30
0.0
 10
2.17567
 20
-4.66589
 30
0.0
 10
2.22435
 20
-4.65451
 30
0.0
 10
2.27753
 20
-4.65451
 30
0.0
 10
2.27753
 20
-4.65451
 30
0.0
 10
2.37781
 20
-4.65451
 30
0.0
 10
2.4548
 20
-4.68785
 30
0.0
 10
2.50825
 20
-4.75452
 30
0.0
 10
2.50825
 20
-4.75452
 30
0.0
 10
2.56169
 20
-4.82093
 30
0.0
 10
2.58842
 20
-4.9183
 30
0.0
 10
2.58842
 20
-5.04636
 30
0.0
  0
SPLINE
  5
81
330
1F
100
AcDbEntity
  8
Layer 1
 62
     5
370
    53
100
AcDbSpline
210
0.0
220
0.0
230
1.0
 70
    11
 71
     3
 72
    40
 73
    36
 74
     0
 42
0.0000000001
 43
0.0000000001
 12
1.0
 22
0.0
 32
0.0
 13
1.0
 23
0.0
 33
0.0
 40
0.0
 40
0.0
 40
0.0
 40
0.0
 40
0.1
 40
0.1
 40
0.1
 40
0.1
 40
0.2
 40
0.2
 40
0.2
 40
0.2
 40
0.3
 40
0.3
 40
0.3
 40
0.3
 40
0.4
 40
0.4
 40
0.4
 40
0.4
 40
0.5
 40
0.5
 40
0.5
 40
0.5
 40
0.6
 40
0.6
 40
0.6
 40
0.6
 40
0.7
 40
0.7
 40
0.7
 40
0.7
 40
0.8
 40
0.8
 40
0.8
 40
0.8
 40
1.0
 40
1.0
 40
1.0
 40
1.0
 10
2.25345
 20
-5.05641
 30
0.0
 10
2.25345
 20
-5.00323
 30
0.0
 10
2.24313
 20
-4.96301
 30
0.0
 10
2.22276
 20
-4.93629
 30
0.0
 10
2.22276
 20
-4.93629
 30
0.0
 10
2.20239
 20
-4.9093
 30
0.0
 10
2.17302
 20
-4.89581
 30
0.0
 10
2.13492
 20
-4.89581
 30
0.0
 10
2.13492
 20
-4.89581
 30
0.0
 10
2.10132
 20
-4.89581
 30
0.0
 10
2.07327
 20
-4.90983
 30
0.0
 10
2.05078
 20
-4.93814
 30
0.0
 10
2.05078
 20
-4.93814
 30
0.0
 10
2.02829
 20
-4.96619
 30
0.0
 10
2.01718
 20
-5.00297
 30
0.0
 10
2.01718
 20
-5.04795
 30
0.0
 10
2.01718
 20
-5.04795
 30
0.0
 10
2.01718
 20
-5.04795
 30
0.0
 10
2.01718
 20
-5.0961
 30
0.0
 10
2.01718
 20
-5.0961
 30
0.0
 10
2.01718
 20
-5.0961
 30
0.0
 10
2.01718
 20
-5.14161
 30
0.0
 10
2.02723
 20
-5.17786
 30
0.0
 10
2.04734
 20
-5.20458
 30
0.0
 10
2.04734
 20
-5.20458
 30
0.0
 10
2.06745
 20
-5.23157
 30
0.0
 10
2.09444
 20
-5.24506
 30
0.0
 10
2.12857
 20
-5.24506
 30
0.0
 10
2.12857
 20
-5.24506
 30
0.0
 10
2.16852
 20
-5.24506
 30
0.0
 10
2.19921
 20
-5.22866
 30
0.0
 10
2.22091
 20
-5.19585
 30
0.0
 10
2.22091
 20
-5.19585
 30
0.0
 10
2.2426
 20
-5.16304
 30
0.0
 10
2.25345
 20
-5.11647
 30
0.0
 10
2.25345
 20
-5.05641
 30
0.0
  0
SPLINE
  5
82
330
1F
100
AcDbEntity
  8
Layer 1
 62
     5
370
    53
100
AcDbSpline
210
0.0
220
0.0
230
1.0
 70
    11
 71
     3
 72
    64
 73
    60
 74
     0
 42
0.0000000001
 43
0.0000000001
 12
1.0
 22
0.0
 32
0.0
 13
1.0
 23
0.0
 33
0.0
 40
0.0
 40
0.0
 40
0.0
 40
0.0
 40
0.0625
 40
0.0625
 40
0.0625
 40
0.0625
 40
0.125
 40
0.125
 40
0.125
 40
0.125
 40
0.1875
 40
0.1875
 40
0.1875
 40
0.1875
 40
0.25
 40
0.25
 40
0.25
 40
0.25
 40
0.3125
 40
0.3125
 40
0.3125
 40
0.3125
 40
0.375
 40
0.375
 40
0.375
 40
0.375
 40
0.4375
 40
0.4375
 40
0.4375
 40
0.4375
 40
0.5
 40
0.5
 40
0.5
 40
0.5
 40
0.5625
 40
0.5625
 40
0.5625
 40
0.5625
 40
0.625
 40
0.625
 40
0.625
 40
0.625
 40
0.6875
 40
0.6875
 40
0.6875
 40
0.6875
 40
0.75
 40
0.75
 40
0.75
 40
0.75
 40
0.8125
 40
0.8125
 40
0.8125
 40
0.8125
 40
0.875
 40
0.875
 40
0.875
 40
0.875
 40
1.0
 40
1.0
 40
1.0
 40
1.0
 10
2.99667
 20
-5.1641
 30
0.0
 10
3.00249
 20
-5.19823
 30
0.0
 10
3.02207
 20
-5.22495
 30
0.0
 10
3.05567
 20
-5.24453
 30
0.0
 10
3.05567
 20
-5.24453
 30
0.0
 10
3.08927
 20
-5.26385
 30
0.0
 10
3.13372
 20
-5.27363
 30
0.0
 10
3.18902
 20
-5.27363
 30
0.0
 10
3.18902
 20
-5.27363
 30
0.0
 10
3.26601
 20
-5.27363
 30
0.0
 10
3.33904
 20
-5.25882
 30
0.0
 10
3.40783
 20
-5.22918
 30
0.0
 10
3.40783
 20
-5.22918
 30
0.0
 10
3.40783
 20
-5.22918
 30
0.0
 10
3.40783
 20
-5.43821
 30
0.0
 10
3.40783
 20
-5.43821
 30
0.0
 10
3.40783
 20
-5.43821
 30
0.0
 10
3.32766
 20
-5.47022
 30
0.0
 10
3.23056
 20
-5.48636
 30
0.0
 10
3.11626
 20
-5.48636
 30
0.0
 10
3.11626
 20
-5.48636
 30
0.0
 10
2.97788
 20
-5.48636
 30
0.0
 10
2.8702
 20
-5.45091
 30
0.0
 10
2.7932
 20
-5.38026
 30
0.0
 10
2.7932
 20
-5.38026
 30
0.0
 10
2.71621
 20
-5.30962
 30
0.0
 10
2.67758
 20
-5.21225
 30
0.0
 10
2.67758
 20
-5.08816
 30
0.0
 10
2.67758
 20
-5.08816
 30
0.0
 10
2.67758
 20
-5.00297
 30
0.0
 10
2.69451
 20
-4.92782
 30
0.0
 10
2.72838
 20
-4.86274
 30
0.0
 10
2.72838
 20
-4.86274
 30
0.0
 10
2.76225
 20
-4.79791
 30
0.0
 10
2.81225
 20
-4.74685
 30
0.0
 10
2.87866
 20
-4.70981
 30
0.0
 10
2.87866
 20
-4.70981
 30
0.0
 10
2.94507
 20
-4.67303
 30
0.0
 10
3.0181
 20
-4.65451
 30
0.0
 10
3.09827
 20
-4.65451
 30
0.0
 10
3.09827
 20
-4.65451
 30
0.0
 10
3.18029
 20
-4.65451
 30
0.0
 10
3.25067
 20
-4.67038
 30
0.0
 10
3.30914
 20
-4.7024
 30
0.0
 10
3.30914
 20
-4.7024
 30
0.0
 10
3.36735
 20
-4.73441
 30
0.0
 10
3.4118
 20
-4.77939
 30
0.0
 10
3.44196
 20
-4.83734
 30
0.0
 10
3.44196
 20
-4.83734
 30
0.0
 10
3.47212
 20
-4.89502
 30
0.0
 10
3.48721
 20
-4.96275
 30
0.0
 10
3.48721
 20
-5.04027
 30
0.0
 10
3.48721
 20
-5.04027
 30
0.0
 10
3.48721
 20
-5.04027
 30
0.0
 10
3.48721
 20
-5.1641
 30
0.0
 10
3.48721
 20
-5.1641
 30
0.0
 10
3.48721
 20
-5.1641
 30
0.0
 10
3.48721
 20
-5.1641
 30
0.0
 10
2.99667
 20
-5.1641
 30
0.0
 10
2.99667
 20
-5.1641
 30
0.0
  0
SPLINE
  5
83
330
1F
100
AcDbEntity
  8
Layer 1
 62
     5
370
    53
100
AcDbSpline
210
0.0
220
0.0
230
1.0
 70
    11
 71
     3
 72
    20
 73
    16
 74
     0
 42
0.0000000001
 43
0.0000000001
 12
1.0
 22
0.0
 32
0.0
 13
1.0
 23
0.0
 33
0.0
 40
0.0
 40
0.0
 40
0.0
 40
0.0
 40
0.2
 40
0.2
 40
0.2
 40
0.2
 40
0.4
 40
0.4
 40
0.4
 40
0.4
 40
0.6
 40
0.6
 40
0.6
 40
0.6
 40
1.0
 40
1.0
 40
1.0
 40
1.0
 10
3.19511
 20
-4.99106
 30
0.0
 10
3.19511
 20
-4.90004
 30
0.0
 10
3.1623
 20
-4.85453
 30
0.0
 10
3.09668
 20
-4.85453
 30
0.0
 10
3.09668
 20
-4.85453
 30
0.0
 10
3.06916
 20
-4.85453
 30
0.0
 10
3.04641
 20
-4.86697
 30
0.0
 10
3.02762
 20
-4.89184
 30
0.0
 10
3.02762
 20
-4.89184
 30
0.0
 10
3.0091
 20
-4.91698
 30
0.0
 10
2.99826
 20
-4.94978
 30
0.0
 10
2.99508
 20
-4.99106
 30
0.0
 10
2.99508
 20
-4.99106
 30
0.0
 10
2.99508
 20
-4.99106
 30
0.0
 10
3.19511
 20
-4.99106
 30
0.0
 10
3.19511
 20
-4.99106
 30
0.0
  0
SPLINE
  5
84
330
1F
100
AcDbEntity
  8
Layer 1
 62
     5
370
    53
100
AcDbSpline
210
0.0
220
0.0
230
1.0
 70
    11
 71
     3
 72
    56
 73
    52
 74
     0
 42
0.0000000001
 43
0.0000000001
 12
1.0
 22
0.0
 32
0.0
 13
1.0
 23
0.0
 33
0.0
 40
0.0
 40
0.0
 40
0.0
 40
0.0
 40
0.0714285714285714
 40
0.0714285714285714
 40
0.0714285714285714
 40
0.0714285714285714
 40
0.1428571428571428
 40
0.1428571428571428
 40
0.1428571428571428
 40
0.1428571428571428
 40
0.2142857142857143
 40
0.2142857142857143
 40
0.2142857142857143
 40
0.2142857142857143
 40
0.2857142857142857
 40
0.2857142857142857
 40
0.2857142857142857
 40
0.2857142857142857
 40
0.3571428571428572
 40
0.3571428571428572
 40
0.3571428571428572
 40
0.3571428571428572
 40
0.4285714285714285
 40
0.4285714285714285
 40
0.4285714285714285
 40
0.4285714285714285
 40
0.5
 40
0.5
 40
0.5
 40
0.5
 40
0.5714285714285714
 40
0.5714285714285714
 40
0.5714285714285714
 40
0.5714285714285714
 40
0.6428571428571429
 40
0.6428571428571429
 40
0.6428571428571429
 40
0.6428571428571429
 40
0.7142857142857143
 40
0.7142857142857143
 40
0.7142857142857143
 40
0.7142857142857143
 40
0.7857142857142857
 40
0.7857142857142857
 40
0.7857142857142857
 40
0.7857142857142857
 40
0.8571428571428571
 40
0.8571428571428571
 40
0.8571428571428571
 40
0.8571428571428571
 40
1.0
 40
1.0
 40
1.0
 40
1.0
 10
4.19841
 20
-4.95613
 30
0.0
 10
4.18597
 20
-4.95058
 30
0.0
 10
4.1693
 20
-4.94529
 30
0.0
 10
4.14813
 20
-4.94079
 30
0.0
 10
4.14813
 20
-4.94079
 30
0.0
 10
4.1267
 20
-4.93629
 30
0.0
 10
4.10924
 20
-4.93391
 30
0.0
 10
4.09522
 20
-4.93391
 30
0.0
 10
4.09522
 20
-4.93391
 30
0.0
 10
3.98621
 20
-4.93391
 30
0.0
 10
3.93171
 20
-4.99688
 30
0.0
 10
3.93171
 20
-5.12309
 30
0.0
 10
3.93171
 20
-5.12309
 30
0.0
 10
3.93171
 20
-5.12309
 30
0.0
 10
3.93171
 20
-5.46731
 30
0.0
 10
3.93171
 20
-5.46731
 30
0.0
 10
3.93171
 20
-5.46731
 30
0.0
 10
3.93171
 20
-5.46731
 30
0.0
 10
3.60151
 20
-5.46731
 30
0.0
 10
3.60151
 20
-5.46731
 30
0.0
 10
3.60151
 20
-5.46731
 30
0.0
 10
3.60151
 20
-5.46731
 30
0.0
 10
3.60151
 20
-4.67356
 30
0.0
 10
3.60151
 20
-4.67356
 30
0.0
 10
3.60151
 20
-4.67356
 30
0.0
 10
3.60151
 20
-4.67356
 30
0.0
 10
3.93171
 20
-4.67356
 30
0.0
 10
3.93171
 20
-4.67356
 30
0.0
 10
3.93171
 20
-4.67356
 30
0.0
 10
3.93171
 20
-4.67356
 30
0.0
 10
3.93171
 20
-4.81326
 30
0.0
 10
3.93171
 20
-4.81326
 30
0.0
 10
3.93171
 20
-4.81326
 30
0.0
 10
3.93171
 20
-4.81326
 30
0.0
 10
3.93488
 20
-4.81326
 30
0.0
 10
3.93488
 20
-4.81326
 30
0.0
 10
3.93488
 20
-4.81326
 30
0.0
 10
3.95499
 20
-4.76299
 30
0.0
 10
3.98356
 20
-4.72462
 30
0.0
 10
4.02087
 20
-4.69843
 30
0.0
 10
4.02087
 20
-4.69843
 30
0.0
 10
4.05818
 20
-4.67224
 30
0.0
 10
4.10157
 20
-4.65927
 30
0.0
 10
4.15104
 20
-4.65927
 30
0.0
 10
4.15104
 20
-4.65927
 30
0.0
 10
4.1693
 20
-4.65927
 30
0.0
 10
4.18491
 20
-4.66245
 30
0.0
 10
4.19841
 20
-4.66853
 30
0.0
 10
4.19841
 20
-4.66853
 30
0.0
 10
4.19841
 20
-4.66853
 30
0.0
 10
4.19841
 20
-4.95613
 30
0.0
 10
4.19841
 20
-4.95613
 30
0.0
  0
ENDSEC
  0
SECTION
  2
OBJECTS
  0
DICTIONARY
  5
C
330
0
100
AcDbDictionary
281
     1
  3
ACAD_GROUP
350
D
  3
ACAD_LAYOUT
350
1A
  3
ACAD_MATERIAL
350
3B
  3
ACAD_MLEADERSTYLE
350
A6
  3
ACAD_MLINESTYLE
350
17
  3
ACAD_PLOTSETTINGS
350
19
  3
ACAD_PLOTSTYLENAME
350
E
  3
ACAD_TABLESTYLE
350
A5
  3
ACAD_VISUALSTYLE
350
2A
  0
DICTIONARY
  5
D
102
{ACAD_REACTORS
330
C
102
}
330
C
100
AcDbDictionary
281
     1
  0
DICTIONARY
  5
1A
102
{ACAD_REACTORS
330
C
102
}
330
C
100
AcDbDictionary
281
     1
  3
Layout1
350
1E
  3
Layout2
350
26
  3
Model
350
22
  0
DICTIONARY
  5
3B
102
{ACAD_REACTORS
330
C
102
}
330
C
100
AcDbDictionary
281
     1
  3
ByBlock
350
3D
  3
ByLayer
350
3C
  3
Global
350
3E
  0
DICTIONARY
  5
A6
102
{ACAD_REACTORS
330
C
102
}
330
C
100
AcDbDictionary
281
     1
  0
DICTIONARY
  5
17
102
{ACAD_REACTORS
330
C
102
}
330
C
100
AcDbDictionary
281
     1
  3
Standard
350
18
  0
DICTIONARY
  5
19
102
{ACAD_REACTORS
330
C
102
}
330
C
100
AcDbDictionary
281
     1
  0
ACDBDICTIONARYWDFLT
  5
E
102
{ACAD_REACTORS
330
C
102
}
330
C
100
AcDbDictionary
281
     1
  3
Normal
350
F
100
AcDbDictionaryWithDefault
340
F
  0
DICTIONARY
  5
A5
102
{ACAD_REACTORS
330
C
102
}
330
C
100
AcDbDictionary
281
     1
  0
DICTIONARY
  5
2A
102
{ACAD_REACTORS
330
C
102
}
330
C
100
AcDbDictionary
281
     1
  3
2dWireframe
350
2F
  3
3D Hidden
350
31
  3
3dWireframe
350
30
  3
Basic
350
32
  3
Brighten
350
36
  3
ColorChange
350
3A
  3
Conceptual
350
34
  3
Dim
350
35
  3
Facepattern
350
39
  3
Flat
350
2B
  3
FlatWithEdges
350
2C
  3
Gouraud
350
2D
  3
GouraudWithEdges
350
2E
  3
Linepattern
350
38
  3
Realistic
350
33
  3
Thicken
350
37
  0
LAYOUT
  5
1E
102
{ACAD_REACTORS
330
1A
102
}
330
1A
100
AcDbPlotSettings
  1

  2
none_device
  4

  6

 40
0.0
 41
0.0
 42
0.0
 43
0.0
 44
0.0
 45
0.0
 46
0.0
 47
0.0
 48
0.0
 49
0.0
140
0.0
141
0.0
142
1.0
143
1.0
 70
   688
 72
     0
 73
     0
 74
     5
  7

 75
    16
 76
     0
 77
     2
 78
   300
147
1.0
148
0.0
149
0.0
100
AcDbLayout
  1
Layout1
 70
     1
 71
     1
 10
0.0
 20
0.0
 11
12.0
 21
9.0
 12
0.0
 22
0.0
 32
0.0
 14
1.000000000000000E+20
 24
1.000000000000000E+20
 34
1.000000000000000E+20
 15
-1.000000000000000E+20
 25
-1.000000000000000E+20
 35
-1.000000000000000E+20
146
0.0
 13
0.0
 23
0.0
 33
0.0
 16
1.0
 26
0.0
 36
0.0
 17
0.0
 27
1.0
 37
0.0
 76
     0
330
1B
  0
LAYOUT
  5
26
102
{ACAD_REACTORS
330
1A
102
}
330
1A
100
AcDbPlotSettings
  1

  2
none_device
  4

  6

 40
0.0
 41
0.0
 42
0.0
 43
0.0
 44
0.0
 45
0.0
 46
0.0
 47
0.0
 48
0.0
 49
0.0
140
0.0
141
0.0
142
1.0
143
1.0
 70
   688
 72
     0
 73
     0
 74
     5
  7

 75
    16
 76
     0
 77
     2
 78
   300
147
1.0
148
0.0
149
0.0
100
AcDbLayout
  1
Layout2
 70
     1
 71
     2
 10
0.0
 20
0.0
 11
0.0
 21
0.0
 12
0.0
 22
0.0
 32
0.0
 14
0.0
 24
0.0
 34
0.0
 15
0.0
 25
0.0
 35
0.0
146
0.0
 13
0.0
 23
0.0
 33
0.0
 16
1.0
 26
0.0
 36
0.0
 17
0.0
 27
1.0
 37
0.0
 76
     0
330
23
  0
LAYOUT
  5
22
102
{ACAD_REACTORS
330
1A
102
}
330
1A
100
AcDbPlotSettings
  1

  2
none_device
  4

  6

 40
0.0
 41
0.0
 42
0.0
 43
0.0
 44
0.0
 45
0.0
 46
0.0
 47
0.0
 48
0.0
 49
0.0
140
0.0
141
0.0
142
1.0
143
1.0
 70
  1712
 72
     0
 73
     0
 74
     0
  7

 75
     0
 76
     0
 77
     2
 78
   300
147
1.0
148
0.0
149
0.0
100
AcDbLayout
  1
Model
 70
     1
 71
     0
 10
0.0
 20
0.0
 11
12.0
 21
9.0
 12
0.0
 22
0.0
 32
0.0
 14
-5.22646
 24
-6.72646
 34
0.0
 15
5.22646
 25
6.72646
 35
0.0
146
0.0
 13
0.0
 23
0.0
 33
0.0
 16
1.0
 26
0.0
 36
0.0
 17
0.0
 27
1.0
 37
0.0
 76
     0
330
1F
331
29
  0
MATERIAL
  5
3D
102
{ACAD_REACTORS
330
3B
102
}
330
3B
100
AcDbMaterial
  1
ByBlock
 72
     1
 94
      127
  0
MATERIAL
  5
3C
102
{ACAD_REACTORS
330
3B
102
}
330
3B
100
AcDbMaterial
  1
ByLayer
 72
     1
 94
      127
  0
MATERIAL
  5
3E
102
{ACAD_REACTORS
330
3B
102
}
330
3B
100
AcDbMaterial
  1
Global
 72
     1
 94
      127
  0
MLINESTYLE
  5
18
102
{ACAD_REACTORS
330
17
102
}
330
17
100
AcDbMlineStyle
  2
Standard
 70
     0
  3

 62
   256
 51
90.0
 52
90.0
 71
     2
 49
0.5
 62
   256
  6
BYLAYER
 49
-0.5
 62
   256
  6
BYLAYER
  0
ACDBPLACEHOLDER
  5
F
102
{ACAD_REACTORS
330
E
102
}
330
E
  0
VISUALSTYLE
  5
2F
102
{ACAD_REACTORS
330
2A
102
}
102
{ACAD_XDICTIONARY
360
8D
102
}
330
2A
100
AcDbVisualStyle
  2
2dWireframe
 70
     4
 71
     0
 72
     2
 73
     0
 90
        0
 40
-0.6
 41
-30.0
 62
     5
 63
     7
421
 16777215
 74
     1
 91
        4
 64
     7
 65
   257
 75
     1
175
     1
 42
1.0
 92
        0
 66
   257
 43
1.0
 76
     1
 77
     6
 78
     2
 67
     7
 79
     5
170
     0
171
     0
290
     0
174
     0
 93
        1
 44
0.0
173
     0
291
     0
 45
0.0
  0
VISUALSTYLE
  5
31
102
{ACAD_REACTORS
330
2A
102
}
102
{ACAD_XDICTIONARY
360
91
102
}
330
2A
100
AcDbVisualStyle
  2
3D Hidden
 70
     6
 71
     1
 72
     2
 73
     2
 90
        0
 40
-0.6
 41
-30.0
 62
     5
 63
     7
421
 16777215
 74
     2
 91
        2
 64
     7
 65
   257
 75
     2
175
     1
 42
40.0
 92
        0
 66
   257
 43
1.0
 76
     1
 77
     6
 78
     2
 67
     7
 79
     3
170
     0
171
     0
290
     0
174
     0
 93
        1
 44
0.0
173
     0
291
     0
 45
0.0
  0
VISUALSTYLE
  5
30
102
{ACAD_REACTORS
330
2A
102
}
102
{ACAD_XDICTIONARY
360
8F
102
}
330
2A
100
AcDbVisualStyle
  2
3dWireframe
 70
     5
 71
     0
 72
     2
 73
     0
 90
        0
 40
-0.6
 41
-30.0
 62
     5
 63
     7
421
 16777215
 74
     1
 91
        4
 64
     7
 65
   257
 75
     1
175
     1
 42
1.0
 92
        0
 66
   257
 43
1.0
 76
     1
 77
     6
 78
     2
 67
     7
 79
     5
170
     0
171
     0
290
     0
174
     0
 93
        1
 44
0.0
173
     0
291
     0
 45
0.0
  0
VISUALSTYLE
  5
32
102
{ACAD_REACTORS
330
2A
102
}
102
{ACAD_XDICTIONARY
360
93
102
}
330
2A
100
AcDbVisualStyle
  2
Basic
 70
     7
 71
     1
 72
     0
 73
     1
 90
        0
 40
-0.6
 41
-30.0
 62
     5
 63
     7
421
 16777215
 74
     0
 91
        4
 64
     7
 65
   257
 75
     1
175
     1
 42
1.0
 92
        8
 66
     7
 43
1.0
 76
     1
 77
     6
 78
     2
 67
     7
 79
     5
170
     0
171
     0
290
     0
174
     0
 93
        1
 44
0.0
173
     0
291
     1
 45
0.0
  0
VISUALSTYLE
  5
36
102
{ACAD_REACTORS
330
2A
102
}
102
{ACAD_XDICTIONARY
360
9B
102
}
330
2A
100
AcDbVisualStyle
  2
Brighten
 70
    12
 71
     2
 72
     2
 73
     0
 90
        0
 40
-0.6
 41
-30.0
 62
     5
 63
     7
421
 16777215
 74
     1
 91
        4
 64
     7
 65
   257
 75
     1
175
     1
 42
1.0
 92
        8
 66
     7
 43
1.0
 76
     1
 77
     6
 78
     2
 67
     7
 79
     5
170
     0
171
     0
290
     0
174
     0
 93
        1
 44
50.0
173
     0
291
     1
 45
0.0
  0
VISUALSTYLE
  5
3A
102
{ACAD_REACTORS
330
2A
102
}
102
{ACAD_XDICTIONARY
360
A3
102
}
330
2A
100
AcDbVisualStyle
  2
ColorChange
 70
    16
 71
     2
 72
     2
 73
     3
 90
        0
 40
-0.6
 41
-30.0
 62
     5
 63
     8
421
  8421504
 74
     1
 91
        4
 64
     7
 65
   257
 75
     1
175
     1
 42
1.0
 92
        8
 66
     8
424
  8421504
 43
1.0
 76
     1
 77
     6
 78
     2
 67
     7
 79
     5
170
     0
171
     0
290
     0
174
     0
 93
        1
 44
0.0
173
     0
291
     1
 45
0.0
  0
VISUALSTYLE
  5
34
102
{ACAD_REACTORS
330
2A
102
}
102
{ACAD_XDICTIONARY
360
97
102
}
330
2A
100
AcDbVisualStyle
  2
Conceptual
 70
     9
 71
     3
 72
     2
 73
     0
 90
        0
 40
-0.6
 41
-30.0
 62
     5
 63
     7
421
 16777215
 74
     2
 91
        2
 64
     7
 65
   257
 75
     1
175
     1
 42
40.0
 92
        8
 66
     7
 43
1.0
 76
     1
 77
     6
 78
     2
 67
     7
 79
     3
170
     0
171
     0
290
     0
174
     0
 93
        1
 44
0.0
173
     0
291
     0
 45
0.0
  0
VISUALSTYLE
  5
35
102
{ACAD_REACTORS
330
2A
102
}
102
{ACAD_XDICTIONARY
360
99
102
}
330
2A
100
AcDbVisualStyle
  2
Dim
 70
    11
 71
     2
 72
     2
 73
     0
 90
        0
 40
-0.6
 41
-30.0
 62
     5
 63
     7
421
 16777215
 74
     1
 91
        4
 64
     7
 65
   257
 75
     1
175
     1
 42
1.0
 92
        8
 66
     7
 43
1.0
 76
     1
 77
     6
 78
     2
 67
     7
 79
     5
170
     0
171
     0
290
     0
174
     0
 93
        1
 44
-50.0
173
     0
291
     1
 45
0.0
  0
VISUALSTYLE
  5
39
102
{ACAD_REACTORS
330
2A
102
}
102
{ACAD_XDICTIONARY
360
A1
102
}
330
2A
100
AcDbVisualStyle
  2
Facepattern
 70
    15
 71
     2
 72
     2
 73
     0
 90
        0
 40
-0.6
 41
-30.0
 62
     5
 63
     7
421
 16777215
 74
     1
 91
        4
 64
     7
 65
   257
 75
     1
175
     1
 42
1.0
 92
        8
 66
     7
 43
1.0
 76
     1
 77
     6
 78
     2
 67
     7
 79
     5
170
     0
171
     0
290
     0
174
     0
 93
        1
 44
0.0
173
     0
291
     1
 45
0.0
  0
VISUALSTYLE
  5
2B
102
{ACAD_REACTORS
330
2A
102
}
102
{ACAD_XDICTIONARY
360
85
102
}
330
2A
100
AcDbVisualStyle
  2
Flat
 70
     0
 71
     2
 72
     1
 73
     1
 90
        2
 40
-0.6
 41
30.0
 62
     5
 63
     7
421
 16777215
 74
     0
 91
        4
 64
     7
 65
   257
 75
     1
175
     1
 42
1.0
 92
        8
 66
     7
 43
1.0
 76
     1
 77
     6
 78
     2
 67
     7
 79
     5
170
     0
171
     0
290
     0
174
     0
 93
       13
 44
0.0
173
     0
291
     1
 45
0.0
  0
VISUALSTYLE
  5
2C
102
{ACAD_REACTORS
330
2A
102
}
102
{ACAD_XDICTIONARY
360
87
102
}
330
2A
100
AcDbVisualStyle
  2
FlatWithEdges
 70
     1
 71
     2
 72
     1
 73
     1
 90
        2
 40
-0.6
 41
30.0
 62
     5
 63
     7
421
 16777215
 74
     1
 91
        4
 64
     7
 65
   257
 75
     1
175
     1
 42
1.0
 92
        0
 66
   257
 43
1.0
 76
     1
 77
     6
 78
     2
 67
     7
 79
     5
170
     0
171
     0
290
     0
174
     0
 93
       13
 44
0.0
173
     0
291
     1
 45
0.0
  0
VISUALSTYLE
  5
2D
102
{ACAD_REACTORS
330
2A
102
}
102
{ACAD_XDICTIONARY
360
89
102
}
330
2A
100
AcDbVisualStyle
  2
Gouraud
 70
     2
 71
     2
 72
     2
 73
     1
 90
        2
 40
-0.6
 41
30.0
 62
     5
 63
     7
421
 16777215
 74
     0
 91
        4
 64
     7
 65
   257
 75
     1
175
     1
 42
1.0
 92
        0
 66
     7
 43
1.0
 76
     1
 77
     6
 78
     2
 67
     7
 79
     5
170
     0
171
     0
290
     0
174
     0
 93
       13
 44
0.0
173
     0
291
     1
 45
0.0
  0
VISUALSTYLE
  5
2E
102
{ACAD_REACTORS
330
2A
102
}
102
{ACAD_XDICTIONARY
360
8B
102
}
330
2A
100
AcDbVisualStyle
  2
GouraudWithEdges
 70
     3
 71
     2
 72
     2
 73
     1
 90
        2
 40
-0.6
 41
30.0
 62
     5
 63
     7
421
 16777215
 74
     1
 91
        4
 64
     7
 65
   257
 75
     1
175
     1
 42
1.0
 92
        0
 66
   257
 43
1.0
 76
     1
 77
     6
 78
     2
 67
     7
 79
     5
170
     0
171
     0
290
     0
174
     0
 93
       13
 44
0.0
173
     0
291
     1
 45
0.0
  0
VISUALSTYLE
  5
38
102
{ACAD_REACTORS
330
2A
102
}
102
{ACAD_XDICTIONARY
360
9F
102
}
330
2A
100
AcDbVisualStyle
  2
Linepattern
 70
    14
 71
     2
 72
     2
 73
     0
 90
        0
 40
-0.6
 41
-30.0
 62
     5
 63
     7
421
 16777215
 74
     1
 91
        4
 64
     7
 65
   257
 75
     7
175
     7
 42
1.0
 92
        8
 66
     7
 43
1.0
 76
     1
 77
     6
 78
     2
 67
     7
 79
     5
170
     0
171
     0
290
     0
174
     0
 93
        1
 44
0.0
173
     0
291
     1
 45
0.0
  0
VISUALSTYLE
  5
33
102
{ACAD_REACTORS
330
2A
102
}
102
{ACAD_XDICTIONARY
360
95
102
}
330
2A
100
AcDbVisualStyle
  2
Realistic
 70
     8
 71
     2
 72
     2
 73
     0
 90
        0
 40
-0.6
 41
-30.0
 62
     5
 63
     7
421
 16777215
 74
     1
 91
        0
 64
     7
 65
   257
 75
     1
175
     1
 42
1.0
 92
        8
 66
     8
424
  7895160
 43
1.0
 76
     1
 77
     6
 78
     2
 67
     7
 79
     5
170
     0
171
     0
290
     0
174
     0
 93
       13
 44
0.0
173
     0
291
     0
 45
0.0
  0
VISUALSTYLE
  5
37
102
{ACAD_REACTORS
330
2A
102
}
102
{ACAD_XDICTIONARY
360
9D
102
}
330
2A
100
AcDbVisualStyle
  2
Thicken
 70
    13
 71
     2
 72
     2
 73
     0
 90
        0
 40
-0.6
 41
-30.0
 62
     5
 63
     7
421
 16777215
 74
     1
 91
        4
 64
     7
 65
   257
 75
     1
175
     1
 42
1.0
 92
       12
 66
     7
 43
1.0
 76
     1
 77
     6
 78
     2
 67
     7
 79
     5
170
     0
171
     0
290
     0
174
     0
 93
        1
 44
0.0
173
     0
291
     1
 45
0.0
  0
DICTIONARY
  5
8D
330
2F
100
AcDbDictionary
280
     1
281
     1
  3
ACAD_XREC_ROUNDTRIP
360
8E
  0
DICTIONARY
  5
91
330
31
100
AcDbDictionary
280
     1
281
     1
  3
ACAD_XREC_ROUNDTRIP
360
92
  0
DICTIONARY
  5
8F
330
30
100
AcDbDictionary
280
     1
281
     1
  3
ACAD_XREC_ROUNDTRIP
360
90
  0
DICTIONARY
  5
93
330
32
100
AcDbDictionary
280
     1
281
     1
  3
ACAD_XREC_ROUNDTRIP
360
94
  0
DICTIONARY
  5
9B
330
36
100
AcDbDictionary
280
     1
281
     1
  3
ACAD_XREC_ROUNDTRIP
360
9C
  0
DICTIONARY
  5
A3
330
3A
100
AcDbDictionary
280
     1
281
     1
  3
ACAD_XREC_ROUNDTRIP
360
A4
  0
DICTIONARY
  5
97
330
34
100
AcDbDictionary
280
     1
281
     1
  3
ACAD_XREC_ROUNDTRIP
360
98
  0
DICTIONARY
  5
99
330
35
100
AcDbDictionary
280
     1
281
     1
  3
ACAD_XREC_ROUNDTRIP
360
9A
  0
DICTIONARY
  5
A1
330
39
100
AcDbDictionary
280
     1
281
     1
  3
ACAD_XREC_ROUNDTRIP
360
A2
  0
DICTIONARY
  5
85
330
2B
100
AcDbDictionary
280
     1
281
     1
  3
ACAD_XREC_ROUNDTRIP
360
86
  0
DICTIONARY
  5
87
330
2C
100
AcDbDictionary
280
     1
281
     1
  3
ACAD_XREC_ROUNDTRIP
360
88
  0
DICTIONARY
  5
89
330
2D
100
AcDbDictionary
280
     1
281
     1
  3
ACAD_XREC_ROUNDTRIP
360
8A
  0
DICTIONARY
  5
8B
330
2E
100
AcDbDictionary
280
     1
281
     1
  3
ACAD_XREC_ROUNDTRIP
360
8C
  0
DICTIONARY
  5
9F
330
38
100
AcDbDictionary
280
     1
281
     1
  3
ACAD_XREC_ROUNDTRIP
360
A0
  0
DICTIONARY
  5
95
330
33
100
AcDbDictionary
280
     1
281
     1
  3
ACAD_XREC_ROUNDTRIP
360
96
  0
DICTIONARY
  5
9D
330
37
100
AcDbDictionary
280
     1
281
     1
  3
ACAD_XREC_ROUNDTRIP
360
9E
  0
XRECORD
  5
8E
102
{ACAD_REACTORS
330
8D
102
}
330
8D
100
AcDbXrecord
280
     1
102
RTVSPropertyOp0
 70
     1
102
RTVSPropertyOp1
 70
     1
102
RTVSPropertyOp2
 70
     1
102
RTVSPropertyOp3
 70
     1
102
RTVSPropertyOp4
 70
     1
102
RTVSPropertyOp5
 70
     1
102
RTVSPropertyOp6
 70
     1
102
RTVSPropertyOp7
 70
     1
102
RTVSPropertyOp8
 70
     1
102
RTVSPropertyOp9
 70
     1
102
RTVSPropertyOp10
 70
     1
102
RTVSPropertyOp11
 70
     1
102
RTVSPropertyOp12
 70
     1
102
RTVSPropertyOp13
 70
     1
102
RTVSPropertyOp14
 70
     1
102
RTVSPropertyOp15
 70
     1
102
RTVSPropertyOp16
 70
     1
102
RTVSPropertyOp17
 70
     1
102
RTVSPropertyOp18
 70
     1
102
RTVSPropertyOp19
 70
     1
102
RTVSPropertyOp20
 70
     1
102
RTVSPropertyOp21
 70
     1
102
RTVSPropertyOp22
 70
     1
102
RTVSPropertyOp23
 70
     1
102
RTVSPropertyOp24
 70
     1
102
RTVSPropertyOp25
 70
     1
102
RTVSPropertyOp26
 70
     1
102
RTVSPropertyOp27
 70
     1
102
RTVSPropertyOp28
 70
     1
102
RTVSPropertyOp29
 70
     1
102
RTVSPropertyOp30
 70
     1
102
RTVSPropertyOp31
 70
     1
102
RTVSPropertyOp32
 70
     1
  0
XRECORD
  5
92
102
{ACAD_REACTORS
330
91
102
}
330
91
100
AcDbXrecord
280
     1
102
RTVSPropertyOp0
 70
     1
102
RTVSPropertyOp1
 70
     1
102
RTVSPropertyOp2
 70
     1
102
RTVSPropertyOp3
 70
     1
102
RTVSPropertyOp4
 70
     1
102
RTVSPropertyOp5
 70
     1
102
RTVSPropertyOp6
 70
     1
102
RTVSPropertyOp7
 70
     1
102
RTVSPropertyOp8
 70
     1
102
RTVSPropertyOp9
 70
     1
102
RTVSPropertyOp10
 70
     1
102
RTVSPropertyOp11
 70
     1
102
RTVSPropertyOp12
 70
     1
102
RTVSPropertyOp13
 70
     1
102
RTVSPropertyOp14
 70
     1
102
RTVSPropertyOp15
 70
     1
102
RTVSPropertyOp16
 70
     1
102
RTVSPropertyOp17
 70
     1
102
RTVSPropertyOp18
 70
     1
102
RTVSPropertyOp19
 70
     1
102
RTVSPropertyOp20
 70
     1
102
RTVSPropertyOp21
 70
     1
102
RTVSPropertyOp22
 70
     1
102
RTVSPropertyOp23
 70
     1
102
RTVSPropertyOp24
 70
     1
102
RTVSPropertyOp25
 70
     1
102
RTVSPropertyOp26
 70
     1
102
RTVSPropertyOp27
 70
     1
102
RTVSPropertyOp28
 70
     1
102
RTVSPropertyOp29
 70
     1
102
RTVSPropertyOp30
 70
     1
102
RTVSPropertyOp31
 70
     1
102
RTVSPropertyOp32
 70
     1
  0
XRECORD
  5
90
102
{ACAD_REACTORS
330
8F
102
}
330
8F
100
AcDbXrecord
280
     1
102
RTVSPropertyOp0
 70
     1
102
RTVSPropertyOp1
 70
     1
102
RTVSPropertyOp2
 70
     1
102
RTVSPropertyOp3
 70
     1
102
RTVSPropertyOp4
 70
     1
102
RTVSPropertyOp5
 70
     1
102
RTVSPropertyOp6
 70
     1
102
RTVSPropertyOp7
 70
     1
102
RTVSPropertyOp8
 70
     1
102
RTVSPropertyOp9
 70
     1
102
RTVSPropertyOp10
 70
     1
102
RTVSPropertyOp11
 70
     1
102
RTVSPropertyOp12
 70
     1
102
RTVSPropertyOp13
 70
     1
102
RTVSPropertyOp14
 70
     1
102
RTVSPropertyOp15
 70
     1
102
RTVSPropertyOp16
 70
     1
102
RTVSPropertyOp17
 70
     1
102
RTVSPropertyOp18
 70
     1
102
RTVSPropertyOp19
 70
     1
102
RTVSPropertyOp20
 70
     1
102
RTVSPropertyOp21
 70
     1
102
RTVSPropertyOp22
 70
     1
102
RTVSPropertyOp23
 70
     1
102
RTVSPropertyOp24
 70
     1
102
RTVSPropertyOp25
 70
     1
102
RTVSPropertyOp26
 70
     1
102
RTVSPropertyOp27
 70
     1
102
RTVSPropertyOp28
 70
     1
102
RTVSPropertyOp29
 70
     1
102
RTVSPropertyOp30
 70
     1
102
RTVSPropertyOp31
 70
     1
102
RTVSPropertyOp32
 70
     1
  0
XRECORD
  5
94
102
{ACAD_REACTORS
330
93
102
}
330
93
100
AcDbXrecord
280
     1
102
RTVSPropertyOp0
 70
     1
102
RTVSPropertyOp1
 70
     1
102
RTVSPropertyOp2
 70
     1
102
RTVSPropertyOp3
 70
     1
102
RTVSPropertyOp4
 70
     1
102
RTVSPropertyOp5
 70
     1
102
RTVSPropertyOp6
 70
     1
102
RTVSPropertyOp7
 70
     1
102
RTVSPropertyOp8
 70
     1
102
RTVSPropertyOp9
 70
     1
102
RTVSPropertyOp10
 70
     1
102
RTVSPropertyOp11
 70
     1
102
RTVSPropertyOp12
 70
     1
102
RTVSPropertyOp13
 70
     1
102
RTVSPropertyOp14
 70
     1
102
RTVSPropertyOp15
 70
     1
102
RTVSPropertyOp16
 70
     1
102
RTVSPropertyOp17
 70
     1
102
RTVSPropertyOp18
 70
     1
102
RTVSPropertyOp19
 70
     1
102
RTVSPropertyOp20
 70
     1
102
RTVSPropertyOp21
 70
     1
102
RTVSPropertyOp22
 70
     1
102
RTVSPropertyOp23
 70
     1
102
RTVSPropertyOp24
 70
     1
102
RTVSPropertyOp25
 70
     1
102
RTVSPropertyOp26
 70
     1
102
RTVSPropertyOp27
 70
     1
102
RTVSPropertyOp28
 70
     1
102
RTVSPropertyOp29
 70
     1
102
RTVSPropertyOp30
 70
     1
102
RTVSPropertyOp31
 70
     1
102
RTVSPropertyOp32
 70
     1
  0
XRECORD
  5
9C
102
{ACAD_REACTORS
330
9B
102
}
330
9B
100
AcDbXrecord
280
     1
102
RTVSPropertyOp0
 70
     1
102
RTVSPropertyOp1
 70
     1
102
RTVSPropertyOp2
 70
     1
102
RTVSPropertyOp3
 70
     1
102
RTVSPropertyOp4
 70
     1
102
RTVSPropertyOp5
 70
     1
102
RTVSPropertyOp6
 70
     1
102
RTVSPropertyOp7
 70
     1
102
RTVSPropertyOp8
 70
     1
102
RTVSPropertyOp9
 70
     1
102
RTVSPropertyOp10
 70
     1
102
RTVSPropertyOp11
 70
     1
102
RTVSPropertyOp12
 70
     1
102
RTVSPropertyOp13
 70
     1
102
RTVSPropertyOp14
 70
     1
102
RTVSPropertyOp15
 70
     1
102
RTVSPropertyOp16
 70
     1
102
RTVSPropertyOp17
 70
     1
102
RTVSPropertyOp18
 70
     1
102
RTVSPropertyOp19
 70
     1
102
RTVSPropertyOp20
 70
     1
102
RTVSPropertyOp21
 70
     1
102
RTVSPropertyOp22
 70
     1
102
RTVSPropertyOp23
 70
     1
102
RTVSPropertyOp24
 70
     1
102
RTVSPropertyOp25
 70
     1
102
RTVSPropertyOp26
 70
     1
102
RTVSPropertyOp27
 70
     1
102
RTVSPropertyOp28
 70
     1
102
RTVSPropertyOp29
 70
     1
102
RTVSPropertyOp30
 70
     1
102
RTVSPropertyOp31
 70
     1
102
RTVSPropertyOp32
 70
     1
  0
XRECORD
  5
A4
102
{ACAD_REACTORS
330
A3
102
}
330
A3
100
AcDbXrecord
280
     1
102
RTVSPropertyOp0
 70
     1
102
RTVSPropertyOp1
 70
     1
102
RTVSPropertyOp2
 70
     1
102
RTVSPropertyOp3
 70
     1
102
RTVSPropertyOp4
 70
     1
102
RTVSPropertyOp5
 70
     1
102
RTVSPropertyOp6
 70
     1
102
RTVSPropertyOp7
 70
     1
102
RTVSPropertyOp8
 70
     1
102
RTVSPropertyOp9
 70
     1
102
RTVSPropertyOp10
 70
     1
102
RTVSPropertyOp11
 70
     1
102
RTVSPropertyOp12
 70
     1
102
RTVSPropertyOp13
 70
     1
102
RTVSPropertyOp14
 70
     1
102
RTVSPropertyOp15
 70
     1
102
RTVSPropertyOp16
 70
     1
102
RTVSPropertyOp17
 70
     1
102
RTVSPropertyOp18
 70
     1
102
RTVSPropertyOp19
 70
     1
102
RTVSPropertyOp20
 70
     1
102
RTVSPropertyOp21
 70
     1
102
RTVSPropertyOp22
 70
     1
102
RTVSPropertyOp23
 70
     1
102
RTVSPropertyOp24
 70
     1
102
RTVSPropertyOp25
 70
     1
102
RTVSPropertyOp26
 70
     1
102
RTVSPropertyOp27
 70
     1
102
RTVSPropertyOp28
 70
     1
102
RTVSPropertyOp29
 70
     1
102
RTVSPropertyOp30
 70
     1
102
RTVSPropertyOp31
 70
     1
102
RTVSPropertyOp32
 70
     1
  0
XRECORD
  5
98
102
{ACAD_REACTORS
330
97
102
}
330
97
100
AcDbXrecord
280
     1
102
RTVSPropertyOp0
 70
     1
102
RTVSPropertyOp1
 70
     1
102
RTVSPropertyOp2
 70
     1
102
RTVSPropertyOp3
 70
     1
102
RTVSPropertyOp4
 70
     1
102
RTVSPropertyOp5
 70
     1
102
RTVSPropertyOp6
 70
     1
102
RTVSPropertyOp7
 70
     1
102
RTVSPropertyOp8
 70
     1
102
RTVSPropertyOp9
 70
     1
102
RTVSPropertyOp10
 70
     1
102
RTVSPropertyOp11
 70
     1
102
RTVSPropertyOp12
 70
     1
102
RTVSPropertyOp13
 70
     1
102
RTVSPropertyOp14
 70
     1
102
RTVSPropertyOp15
 70
     1
102
RTVSPropertyOp16
 70
     1
102
RTVSPropertyOp17
 70
     1
102
RTVSPropertyOp18
 70
     1
102
RTVSPropertyOp19
 70
     1
102
RTVSPropertyOp20
 70
     1
102
RTVSPropertyOp21
 70
     1
102
RTVSPropertyOp22
 70
     1
102
RTVSPropertyOp23
 70
     1
102
RTVSPropertyOp24
 70
     1
102
RTVSPropertyOp25
 70
     1
102
RTVSPropertyOp26
 70
     1
102
RTVSPropertyOp27
 70
     1
102
RTVSPropertyOp28
 70
     1
102
RTVSPropertyOp29
 70
     1
102
RTVSPropertyOp30
 70
     1
102
RTVSPropertyOp31
 70
     1
102
RTVSPropertyOp32
 70
     1
  0
XRECORD
  5
9A
102
{ACAD_REACTORS
330
99
102
}
330
99
100
AcDbXrecord
280
     1
102
RTVSPropertyOp0
 70
     1
102
RTVSPropertyOp1
 70
     1
102
RTVSPropertyOp2
 70
     1
102
RTVSPropertyOp3
 70
     1
102
RTVSPropertyOp4
 70
     1
102
RTVSPropertyOp5
 70
     1
102
RTVSPropertyOp6
 70
     1
102
RTVSPropertyOp7
 70
     1
102
RTVSPropertyOp8
 70
     1
102
RTVSPropertyOp9
 70
     1
102
RTVSPropertyOp10
 70
     1
102
RTVSPropertyOp11
 70
     1
102
RTVSPropertyOp12
 70
     1
102
RTVSPropertyOp13
 70
     1
102
RTVSPropertyOp14
 70
     1
102
RTVSPropertyOp15
 70
     1
102
RTVSPropertyOp16
 70
     1
102
RTVSPropertyOp17
 70
     1
102
RTVSPropertyOp18
 70
     1
102
RTVSPropertyOp19
 70
     1
102
RTVSPropertyOp20
 70
     1
102
RTVSPropertyOp21
 70
     1
102
RTVSPropertyOp22
 70
     1
102
RTVSPropertyOp23
 70
     1
102
RTVSPropertyOp24
 70
     1
102
RTVSPropertyOp25
 70
     1
102
RTVSPropertyOp26
 70
     1
102
RTVSPropertyOp27
 70
     1
102
RTVSPropertyOp28
 70
     1
102
RTVSPropertyOp29
 70
     1
102
RTVSPropertyOp30
 70
     1
102
RTVSPropertyOp31
 70
     1
102
RTVSPropertyOp32
 70
     1
  0
XRECORD
  5
A2
102
{ACAD_REACTORS
330
A1
102
}
330
A1
100
AcDbXrecord
280
     1
102
RTVSPropertyOp0
 70
     1
102
RTVSPropertyOp1
 70
     1
102
RTVSPropertyOp2
 70
     1
102
RTVSPropertyOp3
 70
     1
102
RTVSPropertyOp4
 70
     1
102
RTVSPropertyOp5
 70
     1
102
RTVSPropertyOp6
 70
     1
102
RTVSPropertyOp7
 70
     1
102
RTVSPropertyOp8
 70
     1
102
RTVSPropertyOp9
 70
     1
102
RTVSPropertyOp10
 70
     1
102
RTVSPropertyOp11
 70
     1
102
RTVSPropertyOp12
 70
     1
102
RTVSPropertyOp13
 70
     1
102
RTVSPropertyOp14
 70
     1
102
RTVSPropertyOp15
 70
     1
102
RTVSPropertyOp16
 70
     1
102
RTVSPropertyOp17
 70
     1
102
RTVSPropertyOp18
 70
     1
102
RTVSPropertyOp19
 70
     1
102
RTVSPropertyOp20
 70
     1
102
RTVSPropertyOp21
 70
     1
102
RTVSPropertyOp22
 70
     1
102
RTVSPropertyOp23
 70
     1
102
RTVSPropertyOp24
 70
     1
102
RTVSPropertyOp25
 70
     1
102
RTVSPropertyOp26
 70
     1
102
RTVSPropertyOp27
 70
     1
102
RTVSPropertyOp28
 70
     1
102
RTVSPropertyOp29
 70
     1
102
RTVSPropertyOp30
 70
     1
102
RTVSPropertyOp31
 70
     1
102
RTVSPropertyOp32
 70
     1
  0
XRECORD
  5
86
102
{ACAD_REACTORS
330
85
102
}
330
85
100
AcDbXrecord
280
     1
102
RTVSPropertyOp0
 70
     1
102
RTVSPropertyOp1
 70
     1
102
RTVSPropertyOp2
 70
     1
102
RTVSPropertyOp3
 70
     1
102
RTVSPropertyOp4
 70
     1
102
RTVSPropertyOp5
 70
     1
102
RTVSPropertyOp6
 70
     1
102
RTVSPropertyOp7
 70
     1
102
RTVSPropertyOp8
 70
     1
102
RTVSPropertyOp9
 70
     1
102
RTVSPropertyOp10
 70
     1
102
RTVSPropertyOp11
 70
     1
102
RTVSPropertyOp12
 70
     1
102
RTVSPropertyOp13
 70
     1
102
RTVSPropertyOp14
 70
     1
102
RTVSPropertyOp15
 70
     1
102
RTVSPropertyOp16
 70
     1
102
RTVSPropertyOp17
 70
     1
102
RTVSPropertyOp18
 70
     1
102
RTVSPropertyOp19
 70
     1
102
RTVSPropertyOp20
 70
     1
102
RTVSPropertyOp21
 70
     1
102
RTVSPropertyOp22
 70
     1
102
RTVSPropertyOp23
 70
     1
102
RTVSPropertyOp24
 70
     1
102
RTVSPropertyOp25
 70
     1
102
RTVSPropertyOp26
 70
     1
102
RTVSPropertyOp27
 70
     1
102
RTVSPropertyOp28
 70
     1
102
RTVSPropertyOp29
 70
     1
102
RTVSPropertyOp30
 70
     1
102
RTVSPropertyOp31
 70
     1
102
RTVSPropertyOp32
 70
     1
  0
XRECORD
  5
88
102
{ACAD_REACTORS
330
87
102
}
330
87
100
AcDbXrecord
280
     1
102
RTVSPropertyOp0
 70
     1
102
RTVSPropertyOp1
 70
     1
102
RTVSPropertyOp2
 70
     1
102
RTVSPropertyOp3
 70
     1
102
RTVSPropertyOp4
 70
     1
102
RTVSPropertyOp5
 70
     1
102
RTVSPropertyOp6
 70
     1
102
RTVSPropertyOp7
 70
     1
102
RTVSPropertyOp8
 70
     1
102
RTVSPropertyOp9
 70
     1
102
RTVSPropertyOp10
 70
     1
102
RTVSPropertyOp11
 70
     1
102
RTVSPropertyOp12
 70
     1
102
RTVSPropertyOp13
 70
     1
102
RTVSPropertyOp14
 70
     1
102
RTVSPropertyOp15
 70
     1
102
RTVSPropertyOp16
 70
     1
102
RTVSPropertyOp17
 70
     1
102
RTVSPropertyOp18
 70
     1
102
RTVSPropertyOp19
 70
     1
102
RTVSPropertyOp20
 70
     1
102
RTVSPropertyOp21
 70
     1
102
RTVSPropertyOp22
 70
     1
102
RTVSPropertyOp23
 70
     1
102
RTVSPropertyOp24
 70
     1
102
RTVSPropertyOp25
 70
     1
102
RTVSPropertyOp26
 70
     1
102
RTVSPropertyOp27
 70
     1
102
RTVSPropertyOp28
 70
     1
102
RTVSPropertyOp29
 70
     1
102
RTVSPropertyOp30
 70
     1
102
RTVSPropertyOp31
 70
     1
102
RTVSPropertyOp32
 70
     1
  0
XRECORD
  5
8A
102
{ACAD_REACTORS
330
89
102
}
330
89
100
AcDbXrecord
280
     1
102
RTVSPropertyOp0
 70
     1
102
RTVSPropertyOp1
 70
     1
102
RTVSPropertyOp2
 70
     1
102
RTVSPropertyOp3
 70
     1
102
RTVSPropertyOp4
 70
     1
102
RTVSPropertyOp5
 70
     1
102
RTVSPropertyOp6
 70
     1
102
RTVSPropertyOp7
 70
     1
102
RTVSPropertyOp8
 70
     1
102
RTVSPropertyOp9
 70
     1
102
RTVSPropertyOp10
 70
     1
102
RTVSPropertyOp11
 70
     1
102
RTVSPropertyOp12
 70
     1
102
RTVSPropertyOp13
 70
     1
102
RTVSPropertyOp14
 70
     1
102
RTVSPropertyOp15
 70
     1
102
RTVSPropertyOp16
 70
     1
102
RTVSPropertyOp17
 70
     1
102
RTVSPropertyOp18
 70
     1
102
RTVSPropertyOp19
 70
     1
102
RTVSPropertyOp20
 70
     1
102
RTVSPropertyOp21
 70
     1
102
RTVSPropertyOp22
 70
     1
102
RTVSPropertyOp23
 70
     1
102
RTVSPropertyOp24
 70
     1
102
RTVSPropertyOp25
 70
     1
102
RTVSPropertyOp26
 70
     1
102
RTVSPropertyOp27
 70
     1
102
RTVSPropertyOp28
 70
     1
102
RTVSPropertyOp29
 70
     1
102
RTVSPropertyOp30
 70
     1
102
RTVSPropertyOp31
 70
     1
102
RTVSPropertyOp32
 70
     1
  0
XRECORD
  5
8C
102
{ACAD_REACTORS
330
8B
102
}
330
8B
100
AcDbXrecord
280
     1
102
RTVSPropertyOp0
 70
     1
102
RTVSPropertyOp1
 70
     1
102
RTVSPropertyOp2
 70
     1
102
RTVSPropertyOp3
 70
     1
102
RTVSPropertyOp4
 70
     1
102
RTVSPropertyOp5
 70
     1
102
RTVSPropertyOp6
 70
     1
102
RTVSPropertyOp7
 70
     1
102
RTVSPropertyOp8
 70
     1
102
RTVSPropertyOp9
 70
     1
102
RTVSPropertyOp10
 70
     1
102
RTVSPropertyOp11
 70
     1
102
RTVSPropertyOp12
 70
     1
102
RTVSPropertyOp13
 70
     1
102
RTVSPropertyOp14
 70
     1
102
RTVSPropertyOp15
 70
     1
102
RTVSPropertyOp16
 70
     1
102
RTVSPropertyOp17
 70
     1
102
RTVSPropertyOp18
 70
     1
102
RTVSPropertyOp19
 70
     1
102
RTVSPropertyOp20
 70
     1
102
RTVSPropertyOp21
 70
     1
102
RTVSPropertyOp22
 70
     1
102
RTVSPropertyOp23
 70
     1
102
RTVSPropertyOp24
 70
     1
102
RTVSPropertyOp25
 70
     1
102
RTVSPropertyOp26
 70
     1
102
RTVSPropertyOp27
 70
     1
102
RTVSPropertyOp28
 70
     1
102
RTVSPropertyOp29
 70
     1
102
RTVSPropertyOp30
 70
     1
102
RTVSPropertyOp31
 70
     1
102
RTVSPropertyOp32
 70
     1
  0
XRECORD
  5
A0
102
{ACAD_REACTORS
330
9F
102
}
330
9F
100
AcDbXrecord
280
     1
102
RTVSPropertyOp0
 70
     1
102
RTVSPropertyOp1
 70
     1
102
RTVSPropertyOp2
 70
     1
102
RTVSPropertyOp3
 70
     1
102
RTVSPropertyOp4
 70
     1
102
RTVSPropertyOp5
 70
     1
102
RTVSPropertyOp6
 70
     1
102
RTVSPropertyOp7
 70
     1
102
RTVSPropertyOp8
 70
     1
102
RTVSPropertyOp9
 70
     1
102
RTVSPropertyOp10
 70
     1
102
RTVSPropertyOp11
 70
     1
102
RTVSPropertyOp12
 70
     1
102
RTVSPropertyOp13
 70
     1
102
RTVSPropertyOp14
 70
     1
102
RTVSPropertyOp15
 70
     1
102
RTVSPropertyOp16
 70
     1
102
RTVSPropertyOp17
 70
     1
102
RTVSPropertyOp18
 70
     1
102
RTVSPropertyOp19
 70
     1
102
RTVSPropertyOp20
 70
     1
102
RTVSPropertyOp21
 70
     1
102
RTVSPropertyOp22
 70
     1
102
RTVSPropertyOp23
 70
     1
102
RTVSPropertyOp24
 70
     1
102
RTVSPropertyOp25
 70
     1
102
RTVSPropertyOp26
 70
     1
102
RTVSPropertyOp27
 70
     1
102
RTVSPropertyOp28
 70
     1
102
RTVSPropertyOp29
 70
     1
102
RTVSPropertyOp30
 70
     1
102
RTVSPropertyOp31
 70
     1
102
RTVSPropertyOp32
 70
     1
  0
XRECORD
  5
96
102
{ACAD_REACTORS
330
95
102
}
330
95
100
AcDbXrecord
280
     1
102
RTVSPropertyOp0
 70
     1
102
RTVSPropertyOp1
 70
     1
102
RTVSPropertyOp2
 70
     1
102
RTVSPropertyOp3
 70
     1
102
RTVSPropertyOp4
 70
     1
102
RTVSPropertyOp5
 70
     1
102
RTVSPropertyOp6
 70
     1
102
RTVSPropertyOp7
 70
     1
102
RTVSPropertyOp8
 70
     1
102
RTVSPropertyOp9
 70
     1
102
RTVSPropertyOp10
 70
     1
102
RTVSPropertyOp11
 70
     1
102
RTVSPropertyOp12
 70
     1
102
RTVSPropertyOp13
 70
     1
102
RTVSPropertyOp14
 70
     1
102
RTVSPropertyOp15
 70
     1
102
RTVSPropertyOp16
 70
     1
102
RTVSPropertyOp17
 70
     1
102
RTVSPropertyOp18
 70
     1
102
RTVSPropertyOp19
 70
     1
102
RTVSPropertyOp20
 70
     1
102
RTVSPropertyOp21
 70
     1
102
RTVSPropertyOp22
 70
     1
102
RTVSPropertyOp23
 70
     1
102
RTVSPropertyOp24
 70
     1
102
RTVSPropertyOp25
 70
     1
102
RTVSPropertyOp26
 70
     1
102
RTVSPropertyOp27
 70
     1
102
RTVSPropertyOp28
 70
     1
102
RTVSPropertyOp29
 70
     1
102
RTVSPropertyOp30
 70
     1
102
RTVSPropertyOp31
 70
     1
102
RTVSPropertyOp32
 70
     1
  0
XRECORD
  5
9E
102
{ACAD_REACTORS
330
9D
102
}
330
9D
100
AcDbXrecord
280
     1
102
RTVSPropertyOp0
 70
     1
102
RTVSPropertyOp1
 70
     1
102
RTVSPropertyOp2
 70
     1
102
RTVSPropertyOp3
 70
     1
102
RTVSPropertyOp4
 70
     1
102
RTVSPropertyOp5
 70
     1
102
RTVSPropertyOp6
 70
     1
102
RTVSPropertyOp7
 70
     1
102
RTVSPropertyOp8
 70
     1
102
RTVSPropertyOp9
 70
     1
102
RTVSPropertyOp10
 70
     1
102
RTVSPropertyOp11
 70
     1
102
RTVSPropertyOp12
 70
     1
102
RTVSPropertyOp13
 70
     1
102
RTVSPropertyOp14
 70
     1
102
RTVSPropertyOp15
 70
     1
102
RTVSPropertyOp16
 70
     1
102
RTVSPropertyOp17
 70
     1
102
RTVSPropertyOp18
 70
     1
102
RTVSPropertyOp19
 70
     1
102
RTVSPropertyOp20
 70
     1
102
RTVSPropertyOp21
 70
     1
102
RTVSPropertyOp22
 70
     1
102
RTVSPropertyOp23
 70
     1
102
RTVSPropertyOp24
 70
     1
102
RTVSPropertyOp25
 70
     1
102
RTVSPropertyOp26
 70
     1
102
RTVSPropertyOp27
 70
     1
102
RTVSPropertyOp28
 70
     1
102
RTVSPropertyOp29
 70
     1
102
RTVSPropertyOp30
 70
     1
102
RTVSPropertyOp31
 70
     1
102
RTVSPropertyOp32
 70
     1
  0
ENDSEC
  0
EOF
