<?xml version="1.0" encoding="UTF-8"?>
<!DOCTYPE svg PUBLIC "-//W3C//DTD SVG 1.1//EN" "http://www.w3.org/Graphics/SVG/1.1/DTD/svg11.dtd">
<!-- Creator: CorelDRAW X6 -->
<svg xmlns="http://www.w3.org/2000/svg" xml:space="preserve" width="300mm" height="300mm" version="1.1" shape-rendering="geometricPrecision" text-rendering="geometricPrecision" image-rendering="optimizeQuality" fill-rule="evenodd" clip-rule="evenodd"
viewBox="0 0 30000 30000"
 xmlns:xlink="http://www.w3.org/1999/xlink">
 <g id="Layer_x0020_1">
  <metadata id="CorelCorpID_0Corel-Layer"/>
  <path fill="none" stroke="black" stroke-width="52.92" stroke-linecap="round" stroke-linejoin="round" d="M4550 29450l0 -28900c0,-276 224,-500 500,-500l19900 0c276,0 500,224 500,500l0 28900c0,276 -224,500 -500,500l-19900 0c-276,0 -500,-224 -500,-500z"/>
  <g id="_997735200">
   <path fill="none" stroke="lime" stroke-width="52.92" stroke-linecap="round" stroke-linejoin="round" d="M10450 15950l0 -1900c0,-276 224,-500 500,-500l3400 0c276,0 500,224 500,500l0 1900c0,276 -224,500 -500,500l-3400 0c-276,0 -500,-224 -500,-500z"/>
   <circle fill="none" stroke="black" stroke-width="52.92" stroke-linecap="round" stroke-linejoin="round" cx="12650" cy="14250" r="375"/>
   <circle fill="none" stroke="black" stroke-width="52.92" stroke-linecap="round" stroke-linejoin="round" cx="14150" cy="14250" r="375"/>
   <circle fill="none" stroke="black" stroke-width="52.92" stroke-linecap="round" stroke-linejoin="round" cx="11900" cy="14250" r="150"/>
   <circle fill="none" stroke="black" stroke-width="52.92" stroke-linecap="round" stroke-linejoin="round" cx="13400" cy="14250" r="150"/>
   <circle fill="none" stroke="black" stroke-width="52.92" stroke-linecap="round" stroke-linejoin="round" cx="11150" cy="14250" r="375"/>
  </g>
  <g id="_997731904">
   <path fill="none" stroke="lime" stroke-width="52.92" stroke-linecap="round" stroke-linejoin="round" d="M5750 15950l0 -1900c0,-276 224,-500 500,-500l3400 0c276,0 500,224 500,500l0 1900c0,276 -224,500 -500,500l-3400 0c-276,0 -500,-224 -500,-500z"/>
   <circle fill="none" stroke="black" stroke-width="52.92" stroke-linecap="round" stroke-linejoin="round" cx="7950" cy="14250" r="375"/>
   <circle fill="none" stroke="black" stroke-width="52.92" stroke-linecap="round" stroke-linejoin="round" cx="9450" cy="14250" r="375"/>
   <circle fill="none" stroke="black" stroke-width="52.92" stroke-linecap="round" stroke-linejoin="round" cx="7200" cy="14250" r="150"/>
   <circle fill="none" stroke="black" stroke-width="52.92" stroke-linecap="round" stroke-linejoin="round" cx="8700" cy="14250" r="150"/>
   <circle fill="none" stroke="black" stroke-width="52.92" stroke-linecap="round" stroke-linejoin="round" cx="6450" cy="14250" r="375"/>
  </g>
  <g id="_997729920">
   <path fill="none" stroke="lime" stroke-width="52.92" stroke-linecap="round" stroke-linejoin="round" d="M15150 15950l0 -1900c0,-276 224,-500 500,-500l3400 0c276,0 500,224 500,500l0 1900c0,276 -224,500 -500,500l-3400 0c-276,0 -500,-224 -500,-500z"/>
   <circle fill="none" stroke="black" stroke-width="52.92" stroke-linecap="round" stroke-linejoin="round" cx="17350" cy="14250" r="375"/>
   <circle fill="none" stroke="black" stroke-width="52.92" stroke-linecap="round" stroke-linejoin="round" cx="18850" cy="14250" r="375"/>
   <circle fill="none" stroke="black" stroke-width="52.92" stroke-linecap="round" stroke-linejoin="round" cx="16600" cy="14250" r="150"/>
   <circle fill="none" stroke="black" stroke-width="52.92" stroke-linecap="round" stroke-linejoin="round" cx="18100" cy="14250" r="150"/>
   <circle fill="none" stroke="black" stroke-width="52.92" stroke-linecap="round" stroke-linejoin="round" cx="15850" cy="14250" r="375"/>
  </g>
  <g id="_997659712">
   <path fill="none" stroke="lime" stroke-width="52.92" stroke-linecap="round" stroke-linejoin="round" d="M19850 15950l0 -1900c0,-276 224,-500 500,-500l3400 0c276,0 500,224 500,500l0 1900c0,276 -224,500 -500,500l-3400 0c-276,0 -500,-224 -500,-500z"/>
   <circle fill="none" stroke="black" stroke-width="52.92" stroke-linecap="round" stroke-linejoin="round" cx="22050" cy="14250" r="375"/>
   <circle fill="none" stroke="black" stroke-width="52.92" stroke-linecap="round" stroke-linejoin="round" cx="23550" cy="14250" r="375"/>
   <circle fill="none" stroke="black" stroke-width="52.92" stroke-linecap="round" stroke-linejoin="round" cx="21300" cy="14250" r="150"/>
   <circle fill="none" stroke="black" stroke-width="52.92" stroke-linecap="round" stroke-linejoin="round" cx="22800" cy="14250" r="150"/>
   <circle fill="none" stroke="black" stroke-width="52.92" stroke-linecap="round" stroke-linejoin="round" cx="20550" cy="14250" r="375"/>
  </g>
  <g id="_997657312">
   <path fill="none" stroke="lime" stroke-width="52.92" stroke-linecap="round" stroke-linejoin="round" d="M10450 12750l0 -1900c0,-276 224,-500 500,-500l3400 0c276,0 500,224 500,500l0 1900c0,276 -224,500 -500,500l-3400 0c-276,0 -500,-224 -500,-500z"/>
   <circle fill="none" stroke="black" stroke-width="52.92" stroke-linecap="round" stroke-linejoin="round" cx="12650" cy="11050" r="375"/>
   <circle fill="none" stroke="black" stroke-width="52.92" stroke-linecap="round" stroke-linejoin="round" cx="14150" cy="11050" r="375"/>
   <circle fill="none" stroke="black" stroke-width="52.92" stroke-linecap="round" stroke-linejoin="round" cx="11900" cy="11050" r="150"/>
   <circle fill="none" stroke="black" stroke-width="52.92" stroke-linecap="round" stroke-linejoin="round" cx="13400" cy="11050" r="150"/>
   <circle fill="none" stroke="black" stroke-width="52.92" stroke-linecap="round" stroke-linejoin="round" cx="11150" cy="11050" r="375"/>
  </g>
  <g id="_997655680">
   <path fill="none" stroke="lime" stroke-width="52.92" stroke-linecap="round" stroke-linejoin="round" d="M5750 12750l0 -1900c0,-276 224,-500 500,-500l3400 0c276,0 500,224 500,500l0 1900c0,276 -224,500 -500,500l-3400 0c-276,0 -500,-224 -500,-500z"/>
   <circle fill="none" stroke="black" stroke-width="52.92" stroke-linecap="round" stroke-linejoin="round" cx="7950" cy="11050" r="375"/>
   <circle fill="none" stroke="black" stroke-width="52.92" stroke-linecap="round" stroke-linejoin="round" cx="9450" cy="11050" r="375"/>
   <circle fill="none" stroke="black" stroke-width="52.92" stroke-linecap="round" stroke-linejoin="round" cx="7200" cy="11050" r="150"/>
   <circle fill="none" stroke="black" stroke-width="52.92" stroke-linecap="round" stroke-linejoin="round" cx="8700" cy="11050" r="150"/>
   <circle fill="none" stroke="black" stroke-width="52.92" stroke-linecap="round" stroke-linejoin="round" cx="6450" cy="11050" r="375"/>
  </g>
  <g id="_997652640">
   <path fill="none" stroke="lime" stroke-width="52.92" stroke-linecap="round" stroke-linejoin="round" d="M15150 12750l0 -1900c0,-276 224,-500 500,-500l3400 0c276,0 500,224 500,500l0 1900c0,276 -224,500 -500,500l-3400 0c-276,0 -500,-224 -500,-500z"/>
   <circle fill="none" stroke="black" stroke-width="52.92" stroke-linecap="round" stroke-linejoin="round" cx="17350" cy="11050" r="375"/>
   <circle fill="none" stroke="black" stroke-width="52.92" stroke-linecap="round" stroke-linejoin="round" cx="18850" cy="11050" r="375"/>
   <circle fill="none" stroke="black" stroke-width="52.92" stroke-linecap="round" stroke-linejoin="round" cx="16600" cy="11050" r="150"/>
   <circle fill="none" stroke="black" stroke-width="52.92" stroke-linecap="round" stroke-linejoin="round" cx="18100" cy="11050" r="150"/>
   <circle fill="none" stroke="black" stroke-width="52.92" stroke-linecap="round" stroke-linejoin="round" cx="15850" cy="11050" r="375"/>
  </g>
  <g id="_997649792">
   <path fill="none" stroke="lime" stroke-width="52.92" stroke-linecap="round" stroke-linejoin="round" d="M19850 12750l0 -1900c0,-276 224,-500 500,-500l3400 0c276,0 500,224 500,500l0 1900c0,276 -224,500 -500,500l-3400 0c-276,0 -500,-224 -500,-500z"/>
   <circle fill="none" stroke="black" stroke-width="52.92" stroke-linecap="round" stroke-linejoin="round" cx="22050" cy="11050" r="375"/>
   <circle fill="none" stroke="black" stroke-width="52.92" stroke-linecap="round" stroke-linejoin="round" cx="23550" cy="11050" r="375"/>
   <circle fill="none" stroke="black" stroke-width="52.92" stroke-linecap="round" stroke-linejoin="round" cx="21300" cy="11050" r="150"/>
   <circle fill="none" stroke="black" stroke-width="52.92" stroke-linecap="round" stroke-linejoin="round" cx="22800" cy="11050" r="150"/>
   <circle fill="none" stroke="black" stroke-width="52.92" stroke-linecap="round" stroke-linejoin="round" cx="20550" cy="11050" r="375"/>
  </g>
  <g id="_994900192">
   <path fill="none" stroke="lime" stroke-width="52.92" stroke-linecap="round" stroke-linejoin="round" d="M10450 9550l0 -1900c0,-276 224,-500 500,-500l3400 0c276,0 500,224 500,500l0 1900c0,276 -224,500 -500,500l-3400 0c-276,0 -500,-224 -500,-500z"/>
   <circle fill="none" stroke="black" stroke-width="52.92" stroke-linecap="round" stroke-linejoin="round" cx="12650" cy="7850" r="375"/>
   <circle fill="none" stroke="black" stroke-width="52.92" stroke-linecap="round" stroke-linejoin="round" cx="14150" cy="7850" r="375"/>
   <circle fill="none" stroke="black" stroke-width="52.92" stroke-linecap="round" stroke-linejoin="round" cx="11900" cy="7850" r="150"/>
   <circle fill="none" stroke="black" stroke-width="52.92" stroke-linecap="round" stroke-linejoin="round" cx="13400" cy="7850" r="150"/>
   <circle fill="none" stroke="black" stroke-width="52.92" stroke-linecap="round" stroke-linejoin="round" cx="11150" cy="7850" r="375"/>
  </g>
  <g id="_994903744">
   <path fill="none" stroke="lime" stroke-width="52.92" stroke-linecap="round" stroke-linejoin="round" d="M5750 9550l0 -1900c0,-276 224,-500 500,-500l3400 0c276,0 500,224 500,500l0 1900c0,276 -224,500 -500,500l-3400 0c-276,0 -500,-224 -500,-500z"/>
   <circle fill="none" stroke="black" stroke-width="52.92" stroke-linecap="round" stroke-linejoin="round" cx="7950" cy="7850" r="375"/>
   <circle fill="none" stroke="black" stroke-width="52.92" stroke-linecap="round" stroke-linejoin="round" cx="9450" cy="7850" r="375"/>
   <circle fill="none" stroke="black" stroke-width="52.92" stroke-linecap="round" stroke-linejoin="round" cx="7200" cy="7850" r="150"/>
   <circle fill="none" stroke="black" stroke-width="52.92" stroke-linecap="round" stroke-linejoin="round" cx="8700" cy="7850" r="150"/>
   <circle fill="none" stroke="black" stroke-width="52.92" stroke-linecap="round" stroke-linejoin="round" cx="6450" cy="7850" r="375"/>
  </g>
  <g id="_994901024">
   <path fill="none" stroke="lime" stroke-width="52.92" stroke-linecap="round" stroke-linejoin="round" d="M15150 9550l0 -1900c0,-276 224,-500 500,-500l3400 0c276,0 500,224 500,500l0 1900c0,276 -224,500 -500,500l-3400 0c-276,0 -500,-224 -500,-500z"/>
   <circle fill="none" stroke="black" stroke-width="52.92" stroke-linecap="round" stroke-linejoin="round" cx="17350" cy="7850" r="375"/>
   <circle fill="none" stroke="black" stroke-width="52.92" stroke-linecap="round" stroke-linejoin="round" cx="18850" cy="7850" r="375"/>
   <circle fill="none" stroke="black" stroke-width="52.92" stroke-linecap="round" stroke-linejoin="round" cx="16600" cy="7850" r="150"/>
   <circle fill="none" stroke="black" stroke-width="52.92" stroke-linecap="round" stroke-linejoin="round" cx="18100" cy="7850" r="150"/>
   <circle fill="none" stroke="black" stroke-width="52.92" stroke-linecap="round" stroke-linejoin="round" cx="15850" cy="7850" r="375"/>
  </g>
  <g id="_994896480">
   <path fill="none" stroke="lime" stroke-width="52.92" stroke-linecap="round" stroke-linejoin="round" d="M19850 9550l0 -1900c0,-276 224,-500 500,-500l3400 0c276,0 500,224 500,500l0 1900c0,276 -224,500 -500,500l-3400 0c-276,0 -500,-224 -500,-500z"/>
   <circle fill="none" stroke="black" stroke-width="52.92" stroke-linecap="round" stroke-linejoin="round" cx="22050" cy="7850" r="375"/>
   <circle fill="none" stroke="black" stroke-width="52.92" stroke-linecap="round" stroke-linejoin="round" cx="23550" cy="7850" r="375"/>
   <circle fill="none" stroke="black" stroke-width="52.92" stroke-linecap="round" stroke-linejoin="round" cx="21300" cy="7850" r="150"/>
   <circle fill="none" stroke="black" stroke-width="52.92" stroke-linecap="round" stroke-linejoin="round" cx="22800" cy="7850" r="150"/>
   <circle fill="none" stroke="black" stroke-width="52.92" stroke-linecap="round" stroke-linejoin="round" cx="20550" cy="7850" r="375"/>
  </g>
  <g id="_994894272">
   <path fill="none" stroke="lime" stroke-width="52.92" stroke-linecap="round" stroke-linejoin="round" d="M10450 6350l0 -1900c0,-276 224,-500 500,-500l3400 0c276,0 500,224 500,500l0 1900c0,276 -224,500 -500,500l-3400 0c-276,0 -500,-224 -500,-500z"/>
   <circle fill="none" stroke="black" stroke-width="52.92" stroke-linecap="round" stroke-linejoin="round" cx="12650" cy="4650" r="375"/>
   <circle fill="none" stroke="black" stroke-width="52.92" stroke-linecap="round" stroke-linejoin="round" cx="14150" cy="4650" r="375"/>
   <circle fill="none" stroke="black" stroke-width="52.92" stroke-linecap="round" stroke-linejoin="round" cx="11900" cy="4650" r="150"/>
   <circle fill="none" stroke="black" stroke-width="52.92" stroke-linecap="round" stroke-linejoin="round" cx="13400" cy="4650" r="150"/>
   <circle fill="none" stroke="black" stroke-width="52.92" stroke-linecap="round" stroke-linejoin="round" cx="11150" cy="4650" r="375"/>
  </g>
  <g id="_994893696">
   <path fill="none" stroke="lime" stroke-width="52.92" stroke-linecap="round" stroke-linejoin="round" d="M5750 6350l0 -1900c0,-276 224,-500 500,-500l3400 0c276,0 500,224 500,500l0 1900c0,276 -224,500 -500,500l-3400 0c-276,0 -500,-224 -500,-500z"/>
   <circle fill="none" stroke="black" stroke-width="52.92" stroke-linecap="round" stroke-linejoin="round" cx="7950" cy="4650" r="375"/>
   <circle fill="none" stroke="black" stroke-width="52.92" stroke-linecap="round" stroke-linejoin="round" cx="9450" cy="4650" r="375"/>
   <circle fill="none" stroke="black" stroke-width="52.92" stroke-linecap="round" stroke-linejoin="round" cx="7200" cy="4650" r="150"/>
   <circle fill="none" stroke="black" stroke-width="52.92" stroke-linecap="round" stroke-linejoin="round" cx="8700" cy="4650" r="150"/>
   <circle fill="none" stroke="black" stroke-width="52.92" stroke-linecap="round" stroke-linejoin="round" cx="6450" cy="4650" r="375"/>
  </g>
  <g id="_998479920">
   <path fill="none" stroke="lime" stroke-width="52.92" stroke-linecap="round" stroke-linejoin="round" d="M15150 6350l0 -1900c0,-276 224,-500 500,-500l3400 0c276,0 500,224 500,500l0 1900c0,276 -224,500 -500,500l-3400 0c-276,0 -500,-224 -500,-500z"/>
   <circle fill="none" stroke="black" stroke-width="52.92" stroke-linecap="round" stroke-linejoin="round" cx="17350" cy="4650" r="375"/>
   <circle fill="none" stroke="black" stroke-width="52.92" stroke-linecap="round" stroke-linejoin="round" cx="18850" cy="4650" r="375"/>
   <circle fill="none" stroke="black" stroke-width="52.92" stroke-linecap="round" stroke-linejoin="round" cx="16600" cy="4650" r="150"/>
   <circle fill="none" stroke="black" stroke-width="52.92" stroke-linecap="round" stroke-linejoin="round" cx="18100" cy="4650" r="150"/>
   <circle fill="none" stroke="black" stroke-width="52.92" stroke-linecap="round" stroke-linejoin="round" cx="15850" cy="4650" r="375"/>
  </g>
  <g id="_998493872">
   <path fill="none" stroke="lime" stroke-width="52.92" stroke-linecap="round" stroke-linejoin="round" d="M19850 6350l0 -1900c0,-276 224,-500 500,-500l3400 0c276,0 500,224 500,500l0 1900c0,276 -224,500 -500,500l-3400 0c-276,0 -500,-224 -500,-500z"/>
   <circle fill="none" stroke="black" stroke-width="52.92" stroke-linecap="round" stroke-linejoin="round" cx="22050" cy="4650" r="375"/>
   <circle fill="none" stroke="black" stroke-width="52.92" stroke-linecap="round" stroke-linejoin="round" cx="23550" cy="4650" r="375"/>
   <circle fill="none" stroke="black" stroke-width="52.92" stroke-linecap="round" stroke-linejoin="round" cx="21300" cy="4650" r="150"/>
   <circle fill="none" stroke="black" stroke-width="52.92" stroke-linecap="round" stroke-linejoin="round" cx="22800" cy="4650" r="150"/>
   <circle fill="none" stroke="black" stroke-width="52.92" stroke-linecap="round" stroke-linejoin="round" cx="20550" cy="4650" r="375"/>
  </g>
  <g id="_998489584">
   <path fill="none" stroke="lime" stroke-width="52.92" stroke-linecap="round" stroke-linejoin="round" d="M10450 3150l0 -1900c0,-276 224,-500 500,-500l3400 0c276,0 500,224 500,500l0 1900c0,276 -224,500 -500,500l-3400 0c-276,0 -500,-224 -500,-500z"/>
   <circle fill="none" stroke="black" stroke-width="52.92" stroke-linecap="round" stroke-linejoin="round" cx="12650" cy="1450" r="375"/>
   <circle fill="none" stroke="black" stroke-width="52.92" stroke-linecap="round" stroke-linejoin="round" cx="14150" cy="1450" r="375"/>
   <circle fill="none" stroke="black" stroke-width="52.92" stroke-linecap="round" stroke-linejoin="round" cx="11900" cy="1450" r="150"/>
   <circle fill="none" stroke="black" stroke-width="52.92" stroke-linecap="round" stroke-linejoin="round" cx="13400" cy="1450" r="150"/>
   <circle fill="none" stroke="black" stroke-width="52.92" stroke-linecap="round" stroke-linejoin="round" cx="11150" cy="1450" r="375"/>
  </g>
  <g id="_998488528">
   <path fill="none" stroke="lime" stroke-width="52.92" stroke-linecap="round" stroke-linejoin="round" d="M5750 3150l0 -1900c0,-276 224,-500 500,-500l3400 0c276,0 500,224 500,500l0 1900c0,276 -224,500 -500,500l-3400 0c-276,0 -500,-224 -500,-500z"/>
   <circle fill="none" stroke="black" stroke-width="52.92" stroke-linecap="round" stroke-linejoin="round" cx="7950" cy="1450" r="375"/>
   <circle fill="none" stroke="black" stroke-width="52.92" stroke-linecap="round" stroke-linejoin="round" cx="9450" cy="1450" r="375"/>
   <circle fill="none" stroke="black" stroke-width="52.92" stroke-linecap="round" stroke-linejoin="round" cx="7200" cy="1450" r="150"/>
   <circle fill="none" stroke="black" stroke-width="52.92" stroke-linecap="round" stroke-linejoin="round" cx="8700" cy="1450" r="150"/>
   <circle fill="none" stroke="black" stroke-width="52.92" stroke-linecap="round" stroke-linejoin="round" cx="6450" cy="1450" r="375"/>
  </g>
  <g id="_998486192">
   <path fill="none" stroke="lime" stroke-width="52.92" stroke-linecap="round" stroke-linejoin="round" d="M15150 3150l0 -1900c0,-276 224,-500 500,-500l3400 0c276,0 500,224 500,500l0 1900c0,276 -224,500 -500,500l-3400 0c-276,0 -500,-224 -500,-500z"/>
   <circle fill="none" stroke="black" stroke-width="52.92" stroke-linecap="round" stroke-linejoin="round" cx="17350" cy="1450" r="375"/>
   <circle fill="none" stroke="black" stroke-width="52.92" stroke-linecap="round" stroke-linejoin="round" cx="18850" cy="1450" r="375"/>
   <circle fill="none" stroke="black" stroke-width="52.92" stroke-linecap="round" stroke-linejoin="round" cx="16600" cy="1450" r="150"/>
   <circle fill="none" stroke="black" stroke-width="52.92" stroke-linecap="round" stroke-linejoin="round" cx="18100" cy="1450" r="150"/>
   <circle fill="none" stroke="black" stroke-width="52.92" stroke-linecap="round" stroke-linejoin="round" cx="15850" cy="1450" r="375"/>
  </g>
  <g id="_998481904">
   <path fill="none" stroke="lime" stroke-width="52.92" stroke-linecap="round" stroke-linejoin="round" d="M19850 3150l0 -1900c0,-276 224,-500 500,-500l3400 0c276,0 500,224 500,500l0 1900c0,276 -224,500 -500,500l-3400 0c-276,0 -500,-224 -500,-500z"/>
   <circle fill="none" stroke="black" stroke-width="52.92" stroke-linecap="round" stroke-linejoin="round" cx="22050" cy="1450" r="375"/>
   <circle fill="none" stroke="black" stroke-width="52.92" stroke-linecap="round" stroke-linejoin="round" cx="23550" cy="1450" r="375"/>
   <circle fill="none" stroke="black" stroke-width="52.92" stroke-linecap="round" stroke-linejoin="round" cx="21300" cy="1450" r="150"/>
   <circle fill="none" stroke="black" stroke-width="52.92" stroke-linecap="round" stroke-linejoin="round" cx="22800" cy="1450" r="150"/>
   <circle fill="none" stroke="black" stroke-width="52.92" stroke-linecap="round" stroke-linejoin="round" cx="20550" cy="1450" r="375"/>
  </g>
  <g id="_994969952">
   <path fill="none" stroke="lime" stroke-width="52.92" stroke-linecap="round" stroke-linejoin="round" d="M10450 19150l0 -1900c0,-276 224,-500 500,-500l3400 0c276,0 500,224 500,500l0 1900c0,276 -224,500 -500,500l-3400 0c-276,0 -500,-224 -500,-500z"/>
   <circle fill="none" stroke="black" stroke-width="52.92" stroke-linecap="round" stroke-linejoin="round" cx="12650" cy="17450" r="375"/>
   <circle fill="none" stroke="black" stroke-width="52.92" stroke-linecap="round" stroke-linejoin="round" cx="14150" cy="17450" r="375"/>
   <circle fill="none" stroke="black" stroke-width="52.92" stroke-linecap="round" stroke-linejoin="round" cx="11900" cy="17450" r="150"/>
   <circle fill="none" stroke="black" stroke-width="52.92" stroke-linecap="round" stroke-linejoin="round" cx="13400" cy="17450" r="150"/>
   <circle fill="none" stroke="black" stroke-width="52.92" stroke-linecap="round" stroke-linejoin="round" cx="11150" cy="17450" r="375"/>
  </g>
  <g id="_994974656">
   <path fill="none" stroke="lime" stroke-width="52.92" stroke-linecap="round" stroke-linejoin="round" d="M5750 19150l0 -1900c0,-276 224,-500 500,-500l3400 0c276,0 500,224 500,500l0 1900c0,276 -224,500 -500,500l-3400 0c-276,0 -500,-224 -500,-500z"/>
   <circle fill="none" stroke="black" stroke-width="52.92" stroke-linecap="round" stroke-linejoin="round" cx="7950" cy="17450" r="375"/>
   <circle fill="none" stroke="black" stroke-width="52.92" stroke-linecap="round" stroke-linejoin="round" cx="9450" cy="17450" r="375"/>
   <circle fill="none" stroke="black" stroke-width="52.92" stroke-linecap="round" stroke-linejoin="round" cx="7200" cy="17450" r="150"/>
   <circle fill="none" stroke="black" stroke-width="52.92" stroke-linecap="round" stroke-linejoin="round" cx="8700" cy="17450" r="150"/>
   <circle fill="none" stroke="black" stroke-width="52.92" stroke-linecap="round" stroke-linejoin="round" cx="6450" cy="17450" r="375"/>
  </g>
  <g id="_994972128">
   <path fill="none" stroke="lime" stroke-width="52.92" stroke-linecap="round" stroke-linejoin="round" d="M15150 19150l0 -1900c0,-276 224,-500 500,-500l3400 0c276,0 500,224 500,500l0 1900c0,276 -224,500 -500,500l-3400 0c-276,0 -500,-224 -500,-500z"/>
   <circle fill="none" stroke="black" stroke-width="52.92" stroke-linecap="round" stroke-linejoin="round" cx="17350" cy="17450" r="375"/>
   <circle fill="none" stroke="black" stroke-width="52.92" stroke-linecap="round" stroke-linejoin="round" cx="18850" cy="17450" r="375"/>
   <circle fill="none" stroke="black" stroke-width="52.92" stroke-linecap="round" stroke-linejoin="round" cx="16600" cy="17450" r="150"/>
   <circle fill="none" stroke="black" stroke-width="52.92" stroke-linecap="round" stroke-linejoin="round" cx="18100" cy="17450" r="150"/>
   <circle fill="none" stroke="black" stroke-width="52.92" stroke-linecap="round" stroke-linejoin="round" cx="15850" cy="17450" r="375"/>
  </g>
  <g id="_995236272">
   <path fill="none" stroke="lime" stroke-width="52.92" stroke-linecap="round" stroke-linejoin="round" d="M19850 19150l0 -1900c0,-276 224,-500 500,-500l3400 0c276,0 500,224 500,500l0 1900c0,276 -224,500 -500,500l-3400 0c-276,0 -500,-224 -500,-500z"/>
   <circle fill="none" stroke="black" stroke-width="52.92" stroke-linecap="round" stroke-linejoin="round" cx="22050" cy="17450" r="375"/>
   <circle fill="none" stroke="black" stroke-width="52.92" stroke-linecap="round" stroke-linejoin="round" cx="23550" cy="17450" r="375"/>
   <circle fill="none" stroke="black" stroke-width="52.92" stroke-linecap="round" stroke-linejoin="round" cx="21300" cy="17450" r="150"/>
   <circle fill="none" stroke="black" stroke-width="52.92" stroke-linecap="round" stroke-linejoin="round" cx="22800" cy="17450" r="150"/>
   <circle fill="none" stroke="black" stroke-width="52.92" stroke-linecap="round" stroke-linejoin="round" cx="20550" cy="17450" r="375"/>
  </g>
  <g id="_995240816">
   <path fill="none" stroke="lime" stroke-width="52.92" stroke-linecap="round" stroke-linejoin="round" d="M10450 22350l0 -1900c0,-276 224,-500 500,-500l3400 0c276,0 500,224 500,500l0 1900c0,276 -224,500 -500,500l-3400 0c-276,0 -500,-224 -500,-500z"/>
   <circle fill="none" stroke="black" stroke-width="52.92" stroke-linecap="round" stroke-linejoin="round" cx="12650" cy="20650" r="375"/>
   <circle fill="none" stroke="black" stroke-width="52.92" stroke-linecap="round" stroke-linejoin="round" cx="14150" cy="20650" r="375"/>
   <circle fill="none" stroke="black" stroke-width="52.92" stroke-linecap="round" stroke-linejoin="round" cx="11900" cy="20650" r="150"/>
   <circle fill="none" stroke="black" stroke-width="52.92" stroke-linecap="round" stroke-linejoin="round" cx="13400" cy="20650" r="150"/>
   <circle fill="none" stroke="black" stroke-width="52.92" stroke-linecap="round" stroke-linejoin="round" cx="11150" cy="20650" r="375"/>
  </g>
  <g id="_995237616">
   <path fill="none" stroke="lime" stroke-width="52.92" stroke-linecap="round" stroke-linejoin="round" d="M5750 22350l0 -1900c0,-276 224,-500 500,-500l3400 0c276,0 500,224 500,500l0 1900c0,276 -224,500 -500,500l-3400 0c-276,0 -500,-224 -500,-500z"/>
   <circle fill="none" stroke="black" stroke-width="52.92" stroke-linecap="round" stroke-linejoin="round" cx="7950" cy="20650" r="375"/>
   <circle fill="none" stroke="black" stroke-width="52.92" stroke-linecap="round" stroke-linejoin="round" cx="9450" cy="20650" r="375"/>
   <circle fill="none" stroke="black" stroke-width="52.92" stroke-linecap="round" stroke-linejoin="round" cx="7200" cy="20650" r="150"/>
   <circle fill="none" stroke="black" stroke-width="52.92" stroke-linecap="round" stroke-linejoin="round" cx="8700" cy="20650" r="150"/>
   <circle fill="none" stroke="black" stroke-width="52.92" stroke-linecap="round" stroke-linejoin="round" cx="6450" cy="20650" r="375"/>
  </g>
  <g id="_996251408">
   <path fill="none" stroke="lime" stroke-width="52.92" stroke-linecap="round" stroke-linejoin="round" d="M15150 22350l0 -1900c0,-276 224,-500 500,-500l3400 0c276,0 500,224 500,500l0 1900c0,276 -224,500 -500,500l-3400 0c-276,0 -500,-224 -500,-500z"/>
   <circle fill="none" stroke="black" stroke-width="52.92" stroke-linecap="round" stroke-linejoin="round" cx="17350" cy="20650" r="375"/>
   <circle fill="none" stroke="black" stroke-width="52.92" stroke-linecap="round" stroke-linejoin="round" cx="18850" cy="20650" r="375"/>
   <circle fill="none" stroke="black" stroke-width="52.92" stroke-linecap="round" stroke-linejoin="round" cx="16600" cy="20650" r="150"/>
   <circle fill="none" stroke="black" stroke-width="52.92" stroke-linecap="round" stroke-linejoin="round" cx="18100" cy="20650" r="150"/>
   <circle fill="none" stroke="black" stroke-width="52.92" stroke-linecap="round" stroke-linejoin="round" cx="15850" cy="20650" r="375"/>
  </g>
  <g id="_996249328">
   <path fill="none" stroke="lime" stroke-width="52.92" stroke-linecap="round" stroke-linejoin="round" d="M19850 22350l0 -1900c0,-276 224,-500 500,-500l3400 0c276,0 500,224 500,500l0 1900c0,276 -224,500 -500,500l-3400 0c-276,0 -500,-224 -500,-500z"/>
   <circle fill="none" stroke="black" stroke-width="52.92" stroke-linecap="round" stroke-linejoin="round" cx="22050" cy="20650" r="375"/>
   <circle fill="none" stroke="black" stroke-width="52.92" stroke-linecap="round" stroke-linejoin="round" cx="23550" cy="20650" r="375"/>
   <circle fill="none" stroke="black" stroke-width="52.92" stroke-linecap="round" stroke-linejoin="round" cx="21300" cy="20650" r="150"/>
   <circle fill="none" stroke="black" stroke-width="52.92" stroke-linecap="round" stroke-linejoin="round" cx="22800" cy="20650" r="150"/>
   <circle fill="none" stroke="black" stroke-width="52.92" stroke-linecap="round" stroke-linejoin="round" cx="20550" cy="20650" r="375"/>
  </g>
  <g id="_996248944">
   <path fill="none" stroke="lime" stroke-width="52.92" stroke-linecap="round" stroke-linejoin="round" d="M10450 25550l0 -1900c0,-276 224,-500 500,-500l3400 0c276,0 500,224 500,500l0 1900c0,276 -224,500 -500,500l-3400 0c-276,0 -500,-224 -500,-500z"/>
   <circle fill="none" stroke="black" stroke-width="52.92" stroke-linecap="round" stroke-linejoin="round" cx="12650" cy="23850" r="375"/>
   <circle fill="none" stroke="black" stroke-width="52.92" stroke-linecap="round" stroke-linejoin="round" cx="14150" cy="23850" r="375"/>
   <circle fill="none" stroke="black" stroke-width="52.92" stroke-linecap="round" stroke-linejoin="round" cx="11900" cy="23850" r="150"/>
   <circle fill="none" stroke="black" stroke-width="52.92" stroke-linecap="round" stroke-linejoin="round" cx="13400" cy="23850" r="150"/>
   <circle fill="none" stroke="black" stroke-width="52.92" stroke-linecap="round" stroke-linejoin="round" cx="11150" cy="23850" r="375"/>
  </g>
  <g id="_800614464">
   <path fill="none" stroke="lime" stroke-width="52.92" stroke-linecap="round" stroke-linejoin="round" d="M5750 25550l0 -1900c0,-276 224,-500 500,-500l3400 0c276,0 500,224 500,500l0 1900c0,276 -224,500 -500,500l-3400 0c-276,0 -500,-224 -500,-500z"/>
   <circle fill="none" stroke="black" stroke-width="52.92" stroke-linecap="round" stroke-linejoin="round" cx="7950" cy="23850" r="375"/>
   <circle fill="none" stroke="black" stroke-width="52.92" stroke-linecap="round" stroke-linejoin="round" cx="9450" cy="23850" r="375"/>
   <circle fill="none" stroke="black" stroke-width="52.92" stroke-linecap="round" stroke-linejoin="round" cx="7200" cy="23850" r="150"/>
   <circle fill="none" stroke="black" stroke-width="52.92" stroke-linecap="round" stroke-linejoin="round" cx="8700" cy="23850" r="150"/>
   <circle fill="none" stroke="black" stroke-width="52.92" stroke-linecap="round" stroke-linejoin="round" cx="6450" cy="23850" r="375"/>
  </g>
  <g id="_800613312">
   <path fill="none" stroke="lime" stroke-width="52.92" stroke-linecap="round" stroke-linejoin="round" d="M15150 25550l0 -1900c0,-276 224,-500 500,-500l3400 0c276,0 500,224 500,500l0 1900c0,276 -224,500 -500,500l-3400 0c-276,0 -500,-224 -500,-500z"/>
   <circle fill="none" stroke="black" stroke-width="52.92" stroke-linecap="round" stroke-linejoin="round" cx="17350" cy="23850" r="375"/>
   <circle fill="none" stroke="black" stroke-width="52.92" stroke-linecap="round" stroke-linejoin="round" cx="18850" cy="23850" r="375"/>
   <circle fill="none" stroke="black" stroke-width="52.92" stroke-linecap="round" stroke-linejoin="round" cx="16600" cy="23850" r="150"/>
   <circle fill="none" stroke="black" stroke-width="52.92" stroke-linecap="round" stroke-linejoin="round" cx="18100" cy="23850" r="150"/>
   <circle fill="none" stroke="black" stroke-width="52.92" stroke-linecap="round" stroke-linejoin="round" cx="15850" cy="23850" r="375"/>
  </g>
  <g id="_996516368">
   <path fill="none" stroke="lime" stroke-width="52.92" stroke-linecap="round" stroke-linejoin="round" d="M19850 25550l0 -1900c0,-276 224,-500 500,-500l3400 0c276,0 500,224 500,500l0 1900c0,276 -224,500 -500,500l-3400 0c-276,0 -500,-224 -500,-500z"/>
   <circle fill="none" stroke="black" stroke-width="52.92" stroke-linecap="round" stroke-linejoin="round" cx="22050" cy="23850" r="375"/>
   <circle fill="none" stroke="black" stroke-width="52.92" stroke-linecap="round" stroke-linejoin="round" cx="23550" cy="23850" r="375"/>
   <circle fill="none" stroke="black" stroke-width="52.92" stroke-linecap="round" stroke-linejoin="round" cx="21300" cy="23850" r="150"/>
   <circle fill="none" stroke="black" stroke-width="52.92" stroke-linecap="round" stroke-linejoin="round" cx="22800" cy="23850" r="150"/>
   <circle fill="none" stroke="black" stroke-width="52.92" stroke-linecap="round" stroke-linejoin="round" cx="20550" cy="23850" r="375"/>
  </g>
  <g id="_992404112">
   <path fill="none" stroke="lime" stroke-width="52.92" stroke-linecap="round" stroke-linejoin="round" d="M10450 28750l0 -1900c0,-276 224,-500 500,-500l3400 0c276,0 500,224 500,500l0 1900c0,276 -224,500 -500,500l-3400 0c-276,0 -500,-224 -500,-500z"/>
   <circle fill="none" stroke="black" stroke-width="52.92" stroke-linecap="round" stroke-linejoin="round" cx="12650" cy="27050" r="375"/>
   <circle fill="none" stroke="black" stroke-width="52.92" stroke-linecap="round" stroke-linejoin="round" cx="14150" cy="27050" r="375"/>
   <circle fill="none" stroke="black" stroke-width="52.92" stroke-linecap="round" stroke-linejoin="round" cx="11900" cy="27050" r="150"/>
   <circle fill="none" stroke="black" stroke-width="52.92" stroke-linecap="round" stroke-linejoin="round" cx="13400" cy="27050" r="150"/>
   <circle fill="none" stroke="black" stroke-width="52.92" stroke-linecap="round" stroke-linejoin="round" cx="11150" cy="27050" r="375"/>
  </g>
  <g id="_998532800">
   <path fill="none" stroke="lime" stroke-width="52.92" stroke-linecap="round" stroke-linejoin="round" d="M5750 28750l0 -1900c0,-276 224,-500 500,-500l3400 0c276,0 500,224 500,500l0 1900c0,276 -224,500 -500,500l-3400 0c-276,0 -500,-224 -500,-500z"/>
   <circle fill="none" stroke="black" stroke-width="52.92" stroke-linecap="round" stroke-linejoin="round" cx="7950" cy="27050" r="375"/>
   <circle fill="none" stroke="black" stroke-width="52.92" stroke-linecap="round" stroke-linejoin="round" cx="9450" cy="27050" r="375"/>
   <circle fill="none" stroke="black" stroke-width="52.92" stroke-linecap="round" stroke-linejoin="round" cx="7200" cy="27050" r="150"/>
   <circle fill="none" stroke="black" stroke-width="52.92" stroke-linecap="round" stroke-linejoin="round" cx="8700" cy="27050" r="150"/>
   <circle fill="none" stroke="black" stroke-width="52.92" stroke-linecap="round" stroke-linejoin="round" cx="6450" cy="27050" r="375"/>
  </g>
  <g id="_993898448">
   <path fill="none" stroke="lime" stroke-width="52.92" stroke-linecap="round" stroke-linejoin="round" d="M15150 28750l0 -1900c0,-276 224,-500 500,-500l3400 0c276,0 500,224 500,500l0 1900c0,276 -224,500 -500,500l-3400 0c-276,0 -500,-224 -500,-500z"/>
   <circle fill="none" stroke="black" stroke-width="52.92" stroke-linecap="round" stroke-linejoin="round" cx="17350" cy="27050" r="375"/>
   <circle fill="none" stroke="black" stroke-width="52.92" stroke-linecap="round" stroke-linejoin="round" cx="18850" cy="27050" r="375"/>
   <circle fill="none" stroke="black" stroke-width="52.92" stroke-linecap="round" stroke-linejoin="round" cx="16600" cy="27050" r="150"/>
   <circle fill="none" stroke="black" stroke-width="52.92" stroke-linecap="round" stroke-linejoin="round" cx="18100" cy="27050" r="150"/>
   <circle fill="none" stroke="black" stroke-width="52.92" stroke-linecap="round" stroke-linejoin="round" cx="15850" cy="27050" r="375"/>
  </g>
  <g id="_993895792">
   <path fill="none" stroke="lime" stroke-width="52.92" stroke-linecap="round" stroke-linejoin="round" d="M19850 28750l0 -1900c0,-276 224,-500 500,-500l3400 0c276,0 500,224 500,500l0 1900c0,276 -224,500 -500,500l-3400 0c-276,0 -500,-224 -500,-500z"/>
   <circle fill="none" stroke="black" stroke-width="52.92" stroke-linecap="round" stroke-linejoin="round" cx="22050" cy="27050" r="375"/>
   <circle fill="none" stroke="black" stroke-width="52.92" stroke-linecap="round" stroke-linejoin="round" cx="23550" cy="27050" r="375"/>
   <circle fill="none" stroke="black" stroke-width="52.92" stroke-linecap="round" stroke-linejoin="round" cx="21300" cy="27050" r="150"/>
   <circle fill="none" stroke="black" stroke-width="52.92" stroke-linecap="round" stroke-linejoin="round" cx="22800" cy="27050" r="150"/>
   <circle fill="none" stroke="black" stroke-width="52.92" stroke-linecap="round" stroke-linejoin="round" cx="20550" cy="27050" r="375"/>
  </g>
 </g>
</svg>
