  0
SECTION
  2
HEADER
  9
$ACADVER
  1
AC1021
  9
$ACADMAINTVER
 70
    25
  9
$DWGCODEPAGE
  3
ANSI_1252
  9
$INSBASE
 10
0.0
 20
0.0
 30
0.0
  9
$EXTMIN
 10
-6.72646
 20
-3.72646
 30
0.0
  9
$EXTMAX
 10
6.72646
 20
3.72646
 30
0.0
  9
$LIMMIN
 10
0.0
 20
0.0
  9
$LIMMAX
 10
12.0
 20
9.0
  9
$ORTHOMODE
 70
     0
  9
$REGENMODE
 70
     1
  9
$FILLMODE
 70
     1
  9
$QTEXTMODE
 70
     0
  9
$MIRRTEXT
 70
     1
  9
$LTSCALE
 40
1.0
  9
$ATTMODE
 70
     1
  9
$TEXTSIZE
 40
0.2
  9
$TRACEWID
 40
0.05
  9
$TEXTSTYLE
  7
Standard
  9
$CLAYER
  8
0
  9
$CELTYPE
  6
ByLayer
  9
$CECOLOR
 62
   256
  9
$CELTSCALE
 40
1.0
  9
$DISPSILH
 70
     0
  9
$DIMSCALE
 40
1.0
  9
$DIMASZ
 40
0.18
  9
$DIMEXO
 40
0.0625
  9
$DIMDLI
 40
0.38
  9
$DIMRND
 40
0.0
  9
$DIMDLE
 40
0.0
  9
$DIMEXE
 40
0.18
  9
$DIMTP
 40
0.0
  9
$DIMTM
 40
0.0
  9
$DIMTXT
 40
0.18
  9
$DIMCEN
 40
0.09
  9
$DIMTSZ
 40
0.0
  9
$DIMTOL
 70
     0
  9
$DIMLIM
 70
     0
  9
$DIMTIH
 70
     1
  9
$DIMTOH
 70
     1
  9
$DIMSE1
 70
     0
  9
$DIMSE2
 70
     0
  9
$DIMTAD
 70
     0
  9
$DIMZIN
 70
     0
  9
$DIMBLK
  1

  9
$DIMASO
 70
     1
  9
$DIMSHO
 70
     1
  9
$DIMPOST
  1

  9
$DIMAPOST
  1

  9
$DIMALT
 70
     0
  9
$DIMALTD
 70
     2
  9
$DIMALTF
 40
25.4
  9
$DIMLFAC
 40
1.0
  9
$DIMTOFL
 70
     0
  9
$DIMTVP
 40
0.0
  9
$DIMTIX
 70
     0
  9
$DIMSOXD
 70
     0
  9
$DIMSAH
 70
     0
  9
$DIMBLK1
  1

  9
$DIMBLK2
  1

  9
$DIMSTYLE
  2
Standard
  9
$DIMCLRD
 70
     0
  9
$DIMCLRE
 70
     0
  9
$DIMCLRT
 70
     0
  9
$DIMTFAC
 40
1.0
  9
$DIMGAP
 40
0.09
  9
$DIMJUST
 70
     0
  9
$DIMSD1
 70
     0
  9
$DIMSD2
 70
     0
  9
$DIMTOLJ
 70
     1
  9
$DIMTZIN
 70
     0
  9
$DIMALTZ
 70
     0
  9
$DIMALTTZ
 70
     0
  9
$DIMUPT
 70
     0
  9
$DIMDEC
 70
     4
  9
$DIMTDEC
 70
     4
  9
$DIMALTU
 70
     2
  9
$DIMALTTD
 70
     2
  9
$DIMTXSTY
  7
Standard
  9
$DIMAUNIT
 70
     0
  9
$DIMADEC
 70
     0
  9
$DIMALTRND
 40
0.0
  9
$DIMAZIN
 70
     0
  9
$DIMDSEP
 70
    46
  9
$DIMATFIT
 70
     3
  9
$DIMFRAC
 70
     0
  9
$DIMLDRBLK
  1

  9
$DIMLUNIT
 70
     2
  9
$DIMLWD
 70
    -2
  9
$DIMLWE
 70
    -2
  9
$DIMTMOVE
 70
     0
  9
$DIMFXL
 40
1.0
  9
$DIMFXLON
 70
     0
  9
$DIMJOGANG
 40
0.7853981633974483
  9
$DIMTFILL
 70
     0
  9
$DIMTFILLCLR
 70
     0
  9
$DIMARCSYM
 70
     0
  9
$DIMLTYPE
  6

  9
$DIMLTEX1
  6

  9
$DIMLTEX2
  6

  9
$LUNITS
 70
     2
  9
$LUPREC
 70
     4
  9
$SKETCHINC
 40
0.1
  9
$FILLETRAD
 40
0.5
  9
$AUNITS
 70
     0
  9
$AUPREC
 70
     0
  9
$MENU
  1
.
  9
$ELEVATION
 40
0.0
  9
$PELEVATION
 40
0.0
  9
$THICKNESS
 40
0.0
  9
$LIMCHECK
 70
     0
  9
$CHAMFERA
 40
0.5
  9
$CHAMFERB
 40
0.5
  9
$CHAMFERC
 40
1.0
  9
$CHAMFERD
 40
0.0
  9
$SKPOLY
 70
     0
  9
$TDCREATE
 40
2460500.723572002
  9
$TDUCREATE
 40
2460500.681905336
  9
$TDUPDATE
 40
2460500.723572083
  9
$TDUUPDATE
 40
2460500.681905417
  9
$TDINDWG
 40
0.0000000116
  9
$TDUSRTIMER
 40
0.0000000116
  9
$USRTIMER
 70
     1
  9
$ANGBASE
 50
0.0
  9
$ANGDIR
 70
     0
  9
$PDMODE
 70
     0
  9
$PDSIZE
 40
0.0
  9
$PLINEWID
 40
0.0
  9
$SPLFRAME
 70
     0
  9
$SPLINETYPE
 70
     6
  9
$SPLINESEGS
 70
     8
  9
$HANDSEED
  5
88
  9
$SURFTAB1
 70
     6
  9
$SURFTAB2
 70
     6
  9
$SURFTYPE
 70
     6
  9
$SURFU
 70
     6
  9
$SURFV
 70
     6
  9
$UCSBASE
  2

  9
$UCSNAME
  2

  9
$UCSORG
 10
0.0
 20
0.0
 30
0.0
  9
$UCSXDIR
 10
1.0
 20
0.0
 30
0.0
  9
$UCSYDIR
 10
0.0
 20
1.0
 30
0.0
  9
$UCSORTHOREF
  2

  9
$UCSORTHOVIEW
 70
     0
  9
$UCSORGTOP
 10
0.0
 20
0.0
 30
0.0
  9
$UCSORGBOTTOM
 10
0.0
 20
0.0
 30
0.0
  9
$UCSORGLEFT
 10
0.0
 20
0.0
 30
0.0
  9
$UCSORGRIGHT
 10
0.0
 20
0.0
 30
0.0
  9
$UCSORGFRONT
 10
0.0
 20
0.0
 30
0.0
  9
$UCSORGBACK
 10
0.0
 20
0.0
 30
0.0
  9
$PUCSBASE
  2

  9
$PUCSNAME
  2

  9
$PUCSORG
 10
0.0
 20
0.0
 30
0.0
  9
$PUCSXDIR
 10
1.0
 20
0.0
 30
0.0
  9
$PUCSYDIR
 10
0.0
 20
1.0
 30
0.0
  9
$PUCSORTHOREF
  2

  9
$PUCSORTHOVIEW
 70
     0
  9
$PUCSORGTOP
 10
0.0
 20
0.0
 30
0.0
  9
$PUCSORGBOTTOM
 10
0.0
 20
0.0
 30
0.0
  9
$PUCSORGLEFT
 10
0.0
 20
0.0
 30
0.0
  9
$PUCSORGRIGHT
 10
0.0
 20
0.0
 30
0.0
  9
$PUCSORGFRONT
 10
0.0
 20
0.0
 30
0.0
  9
$PUCSORGBACK
 10
0.0
 20
0.0
 30
0.0
  9
$USERI1
 70
     0
  9
$USERI2
 70
     0
  9
$USERI3
 70
     0
  9
$USERI4
 70
     0
  9
$USERI5
 70
     0
  9
$USERR1
 40
0.0
  9
$USERR2
 40
0.0
  9
$USERR3
 40
0.0
  9
$USERR4
 40
0.0
  9
$USERR5
 40
0.0
  9
$WORLDVIEW
 70
     1
  9
$SHADEDGE
 70
     3
  9
$SHADEDIF
 70
    70
  9
$TILEMODE
 70
     1
  9
$MAXACTVP
 70
    64
  9
$PINSBASE
 10
0.0
 20
0.0
 30
0.0
  9
$PLIMCHECK
 70
     0
  9
$PEXTMIN
 10
1.000000000000000E+20
 20
1.000000000000000E+20
 30
1.000000000000000E+20
  9
$PEXTMAX
 10
-1.000000000000000E+20
 20
-1.000000000000000E+20
 30
-1.000000000000000E+20
  9
$PLIMMIN
 10
0.0
 20
0.0
  9
$PLIMMAX
 10
12.0
 20
9.0
  9
$UNITMODE
 70
     0
  9
$VISRETAIN
 70
     1
  9
$PLINEGEN
 70
     0
  9
$PSLTSCALE
 70
     1
  9
$TREEDEPTH
 70
  3020
  9
$CMLSTYLE
  2
Standard
  9
$CMLJUST
 70
     0
  9
$CMLSCALE
 40
1.0
  9
$PROXYGRAPHICS
 70
     1
  9
$MEASUREMENT
 70
     0
  9
$CELWEIGHT
370
    -1
  9
$ENDCAPS
280
     0
  9
$JOINSTYLE
280
     0
  9
$LWDISPLAY
290
     0
  9
$INSUNITS
 70
     5
  9
$HYPERLINKBASE
  1

  9
$STYLESHEET
  1

  9
$XEDIT
290
     1
  9
$CEPSNTYPE
380
     0
  9
$PSTYLEMODE
290
     1
  9
$FINGERPRINTGUID
  2
{4D00724D-F1FD-49E8-9A9F-BCA21B981CB8}
  9
$VERSIONGUID
  2
{FAEB1C32-E019-11D5-929B-00C0DF256EC4}
  9
$EXTNAMES
290
     1
  9
$PSVPSCALE
 40
0.0
  9
$OLESTARTUP
290
     0
  9
$SORTENTS
280
   127
  9
$INDEXCTL
280
     0
  9
$HIDETEXT
280
     1
  9
$XCLIPFRAME
290
     0
  9
$HALOGAP
280
     0
  9
$OBSCOLOR
 70
   257
  9
$OBSLTYPE
280
     0
  9
$INTERSECTIONDISPLAY
280
     0
  9
$INTERSECTIONCOLOR
 70
   257
  9
$DIMASSOC
280
     2
  9
$PROJECTNAME
  1

  9
$CAMERADISPLAY
290
     0
  9
$LENSLENGTH
 40
50.0
  9
$CAMERAHEIGHT
 40
0.0
  9
$STEPSPERSEC
 40
2.0
  9
$STEPSIZE
 40
6.0
  9
$3DDWFPREC
 40
2.0
  9
$PSOLWIDTH
 40
0.25
  9
$PSOLHEIGHT
 40
4.0
  9
$LOFTANG1
 40
1.570796326794897
  9
$LOFTANG2
 40
1.570796326794897
  9
$LOFTMAG1
 40
0.0
  9
$LOFTMAG2
 40
0.0
  9
$LOFTPARAM
 70
     7
  9
$LOFTNORMALS
280
     1
  9
$LATITUDE
 40
37.795
  9
$LONGITUDE
 40
-122.394
  9
$NORTHDIRECTION
 40
0.0
  9
$TIMEZONE
 70
 -8000
  9
$LIGHTGLYPHDISPLAY
280
     1
  9
$TILEMODELIGHTSYNCH
280
     1
  9
$SOLIDHIST
280
     1
  9
$SHOWHIST
280
     1
  9
$DWFFRAME
280
     2
  9
$DGNFRAME
280
     2
  9
$REALWORLDSCALE
290
     1
  9
$INTERFERECOLOR
 62
   256
  9
$CSHADOW
280
     0
  9
$SHADOWPLANELOCATION
 40
0.0
  0
ENDSEC
  0
SECTION
  2
CLASSES
  0
CLASS
  1
ACDBDICTIONARYWDFLT
  2
AcDbDictionaryWithDefault
  3
ObjectDBX Classes
 90
        0
 91
        4
280
     0
281
     0
  0
CLASS
  1
VISUALSTYLE
  2
AcDbVisualStyle
  3
ObjectDBX Classes
 90
     4095
 91
        4
280
     0
281
     0
  0
CLASS
  1
MATERIAL
  2
AcDbMaterial
  3
ObjectDBX Classes
 90
     1153
 91
        4
280
     0
281
     0
  0
ENDSEC
  0
SECTION
  2
TABLES
  0
TABLE
  2
VPORT
  5
8
330
0
100
AcDbSymbolTable
 70
     1
  0
VPORT
  5
29
330
8
100
AcDbSymbolTableRecord
100
AcDbViewportTableRecord
  2
*Active
 70
     0
 10
0.0
 20
0.0
 11
1.0
 21
1.0
 12
10.42990654205607
 22
4.5
 13
0.0
 23
0.0
 14
0.5
 24
0.5
 15
0.5
 25
0.5
 16
0.0
 26
0.0
 36
1.0
 17
0.0
 27
0.0
 37
0.0
 40
9.0
 41
1.972972972850329
 42
50.0
 43
0.0
 44
0.0
 50
0.0
 51
0.0
 71
     0
 72
   100
 73
     1
 74
     3
 75
     0
 76
     0
 77
     0
 78
     0
281
     0
 65
     1
110
0.0
120
0.0
130
0.0
111
1.0
121
0.0
131
0.0
112
0.0
122
1.0
132
0.0
 79
     0
146
0.0
 60
     3
 61
     5
292
     1
282
     1
141
0.0
142
0.0
 63
   250
  0
ENDTAB
  0
TABLE
  2
LTYPE
  5
5
330
0
100
AcDbSymbolTable
 70
     1
  0
LTYPE
  5
14
330
5
100
AcDbSymbolTableRecord
100
AcDbLinetypeTableRecord
  2
ByBlock
 70
     0
  3

 72
    65
 73
     0
 40
0.0
  0
LTYPE
  5
15
330
5
100
AcDbSymbolTableRecord
100
AcDbLinetypeTableRecord
  2
ByLayer
 70
     0
  3

 72
    65
 73
     0
 40
0.0
  0
LTYPE
  5
16
330
5
100
AcDbSymbolTableRecord
100
AcDbLinetypeTableRecord
  2
Continuous
 70
     0
  3
Solid line
 72
    65
 73
     0
 40
0.0
  0
ENDTAB
  0
TABLE
  2
LAYER
  5
2
330
0
100
AcDbSymbolTable
 70
     2
  0
LAYER
  5
10
330
2
100
AcDbSymbolTableRecord
100
AcDbLayerTableRecord
  2
0
 70
     0
 62
     7
  6
Continuous
370
    -3
390
F
347
3E
  0
LAYER
  5
40
330
2
100
AcDbSymbolTableRecord
100
AcDbLayerTableRecord
  2
Layer 1
 70
     0
 62
     7
  6
Continuous
370
    -3
390
F
347
3E
  0
ENDTAB
  0
TABLE
  2
STYLE
  5
3
330
0
100
AcDbSymbolTable
 70
     1
  0
STYLE
  5
11
330
3
100
AcDbSymbolTableRecord
100
AcDbTextStyleTableRecord
  2
Standard
 70
     0
 40
0.0
 41
1.0
 50
0.0
 71
     0
 42
0.2
  3
txt
  4

  0
ENDTAB
  0
TABLE
  2
VIEW
  5
6
330
0
100
AcDbSymbolTable
 70
     0
  0
ENDTAB
  0
TABLE
  2
UCS
  5
7
330
0
100
AcDbSymbolTable
 70
     0
  0
ENDTAB
  0
TABLE
  2
APPID
  5
9
330
0
100
AcDbSymbolTable
 70
     2
  0
APPID
  5
12
330
9
100
AcDbSymbolTableRecord
100
AcDbRegAppTableRecord
  2
ACAD
 70
     0
  0
APPID
  5
3F
330
9
100
AcDbSymbolTableRecord
100
AcDbRegAppTableRecord
  2
ODA
 70
     0
  0
ENDTAB
  0
TABLE
  2
DIMSTYLE
  5
A
330
0
100
AcDbSymbolTable
 70
     1
100
AcDbDimStyleTable
  0
DIMSTYLE
105
27
330
A
100
AcDbSymbolTableRecord
100
AcDbDimStyleTableRecord
  2
Standard
 70
     0
178
     0
340
11
  0
ENDTAB
  0
TABLE
  2
BLOCK_RECORD
  5
1
330
0
100
AcDbSymbolTable
 70
     1
  0
BLOCK_RECORD
  5
1F
330
1
100
AcDbSymbolTableRecord
100
AcDbBlockTableRecord
  2
*Model_Space
340
22
 70
     0
280
     1
281
     0
  0
BLOCK_RECORD
  5
1B
330
1
100
AcDbSymbolTableRecord
100
AcDbBlockTableRecord
  2
*Paper_Space
340
1E
 70
     0
280
     1
281
     0
  0
BLOCK_RECORD
  5
23
330
1
100
AcDbSymbolTableRecord
100
AcDbBlockTableRecord
  2
*Paper_Space0
340
26
 70
     0
280
     1
281
     0
  0
ENDTAB
  0
ENDSEC
  0
SECTION
  2
BLOCKS
  0
BLOCK
  5
20
330
1F
100
AcDbEntity
  8
0
100
AcDbBlockBegin
  2
*Model_Space
 70
     0
 10
0.0
 20
0.0
 30
0.0
  3
*Model_Space
  1

  0
ENDBLK
  5
21
330
1F
100
AcDbEntity
  8
0
100
AcDbBlockEnd
  0
BLOCK
  5
1C
330
1B
100
AcDbEntity
 67
     1
  8
0
100
AcDbBlockBegin
  2
*Paper_Space
 70
     0
 10
0.0
 20
0.0
 30
0.0
  3
*Paper_Space
  1

  0
ENDBLK
  5
1D
330
1B
100
AcDbEntity
 67
     1
  8
0
100
AcDbBlockEnd
  0
BLOCK
  5
24
330
23
100
AcDbEntity
  8
0
100
AcDbBlockBegin
  2
*Paper_Space0
 70
     0
 10
0.0
 20
0.0
 30
0.0
  3
*Paper_Space0
  1

  0
ENDBLK
  5
25
330
23
100
AcDbEntity
  8
0
100
AcDbBlockEnd
  0
ENDSEC
  0
SECTION
  2
ENTITIES
  0
SPLINE
  5
41
330
1F
100
AcDbEntity
  8
Layer 1
370
    53
100
AcDbSpline
210
0.0
220
0.0
230
1.0
 70
    11
 71
     3
 72
    36
 73
    32
 74
     0
 42
0.0000000001
 43
0.0000000001
 12
1.0
 22
0.0
 32
0.0
 13
1.0
 23
0.0
 33
0.0
 40
0.0
 40
0.0
 40
0.0
 40
0.0
 40
0.1111111111111111
 40
0.1111111111111111
 40
0.1111111111111111
 40
0.1111111111111111
 40
0.2222222222222222
 40
0.2222222222222222
 40
0.2222222222222222
 40
0.2222222222222222
 40
0.3333333333333333
 40
0.3333333333333333
 40
0.3333333333333333
 40
0.3333333333333333
 40
0.4444444444444444
 40
0.4444444444444444
 40
0.4444444444444444
 40
0.4444444444444444
 40
0.5555555555555556
 40
0.5555555555555556
 40
0.5555555555555556
 40
0.5555555555555556
 40
0.6666666666666666
 40
0.6666666666666666
 40
0.6666666666666666
 40
0.6666666666666666
 40
0.7777777777777778
 40
0.7777777777777778
 40
0.7777777777777778
 40
0.7777777777777778
 40
1.0
 40
1.0
 40
1.0
 40
1.0
 10
-6.7
 20
-3.2
 30
0.0
 10
-6.7
 20
-3.2
 30
0.0
 10
-6.7
 20
3.2
 30
0.0
 10
-6.7
 20
3.2
 30
0.0
 10
-6.7
 20
3.2
 30
0.0
 10
-6.7
 20
3.47614
 30
0.0
 10
-6.47614
 20
3.7
 30
0.0
 10
-6.2
 20
3.7
 30
0.0
 10
-6.2
 20
3.7
 30
0.0
 10
-6.2
 20
3.7
 30
0.0
 10
6.2
 20
3.7
 30
0.0
 10
6.2
 20
3.7
 30
0.0
 10
6.2
 20
3.7
 30
0.0
 10
6.47614
 20
3.7
 30
0.0
 10
6.7
 20
3.47614
 30
0.0
 10
6.7
 20
3.2
 30
0.0
 10
6.7
 20
3.2
 30
0.0
 10
6.7
 20
3.2
 30
0.0
 10
6.7
 20
-3.2
 30
0.0
 10
6.7
 20
-3.2
 30
0.0
 10
6.7
 20
-3.2
 30
0.0
 10
6.7
 20
-3.47614
 30
0.0
 10
6.47614
 20
-3.7
 30
0.0
 10
6.2
 20
-3.7
 30
0.0
 10
6.2
 20
-3.7
 30
0.0
 10
6.2
 20
-3.7
 30
0.0
 10
-6.2
 20
-3.7
 30
0.0
 10
-6.2
 20
-3.7
 30
0.0
 10
-6.2
 20
-3.7
 30
0.0
 10
-6.47614
 20
-3.7
 30
0.0
 10
-6.7
 20
-3.47614
 30
0.0
 10
-6.7
 20
-3.2
 30
0.0
  0
ELLIPSE
  5
42
330
1F
100
AcDbEntity
  8
Layer 1
370
    53
100
AcDbEllipse
 10
4.50001
 20
2.99999
 30
0.0
 11
0.0
 21
0.30001
 31
0.0
210
0.0
220
0.0
230
1.0
 40
1.0
 41
0.0
 42
6.283185307179586
  0
ELLIPSE
  5
43
330
1F
100
AcDbEntity
  8
Layer 1
370
    53
100
AcDbEllipse
 10
6.00001
 20
2.99999
 30
0.0
 11
0.0
 21
0.30001
 31
0.0
210
0.0
220
0.0
230
1.0
 40
1.0
 41
0.0
 42
6.283185307179586
  0
ELLIPSE
  5
44
330
1F
100
AcDbEntity
  8
Layer 1
370
    53
100
AcDbEllipse
 10
3.75
 20
3.0
 30
0.0
 11
0.0
 21
0.15
 31
0.0
210
0.0
220
0.0
230
1.0
 40
1.0
 41
0.0
 42
6.283185307179586
  0
ELLIPSE
  5
45
330
1F
100
AcDbEntity
  8
Layer 1
370
    53
100
AcDbEllipse
 10
5.25
 20
3.0
 30
0.0
 11
0.0
 21
0.15
 31
0.0
210
0.0
220
0.0
230
1.0
 40
1.0
 41
0.0
 42
6.283185307179586
  0
ELLIPSE
  5
46
330
1F
100
AcDbEntity
  8
Layer 1
370
    53
100
AcDbEllipse
 10
3.00001
 20
2.99999
 30
0.0
 11
0.0
 21
0.30001
 31
0.0
210
0.0
220
0.0
230
1.0
 40
1.0
 41
0.0
 42
6.283185307179586
  0
ELLIPSE
  5
47
330
1F
100
AcDbEntity
  8
Layer 1
370
    53
100
AcDbEllipse
 10
2.25
 20
3.0
 30
0.0
 11
0.0
 21
0.15
 31
0.0
210
0.0
220
0.0
230
1.0
 40
1.0
 41
0.0
 42
6.283185307179586
  0
ELLIPSE
  5
48
330
1F
100
AcDbEntity
  8
Layer 1
370
    53
100
AcDbEllipse
 10
1.50001
 20
2.99999
 30
0.0
 11
0.0
 21
0.30001
 31
0.0
210
0.0
220
0.0
230
1.0
 40
1.0
 41
0.0
 42
6.283185307179586
  0
ELLIPSE
  5
49
330
1F
100
AcDbEntity
  8
Layer 1
370
    53
100
AcDbEllipse
 10
0.75
 20
3.0
 30
0.0
 11
0.0
 21
0.15
 31
0.0
210
0.0
220
0.0
230
1.0
 40
1.0
 41
0.0
 42
6.283185307179586
  0
ELLIPSE
  5
4A
330
1F
100
AcDbEntity
  8
Layer 1
370
    53
100
AcDbEllipse
 10
0.00001
 20
2.99999
 30
0.0
 11
0.0
 21
0.30001
 31
0.0
210
0.0
220
0.0
230
1.0
 40
1.0
 41
0.0
 42
6.283185307179586
  0
ELLIPSE
  5
4B
330
1F
100
AcDbEntity
  8
Layer 1
370
    53
100
AcDbEllipse
 10
-0.75
 20
3.0
 30
0.0
 11
0.0
 21
0.15
 31
0.0
210
0.0
220
0.0
230
1.0
 40
1.0
 41
0.0
 42
6.283185307179586
  0
ELLIPSE
  5
4C
330
1F
100
AcDbEntity
  8
Layer 1
370
    53
100
AcDbEllipse
 10
-1.49999
 20
2.99999
 30
0.0
 11
0.0
 21
0.30001
 31
0.0
210
0.0
220
0.0
230
1.0
 40
1.0
 41
0.0
 42
6.283185307179586
  0
ELLIPSE
  5
4D
330
1F
100
AcDbEntity
  8
Layer 1
370
    53
100
AcDbEllipse
 10
-2.25
 20
3.0
 30
0.0
 11
0.0
 21
0.15
 31
0.0
210
0.0
220
0.0
230
1.0
 40
1.0
 41
0.0
 42
6.283185307179586
  0
ELLIPSE
  5
4E
330
1F
100
AcDbEntity
  8
Layer 1
370
    53
100
AcDbEllipse
 10
-2.99999
 20
2.99999
 30
0.0
 11
0.0
 21
0.30001
 31
0.0
210
0.0
220
0.0
230
1.0
 40
1.0
 41
0.0
 42
6.283185307179586
  0
ELLIPSE
  5
4F
330
1F
100
AcDbEntity
  8
Layer 1
370
    53
100
AcDbEllipse
 10
-3.75
 20
3.0
 30
0.0
 11
0.0
 21
0.15
 31
0.0
210
0.0
220
0.0
230
1.0
 40
1.0
 41
0.0
 42
6.283185307179586
  0
ELLIPSE
  5
50
330
1F
100
AcDbEntity
  8
Layer 1
370
    53
100
AcDbEllipse
 10
-4.49999
 20
2.99999
 30
0.0
 11
0.0
 21
0.30001
 31
0.0
210
0.0
220
0.0
230
1.0
 40
1.0
 41
0.0
 42
6.283185307179586
  0
ELLIPSE
  5
51
330
1F
100
AcDbEntity
  8
Layer 1
370
    53
100
AcDbEllipse
 10
-5.25
 20
3.0
 30
0.0
 11
0.0
 21
0.15
 31
0.0
210
0.0
220
0.0
230
1.0
 40
1.0
 41
0.0
 42
6.283185307179586
  0
ELLIPSE
  5
52
330
1F
100
AcDbEntity
  8
Layer 1
370
    53
100
AcDbEllipse
 10
-5.99999
 20
2.99999
 30
0.0
 11
0.0
 21
0.30001
 31
0.0
210
0.0
220
0.0
230
1.0
 40
1.0
 41
0.0
 42
6.283185307179586
  0
SPLINE
  5
53
330
1F
100
AcDbEntity
  8
Layer 1
 62
     5
370
    53
100
AcDbSpline
210
0.0
220
0.0
230
1.0
 70
    11
 71
     3
 72
   108
 73
   104
 74
     0
 42
0.0000000001
 43
0.0000000001
 12
1.0
 22
0.0
 32
0.0
 13
1.0
 23
0.0
 33
0.0
 40
0.0
 40
0.0
 40
0.0
 40
0.0
 40
0.037037037037037
 40
0.037037037037037
 40
0.037037037037037
 40
0.037037037037037
 40
0.0740740740740741
 40
0.0740740740740741
 40
0.0740740740740741
 40
0.0740740740740741
 40
0.1111111111111111
 40
0.1111111111111111
 40
0.1111111111111111
 40
0.1111111111111111
 40
0.1481481481481481
 40
0.1481481481481481
 40
0.1481481481481481
 40
0.1481481481481481
 40
0.1851851851851852
 40
0.1851851851851852
 40
0.1851851851851852
 40
0.1851851851851852
 40
0.2222222222222222
 40
0.2222222222222222
 40
0.2222222222222222
 40
0.2222222222222222
 40
0.2592592592592592
 40
0.2592592592592592
 40
0.2592592592592592
 40
0.2592592592592592
 40
0.2962962962962963
 40
0.2962962962962963
 40
0.2962962962962963
 40
0.2962962962962963
 40
0.3333333333333333
 40
0.3333333333333333
 40
0.3333333333333333
 40
0.3333333333333333
 40
0.3703703703703703
 40
0.3703703703703703
 40
0.3703703703703703
 40
0.3703703703703703
 40
0.4074074074074074
 40
0.4074074074074074
 40
0.4074074074074074
 40
0.4074074074074074
 40
0.4444444444444444
 40
0.4444444444444444
 40
0.4444444444444444
 40
0.4444444444444444
 40
0.4814814814814815
 40
0.4814814814814815
 40
0.4814814814814815
 40
0.4814814814814815
 40
0.5185185185185185
 40
0.5185185185185185
 40
0.5185185185185185
 40
0.5185185185185185
 40
0.5555555555555556
 40
0.5555555555555556
 40
0.5555555555555556
 40
0.5555555555555556
 40
0.5925925925925926
 40
0.5925925925925926
 40
0.5925925925925926
 40
0.5925925925925926
 40
0.6296296296296297
 40
0.6296296296296297
 40
0.6296296296296297
 40
0.6296296296296297
 40
0.6666666666666666
 40
0.6666666666666666
 40
0.6666666666666666
 40
0.6666666666666666
 40
0.7037037037037037
 40
0.7037037037037037
 40
0.7037037037037037
 40
0.7037037037037037
 40
0.7407407407407407
 40
0.7407407407407407
 40
0.7407407407407407
 40
0.7407407407407407
 40
0.7777777777777778
 40
0.7777777777777778
 40
0.7777777777777778
 40
0.7777777777777778
 40
0.8148148148148148
 40
0.8148148148148148
 40
0.8148148148148148
 40
0.8148148148148148
 40
0.8518518518518519
 40
0.8518518518518519
 40
0.8518518518518519
 40
0.8518518518518519
 40
0.8888888888888888
 40
0.8888888888888888
 40
0.8888888888888888
 40
0.8888888888888888
 40
0.9259259259259259
 40
0.9259259259259259
 40
0.9259259259259259
 40
0.9259259259259259
 40
1.0
 40
1.0
 40
1.0
 40
1.0
 10
-3.1815
 20
0.93979
 30
0.0
 10
-3.1815
 20
0.84137
 30
0.0
 10
-3.20796
 20
0.75564
 30
0.0
 10
-3.26052
 20
0.68262
 30
0.0
 10
-3.26052
 20
0.68262
 30
0.0
 10
-3.31308
 20
0.60959
 30
0.0
 10
-3.38717
 20
0.55527
 30
0.0
 10
-3.48207
 20
0.51928
 30
0.0
 10
-3.48207
 20
0.51928
 30
0.0
 10
-3.57696
 20
0.48365
 30
0.0
 10
-3.69126
 20
0.46566
 30
0.0
 10
-3.82497
 20
0.46566
 30
0.0
 10
-3.82497
 20
0.46566
 30
0.0
 10
-3.97984
 20
0.46566
 30
0.0
 10
-4.12165
 20
0.49177
 30
0.0
 10
-4.25042
 20
0.54433
 30
0.0
 10
-4.25042
 20
0.54433
 30
0.0
 10
-4.25042
 20
0.54433
 30
0.0
 10
-4.25042
 20
0.95038
 30
0.0
 10
-4.25042
 20
0.95038
 30
0.0
 10
-4.25042
 20
0.95038
 30
0.0
 10
-4.18833
 20
0.90487
 30
0.0
 10
-4.11989
 20
0.86783
 30
0.0
 10
-4.04475
 20
0.83996
 30
0.0
 10
-4.04475
 20
0.83996
 30
0.0
 10
-3.9696
 20
0.81209
 30
0.0
 10
-3.89975
 20
0.79798
 30
0.0
 10
-3.83484
 20
0.79798
 30
0.0
 10
-3.83484
 20
0.79798
 30
0.0
 10
-3.78616
 20
0.79798
 30
0.0
 10
-3.74806
 20
0.8068
 30
0.0
 10
-3.72125
 20
0.82444
 30
0.0
 10
-3.72125
 20
0.82444
 30
0.0
 10
-3.69444
 20
0.84207
 30
0.0
 10
-3.68103
 20
0.86747
 30
0.0
 10
-3.68103
 20
0.90134
 30
0.0
 10
-3.68103
 20
0.90134
 30
0.0
 10
-3.68103
 20
0.92533
 30
0.0
 10
-3.68774
 20
0.94685
 30
0.0
 10
-3.70114
 20
0.96484
 30
0.0
 10
-3.70114
 20
0.96484
 30
0.0
 10
-3.71455
 20
0.98319
 30
0.0
 10
-3.73501
 20
1.00012
 30
0.0
 10
-3.76217
 20
1.01599
 30
0.0
 10
-3.76217
 20
1.01599
 30
0.0
 10
-3.78934
 20
1.03187
 30
0.0
 10
-3.83978
 20
1.05374
 30
0.0
 10
-3.91387
 20
1.08126
 30
0.0
 10
-3.91387
 20
1.08126
 30
0.0
 10
-4.15234
 20
1.17298
 30
0.0
 10
-4.27158
 20
1.32115
 30
0.0
 10
-4.27158
 20
1.52576
 30
0.0
 10
-4.27158
 20
1.52576
 30
0.0
 10
-4.27158
 20
1.66899
 30
0.0
 10
-4.21726
 20
1.78364
 30
0.0
 10
-4.10825
 20
1.86936
 30
0.0
 10
-4.10825
 20
1.86936
 30
0.0
 10
-3.99959
 20
1.95509
 30
0.0
 10
-3.85354
 20
1.99813
 30
0.0
 10
-3.6701
 20
1.99813
 30
0.0
 10
-3.6701
 20
1.99813
 30
0.0
 10
-3.61859
 20
1.99813
 30
0.0
 10
-3.57097
 20
1.99601
 30
0.0
 10
-3.52757
 20
1.99178
 30
0.0
 10
-3.52757
 20
1.99178
 30
0.0
 10
-3.48418
 20
1.9879
 30
0.0
 10
-3.44467
 20
1.98261
 30
0.0
 10
-3.40904
 20
1.97661
 30
0.0
 10
-3.40904
 20
1.97661
 30
0.0
 10
-3.37376
 20
1.97026
 30
0.0
 10
-3.32402
 20
1.95862
 30
0.0
 10
-3.25981
 20
1.94133
 30
0.0
 10
-3.25981
 20
1.94133
 30
0.0
 10
-3.25981
 20
1.94133
 30
0.0
 10
-3.25981
 20
1.56421
 30
0.0
 10
-3.25981
 20
1.56421
 30
0.0
 10
-3.25981
 20
1.56421
 30
0.0
 10
-3.3847
 20
1.63195
 30
0.0
 10
-3.50711
 20
1.66581
 30
0.0
 10
-3.62776
 20
1.66581
 30
0.0
 10
-3.62776
 20
1.66581
 30
0.0
 10
-3.6775
 20
1.66581
 30
0.0
 10
-3.71737
 20
1.65664
 30
0.0
 10
-3.74771
 20
1.63794
 30
0.0
 10
-3.74771
 20
1.63794
 30
0.0
 10
-3.77805
 20
1.61925
 30
0.0
 10
-3.79322
 20
1.59385
 30
0.0
 10
-3.79322
 20
1.56139
 30
0.0
 10
-3.79322
 20
1.56139
 30
0.0
 10
-3.79322
 20
1.5307
 30
0.0
 10
-3.78087
 20
1.50494
 30
0.0
 10
-3.75653
 20
1.48448
 30
0.0
 10
-3.75653
 20
1.48448
 30
0.0
 10
-3.73219
 20
1.46438
 30
0.0
 10
-3.68103
 20
1.43792
 30
0.0
 10
-3.60307
 20
1.40546
 30
0.0
 10
-3.60307
 20
1.40546
 30
0.0
 10
-3.44961
 20
1.34373
 30
0.0
 10
-3.34095
 20
1.27564
 30
0.0
 10
-3.2771
 20
1.20191
 30
0.0
 10
-3.2771
 20
1.20191
 30
0.0
 10
-3.21325
 20
1.12853
 30
0.0
 10
-3.1815
 20
1.04104
 30
0.0
 10
-3.1815
 20
0.93979
 30
0.0
  0
SPLINE
  5
54
330
1F
100
AcDbEntity
  8
Layer 1
 62
     5
370
    53
100
AcDbSpline
210
0.0
220
0.0
230
1.0
 70
    11
 71
     3
 72
    72
 73
    68
 74
     0
 42
0.0000000001
 43
0.0000000001
 12
1.0
 22
0.0
 32
0.0
 13
1.0
 23
0.0
 33
0.0
 40
0.0
 40
0.0
 40
0.0
 40
0.0
 40
0.0555555555555556
 40
0.0555555555555556
 40
0.0555555555555556
 40
0.0555555555555556
 40
0.1111111111111111
 40
0.1111111111111111
 40
0.1111111111111111
 40
0.1111111111111111
 40
0.1666666666666667
 40
0.1666666666666667
 40
0.1666666666666667
 40
0.1666666666666667
 40
0.2222222222222222
 40
0.2222222222222222
 40
0.2222222222222222
 40
0.2222222222222222
 40
0.2777777777777778
 40
0.2777777777777778
 40
0.2777777777777778
 40
0.2777777777777778
 40
0.3333333333333333
 40
0.3333333333333333
 40
0.3333333333333333
 40
0.3333333333333333
 40
0.3888888888888889
 40
0.3888888888888889
 40
0.3888888888888889
 40
0.3888888888888889
 40
0.4444444444444444
 40
0.4444444444444444
 40
0.4444444444444444
 40
0.4444444444444444
 40
0.5
 40
0.5
 40
0.5
 40
0.5
 40
0.5555555555555556
 40
0.5555555555555556
 40
0.5555555555555556
 40
0.5555555555555556
 40
0.6111111111111112
 40
0.6111111111111112
 40
0.6111111111111112
 40
0.6111111111111112
 40
0.6666666666666666
 40
0.6666666666666666
 40
0.6666666666666666
 40
0.6666666666666666
 40
0.7222222222222222
 40
0.7222222222222222
 40
0.7222222222222222
 40
0.7222222222222222
 40
0.7777777777777778
 40
0.7777777777777778
 40
0.7777777777777778
 40
0.7777777777777778
 40
0.8333333333333334
 40
0.8333333333333334
 40
0.8333333333333334
 40
0.8333333333333334
 40
0.8888888888888888
 40
0.8888888888888888
 40
0.8888888888888888
 40
0.8888888888888888
 40
1.0
 40
1.0
 40
1.0
 40
1.0
 10
-2.36694
 20
0.49106
 30
0.0
 10
-2.36694
 20
0.49106
 30
0.0
 10
-2.36694
 20
0.65404
 30
0.0
 10
-2.36694
 20
0.65404
 30
0.0
 10
-2.36694
 20
0.65404
 30
0.0
 10
-2.36694
 20
0.65404
 30
0.0
 10
-2.37117
 20
0.65404
 30
0.0
 10
-2.37117
 20
0.65404
 30
0.0
 10
-2.37117
 20
0.65404
 30
0.0
 10
-2.4075
 20
0.60395
 30
0.0
 10
-2.44031
 20
0.56726
 30
0.0
 10
-2.46959
 20
0.54398
 30
0.0
 10
-2.46959
 20
0.54398
 30
0.0
 10
-2.49887
 20
0.52069
 30
0.0
 10
-2.53204
 20
0.50164
 30
0.0
 10
-2.56872
 20
0.48718
 30
0.0
 10
-2.56872
 20
0.48718
 30
0.0
 10
-2.60577
 20
0.47272
 30
0.0
 10
-2.64845
 20
0.46566
 30
0.0
 10
-2.69749
 20
0.46566
 30
0.0
 10
-2.69749
 20
0.46566
 30
0.0
 10
-2.8132
 20
0.46566
 30
0.0
 10
-2.90139
 20
0.50305
 30
0.0
 10
-2.96172
 20
0.5782
 30
0.0
 10
-2.96172
 20
0.5782
 30
0.0
 10
-3.0224
 20
0.65334
 30
0.0
 10
-3.05274
 20
0.76411
 30
0.0
 10
-3.05274
 20
0.91087
 30
0.0
 10
-3.05274
 20
0.91087
 30
0.0
 10
-3.05274
 20
0.91087
 30
0.0
 10
-3.05274
 20
1.5494
 30
0.0
 10
-3.05274
 20
1.5494
 30
0.0
 10
-3.05274
 20
1.5494
 30
0.0
 10
-3.05274
 20
1.5494
 30
0.0
 10
-2.61247
 20
1.5494
 30
0.0
 10
-2.61247
 20
1.5494
 30
0.0
 10
-2.61247
 20
1.5494
 30
0.0
 10
-2.61247
 20
1.5494
 30
0.0
 10
-2.61247
 20
0.94367
 30
0.0
 10
-2.61247
 20
0.94367
 30
0.0
 10
-2.61247
 20
0.94367
 30
0.0
 10
-2.61247
 20
0.8396
 30
0.0
 10
-2.57366
 20
0.78739
 30
0.0
 10
-2.49605
 20
0.78739
 30
0.0
 10
-2.49605
 20
0.78739
 30
0.0
 10
-2.45337
 20
0.78739
 30
0.0
 10
-2.42126
 20
0.8015
 30
0.0
 10
-2.39939
 20
0.82973
 30
0.0
 10
-2.39939
 20
0.82973
 30
0.0
 10
-2.37787
 20
0.85795
 30
0.0
 10
-2.36694
 20
0.89817
 30
0.0
 10
-2.36694
 20
0.94967
 30
0.0
 10
-2.36694
 20
0.94967
 30
0.0
 10
-2.36694
 20
0.94967
 30
0.0
 10
-2.36694
 20
1.5494
 30
0.0
 10
-2.36694
 20
1.5494
 30
0.0
 10
-2.36694
 20
1.5494
 30
0.0
 10
-2.36694
 20
1.5494
 30
0.0
 10
-1.92667
 20
1.5494
 30
0.0
 10
-1.92667
 20
1.5494
 30
0.0
 10
-1.92667
 20
1.5494
 30
0.0
 10
-1.92667
 20
1.5494
 30
0.0
 10
-1.92667
 20
0.49106
 30
0.0
 10
-1.92667
 20
0.49106
 30
0.0
 10
-1.92667
 20
0.49106
 30
0.0
 10
-1.92667
 20
0.49106
 30
0.0
 10
-2.36694
 20
0.49106
 30
0.0
 10
-2.36694
 20
0.49106
 30
0.0
  0
SPLINE
  5
55
330
1F
100
AcDbEntity
  8
Layer 1
 62
     5
370
    53
100
AcDbSpline
210
0.0
220
0.0
230
1.0
 70
    11
 71
     3
 72
   116
 73
   112
 74
     0
 42
0.0000000001
 43
0.0000000001
 12
1.0
 22
0.0
 32
0.0
 13
1.0
 23
0.0
 33
0.0
 40
0.0
 40
0.0
 40
0.0
 40
0.0
 40
0.0344827586206897
 40
0.0344827586206897
 40
0.0344827586206897
 40
0.0344827586206897
 40
0.0689655172413793
 40
0.0689655172413793
 40
0.0689655172413793
 40
0.0689655172413793
 40
0.103448275862069
 40
0.103448275862069
 40
0.103448275862069
 40
0.103448275862069
 40
0.1379310344827586
 40
0.1379310344827586
 40
0.1379310344827586
 40
0.1379310344827586
 40
0.1724137931034483
 40
0.1724137931034483
 40
0.1724137931034483
 40
0.1724137931034483
 40
0.2068965517241379
 40
0.2068965517241379
 40
0.2068965517241379
 40
0.2068965517241379
 40
0.2413793103448276
 40
0.2413793103448276
 40
0.2413793103448276
 40
0.2413793103448276
 40
0.2758620689655172
 40
0.2758620689655172
 40
0.2758620689655172
 40
0.2758620689655172
 40
0.3103448275862069
 40
0.3103448275862069
 40
0.3103448275862069
 40
0.3103448275862069
 40
0.3448275862068966
 40
0.3448275862068966
 40
0.3448275862068966
 40
0.3448275862068966
 40
0.3793103448275862
 40
0.3793103448275862
 40
0.3793103448275862
 40
0.3793103448275862
 40
0.4137931034482759
 40
0.4137931034482759
 40
0.4137931034482759
 40
0.4137931034482759
 40
0.4482758620689655
 40
0.4482758620689655
 40
0.4482758620689655
 40
0.4482758620689655
 40
0.4827586206896552
 40
0.4827586206896552
 40
0.4827586206896552
 40
0.4827586206896552
 40
0.5172413793103449
 40
0.5172413793103449
 40
0.5172413793103449
 40
0.5172413793103449
 40
0.5517241379310345
 40
0.5517241379310345
 40
0.5517241379310345
 40
0.5517241379310345
 40
0.5862068965517241
 40
0.5862068965517241
 40
0.5862068965517241
 40
0.5862068965517241
 40
0.6206896551724138
 40
0.6206896551724138
 40
0.6206896551724138
 40
0.6206896551724138
 40
0.6551724137931034
 40
0.6551724137931034
 40
0.6551724137931034
 40
0.6551724137931034
 40
0.6896551724137931
 40
0.6896551724137931
 40
0.6896551724137931
 40
0.6896551724137931
 40
0.7241379310344828
 40
0.7241379310344828
 40
0.7241379310344828
 40
0.7241379310344828
 40
0.7586206896551724
 40
0.7586206896551724
 40
0.7586206896551724
 40
0.7586206896551724
 40
0.7931034482758621
 40
0.7931034482758621
 40
0.7931034482758621
 40
0.7931034482758621
 40
0.8275862068965517
 40
0.8275862068965517
 40
0.8275862068965517
 40
0.8275862068965517
 40
0.8620689655172413
 40
0.8620689655172413
 40
0.8620689655172413
 40
0.8620689655172413
 40
0.896551724137931
 40
0.896551724137931
 40
0.896551724137931
 40
0.896551724137931
 40
0.9310344827586207
 40
0.9310344827586207
 40
0.9310344827586207
 40
0.9310344827586207
 40
1.0
 40
1.0
 40
1.0
 40
1.0
 10
-0.34339
 20
0.49106
 30
0.0
 10
-0.34339
 20
0.49106
 30
0.0
 10
-0.34339
 20
1.10101
 30
0.0
 10
-0.34339
 20
1.10101
 30
0.0
 10
-0.34339
 20
1.10101
 30
0.0
 10
-0.34339
 20
1.15217
 30
0.0
 10
-0.35257
 20
1.19027
 30
0.0
 10
-0.37056
 20
1.21531
 30
0.0
 10
-0.37056
 20
1.21531
 30
0.0
 10
-0.3889
 20
1.24036
 30
0.0
 10
-0.41854
 20
1.25306
 30
0.0
 10
-0.45981
 20
1.25306
 30
0.0
 10
-0.45981
 20
1.25306
 30
0.0
 10
-0.50038
 20
1.25306
 30
0.0
 10
-0.53213
 20
1.23789
 30
0.0
 10
-0.55471
 20
1.2072
 30
0.0
 10
-0.55471
 20
1.2072
 30
0.0
 10
-0.57764
 20
1.17651
 30
0.0
 10
-0.58893
 20
1.13382
 30
0.0
 10
-0.58893
 20
1.07949
 30
0.0
 10
-0.58893
 20
1.07949
 30
0.0
 10
-0.58893
 20
1.07949
 30
0.0
 10
-0.58893
 20
0.49106
 30
0.0
 10
-0.58893
 20
0.49106
 30
0.0
 10
-0.58893
 20
0.49106
 30
0.0
 10
-0.58893
 20
0.49106
 30
0.0
 10
-1.0292
 20
0.49106
 30
0.0
 10
-1.0292
 20
0.49106
 30
0.0
 10
-1.0292
 20
0.49106
 30
0.0
 10
-1.0292
 20
0.49106
 30
0.0
 10
-1.0292
 20
1.09078
 30
0.0
 10
-1.0292
 20
1.09078
 30
0.0
 10
-1.0292
 20
1.09078
 30
0.0
 10
-1.0292
 20
1.19909
 30
0.0
 10
-1.06588
 20
1.25306
 30
0.0
 10
-1.13962
 20
1.25306
 30
0.0
 10
-1.13962
 20
1.25306
 30
0.0
 10
-1.18442
 20
1.25306
 30
0.0
 10
-1.21793
 20
1.23754
 30
0.0
 10
-1.24051
 20
1.20614
 30
0.0
 10
-1.24051
 20
1.20614
 30
0.0
 10
-1.26344
 20
1.17474
 30
0.0
 10
-1.27473
 20
1.12959
 30
0.0
 10
-1.27473
 20
1.07103
 30
0.0
 10
-1.27473
 20
1.07103
 30
0.0
 10
-1.27473
 20
1.07103
 30
0.0
 10
-1.27473
 20
0.49106
 30
0.0
 10
-1.27473
 20
0.49106
 30
0.0
 10
-1.27473
 20
0.49106
 30
0.0
 10
-1.27473
 20
0.49106
 30
0.0
 10
-1.715
 20
0.49106
 30
0.0
 10
-1.715
 20
0.49106
 30
0.0
 10
-1.715
 20
0.49106
 30
0.0
 10
-1.715
 20
0.49106
 30
0.0
 10
-1.715
 20
1.5494
 30
0.0
 10
-1.715
 20
1.5494
 30
0.0
 10
-1.715
 20
1.5494
 30
0.0
 10
-1.715
 20
1.5494
 30
0.0
 10
-1.27473
 20
1.5494
 30
0.0
 10
-1.27473
 20
1.5494
 30
0.0
 10
-1.27473
 20
1.5494
 30
0.0
 10
-1.27473
 20
1.5494
 30
0.0
 10
-1.27473
 20
1.38218
 30
0.0
 10
-1.27473
 20
1.38218
 30
0.0
 10
-1.27473
 20
1.38218
 30
0.0
 10
-1.27473
 20
1.38218
 30
0.0
 10
-1.2705
 20
1.38218
 30
0.0
 10
-1.2705
 20
1.38218
 30
0.0
 10
-1.2705
 20
1.38218
 30
0.0
 10
-1.25392
 20
1.41181
 30
0.0
 10
-1.22781
 20
1.4418
 30
0.0
 10
-1.19147
 20
1.47214
 30
0.0
 10
-1.19147
 20
1.47214
 30
0.0
 10
-1.15549
 20
1.50283
 30
0.0
 10
-1.11457
 20
1.52752
 30
0.0
 10
-1.06906
 20
1.54657
 30
0.0
 10
-1.06906
 20
1.54657
 30
0.0
 10
-1.0239
 20
1.56527
 30
0.0
 10
-0.97451
 20
1.5748
 30
0.0
 10
-0.9216
 20
1.5748
 30
0.0
 10
-0.9216
 20
1.5748
 30
0.0
 10
-0.84646
 20
1.5748
 30
0.0
 10
-0.78331
 20
1.55998
 30
0.0
 10
-0.7318
 20
1.53034
 30
0.0
 10
-0.7318
 20
1.53034
 30
0.0
 10
-0.68065
 20
1.50106
 30
0.0
 10
-0.63796
 20
1.45414
 30
0.0
 10
-0.60339
 20
1.39029
 30
0.0
 10
-0.60339
 20
1.39029
 30
0.0
 10
-0.566
 20
1.44956
 30
0.0
 10
-0.51661
 20
1.49507
 30
0.0
 10
-0.45452
 20
1.52682
 30
0.0
 10
-0.45452
 20
1.52682
 30
0.0
 10
-0.39243
 20
1.55892
 30
0.0
 10
-0.32329
 20
1.5748
 30
0.0
 10
-0.24744
 20
1.5748
 30
0.0
 10
-0.24744
 20
1.5748
 30
0.0
 10
-0.13667
 20
1.5748
 30
0.0
 10
-0.05129
 20
1.53881
 30
0.0
 10
0.00797
 20
1.46649
 30
0.0
 10
0.00797
 20
1.46649
 30
0.0
 10
0.06724
 20
1.39417
 30
0.0
 10
0.09687
 20
1.28975
 30
0.0
 10
0.09687
 20
1.15322
 30
0.0
 10
0.09687
 20
1.15322
 30
0.0
 10
0.09687
 20
1.15322
 30
0.0
 10
0.09687
 20
0.49106
 30
0.0
 10
0.09687
 20
0.49106
 30
0.0
 10
0.09687
 20
0.49106
 30
0.0
 10
0.09687
 20
0.49106
 30
0.0
 10
-0.34339
 20
0.49106
 30
0.0
 10
-0.34339
 20
0.49106
 30
0.0
  0
SPLINE
  5
56
330
1F
100
AcDbEntity
  8
Layer 1
 62
     5
370
    53
100
AcDbSpline
210
0.0
220
0.0
230
1.0
 70
    11
 71
     3
 72
   116
 73
   112
 74
     0
 42
0.0000000001
 43
0.0000000001
 12
1.0
 22
0.0
 32
0.0
 13
1.0
 23
0.0
 33
0.0
 40
0.0
 40
0.0
 40
0.0
 40
0.0
 40
0.0344827586206897
 40
0.0344827586206897
 40
0.0344827586206897
 40
0.0344827586206897
 40
0.0689655172413793
 40
0.0689655172413793
 40
0.0689655172413793
 40
0.0689655172413793
 40
0.103448275862069
 40
0.103448275862069
 40
0.103448275862069
 40
0.103448275862069
 40
0.1379310344827586
 40
0.1379310344827586
 40
0.1379310344827586
 40
0.1379310344827586
 40
0.1724137931034483
 40
0.1724137931034483
 40
0.1724137931034483
 40
0.1724137931034483
 40
0.2068965517241379
 40
0.2068965517241379
 40
0.2068965517241379
 40
0.2068965517241379
 40
0.2413793103448276
 40
0.2413793103448276
 40
0.2413793103448276
 40
0.2413793103448276
 40
0.2758620689655172
 40
0.2758620689655172
 40
0.2758620689655172
 40
0.2758620689655172
 40
0.3103448275862069
 40
0.3103448275862069
 40
0.3103448275862069
 40
0.3103448275862069
 40
0.3448275862068966
 40
0.3448275862068966
 40
0.3448275862068966
 40
0.3448275862068966
 40
0.3793103448275862
 40
0.3793103448275862
 40
0.3793103448275862
 40
0.3793103448275862
 40
0.4137931034482759
 40
0.4137931034482759
 40
0.4137931034482759
 40
0.4137931034482759
 40
0.4482758620689655
 40
0.4482758620689655
 40
0.4482758620689655
 40
0.4482758620689655
 40
0.4827586206896552
 40
0.4827586206896552
 40
0.4827586206896552
 40
0.4827586206896552
 40
0.5172413793103449
 40
0.5172413793103449
 40
0.5172413793103449
 40
0.5172413793103449
 40
0.5517241379310345
 40
0.5517241379310345
 40
0.5517241379310345
 40
0.5517241379310345
 40
0.5862068965517241
 40
0.5862068965517241
 40
0.5862068965517241
 40
0.5862068965517241
 40
0.6206896551724138
 40
0.6206896551724138
 40
0.6206896551724138
 40
0.6206896551724138
 40
0.6551724137931034
 40
0.6551724137931034
 40
0.6551724137931034
 40
0.6551724137931034
 40
0.6896551724137931
 40
0.6896551724137931
 40
0.6896551724137931
 40
0.6896551724137931
 40
0.7241379310344828
 40
0.7241379310344828
 40
0.7241379310344828
 40
0.7241379310344828
 40
0.7586206896551724
 40
0.7586206896551724
 40
0.7586206896551724
 40
0.7586206896551724
 40
0.7931034482758621
 40
0.7931034482758621
 40
0.7931034482758621
 40
0.7931034482758621
 40
0.8275862068965517
 40
0.8275862068965517
 40
0.8275862068965517
 40
0.8275862068965517
 40
0.8620689655172413
 40
0.8620689655172413
 40
0.8620689655172413
 40
0.8620689655172413
 40
0.896551724137931
 40
0.896551724137931
 40
0.896551724137931
 40
0.896551724137931
 40
0.9310344827586207
 40
0.9310344827586207
 40
0.9310344827586207
 40
0.9310344827586207
 40
1.0
 40
1.0
 40
1.0
 40
1.0
 10
1.6678
 20
0.49106
 30
0.0
 10
1.6678
 20
0.49106
 30
0.0
 10
1.6678
 20
1.10101
 30
0.0
 10
1.6678
 20
1.10101
 30
0.0
 10
1.6678
 20
1.10101
 30
0.0
 10
1.6678
 20
1.15217
 30
0.0
 10
1.65862
 20
1.19027
 30
0.0
 10
1.64063
 20
1.21531
 30
0.0
 10
1.64063
 20
1.21531
 30
0.0
 10
1.62229
 20
1.24036
 30
0.0
 10
1.59265
 20
1.25306
 30
0.0
 10
1.55138
 20
1.25306
 30
0.0
 10
1.55138
 20
1.25306
 30
0.0
 10
1.51081
 20
1.25306
 30
0.0
 10
1.47906
 20
1.23789
 30
0.0
 10
1.45648
 20
1.2072
 30
0.0
 10
1.45648
 20
1.2072
 30
0.0
 10
1.43355
 20
1.17651
 30
0.0
 10
1.42226
 20
1.13382
 30
0.0
 10
1.42226
 20
1.07949
 30
0.0
 10
1.42226
 20
1.07949
 30
0.0
 10
1.42226
 20
1.07949
 30
0.0
 10
1.42226
 20
0.49106
 30
0.0
 10
1.42226
 20
0.49106
 30
0.0
 10
1.42226
 20
0.49106
 30
0.0
 10
1.42226
 20
0.49106
 30
0.0
 10
0.98199
 20
0.49106
 30
0.0
 10
0.98199
 20
0.49106
 30
0.0
 10
0.98199
 20
0.49106
 30
0.0
 10
0.98199
 20
0.49106
 30
0.0
 10
0.98199
 20
1.09078
 30
0.0
 10
0.98199
 20
1.09078
 30
0.0
 10
0.98199
 20
1.09078
 30
0.0
 10
0.98199
 20
1.19909
 30
0.0
 10
0.94531
 20
1.25306
 30
0.0
 10
0.87157
 20
1.25306
 30
0.0
 10
0.87157
 20
1.25306
 30
0.0
 10
0.82677
 20
1.25306
 30
0.0
 10
0.79326
 20
1.23754
 30
0.0
 10
0.77068
 20
1.20614
 30
0.0
 10
0.77068
 20
1.20614
 30
0.0
 10
0.74775
 20
1.17474
 30
0.0
 10
0.73646
 20
1.12959
 30
0.0
 10
0.73646
 20
1.07103
 30
0.0
 10
0.73646
 20
1.07103
 30
0.0
 10
0.73646
 20
1.07103
 30
0.0
 10
0.73646
 20
0.49106
 30
0.0
 10
0.73646
 20
0.49106
 30
0.0
 10
0.73646
 20
0.49106
 30
0.0
 10
0.73646
 20
0.49106
 30
0.0
 10
0.29619
 20
0.49106
 30
0.0
 10
0.29619
 20
0.49106
 30
0.0
 10
0.29619
 20
0.49106
 30
0.0
 10
0.29619
 20
0.49106
 30
0.0
 10
0.29619
 20
1.5494
 30
0.0
 10
0.29619
 20
1.5494
 30
0.0
 10
0.29619
 20
1.5494
 30
0.0
 10
0.29619
 20
1.5494
 30
0.0
 10
0.73646
 20
1.5494
 30
0.0
 10
0.73646
 20
1.5494
 30
0.0
 10
0.73646
 20
1.5494
 30
0.0
 10
0.73646
 20
1.5494
 30
0.0
 10
0.73646
 20
1.38218
 30
0.0
 10
0.73646
 20
1.38218
 30
0.0
 10
0.73646
 20
1.38218
 30
0.0
 10
0.73646
 20
1.38218
 30
0.0
 10
0.74069
 20
1.38218
 30
0.0
 10
0.74069
 20
1.38218
 30
0.0
 10
0.74069
 20
1.38218
 30
0.0
 10
0.75727
 20
1.41181
 30
0.0
 10
0.78338
 20
1.4418
 30
0.0
 10
0.81972
 20
1.47214
 30
0.0
 10
0.81972
 20
1.47214
 30
0.0
 10
0.8557
 20
1.50283
 30
0.0
 10
0.89662
 20
1.52752
 30
0.0
 10
0.94213
 20
1.54657
 30
0.0
 10
0.94213
 20
1.54657
 30
0.0
 10
0.98729
 20
1.56527
 30
0.0
 10
1.03668
 20
1.5748
 30
0.0
 10
1.08959
 20
1.5748
 30
0.0
 10
1.08959
 20
1.5748
 30
0.0
 10
1.16473
 20
1.5748
 30
0.0
 10
1.22788
 20
1.55998
 30
0.0
 10
1.27939
 20
1.53034
 30
0.0
 10
1.27939
 20
1.53034
 30
0.0
 10
1.33054
 20
1.50106
 30
0.0
 10
1.37323
 20
1.45414
 30
0.0
 10
1.4078
 20
1.39029
 30
0.0
 10
1.4078
 20
1.39029
 30
0.0
 10
1.44519
 20
1.44956
 30
0.0
 10
1.49458
 20
1.49507
 30
0.0
 10
1.55667
 20
1.52682
 30
0.0
 10
1.55667
 20
1.52682
 30
0.0
 10
1.61876
 20
1.55892
 30
0.0
 10
1.6879
 20
1.5748
 30
0.0
 10
1.76375
 20
1.5748
 30
0.0
 10
1.76375
 20
1.5748
 30
0.0
 10
1.87452
 20
1.5748
 30
0.0
 10
1.9599
 20
1.53881
 30
0.0
 10
2.01916
 20
1.46649
 30
0.0
 10
2.01916
 20
1.46649
 30
0.0
 10
2.07843
 20
1.39417
 30
0.0
 10
2.10806
 20
1.28975
 30
0.0
 10
2.10806
 20
1.15322
 30
0.0
 10
2.10806
 20
1.15322
 30
0.0
 10
2.10806
 20
1.15322
 30
0.0
 10
2.10806
 20
0.49106
 30
0.0
 10
2.10806
 20
0.49106
 30
0.0
 10
2.10806
 20
0.49106
 30
0.0
 10
2.10806
 20
0.49106
 30
0.0
 10
1.6678
 20
0.49106
 30
0.0
 10
1.6678
 20
0.49106
 30
0.0
  0
SPLINE
  5
57
330
1F
100
AcDbEntity
  8
Layer 1
 62
     5
370
    53
100
AcDbSpline
210
0.0
220
0.0
230
1.0
 70
    11
 71
     3
 72
    64
 73
    60
 74
     0
 42
0.0000000001
 43
0.0000000001
 12
1.0
 22
0.0
 32
0.0
 13
1.0
 23
0.0
 33
0.0
 40
0.0
 40
0.0
 40
0.0
 40
0.0
 40
0.0625
 40
0.0625
 40
0.0625
 40
0.0625
 40
0.125
 40
0.125
 40
0.125
 40
0.125
 40
0.1875
 40
0.1875
 40
0.1875
 40
0.1875
 40
0.25
 40
0.25
 40
0.25
 40
0.25
 40
0.3125
 40
0.3125
 40
0.3125
 40
0.3125
 40
0.375
 40
0.375
 40
0.375
 40
0.375
 40
0.4375
 40
0.4375
 40
0.4375
 40
0.4375
 40
0.5
 40
0.5
 40
0.5
 40
0.5
 40
0.5625
 40
0.5625
 40
0.5625
 40
0.5625
 40
0.625
 40
0.625
 40
0.625
 40
0.625
 40
0.6875
 40
0.6875
 40
0.6875
 40
0.6875
 40
0.75
 40
0.75
 40
0.75
 40
0.75
 40
0.8125
 40
0.8125
 40
0.8125
 40
0.8125
 40
0.875
 40
0.875
 40
0.875
 40
0.875
 40
1.0
 40
1.0
 40
1.0
 40
1.0
 10
2.68627
 20
0.89534
 30
0.0
 10
2.69403
 20
0.84984
 30
0.0
 10
2.72013
 20
0.8142
 30
0.0
 10
2.76494
 20
0.7881
 30
0.0
 10
2.76494
 20
0.7881
 30
0.0
 10
2.80974
 20
0.76235
 30
0.0
 10
2.86901
 20
0.74929
 30
0.0
 10
2.94274
 20
0.74929
 30
0.0
 10
2.94274
 20
0.74929
 30
0.0
 10
3.0454
 20
0.74929
 30
0.0
 10
3.14276
 20
0.76905
 30
0.0
 10
3.23448
 20
0.80856
 30
0.0
 10
3.23448
 20
0.80856
 30
0.0
 10
3.23448
 20
0.80856
 30
0.0
 10
3.23448
 20
0.52987
 30
0.0
 10
3.23448
 20
0.52987
 30
0.0
 10
3.23448
 20
0.52987
 30
0.0
 10
3.12759
 20
0.48718
 30
0.0
 10
2.99812
 20
0.46566
 30
0.0
 10
2.84572
 20
0.46566
 30
0.0
 10
2.84572
 20
0.46566
 30
0.0
 10
2.66122
 20
0.46566
 30
0.0
 10
2.51764
 20
0.51293
 30
0.0
 10
2.41498
 20
0.60712
 30
0.0
 10
2.41498
 20
0.60712
 30
0.0
 10
2.31232
 20
0.70132
 30
0.0
 10
2.26082
 20
0.83114
 30
0.0
 10
2.26082
 20
0.99659
 30
0.0
 10
2.26082
 20
0.99659
 30
0.0
 10
2.26082
 20
1.11019
 30
0.0
 10
2.28339
 20
1.21038
 30
0.0
 10
2.32855
 20
1.29716
 30
0.0
 10
2.32855
 20
1.29716
 30
0.0
 10
2.37371
 20
1.38359
 30
0.0
 10
2.44038
 20
1.45168
 30
0.0
 10
2.52893
 20
1.50106
 30
0.0
 10
2.52893
 20
1.50106
 30
0.0
 10
2.61748
 20
1.5501
 30
0.0
 10
2.71484
 20
1.5748
 30
0.0
 10
2.82173
 20
1.5748
 30
0.0
 10
2.82173
 20
1.5748
 30
0.0
 10
2.9311
 20
1.5748
 30
0.0
 10
3.02493
 20
1.55363
 30
0.0
 10
3.1029
 20
1.51094
 30
0.0
 10
3.1029
 20
1.51094
 30
0.0
 10
3.18051
 20
1.46826
 30
0.0
 10
3.23978
 20
1.40828
 30
0.0
 10
3.27999
 20
1.33103
 30
0.0
 10
3.27999
 20
1.33103
 30
0.0
 10
3.32021
 20
1.25412
 30
0.0
 10
3.34032
 20
1.16381
 30
0.0
 10
3.34032
 20
1.06044
 30
0.0
 10
3.34032
 20
1.06044
 30
0.0
 10
3.34032
 20
1.06044
 30
0.0
 10
3.34032
 20
0.89534
 30
0.0
 10
3.34032
 20
0.89534
 30
0.0
 10
3.34032
 20
0.89534
 30
0.0
 10
3.34032
 20
0.89534
 30
0.0
 10
2.68627
 20
0.89534
 30
0.0
 10
2.68627
 20
0.89534
 30
0.0
  0
SPLINE
  5
58
330
1F
100
AcDbEntity
  8
Layer 1
 62
     5
370
    53
100
AcDbSpline
210
0.0
220
0.0
230
1.0
 70
    11
 71
     3
 72
    20
 73
    16
 74
     0
 42
0.0000000001
 43
0.0000000001
 12
1.0
 22
0.0
 32
0.0
 13
1.0
 23
0.0
 33
0.0
 40
0.0
 40
0.0
 40
0.0
 40
0.0
 40
0.2
 40
0.2
 40
0.2
 40
0.2
 40
0.4
 40
0.4
 40
0.4
 40
0.4
 40
0.6
 40
0.6
 40
0.6
 40
0.6
 40
1.0
 40
1.0
 40
1.0
 40
1.0
 10
2.95085
 20
1.12606
 30
0.0
 10
2.95085
 20
1.24742
 30
0.0
 10
2.90711
 20
1.30809
 30
0.0
 10
2.81962
 20
1.30809
 30
0.0
 10
2.81962
 20
1.30809
 30
0.0
 10
2.78293
 20
1.30809
 30
0.0
 10
2.75259
 20
1.29151
 30
0.0
 10
2.72754
 20
1.25835
 30
0.0
 10
2.72754
 20
1.25835
 30
0.0
 10
2.70285
 20
1.22484
 30
0.0
 10
2.68838
 20
1.18109
 30
0.0
 10
2.68415
 20
1.12606
 30
0.0
 10
2.68415
 20
1.12606
 30
0.0
 10
2.68415
 20
1.12606
 30
0.0
 10
2.95085
 20
1.12606
 30
0.0
 10
2.95085
 20
1.12606
 30
0.0
  0
SPLINE
  5
59
330
1F
100
AcDbEntity
  8
Layer 1
 62
     5
370
    53
100
AcDbSpline
210
0.0
220
0.0
230
1.0
 70
    11
 71
     3
 72
    56
 73
    52
 74
     0
 42
0.0000000001
 43
0.0000000001
 12
1.0
 22
0.0
 32
0.0
 13
1.0
 23
0.0
 33
0.0
 40
0.0
 40
0.0
 40
0.0
 40
0.0
 40
0.0714285714285714
 40
0.0714285714285714
 40
0.0714285714285714
 40
0.0714285714285714
 40
0.1428571428571428
 40
0.1428571428571428
 40
0.1428571428571428
 40
0.1428571428571428
 40
0.2142857142857143
 40
0.2142857142857143
 40
0.2142857142857143
 40
0.2142857142857143
 40
0.2857142857142857
 40
0.2857142857142857
 40
0.2857142857142857
 40
0.2857142857142857
 40
0.3571428571428572
 40
0.3571428571428572
 40
0.3571428571428572
 40
0.3571428571428572
 40
0.4285714285714285
 40
0.4285714285714285
 40
0.4285714285714285
 40
0.4285714285714285
 40
0.5
 40
0.5
 40
0.5
 40
0.5
 40
0.5714285714285714
 40
0.5714285714285714
 40
0.5714285714285714
 40
0.5714285714285714
 40
0.6428571428571429
 40
0.6428571428571429
 40
0.6428571428571429
 40
0.6428571428571429
 40
0.7142857142857143
 40
0.7142857142857143
 40
0.7142857142857143
 40
0.7142857142857143
 40
0.7857142857142857
 40
0.7857142857142857
 40
0.7857142857142857
 40
0.7857142857142857
 40
0.8571428571428571
 40
0.8571428571428571
 40
0.8571428571428571
 40
0.8571428571428571
 40
1.0
 40
1.0
 40
1.0
 40
1.0
 10
4.28859
 20
1.17263
 30
0.0
 10
4.27201
 20
1.18004
 30
0.0
 10
4.24979
 20
1.18709
 30
0.0
 10
4.22156
 20
1.19309
 30
0.0
 10
4.22156
 20
1.19309
 30
0.0
 10
4.19299
 20
1.19909
 30
0.0
 10
4.16971
 20
1.20226
 30
0.0
 10
4.15101
 20
1.20226
 30
0.0
 10
4.15101
 20
1.20226
 30
0.0
 10
4.00566
 20
1.20226
 30
0.0
 10
3.93299
 20
1.1183
 30
0.0
 10
3.93299
 20
0.95002
 30
0.0
 10
3.93299
 20
0.95002
 30
0.0
 10
3.93299
 20
0.95002
 30
0.0
 10
3.93299
 20
0.49106
 30
0.0
 10
3.93299
 20
0.49106
 30
0.0
 10
3.93299
 20
0.49106
 30
0.0
 10
3.93299
 20
0.49106
 30
0.0
 10
3.49272
 20
0.49106
 30
0.0
 10
3.49272
 20
0.49106
 30
0.0
 10
3.49272
 20
0.49106
 30
0.0
 10
3.49272
 20
0.49106
 30
0.0
 10
3.49272
 20
1.5494
 30
0.0
 10
3.49272
 20
1.5494
 30
0.0
 10
3.49272
 20
1.5494
 30
0.0
 10
3.49272
 20
1.5494
 30
0.0
 10
3.93299
 20
1.5494
 30
0.0
 10
3.93299
 20
1.5494
 30
0.0
 10
3.93299
 20
1.5494
 30
0.0
 10
3.93299
 20
1.5494
 30
0.0
 10
3.93299
 20
1.36313
 30
0.0
 10
3.93299
 20
1.36313
 30
0.0
 10
3.93299
 20
1.36313
 30
0.0
 10
3.93299
 20
1.36313
 30
0.0
 10
3.93722
 20
1.36313
 30
0.0
 10
3.93722
 20
1.36313
 30
0.0
 10
3.93722
 20
1.36313
 30
0.0
 10
3.96404
 20
1.43016
 30
0.0
 10
4.00214
 20
1.48131
 30
0.0
 10
4.05188
 20
1.51623
 30
0.0
 10
4.05188
 20
1.51623
 30
0.0
 10
4.10162
 20
1.55116
 30
0.0
 10
4.15947
 20
1.56845
 30
0.0
 10
4.22544
 20
1.56845
 30
0.0
 10
4.22544
 20
1.56845
 30
0.0
 10
4.24979
 20
1.56845
 30
0.0
 10
4.2706
 20
1.56421
 30
0.0
 10
4.28859
 20
1.5561
 30
0.0
 10
4.28859
 20
1.5561
 30
0.0
 10
4.28859
 20
1.5561
 30
0.0
 10
4.28859
 20
1.17263
 30
0.0
 10
4.28859
 20
1.17263
 30
0.0
  0
SPLINE
  5
5A
330
1F
100
AcDbEntity
  8
Layer 1
 62
     5
370
    53
100
AcDbSpline
210
0.0
220
0.0
230
1.0
 70
    11
 71
     3
 72
    44
 73
    40
 74
     0
 42
0.0000000001
 43
0.0000000001
 12
1.0
 22
0.0
 32
0.0
 13
1.0
 23
0.0
 33
0.0
 40
0.0
 40
0.0
 40
0.0
 40
0.0
 40
0.0909090909090909
 40
0.0909090909090909
 40
0.0909090909090909
 40
0.0909090909090909
 40
0.1818181818181818
 40
0.1818181818181818
 40
0.1818181818181818
 40
0.1818181818181818
 40
0.2727272727272727
 40
0.2727272727272727
 40
0.2727272727272727
 40
0.2727272727272727
 40
0.3636363636363636
 40
0.3636363636363636
 40
0.3636363636363636
 40
0.3636363636363636
 40
0.4545454545454545
 40
0.4545454545454545
 40
0.4545454545454545
 40
0.4545454545454545
 40
0.5454545454545454
 40
0.5454545454545454
 40
0.5454545454545454
 40
0.5454545454545454
 40
0.6363636363636364
 40
0.6363636363636364
 40
0.6363636363636364
 40
0.6363636363636364
 40
0.7272727272727273
 40
0.7272727272727273
 40
0.7272727272727273
 40
0.7272727272727273
 40
0.8181818181818182
 40
0.8181818181818182
 40
0.8181818181818182
 40
0.8181818181818182
 40
1.0
 40
1.0
 40
1.0
 40
1.0
 10
-3.27374
 20
-1.33139
 30
0.0
 10
-3.27374
 20
-1.43264
 30
0.0
 10
-3.2995
 20
-1.52259
 30
0.0
 10
-3.35065
 20
-1.60126
 30
0.0
 10
-3.35065
 20
-1.60126
 30
0.0
 10
-3.4018
 20
-1.67993
 30
0.0
 10
-3.47518
 20
-1.74061
 30
0.0
 10
-3.57008
 20
-1.78365
 30
0.0
 10
-3.57008
 20
-1.78365
 30
0.0
 10
-3.66498
 20
-1.82669
 30
0.0
 10
-3.77575
 20
-1.84821
 30
0.0
 10
-3.90169
 20
-1.84821
 30
0.0
 10
-3.90169
 20
-1.84821
 30
0.0
 10
-3.90169
 20
-1.84821
 30
0.0
 10
-4.03786
 20
-1.84821
 30
0.0
 10
-4.03786
 20
-1.84821
 30
0.0
 10
-4.03786
 20
-1.84821
 30
0.0
 10
-4.03786
 20
-1.84821
 30
0.0
 10
-4.03786
 20
-2.32446
 30
0.0
 10
-4.03786
 20
-2.32446
 30
0.0
 10
-4.03786
 20
-2.32446
 30
0.0
 10
-4.03786
 20
-2.32446
 30
0.0
 10
-4.48448
 20
-2.32446
 30
0.0
 10
-4.48448
 20
-2.32446
 30
0.0
 10
-4.48448
 20
-2.32446
 30
0.0
 10
-4.48448
 20
-2.32446
 30
0.0
 10
-4.48448
 20
-0.84279
 30
0.0
 10
-4.48448
 20
-0.84279
 30
0.0
 10
-4.48448
 20
-0.84279
 30
0.0
 10
-4.48448
 20
-0.84279
 30
0.0
 10
-3.877
 20
-0.84279
 30
0.0
 10
-3.877
 20
-0.84279
 30
0.0
 10
-3.877
 20
-0.84279
 30
0.0
 10
-3.6685
 20
-0.84279
 30
0.0
 10
-3.51575
 20
-0.8823
 30
0.0
 10
-3.41874
 20
-0.96168
 30
0.0
 10
-3.41874
 20
-0.96168
 30
0.0
 10
-3.32208
 20
-1.0407
 30
0.0
 10
-3.27374
 20
-1.16417
 30
0.0
 10
-3.27374
 20
-1.33139
 30
0.0
  0
SPLINE
  5
5B
330
1F
100
AcDbEntity
  8
Layer 1
 62
     5
370
    53
100
AcDbSpline
210
0.0
220
0.0
230
1.0
 70
    11
 71
     3
 72
    28
 73
    24
 74
     0
 42
0.0000000001
 43
0.0000000001
 12
1.0
 22
0.0
 32
0.0
 13
1.0
 23
0.0
 33
0.0
 40
0.0
 40
0.0
 40
0.0
 40
0.0
 40
0.1428571428571428
 40
0.1428571428571428
 40
0.1428571428571428
 40
0.1428571428571428
 40
0.2857142857142857
 40
0.2857142857142857
 40
0.2857142857142857
 40
0.2857142857142857
 40
0.4285714285714285
 40
0.4285714285714285
 40
0.4285714285714285
 40
0.4285714285714285
 40
0.5714285714285714
 40
0.5714285714285714
 40
0.5714285714285714
 40
0.5714285714285714
 40
0.7142857142857143
 40
0.7142857142857143
 40
0.7142857142857143
 40
0.7142857142857143
 40
1.0
 40
1.0
 40
1.0
 40
1.0
 10
-3.74576
 20
-1.34656
 30
0.0
 10
-3.74576
 20
-1.28588
 30
0.0
 10
-3.7634
 20
-1.24002
 30
0.0
 10
-3.79833
 20
-1.20897
 30
0.0
 10
-3.79833
 20
-1.20897
 30
0.0
 10
-3.8336
 20
-1.17793
 30
0.0
 10
-3.88511
 20
-1.16241
 30
0.0
 10
-3.9532
 20
-1.16241
 30
0.0
 10
-3.9532
 20
-1.16241
 30
0.0
 10
-3.9532
 20
-1.16241
 30
0.0
 10
-4.03786
 20
-1.16241
 30
0.0
 10
-4.03786
 20
-1.16241
 30
0.0
 10
-4.03786
 20
-1.16241
 30
0.0
 10
-4.03786
 20
-1.16241
 30
0.0
 10
-4.03786
 20
-1.52859
 30
0.0
 10
-4.03786
 20
-1.52859
 30
0.0
 10
-4.03786
 20
-1.52859
 30
0.0
 10
-4.03786
 20
-1.52859
 30
0.0
 10
-3.93767
 20
-1.52859
 30
0.0
 10
-3.93767
 20
-1.52859
 30
0.0
 10
-3.93767
 20
-1.52859
 30
0.0
 10
-3.80961
 20
-1.52859
 30
0.0
 10
-3.74576
 20
-1.46791
 30
0.0
 10
-3.74576
 20
-1.34656
 30
0.0
  0
SPLINE
  5
5C
330
1F
100
AcDbEntity
  8
Layer 1
 62
     5
370
    53
100
AcDbSpline
210
0.0
220
0.0
230
1.0
 70
    11
 71
     3
 72
    20
 73
    16
 74
     0
 42
0.0000000001
 43
0.0000000001
 12
1.0
 22
0.0
 32
0.0
 13
1.0
 23
0.0
 33
0.0
 40
0.0
 40
0.0
 40
0.0
 40
0.0
 40
0.2
 40
0.2
 40
0.2
 40
0.2
 40
0.4
 40
0.4
 40
0.4
 40
0.4
 40
0.6
 40
0.6
 40
0.6
 40
0.6
 40
1.0
 40
1.0
 40
1.0
 40
1.0
 10
-3.13652
 20
-2.32446
 30
0.0
 10
-3.13652
 20
-2.32446
 30
0.0
 10
-3.13652
 20
-0.75812
 30
0.0
 10
-3.13652
 20
-0.75812
 30
0.0
 10
-3.13652
 20
-0.75812
 30
0.0
 10
-3.13652
 20
-0.75812
 30
0.0
 10
-2.69625
 20
-0.75812
 30
0.0
 10
-2.69625
 20
-0.75812
 30
0.0
 10
-2.69625
 20
-0.75812
 30
0.0
 10
-2.69625
 20
-0.75812
 30
0.0
 10
-2.69625
 20
-2.32446
 30
0.0
 10
-2.69625
 20
-2.32446
 30
0.0
 10
-2.69625
 20
-2.32446
 30
0.0
 10
-2.69625
 20
-2.32446
 30
0.0
 10
-3.13652
 20
-2.32446
 30
0.0
 10
-3.13652
 20
-2.32446
 30
0.0
  0
SPLINE
  5
5D
330
1F
100
AcDbEntity
  8
Layer 1
 62
     5
370
    53
100
AcDbSpline
210
0.0
220
0.0
230
1.0
 70
    11
 71
     3
 72
    72
 73
    68
 74
     0
 42
0.0000000001
 43
0.0000000001
 12
1.0
 22
0.0
 32
0.0
 13
1.0
 23
0.0
 33
0.0
 40
0.0
 40
0.0
 40
0.0
 40
0.0
 40
0.0555555555555556
 40
0.0555555555555556
 40
0.0555555555555556
 40
0.0555555555555556
 40
0.1111111111111111
 40
0.1111111111111111
 40
0.1111111111111111
 40
0.1111111111111111
 40
0.1666666666666667
 40
0.1666666666666667
 40
0.1666666666666667
 40
0.1666666666666667
 40
0.2222222222222222
 40
0.2222222222222222
 40
0.2222222222222222
 40
0.2222222222222222
 40
0.2777777777777778
 40
0.2777777777777778
 40
0.2777777777777778
 40
0.2777777777777778
 40
0.3333333333333333
 40
0.3333333333333333
 40
0.3333333333333333
 40
0.3333333333333333
 40
0.3888888888888889
 40
0.3888888888888889
 40
0.3888888888888889
 40
0.3888888888888889
 40
0.4444444444444444
 40
0.4444444444444444
 40
0.4444444444444444
 40
0.4444444444444444
 40
0.5
 40
0.5
 40
0.5
 40
0.5
 40
0.5555555555555556
 40
0.5555555555555556
 40
0.5555555555555556
 40
0.5555555555555556
 40
0.6111111111111112
 40
0.6111111111111112
 40
0.6111111111111112
 40
0.6111111111111112
 40
0.6666666666666666
 40
0.6666666666666666
 40
0.6666666666666666
 40
0.6666666666666666
 40
0.7222222222222222
 40
0.7222222222222222
 40
0.7222222222222222
 40
0.7222222222222222
 40
0.7777777777777778
 40
0.7777777777777778
 40
0.7777777777777778
 40
0.7777777777777778
 40
0.8333333333333334
 40
0.8333333333333334
 40
0.8333333333333334
 40
0.8333333333333334
 40
0.8888888888888888
 40
0.8888888888888888
 40
0.8888888888888888
 40
0.8888888888888888
 40
1.0
 40
1.0
 40
1.0
 40
1.0
 10
-1.89791
 20
-2.32446
 30
0.0
 10
-1.89791
 20
-2.32446
 30
0.0
 10
-1.89791
 20
-2.16359
 30
0.0
 10
-1.89791
 20
-2.16359
 30
0.0
 10
-1.89791
 20
-2.16359
 30
0.0
 10
-1.89791
 20
-2.16359
 30
0.0
 10
-1.90214
 20
-2.16359
 30
0.0
 10
-1.90214
 20
-2.16359
 30
0.0
 10
-1.90214
 20
-2.16359
 30
0.0
 10
-1.97235
 20
-2.28777
 30
0.0
 10
-2.07959
 20
-2.34986
 30
0.0
 10
-2.22423
 20
-2.34986
 30
0.0
 10
-2.22423
 20
-2.34986
 30
0.0
 10
-2.32407
 20
-2.34986
 30
0.0
 10
-2.40238
 20
-2.32023
 30
0.0
 10
-2.45883
 20
-2.26096
 30
0.0
 10
-2.45883
 20
-2.26096
 30
0.0
 10
-2.51527
 20
-2.20169
 30
0.0
 10
-2.54349
 20
-2.12267
 30
0.0
 10
-2.54349
 20
-2.02354
 30
0.0
 10
-2.54349
 20
-2.02354
 30
0.0
 10
-2.54349
 20
-1.81575
 30
0.0
 10
-2.41579
 20
-1.6951
 30
0.0
 10
-2.16038
 20
-1.6623
 30
0.0
 10
-2.16038
 20
-1.6623
 30
0.0
 10
-2.16038
 20
-1.6623
 30
0.0
 10
-1.89791
 20
-1.62808
 30
0.0
 10
-1.89791
 20
-1.62808
 30
0.0
 10
-1.89791
 20
-1.62808
 30
0.0
 10
-1.89791
 20
-1.5935
 30
0.0
 10
-1.91343
 20
-1.56493
 30
0.0
 10
-1.94448
 20
-1.5427
 30
0.0
 10
-1.94448
 20
-1.5427
 30
0.0
 10
-1.97517
 20
-1.52048
 30
0.0
 10
-2.0168
 20
-1.50954
 30
0.0
 10
-2.06936
 20
-1.50954
 30
0.0
 10
-2.06936
 20
-1.50954
 30
0.0
 10
-2.18754
 20
-1.50954
 30
0.0
 10
-2.31242
 20
-1.54341
 30
0.0
 10
-2.44401
 20
-1.61114
 30
0.0
 10
-2.44401
 20
-1.61114
 30
0.0
 10
-2.44401
 20
-1.61114
 30
0.0
 10
-2.44401
 20
-1.32539
 30
0.0
 10
-2.44401
 20
-1.32539
 30
0.0
 10
-2.44401
 20
-1.32539
 30
0.0
 10
-2.38686
 20
-1.3007
 30
0.0
 10
-2.31525
 20
-1.28024
 30
0.0
 10
-2.22917
 20
-1.26436
 30
0.0
 10
-2.22917
 20
-1.26436
 30
0.0
 10
-2.14309
 20
-1.24849
 30
0.0
 10
-2.06936
 20
-1.24072
 30
0.0
 10
-2.00798
 20
-1.24072
 30
0.0
 10
-2.00798
 20
-1.24072
 30
0.0
 10
-1.82841
 20
-1.24072
 30
0.0
 10
-1.69788
 20
-1.27918
 30
0.0
 10
-1.6171
 20
-1.35608
 30
0.0
 10
-1.6171
 20
-1.35608
 30
0.0
 10
-1.53631
 20
-1.43264
 30
0.0
 10
-1.49574
 20
-1.56105
 30
0.0
 10
-1.49574
 20
-1.74061
 30
0.0
 10
-1.49574
 20
-1.74061
 30
0.0
 10
-1.49574
 20
-1.74061
 30
0.0
 10
-1.49574
 20
-2.32446
 30
0.0
 10
-1.49574
 20
-2.32446
 30
0.0
 10
-1.49574
 20
-2.32446
 30
0.0
 10
-1.49574
 20
-2.32446
 30
0.0
 10
-1.89791
 20
-2.32446
 30
0.0
 10
-1.89791
 20
-2.32446
 30
0.0
  0
SPLINE
  5
5E
330
1F
100
AcDbEntity
  8
Layer 1
 62
     5
370
    53
100
AcDbSpline
210
0.0
220
0.0
230
1.0
 70
    11
 71
     3
 72
    32
 73
    28
 74
     0
 42
0.0000000001
 43
0.0000000001
 12
1.0
 22
0.0
 32
0.0
 13
1.0
 23
0.0
 33
0.0
 40
0.0
 40
0.0
 40
0.0
 40
0.0
 40
0.125
 40
0.125
 40
0.125
 40
0.125
 40
0.25
 40
0.25
 40
0.25
 40
0.25
 40
0.375
 40
0.375
 40
0.375
 40
0.375
 40
0.5
 40
0.5
 40
0.5
 40
0.5
 40
0.625
 40
0.625
 40
0.625
 40
0.625
 40
0.75
 40
0.75
 40
0.75
 40
0.75
 40
1.0
 40
1.0
 40
1.0
 40
1.0
 10
-2.15826
 20
-1.96498
 30
0.0
 10
-2.15826
 20
-1.99391
 30
0.0
 10
-2.14909
 20
-2.01754
 30
0.0
 10
-2.13074
 20
-2.03624
 30
0.0
 10
-2.13074
 20
-2.03624
 30
0.0
 10
-2.11275
 20
-2.05494
 30
0.0
 10
-2.08665
 20
-2.06411
 30
0.0
 10
-2.05278
 20
-2.06411
 30
0.0
 10
-2.05278
 20
-2.06411
 30
0.0
 10
-2.00656
 20
-2.06411
 30
0.0
 10
-1.96952
 20
-2.04682
 30
0.0
 10
-1.94095
 20
-2.01225
 30
0.0
 10
-1.94095
 20
-2.01225
 30
0.0
 10
-1.91237
 20
-1.97803
 30
0.0
 10
-1.89791
 20
-1.93393
 30
0.0
 10
-1.89791
 20
-1.87996
 30
0.0
 10
-1.89791
 20
-1.87996
 30
0.0
 10
-1.89791
 20
-1.87996
 30
0.0
 10
-1.89791
 20
-1.83974
 30
0.0
 10
-1.89791
 20
-1.83974
 30
0.0
 10
-1.89791
 20
-1.83974
 30
0.0
 10
-1.89791
 20
-1.83974
 30
0.0
 10
-2.04678
 20
-1.86056
 30
0.0
 10
-2.04678
 20
-1.86056
 30
0.0
 10
-2.04678
 20
-1.86056
 30
0.0
 10
-2.12122
 20
-1.8729
 30
0.0
 10
-2.15826
 20
-1.90748
 30
0.0
 10
-2.15826
 20
-1.96498
 30
0.0
  0
SPLINE
  5
5F
330
1F
100
AcDbEntity
  8
Layer 1
 62
     5
370
    53
100
AcDbSpline
210
0.0
220
0.0
230
1.0
 70
    11
 71
     3
 72
    68
 73
    64
 74
     0
 42
0.0000000001
 43
0.0000000001
 12
1.0
 22
0.0
 32
0.0
 13
1.0
 23
0.0
 33
0.0
 40
0.0
 40
0.0
 40
0.0
 40
0.0
 40
0.0588235294117647
 40
0.0588235294117647
 40
0.0588235294117647
 40
0.0588235294117647
 40
0.1176470588235294
 40
0.1176470588235294
 40
0.1176470588235294
 40
0.1176470588235294
 40
0.1764705882352941
 40
0.1764705882352941
 40
0.1764705882352941
 40
0.1764705882352941
 40
0.2352941176470588
 40
0.2352941176470588
 40
0.2352941176470588
 40
0.2352941176470588
 40
0.2941176470588235
 40
0.2941176470588235
 40
0.2941176470588235
 40
0.2941176470588235
 40
0.3529411764705883
 40
0.3529411764705883
 40
0.3529411764705883
 40
0.3529411764705883
 40
0.4117647058823529
 40
0.4117647058823529
 40
0.4117647058823529
 40
0.4117647058823529
 40
0.4705882352941176
 40
0.4705882352941176
 40
0.4705882352941176
 40
0.4705882352941176
 40
0.5294117647058824
 40
0.5294117647058824
 40
0.5294117647058824
 40
0.5294117647058824
 40
0.5882352941176471
 40
0.5882352941176471
 40
0.5882352941176471
 40
0.5882352941176471
 40
0.6470588235294118
 40
0.6470588235294118
 40
0.6470588235294118
 40
0.6470588235294118
 40
0.7058823529411765
 40
0.7058823529411765
 40
0.7058823529411765
 40
0.7058823529411765
 40
0.7647058823529411
 40
0.7647058823529411
 40
0.7647058823529411
 40
0.7647058823529411
 40
0.8235294117647058
 40
0.8235294117647058
 40
0.8235294117647058
 40
0.8235294117647058
 40
0.8823529411764706
 40
0.8823529411764706
 40
0.8823529411764706
 40
0.8823529411764706
 40
1.0
 40
1.0
 40
1.0
 40
1.0
 10
-0.61098
 20
-2.32446
 30
0.0
 10
-0.61098
 20
-2.32446
 30
0.0
 10
-0.61098
 20
-1.74661
 30
0.0
 10
-0.61098
 20
-1.74661
 30
0.0
 10
-0.61098
 20
-1.74661
 30
0.0
 10
-0.61098
 20
-1.68099
 30
0.0
 10
-0.62085
 20
-1.63407
 30
0.0
 10
-0.64026
 20
-1.6055
 30
0.0
 10
-0.64026
 20
-1.6055
 30
0.0
 10
-0.66001
 20
-1.57692
 30
0.0
 10
-0.69176
 20
-1.56246
 30
0.0
 10
-0.73586
 20
-1.56246
 30
0.0
 10
-0.73586
 20
-1.56246
 30
0.0
 10
-0.77361
 20
-1.56246
 30
0.0
 10
-0.80324
 20
-1.57728
 30
0.0
 10
-0.82441
 20
-1.60691
 30
0.0
 10
-0.82441
 20
-1.60691
 30
0.0
 10
-0.84593
 20
-1.63654
 30
0.0
 10
-0.85651
 20
-1.67464
 30
0.0
 10
-0.85651
 20
-1.7205
 30
0.0
 10
-0.85651
 20
-1.7205
 30
0.0
 10
-0.85651
 20
-1.7205
 30
0.0
 10
-0.85651
 20
-2.32446
 30
0.0
 10
-0.85651
 20
-2.32446
 30
0.0
 10
-0.85651
 20
-2.32446
 30
0.0
 10
-0.85651
 20
-2.32446
 30
0.0
 10
-1.29678
 20
-2.32446
 30
0.0
 10
-1.29678
 20
-2.32446
 30
0.0
 10
-1.29678
 20
-2.32446
 30
0.0
 10
-1.29678
 20
-2.32446
 30
0.0
 10
-1.29678
 20
-1.26612
 30
0.0
 10
-1.29678
 20
-1.26612
 30
0.0
 10
-1.29678
 20
-1.26612
 30
0.0
 10
-1.29678
 20
-1.26612
 30
0.0
 10
-0.85651
 20
-1.26612
 30
0.0
 10
-0.85651
 20
-1.26612
 30
0.0
 10
-0.85651
 20
-1.26612
 30
0.0
 10
-0.85651
 20
-1.26612
 30
0.0
 10
-0.85651
 20
-1.43123
 30
0.0
 10
-0.85651
 20
-1.43123
 30
0.0
 10
-0.85651
 20
-1.43123
 30
0.0
 10
-0.85651
 20
-1.43123
 30
0.0
 10
-0.85228
 20
-1.43123
 30
0.0
 10
-0.85228
 20
-1.43123
 30
0.0
 10
-0.85228
 20
-1.43123
 30
0.0
 10
-0.81735
 20
-1.3709
 30
0.0
 10
-0.77008
 20
-1.32398
 30
0.0
 10
-0.71081
 20
-1.29082
 30
0.0
 10
-0.71081
 20
-1.29082
 30
0.0
 10
-0.65154
 20
-1.25731
 30
0.0
 10
-0.58734
 20
-1.24072
 30
0.0
 10
-0.51784
 20
-1.24072
 30
0.0
 10
-0.51784
 20
-1.24072
 30
0.0
 10
-0.28642
 20
-1.24072
 30
0.0
 10
-0.17071
 20
-1.38678
 30
0.0
 10
-0.17071
 20
-1.67888
 30
0.0
 10
-0.17071
 20
-1.67888
 30
0.0
 10
-0.17071
 20
-1.67888
 30
0.0
 10
-0.17071
 20
-2.32446
 30
0.0
 10
-0.17071
 20
-2.32446
 30
0.0
 10
-0.17071
 20
-2.32446
 30
0.0
 10
-0.17071
 20
-2.32446
 30
0.0
 10
-0.61098
 20
-2.32446
 30
0.0
 10
-0.61098
 20
-2.32446
 30
0.0
  0
SPLINE
  5
60
330
1F
100
AcDbEntity
  8
Layer 1
 62
     5
370
    53
100
AcDbSpline
210
0.0
220
0.0
230
1.0
 70
    11
 71
     3
 72
    68
 73
    64
 74
     0
 42
0.0000000001
 43
0.0000000001
 12
1.0
 22
0.0
 32
0.0
 13
1.0
 23
0.0
 33
0.0
 40
0.0
 40
0.0
 40
0.0
 40
0.0
 40
0.0588235294117647
 40
0.0588235294117647
 40
0.0588235294117647
 40
0.0588235294117647
 40
0.1176470588235294
 40
0.1176470588235294
 40
0.1176470588235294
 40
0.1176470588235294
 40
0.1764705882352941
 40
0.1764705882352941
 40
0.1764705882352941
 40
0.1764705882352941
 40
0.2352941176470588
 40
0.2352941176470588
 40
0.2352941176470588
 40
0.2352941176470588
 40
0.2941176470588235
 40
0.2941176470588235
 40
0.2941176470588235
 40
0.2941176470588235
 40
0.3529411764705883
 40
0.3529411764705883
 40
0.3529411764705883
 40
0.3529411764705883
 40
0.4117647058823529
 40
0.4117647058823529
 40
0.4117647058823529
 40
0.4117647058823529
 40
0.4705882352941176
 40
0.4705882352941176
 40
0.4705882352941176
 40
0.4705882352941176
 40
0.5294117647058824
 40
0.5294117647058824
 40
0.5294117647058824
 40
0.5294117647058824
 40
0.5882352941176471
 40
0.5882352941176471
 40
0.5882352941176471
 40
0.5882352941176471
 40
0.6470588235294118
 40
0.6470588235294118
 40
0.6470588235294118
 40
0.6470588235294118
 40
0.7058823529411765
 40
0.7058823529411765
 40
0.7058823529411765
 40
0.7058823529411765
 40
0.7647058823529411
 40
0.7647058823529411
 40
0.7647058823529411
 40
0.7647058823529411
 40
0.8235294117647058
 40
0.8235294117647058
 40
0.8235294117647058
 40
0.8235294117647058
 40
0.8823529411764706
 40
0.8823529411764706
 40
0.8823529411764706
 40
0.8823529411764706
 40
1.0
 40
1.0
 40
1.0
 40
1.0
 10
0.71406
 20
-2.32446
 30
0.0
 10
0.71406
 20
-2.32446
 30
0.0
 10
0.71406
 20
-1.74661
 30
0.0
 10
0.71406
 20
-1.74661
 30
0.0
 10
0.71406
 20
-1.74661
 30
0.0
 10
0.71406
 20
-1.68099
 30
0.0
 10
0.70419
 20
-1.63407
 30
0.0
 10
0.68478
 20
-1.6055
 30
0.0
 10
0.68478
 20
-1.6055
 30
0.0
 10
0.66503
 20
-1.57692
 30
0.0
 10
0.63328
 20
-1.56246
 30
0.0
 10
0.58918
 20
-1.56246
 30
0.0
 10
0.58918
 20
-1.56246
 30
0.0
 10
0.55143
 20
-1.56246
 30
0.0
 10
0.5218
 20
-1.57728
 30
0.0
 10
0.50063
 20
-1.60691
 30
0.0
 10
0.50063
 20
-1.60691
 30
0.0
 10
0.47911
 20
-1.63654
 30
0.0
 10
0.46853
 20
-1.67464
 30
0.0
 10
0.46853
 20
-1.7205
 30
0.0
 10
0.46853
 20
-1.7205
 30
0.0
 10
0.46853
 20
-1.7205
 30
0.0
 10
0.46853
 20
-2.32446
 30
0.0
 10
0.46853
 20
-2.32446
 30
0.0
 10
0.46853
 20
-2.32446
 30
0.0
 10
0.46853
 20
-2.32446
 30
0.0
 10
0.02826
 20
-2.32446
 30
0.0
 10
0.02826
 20
-2.32446
 30
0.0
 10
0.02826
 20
-2.32446
 30
0.0
 10
0.02826
 20
-2.32446
 30
0.0
 10
0.02826
 20
-1.26612
 30
0.0
 10
0.02826
 20
-1.26612
 30
0.0
 10
0.02826
 20
-1.26612
 30
0.0
 10
0.02826
 20
-1.26612
 30
0.0
 10
0.46853
 20
-1.26612
 30
0.0
 10
0.46853
 20
-1.26612
 30
0.0
 10
0.46853
 20
-1.26612
 30
0.0
 10
0.46853
 20
-1.26612
 30
0.0
 10
0.46853
 20
-1.43123
 30
0.0
 10
0.46853
 20
-1.43123
 30
0.0
 10
0.46853
 20
-1.43123
 30
0.0
 10
0.46853
 20
-1.43123
 30
0.0
 10
0.47276
 20
-1.43123
 30
0.0
 10
0.47276
 20
-1.43123
 30
0.0
 10
0.47276
 20
-1.43123
 30
0.0
 10
0.50769
 20
-1.3709
 30
0.0
 10
0.55496
 20
-1.32398
 30
0.0
 10
0.61423
 20
-1.29082
 30
0.0
 10
0.61423
 20
-1.29082
 30
0.0
 10
0.6735
 20
-1.25731
 30
0.0
 10
0.7377
 20
-1.24072
 30
0.0
 10
0.8072
 20
-1.24072
 30
0.0
 10
0.8072
 20
-1.24072
 30
0.0
 10
1.03862
 20
-1.24072
 30
0.0
 10
1.15433
 20
-1.38678
 30
0.0
 10
1.15433
 20
-1.67888
 30
0.0
 10
1.15433
 20
-1.67888
 30
0.0
 10
1.15433
 20
-1.67888
 30
0.0
 10
1.15433
 20
-2.32446
 30
0.0
 10
1.15433
 20
-2.32446
 30
0.0
 10
1.15433
 20
-2.32446
 30
0.0
 10
1.15433
 20
-2.32446
 30
0.0
 10
0.71406
 20
-2.32446
 30
0.0
 10
0.71406
 20
-2.32446
 30
0.0
  0
SPLINE
  5
61
330
1F
100
AcDbEntity
  8
Layer 1
 62
     5
370
    53
100
AcDbSpline
210
0.0
220
0.0
230
1.0
 70
    11
 71
     3
 72
    36
 73
    32
 74
     0
 42
0.0000000001
 43
0.0000000001
 12
1.0
 22
0.0
 32
0.0
 13
1.0
 23
0.0
 33
0.0
 40
0.0
 40
0.0
 40
0.0
 40
0.0
 40
0.1111111111111111
 40
0.1111111111111111
 40
0.1111111111111111
 40
0.1111111111111111
 40
0.2222222222222222
 40
0.2222222222222222
 40
0.2222222222222222
 40
0.2222222222222222
 40
0.3333333333333333
 40
0.3333333333333333
 40
0.3333333333333333
 40
0.3333333333333333
 40
0.4444444444444444
 40
0.4444444444444444
 40
0.4444444444444444
 40
0.4444444444444444
 40
0.5555555555555556
 40
0.5555555555555556
 40
0.5555555555555556
 40
0.5555555555555556
 40
0.6666666666666666
 40
0.6666666666666666
 40
0.6666666666666666
 40
0.6666666666666666
 40
0.7777777777777778
 40
0.7777777777777778
 40
0.7777777777777778
 40
0.7777777777777778
 40
1.0
 40
1.0
 40
1.0
 40
1.0
 10
1.81932
 20
-0.98108
 30
0.0
 10
1.81932
 20
-1.04317
 30
0.0
 10
1.79675
 20
-1.09326
 30
0.0
 10
1.75159
 20
-1.13207
 30
0.0
 10
1.75159
 20
-1.13207
 30
0.0
 10
1.70643
 20
-1.17052
 30
0.0
 10
1.64717
 20
-1.18992
 30
0.0
 10
1.57344
 20
-1.18992
 30
0.0
 10
1.57344
 20
-1.18992
 30
0.0
 10
1.50182
 20
-1.18992
 30
0.0
 10
1.44291
 20
-1.16982
 30
0.0
 10
1.3974
 20
-1.12995
 30
0.0
 10
1.3974
 20
-1.12995
 30
0.0
 10
1.35154
 20
-1.09009
 30
0.0
 10
1.32861
 20
-1.04035
 30
0.0
 10
1.32861
 20
-0.98108
 30
0.0
 10
1.32861
 20
-0.98108
 30
0.0
 10
1.32861
 20
-0.9204
 30
0.0
 10
1.35083
 20
-0.87101
 30
0.0
 10
1.39528
 20
-0.83362
 30
0.0
 10
1.39528
 20
-0.83362
 30
0.0
 10
1.43973
 20
-0.79587
 30
0.0
 10
1.499
 20
-0.77717
 30
0.0
 10
1.57344
 20
-0.77717
 30
0.0
 10
1.57344
 20
-0.77717
 30
0.0
 10
1.64717
 20
-0.77717
 30
0.0
 10
1.70643
 20
-0.79587
 30
0.0
 10
1.75159
 20
-0.83362
 30
0.0
 10
1.75159
 20
-0.83362
 30
0.0
 10
1.79675
 20
-0.87101
 30
0.0
 10
1.81932
 20
-0.9204
 30
0.0
 10
1.81932
 20
-0.98108
 30
0.0
  0
SPLINE
  5
62
330
1F
100
AcDbEntity
  8
Layer 1
 62
     5
370
    53
100
AcDbSpline
210
0.0
220
0.0
230
1.0
 70
    11
 71
     3
 72
    20
 73
    16
 74
     0
 42
0.0000000001
 43
0.0000000001
 12
1.0
 22
0.0
 32
0.0
 13
1.0
 23
0.0
 33
0.0
 40
0.0
 40
0.0
 40
0.0
 40
0.0
 40
0.2
 40
0.2
 40
0.2
 40
0.2
 40
0.4
 40
0.4
 40
0.4
 40
0.4
 40
0.6
 40
0.6
 40
0.6
 40
0.6
 40
1.0
 40
1.0
 40
1.0
 40
1.0
 10
1.3533
 20
-2.32446
 30
0.0
 10
1.3533
 20
-2.32446
 30
0.0
 10
1.3533
 20
-1.26612
 30
0.0
 10
1.3533
 20
-1.26612
 30
0.0
 10
1.3533
 20
-1.26612
 30
0.0
 10
1.3533
 20
-1.26612
 30
0.0
 10
1.79357
 20
-1.26612
 30
0.0
 10
1.79357
 20
-1.26612
 30
0.0
 10
1.79357
 20
-1.26612
 30
0.0
 10
1.79357
 20
-1.26612
 30
0.0
 10
1.79357
 20
-2.32446
 30
0.0
 10
1.79357
 20
-2.32446
 30
0.0
 10
1.79357
 20
-2.32446
 30
0.0
 10
1.79357
 20
-2.32446
 30
0.0
 10
1.3533
 20
-2.32446
 30
0.0
 10
1.3533
 20
-2.32446
 30
0.0
  0
SPLINE
  5
63
330
1F
100
AcDbEntity
  8
Layer 1
 62
     5
370
    53
100
AcDbSpline
210
0.0
220
0.0
230
1.0
 70
    11
 71
     3
 72
    68
 73
    64
 74
     0
 42
0.0000000001
 43
0.0000000001
 12
1.0
 22
0.0
 32
0.0
 13
1.0
 23
0.0
 33
0.0
 40
0.0
 40
0.0
 40
0.0
 40
0.0
 40
0.0588235294117647
 40
0.0588235294117647
 40
0.0588235294117647
 40
0.0588235294117647
 40
0.1176470588235294
 40
0.1176470588235294
 40
0.1176470588235294
 40
0.1176470588235294
 40
0.1764705882352941
 40
0.1764705882352941
 40
0.1764705882352941
 40
0.1764705882352941
 40
0.2352941176470588
 40
0.2352941176470588
 40
0.2352941176470588
 40
0.2352941176470588
 40
0.2941176470588235
 40
0.2941176470588235
 40
0.2941176470588235
 40
0.2941176470588235
 40
0.3529411764705883
 40
0.3529411764705883
 40
0.3529411764705883
 40
0.3529411764705883
 40
0.4117647058823529
 40
0.4117647058823529
 40
0.4117647058823529
 40
0.4117647058823529
 40
0.4705882352941176
 40
0.4705882352941176
 40
0.4705882352941176
 40
0.4705882352941176
 40
0.5294117647058824
 40
0.5294117647058824
 40
0.5294117647058824
 40
0.5294117647058824
 40
0.5882352941176471
 40
0.5882352941176471
 40
0.5882352941176471
 40
0.5882352941176471
 40
0.6470588235294118
 40
0.6470588235294118
 40
0.6470588235294118
 40
0.6470588235294118
 40
0.7058823529411765
 40
0.7058823529411765
 40
0.7058823529411765
 40
0.7058823529411765
 40
0.7647058823529411
 40
0.7647058823529411
 40
0.7647058823529411
 40
0.7647058823529411
 40
0.8235294117647058
 40
0.8235294117647058
 40
0.8235294117647058
 40
0.8235294117647058
 40
0.8823529411764706
 40
0.8823529411764706
 40
0.8823529411764706
 40
0.8823529411764706
 40
1.0
 40
1.0
 40
1.0
 40
1.0
 10
2.69139
 20
-2.32446
 30
0.0
 10
2.69139
 20
-2.32446
 30
0.0
 10
2.69139
 20
-1.74661
 30
0.0
 10
2.69139
 20
-1.74661
 30
0.0
 10
2.69139
 20
-1.74661
 30
0.0
 10
2.69139
 20
-1.68099
 30
0.0
 10
2.68152
 20
-1.63407
 30
0.0
 10
2.66211
 20
-1.6055
 30
0.0
 10
2.66211
 20
-1.6055
 30
0.0
 10
2.64236
 20
-1.57692
 30
0.0
 10
2.61061
 20
-1.56246
 30
0.0
 10
2.56651
 20
-1.56246
 30
0.0
 10
2.56651
 20
-1.56246
 30
0.0
 10
2.52876
 20
-1.56246
 30
0.0
 10
2.49913
 20
-1.57728
 30
0.0
 10
2.47796
 20
-1.60691
 30
0.0
 10
2.47796
 20
-1.60691
 30
0.0
 10
2.45644
 20
-1.63654
 30
0.0
 10
2.44586
 20
-1.67464
 30
0.0
 10
2.44586
 20
-1.7205
 30
0.0
 10
2.44586
 20
-1.7205
 30
0.0
 10
2.44586
 20
-1.7205
 30
0.0
 10
2.44586
 20
-2.32446
 30
0.0
 10
2.44586
 20
-2.32446
 30
0.0
 10
2.44586
 20
-2.32446
 30
0.0
 10
2.44586
 20
-2.32446
 30
0.0
 10
2.00559
 20
-2.32446
 30
0.0
 10
2.00559
 20
-2.32446
 30
0.0
 10
2.00559
 20
-2.32446
 30
0.0
 10
2.00559
 20
-2.32446
 30
0.0
 10
2.00559
 20
-1.26612
 30
0.0
 10
2.00559
 20
-1.26612
 30
0.0
 10
2.00559
 20
-1.26612
 30
0.0
 10
2.00559
 20
-1.26612
 30
0.0
 10
2.44586
 20
-1.26612
 30
0.0
 10
2.44586
 20
-1.26612
 30
0.0
 10
2.44586
 20
-1.26612
 30
0.0
 10
2.44586
 20
-1.26612
 30
0.0
 10
2.44586
 20
-1.43123
 30
0.0
 10
2.44586
 20
-1.43123
 30
0.0
 10
2.44586
 20
-1.43123
 30
0.0
 10
2.44586
 20
-1.43123
 30
0.0
 10
2.45009
 20
-1.43123
 30
0.0
 10
2.45009
 20
-1.43123
 30
0.0
 10
2.45009
 20
-1.43123
 30
0.0
 10
2.48502
 20
-1.3709
 30
0.0
 10
2.53229
 20
-1.32398
 30
0.0
 10
2.59156
 20
-1.29082
 30
0.0
 10
2.59156
 20
-1.29082
 30
0.0
 10
2.65083
 20
-1.25731
 30
0.0
 10
2.71503
 20
-1.24072
 30
0.0
 10
2.78453
 20
-1.24072
 30
0.0
 10
2.78453
 20
-1.24072
 30
0.0
 10
3.01595
 20
-1.24072
 30
0.0
 10
3.13166
 20
-1.38678
 30
0.0
 10
3.13166
 20
-1.67888
 30
0.0
 10
3.13166
 20
-1.67888
 30
0.0
 10
3.13166
 20
-1.67888
 30
0.0
 10
3.13166
 20
-2.32446
 30
0.0
 10
3.13166
 20
-2.32446
 30
0.0
 10
3.13166
 20
-2.32446
 30
0.0
 10
3.13166
 20
-2.32446
 30
0.0
 10
2.69139
 20
-2.32446
 30
0.0
 10
2.69139
 20
-2.32446
 30
0.0
  0
SPLINE
  5
64
330
1F
100
AcDbEntity
  8
Layer 1
 62
     5
370
    53
100
AcDbSpline
210
0.0
220
0.0
230
1.0
 70
    11
 71
     3
 72
    96
 73
    92
 74
     0
 42
0.0000000001
 43
0.0000000001
 12
1.0
 22
0.0
 32
0.0
 13
1.0
 23
0.0
 33
0.0
 40
0.0
 40
0.0
 40
0.0
 40
0.0
 40
0.0416666666666667
 40
0.0416666666666667
 40
0.0416666666666667
 40
0.0416666666666667
 40
0.0833333333333333
 40
0.0833333333333333
 40
0.0833333333333333
 40
0.0833333333333333
 40
0.125
 40
0.125
 40
0.125
 40
0.125
 40
0.1666666666666667
 40
0.1666666666666667
 40
0.1666666666666667
 40
0.1666666666666667
 40
0.2083333333333333
 40
0.2083333333333333
 40
0.2083333333333333
 40
0.2083333333333333
 40
0.25
 40
0.25
 40
0.25
 40
0.25
 40
0.2916666666666667
 40
0.2916666666666667
 40
0.2916666666666667
 40
0.2916666666666667
 40
0.3333333333333333
 40
0.3333333333333333
 40
0.3333333333333333
 40
0.3333333333333333
 40
0.375
 40
0.375
 40
0.375
 40
0.375
 40
0.4166666666666667
 40
0.4166666666666667
 40
0.4166666666666667
 40
0.4166666666666667
 40
0.4583333333333333
 40
0.4583333333333333
 40
0.4583333333333333
 40
0.4583333333333333
 40
0.5
 40
0.5
 40
0.5
 40
0.5
 40
0.5416666666666666
 40
0.5416666666666666
 40
0.5416666666666666
 40
0.5416666666666666
 40
0.5833333333333334
 40
0.5833333333333334
 40
0.5833333333333334
 40
0.5833333333333334
 40
0.625
 40
0.625
 40
0.625
 40
0.625
 40
0.6666666666666666
 40
0.6666666666666666
 40
0.6666666666666666
 40
0.6666666666666666
 40
0.7083333333333334
 40
0.7083333333333334
 40
0.7083333333333334
 40
0.7083333333333334
 40
0.75
 40
0.75
 40
0.75
 40
0.75
 40
0.7916666666666666
 40
0.7916666666666666
 40
0.7916666666666666
 40
0.7916666666666666
 40
0.8333333333333334
 40
0.8333333333333334
 40
0.8333333333333334
 40
0.8333333333333334
 40
0.875
 40
0.875
 40
0.875
 40
0.875
 40
0.9166666666666666
 40
0.9166666666666666
 40
0.9166666666666666
 40
0.9166666666666666
 40
1.0
 40
1.0
 40
1.0
 40
1.0
 10
4.47787
 20
-2.17665
 30
0.0
 10
4.47787
 20
-2.3802
 30
0.0
 10
4.41402
 20
-2.5386
 30
0.0
 10
4.28596
 20
-2.65184
 30
0.0
 10
4.28596
 20
-2.65184
 30
0.0
 10
4.15825
 20
-2.76508
 30
0.0
 10
3.97163
 20
-2.82188
 30
0.0
 10
3.7261
 20
-2.82188
 30
0.0
 10
3.7261
 20
-2.82188
 30
0.0
 10
3.66013
 20
-2.82188
 30
0.0
 10
3.59592
 20
-2.81659
 30
0.0
 10
3.53383
 20
-2.80636
 30
0.0
 10
3.53383
 20
-2.80636
 30
0.0
 10
3.47174
 20
-2.79612
 30
0.0
 10
3.42729
 20
-2.78448
 30
0.0
 10
3.40048
 20
-2.77108
 30
0.0
 10
3.40048
 20
-2.77108
 30
0.0
 10
3.40048
 20
-2.77108
 30
0.0
 10
3.40048
 20
-2.42606
 30
0.0
 10
3.40048
 20
-2.42606
 30
0.0
 10
3.40048
 20
-2.42606
 30
0.0
 10
3.44458
 20
-2.45358
 30
0.0
 10
3.49644
 20
-2.4758
 30
0.0
 10
3.55571
 20
-2.49238
 30
0.0
 10
3.55571
 20
-2.49238
 30
0.0
 10
3.61497
 20
-2.50896
 30
0.0
 10
3.66754
 20
-2.51708
 30
0.0
 10
3.71375
 20
-2.51708
 30
0.0
 10
3.71375
 20
-2.51708
 30
0.0
 10
3.81253
 20
-2.51708
 30
0.0
 10
3.89155
 20
-2.49344
 30
0.0
 10
3.95082
 20
-2.44582
 30
0.0
 10
3.95082
 20
-2.44582
 30
0.0
 10
4.01008
 20
-2.39819
 30
0.0
 10
4.03972
 20
-2.33504
 30
0.0
 10
4.03972
 20
-2.25637
 30
0.0
 10
4.03972
 20
-2.25637
 30
0.0
 10
4.03972
 20
-2.25637
 30
0.0
 10
4.03972
 20
-2.19111
 30
0.0
 10
4.03972
 20
-2.19111
 30
0.0
 10
4.03972
 20
-2.19111
 30
0.0
 10
4.03972
 20
-2.19111
 30
0.0
 10
4.03548
 20
-2.19111
 30
0.0
 10
4.03548
 20
-2.19111
 30
0.0
 10
4.03548
 20
-2.19111
 30
0.0
 10
4.00373
 20
-2.23909
 30
0.0
 10
3.96034
 20
-2.27754
 30
0.0
 10
3.90496
 20
-2.30647
 30
0.0
 10
3.90496
 20
-2.30647
 30
0.0
 10
3.84922
 20
-2.3354
 30
0.0
 10
3.78995
 20
-2.34986
 30
0.0
 10
3.72645
 20
-2.34986
 30
0.0
 10
3.72645
 20
-2.34986
 30
0.0
 10
3.58993
 20
-2.34986
 30
0.0
 10
3.48233
 20
-2.30259
 30
0.0
 10
3.40295
 20
-2.20769
 30
0.0
 10
3.40295
 20
-2.20769
 30
0.0
 10
3.32358
 20
-2.11315
 30
0.0
 10
3.28407
 20
-1.98262
 30
0.0
 10
3.28407
 20
-1.81611
 30
0.0
 10
3.28407
 20
-1.81611
 30
0.0
 10
3.28407
 20
-1.70181
 30
0.0
 10
3.30488
 20
-1.60091
 30
0.0
 10
3.34616
 20
-1.51342
 30
0.0
 10
3.34616
 20
-1.51342
 30
0.0
 10
3.38743
 20
-1.42593
 30
0.0
 10
3.44493
 20
-1.35855
 30
0.0
 10
3.51866
 20
-1.31163
 30
0.0
 10
3.51866
 20
-1.31163
 30
0.0
 10
3.5924
 20
-1.26436
 30
0.0
 10
3.67389
 20
-1.24072
 30
0.0
 10
3.76279
 20
-1.24072
 30
0.0
 10
3.76279
 20
-1.24072
 30
0.0
 10
3.8845
 20
-1.24072
 30
0.0
 10
3.97551
 20
-1.28588
 30
0.0
 10
4.03548
 20
-1.37619
 30
0.0
 10
4.03548
 20
-1.37619
 30
0.0
 10
4.03548
 20
-1.37619
 30
0.0
 10
4.03972
 20
-1.37619
 30
0.0
 10
4.03972
 20
-1.37619
 30
0.0
 10
4.03972
 20
-1.37619
 30
0.0
 10
4.03972
 20
-1.37619
 30
0.0
 10
4.03972
 20
-1.26612
 30
0.0
 10
4.03972
 20
-1.26612
 30
0.0
 10
4.03972
 20
-1.26612
 30
0.0
 10
4.03972
 20
-1.26612
 30
0.0
 10
4.47787
 20
-1.26612
 30
0.0
 10
4.47787
 20
-1.26612
 30
0.0
 10
4.47787
 20
-1.26612
 30
0.0
 10
4.47787
 20
-1.26612
 30
0.0
 10
4.47787
 20
-2.17665
 30
0.0
 10
4.47787
 20
-2.17665
 30
0.0
  0
SPLINE
  5
65
330
1F
100
AcDbEntity
  8
Layer 1
 62
     5
370
    53
100
AcDbSpline
210
0.0
220
0.0
230
1.0
 70
    11
 71
     3
 72
    40
 73
    36
 74
     0
 42
0.0000000001
 43
0.0000000001
 12
1.0
 22
0.0
 32
0.0
 13
1.0
 23
0.0
 33
0.0
 40
0.0
 40
0.0
 40
0.0
 40
0.0
 40
0.1
 40
0.1
 40
0.1
 40
0.1
 40
0.2
 40
0.2
 40
0.2
 40
0.2
 40
0.3
 40
0.3
 40
0.3
 40
0.3
 40
0.4
 40
0.4
 40
0.4
 40
0.4
 40
0.5
 40
0.5
 40
0.5
 40
0.5
 40
0.6
 40
0.6
 40
0.6
 40
0.6
 40
0.7
 40
0.7
 40
0.7
 40
0.7
 40
0.8
 40
0.8
 40
0.8
 40
0.8
 40
1.0
 40
1.0
 40
1.0
 40
1.0
 10
4.04713
 20
-1.76531
 30
0.0
 10
4.04713
 20
-1.70322
 30
0.0
 10
4.03302
 20
-1.65383
 30
0.0
 10
4.00515
 20
-1.61714
 30
0.0
 10
4.00515
 20
-1.61714
 30
0.0
 10
3.97728
 20
-1.5808
 30
0.0
 10
3.94023
 20
-1.56246
 30
0.0
 10
3.89402
 20
-1.56246
 30
0.0
 10
3.89402
 20
-1.56246
 30
0.0
 10
3.84428
 20
-1.56246
 30
0.0
 10
3.80477
 20
-1.58468
 30
0.0
 10
3.77513
 20
-1.62878
 30
0.0
 10
3.77513
 20
-1.62878
 30
0.0
 10
3.7455
 20
-1.67288
 30
0.0
 10
3.73068
 20
-1.73179
 30
0.0
 10
3.73068
 20
-1.80552
 30
0.0
 10
3.73068
 20
-1.80552
 30
0.0
 10
3.73068
 20
-1.87396
 30
0.0
 10
3.74303
 20
-1.92794
 30
0.0
 10
3.76773
 20
-1.96815
 30
0.0
 10
3.76773
 20
-1.96815
 30
0.0
 10
3.79277
 20
-2.00802
 30
0.0
 10
3.83193
 20
-2.02813
 30
0.0
 10
3.88591
 20
-2.02813
 30
0.0
 10
3.88591
 20
-2.02813
 30
0.0
 10
3.936
 20
-2.02813
 30
0.0
 10
3.97551
 20
-2.00767
 30
0.0
 10
4.00409
 20
-1.96639
 30
0.0
 10
4.00409
 20
-1.96639
 30
0.0
 10
4.03266
 20
-1.92547
 30
0.0
 10
4.04713
 20
-1.87043
 30
0.0
 10
4.04713
 20
-1.80164
 30
0.0
 10
4.04713
 20
-1.80164
 30
0.0
 10
4.04713
 20
-1.80164
 30
0.0
 10
4.04713
 20
-1.76531
 30
0.0
 10
4.04713
 20
-1.76531
 30
0.0
  0
ENDSEC
  0
SECTION
  2
OBJECTS
  0
DICTIONARY
  5
C
330
0
100
AcDbDictionary
281
     1
  3
ACAD_GROUP
350
D
  3
ACAD_LAYOUT
350
1A
  3
ACAD_MATERIAL
350
3B
  3
ACAD_MLEADERSTYLE
350
87
  3
ACAD_MLINESTYLE
350
17
  3
ACAD_PLOTSETTINGS
350
19
  3
ACAD_PLOTSTYLENAME
350
E
  3
ACAD_TABLESTYLE
350
86
  3
ACAD_VISUALSTYLE
350
2A
  0
DICTIONARY
  5
D
102
{ACAD_REACTORS
330
C
102
}
330
C
100
AcDbDictionary
281
     1
  0
DICTIONARY
  5
1A
102
{ACAD_REACTORS
330
C
102
}
330
C
100
AcDbDictionary
281
     1
  3
Layout1
350
1E
  3
Layout2
350
26
  3
Model
350
22
  0
DICTIONARY
  5
3B
102
{ACAD_REACTORS
330
C
102
}
330
C
100
AcDbDictionary
281
     1
  3
ByBlock
350
3D
  3
ByLayer
350
3C
  3
Global
350
3E
  0
DICTIONARY
  5
87
102
{ACAD_REACTORS
330
C
102
}
330
C
100
AcDbDictionary
281
     1
  0
DICTIONARY
  5
17
102
{ACAD_REACTORS
330
C
102
}
330
C
100
AcDbDictionary
281
     1
  3
Standard
350
18
  0
DICTIONARY
  5
19
102
{ACAD_REACTORS
330
C
102
}
330
C
100
AcDbDictionary
281
     1
  0
ACDBDICTIONARYWDFLT
  5
E
102
{ACAD_REACTORS
330
C
102
}
330
C
100
AcDbDictionary
281
     1
  3
Normal
350
F
100
AcDbDictionaryWithDefault
340
F
  0
DICTIONARY
  5
86
102
{ACAD_REACTORS
330
C
102
}
330
C
100
AcDbDictionary
281
     1
  0
DICTIONARY
  5
2A
102
{ACAD_REACTORS
330
C
102
}
330
C
100
AcDbDictionary
281
     1
  3
2dWireframe
350
2F
  3
3D Hidden
350
31
  3
3dWireframe
350
30
  3
Basic
350
32
  3
Brighten
350
36
  3
ColorChange
350
3A
  3
Conceptual
350
34
  3
Dim
350
35
  3
Facepattern
350
39
  3
Flat
350
2B
  3
FlatWithEdges
350
2C
  3
Gouraud
350
2D
  3
GouraudWithEdges
350
2E
  3
Linepattern
350
38
  3
Realistic
350
33
  3
Thicken
350
37
  0
LAYOUT
  5
1E
102
{ACAD_REACTORS
330
1A
102
}
330
1A
100
AcDbPlotSettings
  1

  2
none_device
  4

  6

 40
0.0
 41
0.0
 42
0.0
 43
0.0
 44
0.0
 45
0.0
 46
0.0
 47
0.0
 48
0.0
 49
0.0
140
0.0
141
0.0
142
1.0
143
1.0
 70
   688
 72
     0
 73
     0
 74
     5
  7

 75
    16
 76
     0
 77
     2
 78
   300
147
1.0
148
0.0
149
0.0
100
AcDbLayout
  1
Layout1
 70
     1
 71
     1
 10
0.0
 20
0.0
 11
12.0
 21
9.0
 12
0.0
 22
0.0
 32
0.0
 14
1.000000000000000E+20
 24
1.000000000000000E+20
 34
1.000000000000000E+20
 15
-1.000000000000000E+20
 25
-1.000000000000000E+20
 35
-1.000000000000000E+20
146
0.0
 13
0.0
 23
0.0
 33
0.0
 16
1.0
 26
0.0
 36
0.0
 17
0.0
 27
1.0
 37
0.0
 76
     0
330
1B
  0
LAYOUT
  5
26
102
{ACAD_REACTORS
330
1A
102
}
330
1A
100
AcDbPlotSettings
  1

  2
none_device
  4

  6

 40
0.0
 41
0.0
 42
0.0
 43
0.0
 44
0.0
 45
0.0
 46
0.0
 47
0.0
 48
0.0
 49
0.0
140
0.0
141
0.0
142
1.0
143
1.0
 70
   688
 72
     0
 73
     0
 74
     5
  7

 75
    16
 76
     0
 77
     2
 78
   300
147
1.0
148
0.0
149
0.0
100
AcDbLayout
  1
Layout2
 70
     1
 71
     2
 10
0.0
 20
0.0
 11
0.0
 21
0.0
 12
0.0
 22
0.0
 32
0.0
 14
0.0
 24
0.0
 34
0.0
 15
0.0
 25
0.0
 35
0.0
146
0.0
 13
0.0
 23
0.0
 33
0.0
 16
1.0
 26
0.0
 36
0.0
 17
0.0
 27
1.0
 37
0.0
 76
     0
330
23
  0
LAYOUT
  5
22
102
{ACAD_REACTORS
330
1A
102
}
330
1A
100
AcDbPlotSettings
  1

  2
none_device
  4

  6

 40
0.0
 41
0.0
 42
0.0
 43
0.0
 44
0.0
 45
0.0
 46
0.0
 47
0.0
 48
0.0
 49
0.0
140
0.0
141
0.0
142
1.0
143
1.0
 70
  1712
 72
     0
 73
     0
 74
     0
  7

 75
     0
 76
     0
 77
     2
 78
   300
147
1.0
148
0.0
149
0.0
100
AcDbLayout
  1
Model
 70
     1
 71
     0
 10
0.0
 20
0.0
 11
12.0
 21
9.0
 12
0.0
 22
0.0
 32
0.0
 14
-6.72646
 24
-3.72646
 34
0.0
 15
6.72646
 25
3.72646
 35
0.0
146
0.0
 13
0.0
 23
0.0
 33
0.0
 16
1.0
 26
0.0
 36
0.0
 17
0.0
 27
1.0
 37
0.0
 76
     0
330
1F
331
29
  0
MATERIAL
  5
3D
102
{ACAD_REACTORS
330
3B
102
}
330
3B
100
AcDbMaterial
  1
ByBlock
 72
     1
 94
      127
  0
MATERIAL
  5
3C
102
{ACAD_REACTORS
330
3B
102
}
330
3B
100
AcDbMaterial
  1
ByLayer
 72
     1
 94
      127
  0
MATERIAL
  5
3E
102
{ACAD_REACTORS
330
3B
102
}
330
3B
100
AcDbMaterial
  1
Global
 72
     1
 94
      127
  0
MLINESTYLE
  5
18
102
{ACAD_REACTORS
330
17
102
}
330
17
100
AcDbMlineStyle
  2
Standard
 70
     0
  3

 62
   256
 51
90.0
 52
90.0
 71
     2
 49
0.5
 62
   256
  6
BYLAYER
 49
-0.5
 62
   256
  6
BYLAYER
  0
ACDBPLACEHOLDER
  5
F
102
{ACAD_REACTORS
330
E
102
}
330
E
  0
VISUALSTYLE
  5
2F
102
{ACAD_REACTORS
330
2A
102
}
102
{ACAD_XDICTIONARY
360
6E
102
}
330
2A
100
AcDbVisualStyle
  2
2dWireframe
 70
     4
 71
     0
 72
     2
 73
     0
 90
        0
 40
-0.6
 41
-30.0
 62
     5
 63
     7
421
 16777215
 74
     1
 91
        4
 64
     7
 65
   257
 75
     1
175
     1
 42
1.0
 92
        0
 66
   257
 43
1.0
 76
     1
 77
     6
 78
     2
 67
     7
 79
     5
170
     0
171
     0
290
     0
174
     0
 93
        1
 44
0.0
173
     0
291
     0
 45
0.0
  0
VISUALSTYLE
  5
31
102
{ACAD_REACTORS
330
2A
102
}
102
{ACAD_XDICTIONARY
360
72
102
}
330
2A
100
AcDbVisualStyle
  2
3D Hidden
 70
     6
 71
     1
 72
     2
 73
     2
 90
        0
 40
-0.6
 41
-30.0
 62
     5
 63
     7
421
 16777215
 74
     2
 91
        2
 64
     7
 65
   257
 75
     2
175
     1
 42
40.0
 92
        0
 66
   257
 43
1.0
 76
     1
 77
     6
 78
     2
 67
     7
 79
     3
170
     0
171
     0
290
     0
174
     0
 93
        1
 44
0.0
173
     0
291
     0
 45
0.0
  0
VISUALSTYLE
  5
30
102
{ACAD_REACTORS
330
2A
102
}
102
{ACAD_XDICTIONARY
360
70
102
}
330
2A
100
AcDbVisualStyle
  2
3dWireframe
 70
     5
 71
     0
 72
     2
 73
     0
 90
        0
 40
-0.6
 41
-30.0
 62
     5
 63
     7
421
 16777215
 74
     1
 91
        4
 64
     7
 65
   257
 75
     1
175
     1
 42
1.0
 92
        0
 66
   257
 43
1.0
 76
     1
 77
     6
 78
     2
 67
     7
 79
     5
170
     0
171
     0
290
     0
174
     0
 93
        1
 44
0.0
173
     0
291
     0
 45
0.0
  0
VISUALSTYLE
  5
32
102
{ACAD_REACTORS
330
2A
102
}
102
{ACAD_XDICTIONARY
360
74
102
}
330
2A
100
AcDbVisualStyle
  2
Basic
 70
     7
 71
     1
 72
     0
 73
     1
 90
        0
 40
-0.6
 41
-30.0
 62
     5
 63
     7
421
 16777215
 74
     0
 91
        4
 64
     7
 65
   257
 75
     1
175
     1
 42
1.0
 92
        8
 66
     7
 43
1.0
 76
     1
 77
     6
 78
     2
 67
     7
 79
     5
170
     0
171
     0
290
     0
174
     0
 93
        1
 44
0.0
173
     0
291
     1
 45
0.0
  0
VISUALSTYLE
  5
36
102
{ACAD_REACTORS
330
2A
102
}
102
{ACAD_XDICTIONARY
360
7C
102
}
330
2A
100
AcDbVisualStyle
  2
Brighten
 70
    12
 71
     2
 72
     2
 73
     0
 90
        0
 40
-0.6
 41
-30.0
 62
     5
 63
     7
421
 16777215
 74
     1
 91
        4
 64
     7
 65
   257
 75
     1
175
     1
 42
1.0
 92
        8
 66
     7
 43
1.0
 76
     1
 77
     6
 78
     2
 67
     7
 79
     5
170
     0
171
     0
290
     0
174
     0
 93
        1
 44
50.0
173
     0
291
     1
 45
0.0
  0
VISUALSTYLE
  5
3A
102
{ACAD_REACTORS
330
2A
102
}
102
{ACAD_XDICTIONARY
360
84
102
}
330
2A
100
AcDbVisualStyle
  2
ColorChange
 70
    16
 71
     2
 72
     2
 73
     3
 90
        0
 40
-0.6
 41
-30.0
 62
     5
 63
     8
421
  8421504
 74
     1
 91
        4
 64
     7
 65
   257
 75
     1
175
     1
 42
1.0
 92
        8
 66
     8
424
  8421504
 43
1.0
 76
     1
 77
     6
 78
     2
 67
     7
 79
     5
170
     0
171
     0
290
     0
174
     0
 93
        1
 44
0.0
173
     0
291
     1
 45
0.0
  0
VISUALSTYLE
  5
34
102
{ACAD_REACTORS
330
2A
102
}
102
{ACAD_XDICTIONARY
360
78
102
}
330
2A
100
AcDbVisualStyle
  2
Conceptual
 70
     9
 71
     3
 72
     2
 73
     0
 90
        0
 40
-0.6
 41
-30.0
 62
     5
 63
     7
421
 16777215
 74
     2
 91
        2
 64
     7
 65
   257
 75
     1
175
     1
 42
40.0
 92
        8
 66
     7
 43
1.0
 76
     1
 77
     6
 78
     2
 67
     7
 79
     3
170
     0
171
     0
290
     0
174
     0
 93
        1
 44
0.0
173
     0
291
     0
 45
0.0
  0
VISUALSTYLE
  5
35
102
{ACAD_REACTORS
330
2A
102
}
102
{ACAD_XDICTIONARY
360
7A
102
}
330
2A
100
AcDbVisualStyle
  2
Dim
 70
    11
 71
     2
 72
     2
 73
     0
 90
        0
 40
-0.6
 41
-30.0
 62
     5
 63
     7
421
 16777215
 74
     1
 91
        4
 64
     7
 65
   257
 75
     1
175
     1
 42
1.0
 92
        8
 66
     7
 43
1.0
 76
     1
 77
     6
 78
     2
 67
     7
 79
     5
170
     0
171
     0
290
     0
174
     0
 93
        1
 44
-50.0
173
     0
291
     1
 45
0.0
  0
VISUALSTYLE
  5
39
102
{ACAD_REACTORS
330
2A
102
}
102
{ACAD_XDICTIONARY
360
82
102
}
330
2A
100
AcDbVisualStyle
  2
Facepattern
 70
    15
 71
     2
 72
     2
 73
     0
 90
        0
 40
-0.6
 41
-30.0
 62
     5
 63
     7
421
 16777215
 74
     1
 91
        4
 64
     7
 65
   257
 75
     1
175
     1
 42
1.0
 92
        8
 66
     7
 43
1.0
 76
     1
 77
     6
 78
     2
 67
     7
 79
     5
170
     0
171
     0
290
     0
174
     0
 93
        1
 44
0.0
173
     0
291
     1
 45
0.0
  0
VISUALSTYLE
  5
2B
102
{ACAD_REACTORS
330
2A
102
}
102
{ACAD_XDICTIONARY
360
66
102
}
330
2A
100
AcDbVisualStyle
  2
Flat
 70
     0
 71
     2
 72
     1
 73
     1
 90
        2
 40
-0.6
 41
30.0
 62
     5
 63
     7
421
 16777215
 74
     0
 91
        4
 64
     7
 65
   257
 75
     1
175
     1
 42
1.0
 92
        8
 66
     7
 43
1.0
 76
     1
 77
     6
 78
     2
 67
     7
 79
     5
170
     0
171
     0
290
     0
174
     0
 93
       13
 44
0.0
173
     0
291
     1
 45
0.0
  0
VISUALSTYLE
  5
2C
102
{ACAD_REACTORS
330
2A
102
}
102
{ACAD_XDICTIONARY
360
68
102
}
330
2A
100
AcDbVisualStyle
  2
FlatWithEdges
 70
     1
 71
     2
 72
     1
 73
     1
 90
        2
 40
-0.6
 41
30.0
 62
     5
 63
     7
421
 16777215
 74
     1
 91
        4
 64
     7
 65
   257
 75
     1
175
     1
 42
1.0
 92
        0
 66
   257
 43
1.0
 76
     1
 77
     6
 78
     2
 67
     7
 79
     5
170
     0
171
     0
290
     0
174
     0
 93
       13
 44
0.0
173
     0
291
     1
 45
0.0
  0
VISUALSTYLE
  5
2D
102
{ACAD_REACTORS
330
2A
102
}
102
{ACAD_XDICTIONARY
360
6A
102
}
330
2A
100
AcDbVisualStyle
  2
Gouraud
 70
     2
 71
     2
 72
     2
 73
     1
 90
        2
 40
-0.6
 41
30.0
 62
     5
 63
     7
421
 16777215
 74
     0
 91
        4
 64
     7
 65
   257
 75
     1
175
     1
 42
1.0
 92
        0
 66
     7
 43
1.0
 76
     1
 77
     6
 78
     2
 67
     7
 79
     5
170
     0
171
     0
290
     0
174
     0
 93
       13
 44
0.0
173
     0
291
     1
 45
0.0
  0
VISUALSTYLE
  5
2E
102
{ACAD_REACTORS
330
2A
102
}
102
{ACAD_XDICTIONARY
360
6C
102
}
330
2A
100
AcDbVisualStyle
  2
GouraudWithEdges
 70
     3
 71
     2
 72
     2
 73
     1
 90
        2
 40
-0.6
 41
30.0
 62
     5
 63
     7
421
 16777215
 74
     1
 91
        4
 64
     7
 65
   257
 75
     1
175
     1
 42
1.0
 92
        0
 66
   257
 43
1.0
 76
     1
 77
     6
 78
     2
 67
     7
 79
     5
170
     0
171
     0
290
     0
174
     0
 93
       13
 44
0.0
173
     0
291
     1
 45
0.0
  0
VISUALSTYLE
  5
38
102
{ACAD_REACTORS
330
2A
102
}
102
{ACAD_XDICTIONARY
360
80
102
}
330
2A
100
AcDbVisualStyle
  2
Linepattern
 70
    14
 71
     2
 72
     2
 73
     0
 90
        0
 40
-0.6
 41
-30.0
 62
     5
 63
     7
421
 16777215
 74
     1
 91
        4
 64
     7
 65
   257
 75
     7
175
     7
 42
1.0
 92
        8
 66
     7
 43
1.0
 76
     1
 77
     6
 78
     2
 67
     7
 79
     5
170
     0
171
     0
290
     0
174
     0
 93
        1
 44
0.0
173
     0
291
     1
 45
0.0
  0
VISUALSTYLE
  5
33
102
{ACAD_REACTORS
330
2A
102
}
102
{ACAD_XDICTIONARY
360
76
102
}
330
2A
100
AcDbVisualStyle
  2
Realistic
 70
     8
 71
     2
 72
     2
 73
     0
 90
        0
 40
-0.6
 41
-30.0
 62
     5
 63
     7
421
 16777215
 74
     1
 91
        0
 64
     7
 65
   257
 75
     1
175
     1
 42
1.0
 92
        8
 66
     8
424
  7895160
 43
1.0
 76
     1
 77
     6
 78
     2
 67
     7
 79
     5
170
     0
171
     0
290
     0
174
     0
 93
       13
 44
0.0
173
     0
291
     0
 45
0.0
  0
VISUALSTYLE
  5
37
102
{ACAD_REACTORS
330
2A
102
}
102
{ACAD_XDICTIONARY
360
7E
102
}
330
2A
100
AcDbVisualStyle
  2
Thicken
 70
    13
 71
     2
 72
     2
 73
     0
 90
        0
 40
-0.6
 41
-30.0
 62
     5
 63
     7
421
 16777215
 74
     1
 91
        4
 64
     7
 65
   257
 75
     1
175
     1
 42
1.0
 92
       12
 66
     7
 43
1.0
 76
     1
 77
     6
 78
     2
 67
     7
 79
     5
170
     0
171
     0
290
     0
174
     0
 93
        1
 44
0.0
173
     0
291
     1
 45
0.0
  0
DICTIONARY
  5
6E
330
2F
100
AcDbDictionary
280
     1
281
     1
  3
ACAD_XREC_ROUNDTRIP
360
6F
  0
DICTIONARY
  5
72
330
31
100
AcDbDictionary
280
     1
281
     1
  3
ACAD_XREC_ROUNDTRIP
360
73
  0
DICTIONARY
  5
70
330
30
100
AcDbDictionary
280
     1
281
     1
  3
ACAD_XREC_ROUNDTRIP
360
71
  0
DICTIONARY
  5
74
330
32
100
AcDbDictionary
280
     1
281
     1
  3
ACAD_XREC_ROUNDTRIP
360
75
  0
DICTIONARY
  5
7C
330
36
100
AcDbDictionary
280
     1
281
     1
  3
ACAD_XREC_ROUNDTRIP
360
7D
  0
DICTIONARY
  5
84
330
3A
100
AcDbDictionary
280
     1
281
     1
  3
ACAD_XREC_ROUNDTRIP
360
85
  0
DICTIONARY
  5
78
330
34
100
AcDbDictionary
280
     1
281
     1
  3
ACAD_XREC_ROUNDTRIP
360
79
  0
DICTIONARY
  5
7A
330
35
100
AcDbDictionary
280
     1
281
     1
  3
ACAD_XREC_ROUNDTRIP
360
7B
  0
DICTIONARY
  5
82
330
39
100
AcDbDictionary
280
     1
281
     1
  3
ACAD_XREC_ROUNDTRIP
360
83
  0
DICTIONARY
  5
66
330
2B
100
AcDbDictionary
280
     1
281
     1
  3
ACAD_XREC_ROUNDTRIP
360
67
  0
DICTIONARY
  5
68
330
2C
100
AcDbDictionary
280
     1
281
     1
  3
ACAD_XREC_ROUNDTRIP
360
69
  0
DICTIONARY
  5
6A
330
2D
100
AcDbDictionary
280
     1
281
     1
  3
ACAD_XREC_ROUNDTRIP
360
6B
  0
DICTIONARY
  5
6C
330
2E
100
AcDbDictionary
280
     1
281
     1
  3
ACAD_XREC_ROUNDTRIP
360
6D
  0
DICTIONARY
  5
80
330
38
100
AcDbDictionary
280
     1
281
     1
  3
ACAD_XREC_ROUNDTRIP
360
81
  0
DICTIONARY
  5
76
330
33
100
AcDbDictionary
280
     1
281
     1
  3
ACAD_XREC_ROUNDTRIP
360
77
  0
DICTIONARY
  5
7E
330
37
100
AcDbDictionary
280
     1
281
     1
  3
ACAD_XREC_ROUNDTRIP
360
7F
  0
XRECORD
  5
6F
102
{ACAD_REACTORS
330
6E
102
}
330
6E
100
AcDbXrecord
280
     1
102
RTVSPropertyOp0
 70
     1
102
RTVSPropertyOp1
 70
     1
102
RTVSPropertyOp2
 70
     1
102
RTVSPropertyOp3
 70
     1
102
RTVSPropertyOp4
 70
     1
102
RTVSPropertyOp5
 70
     1
102
RTVSPropertyOp6
 70
     1
102
RTVSPropertyOp7
 70
     1
102
RTVSPropertyOp8
 70
     1
102
RTVSPropertyOp9
 70
     1
102
RTVSPropertyOp10
 70
     1
102
RTVSPropertyOp11
 70
     1
102
RTVSPropertyOp12
 70
     1
102
RTVSPropertyOp13
 70
     1
102
RTVSPropertyOp14
 70
     1
102
RTVSPropertyOp15
 70
     1
102
RTVSPropertyOp16
 70
     1
102
RTVSPropertyOp17
 70
     1
102
RTVSPropertyOp18
 70
     1
102
RTVSPropertyOp19
 70
     1
102
RTVSPropertyOp20
 70
     1
102
RTVSPropertyOp21
 70
     1
102
RTVSPropertyOp22
 70
     1
102
RTVSPropertyOp23
 70
     1
102
RTVSPropertyOp24
 70
     1
102
RTVSPropertyOp25
 70
     1
102
RTVSPropertyOp26
 70
     1
102
RTVSPropertyOp27
 70
     1
102
RTVSPropertyOp28
 70
     1
102
RTVSPropertyOp29
 70
     1
102
RTVSPropertyOp30
 70
     1
102
RTVSPropertyOp31
 70
     1
102
RTVSPropertyOp32
 70
     1
  0
XRECORD
  5
73
102
{ACAD_REACTORS
330
72
102
}
330
72
100
AcDbXrecord
280
     1
102
RTVSPropertyOp0
 70
     1
102
RTVSPropertyOp1
 70
     1
102
RTVSPropertyOp2
 70
     1
102
RTVSPropertyOp3
 70
     1
102
RTVSPropertyOp4
 70
     1
102
RTVSPropertyOp5
 70
     1
102
RTVSPropertyOp6
 70
     1
102
RTVSPropertyOp7
 70
     1
102
RTVSPropertyOp8
 70
     1
102
RTVSPropertyOp9
 70
     1
102
RTVSPropertyOp10
 70
     1
102
RTVSPropertyOp11
 70
     1
102
RTVSPropertyOp12
 70
     1
102
RTVSPropertyOp13
 70
     1
102
RTVSPropertyOp14
 70
     1
102
RTVSPropertyOp15
 70
     1
102
RTVSPropertyOp16
 70
     1
102
RTVSPropertyOp17
 70
     1
102
RTVSPropertyOp18
 70
     1
102
RTVSPropertyOp19
 70
     1
102
RTVSPropertyOp20
 70
     1
102
RTVSPropertyOp21
 70
     1
102
RTVSPropertyOp22
 70
     1
102
RTVSPropertyOp23
 70
     1
102
RTVSPropertyOp24
 70
     1
102
RTVSPropertyOp25
 70
     1
102
RTVSPropertyOp26
 70
     1
102
RTVSPropertyOp27
 70
     1
102
RTVSPropertyOp28
 70
     1
102
RTVSPropertyOp29
 70
     1
102
RTVSPropertyOp30
 70
     1
102
RTVSPropertyOp31
 70
     1
102
RTVSPropertyOp32
 70
     1
  0
XRECORD
  5
71
102
{ACAD_REACTORS
330
70
102
}
330
70
100
AcDbXrecord
280
     1
102
RTVSPropertyOp0
 70
     1
102
RTVSPropertyOp1
 70
     1
102
RTVSPropertyOp2
 70
     1
102
RTVSPropertyOp3
 70
     1
102
RTVSPropertyOp4
 70
     1
102
RTVSPropertyOp5
 70
     1
102
RTVSPropertyOp6
 70
     1
102
RTVSPropertyOp7
 70
     1
102
RTVSPropertyOp8
 70
     1
102
RTVSPropertyOp9
 70
     1
102
RTVSPropertyOp10
 70
     1
102
RTVSPropertyOp11
 70
     1
102
RTVSPropertyOp12
 70
     1
102
RTVSPropertyOp13
 70
     1
102
RTVSPropertyOp14
 70
     1
102
RTVSPropertyOp15
 70
     1
102
RTVSPropertyOp16
 70
     1
102
RTVSPropertyOp17
 70
     1
102
RTVSPropertyOp18
 70
     1
102
RTVSPropertyOp19
 70
     1
102
RTVSPropertyOp20
 70
     1
102
RTVSPropertyOp21
 70
     1
102
RTVSPropertyOp22
 70
     1
102
RTVSPropertyOp23
 70
     1
102
RTVSPropertyOp24
 70
     1
102
RTVSPropertyOp25
 70
     1
102
RTVSPropertyOp26
 70
     1
102
RTVSPropertyOp27
 70
     1
102
RTVSPropertyOp28
 70
     1
102
RTVSPropertyOp29
 70
     1
102
RTVSPropertyOp30
 70
     1
102
RTVSPropertyOp31
 70
     1
102
RTVSPropertyOp32
 70
     1
  0
XRECORD
  5
75
102
{ACAD_REACTORS
330
74
102
}
330
74
100
AcDbXrecord
280
     1
102
RTVSPropertyOp0
 70
     1
102
RTVSPropertyOp1
 70
     1
102
RTVSPropertyOp2
 70
     1
102
RTVSPropertyOp3
 70
     1
102
RTVSPropertyOp4
 70
     1
102
RTVSPropertyOp5
 70
     1
102
RTVSPropertyOp6
 70
     1
102
RTVSPropertyOp7
 70
     1
102
RTVSPropertyOp8
 70
     1
102
RTVSPropertyOp9
 70
     1
102
RTVSPropertyOp10
 70
     1
102
RTVSPropertyOp11
 70
     1
102
RTVSPropertyOp12
 70
     1
102
RTVSPropertyOp13
 70
     1
102
RTVSPropertyOp14
 70
     1
102
RTVSPropertyOp15
 70
     1
102
RTVSPropertyOp16
 70
     1
102
RTVSPropertyOp17
 70
     1
102
RTVSPropertyOp18
 70
     1
102
RTVSPropertyOp19
 70
     1
102
RTVSPropertyOp20
 70
     1
102
RTVSPropertyOp21
 70
     1
102
RTVSPropertyOp22
 70
     1
102
RTVSPropertyOp23
 70
     1
102
RTVSPropertyOp24
 70
     1
102
RTVSPropertyOp25
 70
     1
102
RTVSPropertyOp26
 70
     1
102
RTVSPropertyOp27
 70
     1
102
RTVSPropertyOp28
 70
     1
102
RTVSPropertyOp29
 70
     1
102
RTVSPropertyOp30
 70
     1
102
RTVSPropertyOp31
 70
     1
102
RTVSPropertyOp32
 70
     1
  0
XRECORD
  5
7D
102
{ACAD_REACTORS
330
7C
102
}
330
7C
100
AcDbXrecord
280
     1
102
RTVSPropertyOp0
 70
     1
102
RTVSPropertyOp1
 70
     1
102
RTVSPropertyOp2
 70
     1
102
RTVSPropertyOp3
 70
     1
102
RTVSPropertyOp4
 70
     1
102
RTVSPropertyOp5
 70
     1
102
RTVSPropertyOp6
 70
     1
102
RTVSPropertyOp7
 70
     1
102
RTVSPropertyOp8
 70
     1
102
RTVSPropertyOp9
 70
     1
102
RTVSPropertyOp10
 70
     1
102
RTVSPropertyOp11
 70
     1
102
RTVSPropertyOp12
 70
     1
102
RTVSPropertyOp13
 70
     1
102
RTVSPropertyOp14
 70
     1
102
RTVSPropertyOp15
 70
     1
102
RTVSPropertyOp16
 70
     1
102
RTVSPropertyOp17
 70
     1
102
RTVSPropertyOp18
 70
     1
102
RTVSPropertyOp19
 70
     1
102
RTVSPropertyOp20
 70
     1
102
RTVSPropertyOp21
 70
     1
102
RTVSPropertyOp22
 70
     1
102
RTVSPropertyOp23
 70
     1
102
RTVSPropertyOp24
 70
     1
102
RTVSPropertyOp25
 70
     1
102
RTVSPropertyOp26
 70
     1
102
RTVSPropertyOp27
 70
     1
102
RTVSPropertyOp28
 70
     1
102
RTVSPropertyOp29
 70
     1
102
RTVSPropertyOp30
 70
     1
102
RTVSPropertyOp31
 70
     1
102
RTVSPropertyOp32
 70
     1
  0
XRECORD
  5
85
102
{ACAD_REACTORS
330
84
102
}
330
84
100
AcDbXrecord
280
     1
102
RTVSPropertyOp0
 70
     1
102
RTVSPropertyOp1
 70
     1
102
RTVSPropertyOp2
 70
     1
102
RTVSPropertyOp3
 70
     1
102
RTVSPropertyOp4
 70
     1
102
RTVSPropertyOp5
 70
     1
102
RTVSPropertyOp6
 70
     1
102
RTVSPropertyOp7
 70
     1
102
RTVSPropertyOp8
 70
     1
102
RTVSPropertyOp9
 70
     1
102
RTVSPropertyOp10
 70
     1
102
RTVSPropertyOp11
 70
     1
102
RTVSPropertyOp12
 70
     1
102
RTVSPropertyOp13
 70
     1
102
RTVSPropertyOp14
 70
     1
102
RTVSPropertyOp15
 70
     1
102
RTVSPropertyOp16
 70
     1
102
RTVSPropertyOp17
 70
     1
102
RTVSPropertyOp18
 70
     1
102
RTVSPropertyOp19
 70
     1
102
RTVSPropertyOp20
 70
     1
102
RTVSPropertyOp21
 70
     1
102
RTVSPropertyOp22
 70
     1
102
RTVSPropertyOp23
 70
     1
102
RTVSPropertyOp24
 70
     1
102
RTVSPropertyOp25
 70
     1
102
RTVSPropertyOp26
 70
     1
102
RTVSPropertyOp27
 70
     1
102
RTVSPropertyOp28
 70
     1
102
RTVSPropertyOp29
 70
     1
102
RTVSPropertyOp30
 70
     1
102
RTVSPropertyOp31
 70
     1
102
RTVSPropertyOp32
 70
     1
  0
XRECORD
  5
79
102
{ACAD_REACTORS
330
78
102
}
330
78
100
AcDbXrecord
280
     1
102
RTVSPropertyOp0
 70
     1
102
RTVSPropertyOp1
 70
     1
102
RTVSPropertyOp2
 70
     1
102
RTVSPropertyOp3
 70
     1
102
RTVSPropertyOp4
 70
     1
102
RTVSPropertyOp5
 70
     1
102
RTVSPropertyOp6
 70
     1
102
RTVSPropertyOp7
 70
     1
102
RTVSPropertyOp8
 70
     1
102
RTVSPropertyOp9
 70
     1
102
RTVSPropertyOp10
 70
     1
102
RTVSPropertyOp11
 70
     1
102
RTVSPropertyOp12
 70
     1
102
RTVSPropertyOp13
 70
     1
102
RTVSPropertyOp14
 70
     1
102
RTVSPropertyOp15
 70
     1
102
RTVSPropertyOp16
 70
     1
102
RTVSPropertyOp17
 70
     1
102
RTVSPropertyOp18
 70
     1
102
RTVSPropertyOp19
 70
     1
102
RTVSPropertyOp20
 70
     1
102
RTVSPropertyOp21
 70
     1
102
RTVSPropertyOp22
 70
     1
102
RTVSPropertyOp23
 70
     1
102
RTVSPropertyOp24
 70
     1
102
RTVSPropertyOp25
 70
     1
102
RTVSPropertyOp26
 70
     1
102
RTVSPropertyOp27
 70
     1
102
RTVSPropertyOp28
 70
     1
102
RTVSPropertyOp29
 70
     1
102
RTVSPropertyOp30
 70
     1
102
RTVSPropertyOp31
 70
     1
102
RTVSPropertyOp32
 70
     1
  0
XRECORD
  5
7B
102
{ACAD_REACTORS
330
7A
102
}
330
7A
100
AcDbXrecord
280
     1
102
RTVSPropertyOp0
 70
     1
102
RTVSPropertyOp1
 70
     1
102
RTVSPropertyOp2
 70
     1
102
RTVSPropertyOp3
 70
     1
102
RTVSPropertyOp4
 70
     1
102
RTVSPropertyOp5
 70
     1
102
RTVSPropertyOp6
 70
     1
102
RTVSPropertyOp7
 70
     1
102
RTVSPropertyOp8
 70
     1
102
RTVSPropertyOp9
 70
     1
102
RTVSPropertyOp10
 70
     1
102
RTVSPropertyOp11
 70
     1
102
RTVSPropertyOp12
 70
     1
102
RTVSPropertyOp13
 70
     1
102
RTVSPropertyOp14
 70
     1
102
RTVSPropertyOp15
 70
     1
102
RTVSPropertyOp16
 70
     1
102
RTVSPropertyOp17
 70
     1
102
RTVSPropertyOp18
 70
     1
102
RTVSPropertyOp19
 70
     1
102
RTVSPropertyOp20
 70
     1
102
RTVSPropertyOp21
 70
     1
102
RTVSPropertyOp22
 70
     1
102
RTVSPropertyOp23
 70
     1
102
RTVSPropertyOp24
 70
     1
102
RTVSPropertyOp25
 70
     1
102
RTVSPropertyOp26
 70
     1
102
RTVSPropertyOp27
 70
     1
102
RTVSPropertyOp28
 70
     1
102
RTVSPropertyOp29
 70
     1
102
RTVSPropertyOp30
 70
     1
102
RTVSPropertyOp31
 70
     1
102
RTVSPropertyOp32
 70
     1
  0
XRECORD
  5
83
102
{ACAD_REACTORS
330
82
102
}
330
82
100
AcDbXrecord
280
     1
102
RTVSPropertyOp0
 70
     1
102
RTVSPropertyOp1
 70
     1
102
RTVSPropertyOp2
 70
     1
102
RTVSPropertyOp3
 70
     1
102
RTVSPropertyOp4
 70
     1
102
RTVSPropertyOp5
 70
     1
102
RTVSPropertyOp6
 70
     1
102
RTVSPropertyOp7
 70
     1
102
RTVSPropertyOp8
 70
     1
102
RTVSPropertyOp9
 70
     1
102
RTVSPropertyOp10
 70
     1
102
RTVSPropertyOp11
 70
     1
102
RTVSPropertyOp12
 70
     1
102
RTVSPropertyOp13
 70
     1
102
RTVSPropertyOp14
 70
     1
102
RTVSPropertyOp15
 70
     1
102
RTVSPropertyOp16
 70
     1
102
RTVSPropertyOp17
 70
     1
102
RTVSPropertyOp18
 70
     1
102
RTVSPropertyOp19
 70
     1
102
RTVSPropertyOp20
 70
     1
102
RTVSPropertyOp21
 70
     1
102
RTVSPropertyOp22
 70
     1
102
RTVSPropertyOp23
 70
     1
102
RTVSPropertyOp24
 70
     1
102
RTVSPropertyOp25
 70
     1
102
RTVSPropertyOp26
 70
     1
102
RTVSPropertyOp27
 70
     1
102
RTVSPropertyOp28
 70
     1
102
RTVSPropertyOp29
 70
     1
102
RTVSPropertyOp30
 70
     1
102
RTVSPropertyOp31
 70
     1
102
RTVSPropertyOp32
 70
     1
  0
XRECORD
  5
67
102
{ACAD_REACTORS
330
66
102
}
330
66
100
AcDbXrecord
280
     1
102
RTVSPropertyOp0
 70
     1
102
RTVSPropertyOp1
 70
     1
102
RTVSPropertyOp2
 70
     1
102
RTVSPropertyOp3
 70
     1
102
RTVSPropertyOp4
 70
     1
102
RTVSPropertyOp5
 70
     1
102
RTVSPropertyOp6
 70
     1
102
RTVSPropertyOp7
 70
     1
102
RTVSPropertyOp8
 70
     1
102
RTVSPropertyOp9
 70
     1
102
RTVSPropertyOp10
 70
     1
102
RTVSPropertyOp11
 70
     1
102
RTVSPropertyOp12
 70
     1
102
RTVSPropertyOp13
 70
     1
102
RTVSPropertyOp14
 70
     1
102
RTVSPropertyOp15
 70
     1
102
RTVSPropertyOp16
 70
     1
102
RTVSPropertyOp17
 70
     1
102
RTVSPropertyOp18
 70
     1
102
RTVSPropertyOp19
 70
     1
102
RTVSPropertyOp20
 70
     1
102
RTVSPropertyOp21
 70
     1
102
RTVSPropertyOp22
 70
     1
102
RTVSPropertyOp23
 70
     1
102
RTVSPropertyOp24
 70
     1
102
RTVSPropertyOp25
 70
     1
102
RTVSPropertyOp26
 70
     1
102
RTVSPropertyOp27
 70
     1
102
RTVSPropertyOp28
 70
     1
102
RTVSPropertyOp29
 70
     1
102
RTVSPropertyOp30
 70
     1
102
RTVSPropertyOp31
 70
     1
102
RTVSPropertyOp32
 70
     1
  0
XRECORD
  5
69
102
{ACAD_REACTORS
330
68
102
}
330
68
100
AcDbXrecord
280
     1
102
RTVSPropertyOp0
 70
     1
102
RTVSPropertyOp1
 70
     1
102
RTVSPropertyOp2
 70
     1
102
RTVSPropertyOp3
 70
     1
102
RTVSPropertyOp4
 70
     1
102
RTVSPropertyOp5
 70
     1
102
RTVSPropertyOp6
 70
     1
102
RTVSPropertyOp7
 70
     1
102
RTVSPropertyOp8
 70
     1
102
RTVSPropertyOp9
 70
     1
102
RTVSPropertyOp10
 70
     1
102
RTVSPropertyOp11
 70
     1
102
RTVSPropertyOp12
 70
     1
102
RTVSPropertyOp13
 70
     1
102
RTVSPropertyOp14
 70
     1
102
RTVSPropertyOp15
 70
     1
102
RTVSPropertyOp16
 70
     1
102
RTVSPropertyOp17
 70
     1
102
RTVSPropertyOp18
 70
     1
102
RTVSPropertyOp19
 70
     1
102
RTVSPropertyOp20
 70
     1
102
RTVSPropertyOp21
 70
     1
102
RTVSPropertyOp22
 70
     1
102
RTVSPropertyOp23
 70
     1
102
RTVSPropertyOp24
 70
     1
102
RTVSPropertyOp25
 70
     1
102
RTVSPropertyOp26
 70
     1
102
RTVSPropertyOp27
 70
     1
102
RTVSPropertyOp28
 70
     1
102
RTVSPropertyOp29
 70
     1
102
RTVSPropertyOp30
 70
     1
102
RTVSPropertyOp31
 70
     1
102
RTVSPropertyOp32
 70
     1
  0
XRECORD
  5
6B
102
{ACAD_REACTORS
330
6A
102
}
330
6A
100
AcDbXrecord
280
     1
102
RTVSPropertyOp0
 70
     1
102
RTVSPropertyOp1
 70
     1
102
RTVSPropertyOp2
 70
     1
102
RTVSPropertyOp3
 70
     1
102
RTVSPropertyOp4
 70
     1
102
RTVSPropertyOp5
 70
     1
102
RTVSPropertyOp6
 70
     1
102
RTVSPropertyOp7
 70
     1
102
RTVSPropertyOp8
 70
     1
102
RTVSPropertyOp9
 70
     1
102
RTVSPropertyOp10
 70
     1
102
RTVSPropertyOp11
 70
     1
102
RTVSPropertyOp12
 70
     1
102
RTVSPropertyOp13
 70
     1
102
RTVSPropertyOp14
 70
     1
102
RTVSPropertyOp15
 70
     1
102
RTVSPropertyOp16
 70
     1
102
RTVSPropertyOp17
 70
     1
102
RTVSPropertyOp18
 70
     1
102
RTVSPropertyOp19
 70
     1
102
RTVSPropertyOp20
 70
     1
102
RTVSPropertyOp21
 70
     1
102
RTVSPropertyOp22
 70
     1
102
RTVSPropertyOp23
 70
     1
102
RTVSPropertyOp24
 70
     1
102
RTVSPropertyOp25
 70
     1
102
RTVSPropertyOp26
 70
     1
102
RTVSPropertyOp27
 70
     1
102
RTVSPropertyOp28
 70
     1
102
RTVSPropertyOp29
 70
     1
102
RTVSPropertyOp30
 70
     1
102
RTVSPropertyOp31
 70
     1
102
RTVSPropertyOp32
 70
     1
  0
XRECORD
  5
6D
102
{ACAD_REACTORS
330
6C
102
}
330
6C
100
AcDbXrecord
280
     1
102
RTVSPropertyOp0
 70
     1
102
RTVSPropertyOp1
 70
     1
102
RTVSPropertyOp2
 70
     1
102
RTVSPropertyOp3
 70
     1
102
RTVSPropertyOp4
 70
     1
102
RTVSPropertyOp5
 70
     1
102
RTVSPropertyOp6
 70
     1
102
RTVSPropertyOp7
 70
     1
102
RTVSPropertyOp8
 70
     1
102
RTVSPropertyOp9
 70
     1
102
RTVSPropertyOp10
 70
     1
102
RTVSPropertyOp11
 70
     1
102
RTVSPropertyOp12
 70
     1
102
RTVSPropertyOp13
 70
     1
102
RTVSPropertyOp14
 70
     1
102
RTVSPropertyOp15
 70
     1
102
RTVSPropertyOp16
 70
     1
102
RTVSPropertyOp17
 70
     1
102
RTVSPropertyOp18
 70
     1
102
RTVSPropertyOp19
 70
     1
102
RTVSPropertyOp20
 70
     1
102
RTVSPropertyOp21
 70
     1
102
RTVSPropertyOp22
 70
     1
102
RTVSPropertyOp23
 70
     1
102
RTVSPropertyOp24
 70
     1
102
RTVSPropertyOp25
 70
     1
102
RTVSPropertyOp26
 70
     1
102
RTVSPropertyOp27
 70
     1
102
RTVSPropertyOp28
 70
     1
102
RTVSPropertyOp29
 70
     1
102
RTVSPropertyOp30
 70
     1
102
RTVSPropertyOp31
 70
     1
102
RTVSPropertyOp32
 70
     1
  0
XRECORD
  5
81
102
{ACAD_REACTORS
330
80
102
}
330
80
100
AcDbXrecord
280
     1
102
RTVSPropertyOp0
 70
     1
102
RTVSPropertyOp1
 70
     1
102
RTVSPropertyOp2
 70
     1
102
RTVSPropertyOp3
 70
     1
102
RTVSPropertyOp4
 70
     1
102
RTVSPropertyOp5
 70
     1
102
RTVSPropertyOp6
 70
     1
102
RTVSPropertyOp7
 70
     1
102
RTVSPropertyOp8
 70
     1
102
RTVSPropertyOp9
 70
     1
102
RTVSPropertyOp10
 70
     1
102
RTVSPropertyOp11
 70
     1
102
RTVSPropertyOp12
 70
     1
102
RTVSPropertyOp13
 70
     1
102
RTVSPropertyOp14
 70
     1
102
RTVSPropertyOp15
 70
     1
102
RTVSPropertyOp16
 70
     1
102
RTVSPropertyOp17
 70
     1
102
RTVSPropertyOp18
 70
     1
102
RTVSPropertyOp19
 70
     1
102
RTVSPropertyOp20
 70
     1
102
RTVSPropertyOp21
 70
     1
102
RTVSPropertyOp22
 70
     1
102
RTVSPropertyOp23
 70
     1
102
RTVSPropertyOp24
 70
     1
102
RTVSPropertyOp25
 70
     1
102
RTVSPropertyOp26
 70
     1
102
RTVSPropertyOp27
 70
     1
102
RTVSPropertyOp28
 70
     1
102
RTVSPropertyOp29
 70
     1
102
RTVSPropertyOp30
 70
     1
102
RTVSPropertyOp31
 70
     1
102
RTVSPropertyOp32
 70
     1
  0
XRECORD
  5
77
102
{ACAD_REACTORS
330
76
102
}
330
76
100
AcDbXrecord
280
     1
102
RTVSPropertyOp0
 70
     1
102
RTVSPropertyOp1
 70
     1
102
RTVSPropertyOp2
 70
     1
102
RTVSPropertyOp3
 70
     1
102
RTVSPropertyOp4
 70
     1
102
RTVSPropertyOp5
 70
     1
102
RTVSPropertyOp6
 70
     1
102
RTVSPropertyOp7
 70
     1
102
RTVSPropertyOp8
 70
     1
102
RTVSPropertyOp9
 70
     1
102
RTVSPropertyOp10
 70
     1
102
RTVSPropertyOp11
 70
     1
102
RTVSPropertyOp12
 70
     1
102
RTVSPropertyOp13
 70
     1
102
RTVSPropertyOp14
 70
     1
102
RTVSPropertyOp15
 70
     1
102
RTVSPropertyOp16
 70
     1
102
RTVSPropertyOp17
 70
     1
102
RTVSPropertyOp18
 70
     1
102
RTVSPropertyOp19
 70
     1
102
RTVSPropertyOp20
 70
     1
102
RTVSPropertyOp21
 70
     1
102
RTVSPropertyOp22
 70
     1
102
RTVSPropertyOp23
 70
     1
102
RTVSPropertyOp24
 70
     1
102
RTVSPropertyOp25
 70
     1
102
RTVSPropertyOp26
 70
     1
102
RTVSPropertyOp27
 70
     1
102
RTVSPropertyOp28
 70
     1
102
RTVSPropertyOp29
 70
     1
102
RTVSPropertyOp30
 70
     1
102
RTVSPropertyOp31
 70
     1
102
RTVSPropertyOp32
 70
     1
  0
XRECORD
  5
7F
102
{ACAD_REACTORS
330
7E
102
}
330
7E
100
AcDbXrecord
280
     1
102
RTVSPropertyOp0
 70
     1
102
RTVSPropertyOp1
 70
     1
102
RTVSPropertyOp2
 70
     1
102
RTVSPropertyOp3
 70
     1
102
RTVSPropertyOp4
 70
     1
102
RTVSPropertyOp5
 70
     1
102
RTVSPropertyOp6
 70
     1
102
RTVSPropertyOp7
 70
     1
102
RTVSPropertyOp8
 70
     1
102
RTVSPropertyOp9
 70
     1
102
RTVSPropertyOp10
 70
     1
102
RTVSPropertyOp11
 70
     1
102
RTVSPropertyOp12
 70
     1
102
RTVSPropertyOp13
 70
     1
102
RTVSPropertyOp14
 70
     1
102
RTVSPropertyOp15
 70
     1
102
RTVSPropertyOp16
 70
     1
102
RTVSPropertyOp17
 70
     1
102
RTVSPropertyOp18
 70
     1
102
RTVSPropertyOp19
 70
     1
102
RTVSPropertyOp20
 70
     1
102
RTVSPropertyOp21
 70
     1
102
RTVSPropertyOp22
 70
     1
102
RTVSPropertyOp23
 70
     1
102
RTVSPropertyOp24
 70
     1
102
RTVSPropertyOp25
 70
     1
102
RTVSPropertyOp26
 70
     1
102
RTVSPropertyOp27
 70
     1
102
RTVSPropertyOp28
 70
     1
102
RTVSPropertyOp29
 70
     1
102
RTVSPropertyOp30
 70
     1
102
RTVSPropertyOp31
 70
     1
102
RTVSPropertyOp32
 70
     1
  0
ENDSEC
  0
EOF
