<?xml version="1.0" encoding="UTF-8"?>
<!DOCTYPE svg PUBLIC "-//W3C//DTD SVG 1.1//EN" "http://www.w3.org/Graphics/SVG/1.1/DTD/svg11.dtd">
<!-- Creator: CorelDRAW X6 -->
<svg xmlns="http://www.w3.org/2000/svg" xml:space="preserve" width="300mm" height="300mm" version="1.1" shape-rendering="geometricPrecision" text-rendering="geometricPrecision" image-rendering="optimizeQuality" fill-rule="evenodd" clip-rule="evenodd"
viewBox="0 0 30000 30000"
 xmlns:xlink="http://www.w3.org/1999/xlink">
 <g id="Layer_x0020_1">
  <metadata id="CorelCorpID_0Corel-Layer"/>
  <path fill="none" stroke="black" stroke-width="52.92" stroke-linecap="round" stroke-linejoin="round" d="M4550 29450l0 -28900c0,-276 224,-500 500,-500l19900 0c276,0 500,224 500,500l0 28900c0,276 -224,500 -500,500l-19900 0c-276,0 -500,-224 -500,-500z"/>
  <g id="_1045165136">
   <path fill="none" stroke="lime" stroke-width="52.92" stroke-linecap="round" stroke-linejoin="round" d="M6050 5450l0 -3400c0,-276 224,-500 500,-500l3400 0c276,0 500,224 500,500l0 3400c0,276 -224,500 -500,500l-3400 0c-276,0 -500,-224 -500,-500z"/>
   <circle fill="none" stroke="black" stroke-width="52.92" stroke-linecap="round" stroke-linejoin="round" cx="8250" cy="2250" r="375"/>
   <circle fill="none" stroke="black" stroke-width="52.92" stroke-linecap="round" stroke-linejoin="round" cx="9750" cy="2250" r="375"/>
   <circle fill="none" stroke="black" stroke-width="52.92" stroke-linecap="round" stroke-linejoin="round" cx="7500" cy="2250" r="150"/>
   <circle fill="none" stroke="black" stroke-width="52.92" stroke-linecap="round" stroke-linejoin="round" cx="9000" cy="2250" r="150"/>
   <circle fill="none" stroke="black" stroke-width="52.92" stroke-linecap="round" stroke-linejoin="round" cx="6750" cy="2250" r="375"/>
  </g>
  <g id="_1045160816">
   <path fill="none" stroke="lime" stroke-width="52.92" stroke-linecap="round" stroke-linejoin="round" d="M10750 5450l0 -3400c0,-276 224,-500 500,-500l3400 0c276,0 500,224 500,500l0 3400c0,276 -224,500 -500,500l-3400 0c-276,0 -500,-224 -500,-500z"/>
   <circle fill="none" stroke="black" stroke-width="52.92" stroke-linecap="round" stroke-linejoin="round" cx="12950" cy="2250" r="375"/>
   <circle fill="none" stroke="black" stroke-width="52.92" stroke-linecap="round" stroke-linejoin="round" cx="14450" cy="2250" r="375"/>
   <circle fill="none" stroke="black" stroke-width="52.92" stroke-linecap="round" stroke-linejoin="round" cx="12200" cy="2250" r="150"/>
   <circle fill="none" stroke="black" stroke-width="52.92" stroke-linecap="round" stroke-linejoin="round" cx="13700" cy="2250" r="150"/>
   <circle fill="none" stroke="black" stroke-width="52.92" stroke-linecap="round" stroke-linejoin="round" cx="11450" cy="2250" r="375"/>
  </g>
  <g id="_1045159792">
   <path fill="none" stroke="lime" stroke-width="52.92" stroke-linecap="round" stroke-linejoin="round" d="M15450 5450l0 -3400c0,-276 224,-500 500,-500l3400 0c276,0 500,224 500,500l0 3400c0,276 -224,500 -500,500l-3400 0c-276,0 -500,-224 -500,-500z"/>
   <circle fill="none" stroke="black" stroke-width="52.92" stroke-linecap="round" stroke-linejoin="round" cx="17650" cy="2250" r="375"/>
   <circle fill="none" stroke="black" stroke-width="52.92" stroke-linecap="round" stroke-linejoin="round" cx="19150" cy="2250" r="375"/>
   <circle fill="none" stroke="black" stroke-width="52.92" stroke-linecap="round" stroke-linejoin="round" cx="16900" cy="2250" r="150"/>
   <circle fill="none" stroke="black" stroke-width="52.92" stroke-linecap="round" stroke-linejoin="round" cx="18400" cy="2250" r="150"/>
   <circle fill="none" stroke="black" stroke-width="52.92" stroke-linecap="round" stroke-linejoin="round" cx="16150" cy="2250" r="375"/>
  </g>
  <g id="_1045157584">
   <path fill="none" stroke="lime" stroke-width="52.92" stroke-linecap="round" stroke-linejoin="round" d="M20150 5450l0 -3400c0,-276 224,-500 500,-500l3400 0c276,0 500,224 500,500l0 3400c0,276 -224,500 -500,500l-3400 0c-276,0 -500,-224 -500,-500z"/>
   <circle fill="none" stroke="black" stroke-width="52.92" stroke-linecap="round" stroke-linejoin="round" cx="22350" cy="2250" r="375"/>
   <circle fill="none" stroke="black" stroke-width="52.92" stroke-linecap="round" stroke-linejoin="round" cx="23850" cy="2250" r="375"/>
   <circle fill="none" stroke="black" stroke-width="52.92" stroke-linecap="round" stroke-linejoin="round" cx="21600" cy="2250" r="150"/>
   <circle fill="none" stroke="black" stroke-width="52.92" stroke-linecap="round" stroke-linejoin="round" cx="23100" cy="2250" r="150"/>
   <circle fill="none" stroke="black" stroke-width="52.92" stroke-linecap="round" stroke-linejoin="round" cx="20850" cy="2250" r="375"/>
  </g>
  <g id="_1058455088">
   <path fill="none" stroke="lime" stroke-width="52.92" stroke-linecap="round" stroke-linejoin="round" d="M6050 10150l0 -3400c0,-276 224,-500 500,-500l3400 0c276,0 500,224 500,500l0 3400c0,276 -224,500 -500,500l-3400 0c-276,0 -500,-224 -500,-500z"/>
   <circle fill="none" stroke="black" stroke-width="52.92" stroke-linecap="round" stroke-linejoin="round" cx="8250" cy="6950" r="375"/>
   <circle fill="none" stroke="black" stroke-width="52.92" stroke-linecap="round" stroke-linejoin="round" cx="9750" cy="6950" r="375"/>
   <circle fill="none" stroke="black" stroke-width="52.92" stroke-linecap="round" stroke-linejoin="round" cx="7500" cy="6950" r="150"/>
   <circle fill="none" stroke="black" stroke-width="52.92" stroke-linecap="round" stroke-linejoin="round" cx="9000" cy="6950" r="150"/>
   <circle fill="none" stroke="black" stroke-width="52.92" stroke-linecap="round" stroke-linejoin="round" cx="6750" cy="6950" r="375"/>
  </g>
  <g id="_1058475024">
   <path fill="none" stroke="lime" stroke-width="52.92" stroke-linecap="round" stroke-linejoin="round" d="M10750 10150l0 -3400c0,-276 224,-500 500,-500l3400 0c276,0 500,224 500,500l0 3400c0,276 -224,500 -500,500l-3400 0c-276,0 -500,-224 -500,-500z"/>
   <circle fill="none" stroke="black" stroke-width="52.92" stroke-linecap="round" stroke-linejoin="round" cx="12950" cy="6950" r="375"/>
   <circle fill="none" stroke="black" stroke-width="52.92" stroke-linecap="round" stroke-linejoin="round" cx="14450" cy="6950" r="375"/>
   <circle fill="none" stroke="black" stroke-width="52.92" stroke-linecap="round" stroke-linejoin="round" cx="12200" cy="6950" r="150"/>
   <circle fill="none" stroke="black" stroke-width="52.92" stroke-linecap="round" stroke-linejoin="round" cx="13700" cy="6950" r="150"/>
   <circle fill="none" stroke="black" stroke-width="52.92" stroke-linecap="round" stroke-linejoin="round" cx="11450" cy="6950" r="375"/>
  </g>
  <g id="_1058473328">
   <path fill="none" stroke="lime" stroke-width="52.92" stroke-linecap="round" stroke-linejoin="round" d="M15450 10150l0 -3400c0,-276 224,-500 500,-500l3400 0c276,0 500,224 500,500l0 3400c0,276 -224,500 -500,500l-3400 0c-276,0 -500,-224 -500,-500z"/>
   <circle fill="none" stroke="black" stroke-width="52.92" stroke-linecap="round" stroke-linejoin="round" cx="17650" cy="6950" r="375"/>
   <circle fill="none" stroke="black" stroke-width="52.92" stroke-linecap="round" stroke-linejoin="round" cx="19150" cy="6950" r="375"/>
   <circle fill="none" stroke="black" stroke-width="52.92" stroke-linecap="round" stroke-linejoin="round" cx="16900" cy="6950" r="150"/>
   <circle fill="none" stroke="black" stroke-width="52.92" stroke-linecap="round" stroke-linejoin="round" cx="18400" cy="6950" r="150"/>
   <circle fill="none" stroke="black" stroke-width="52.92" stroke-linecap="round" stroke-linejoin="round" cx="16150" cy="6950" r="375"/>
  </g>
  <g id="_1058468400">
   <path fill="none" stroke="lime" stroke-width="52.92" stroke-linecap="round" stroke-linejoin="round" d="M20150 10150l0 -3400c0,-276 224,-500 500,-500l3400 0c276,0 500,224 500,500l0 3400c0,276 -224,500 -500,500l-3400 0c-276,0 -500,-224 -500,-500z"/>
   <circle fill="none" stroke="black" stroke-width="52.92" stroke-linecap="round" stroke-linejoin="round" cx="22350" cy="6950" r="375"/>
   <circle fill="none" stroke="black" stroke-width="52.92" stroke-linecap="round" stroke-linejoin="round" cx="23850" cy="6950" r="375"/>
   <circle fill="none" stroke="black" stroke-width="52.92" stroke-linecap="round" stroke-linejoin="round" cx="21600" cy="6950" r="150"/>
   <circle fill="none" stroke="black" stroke-width="52.92" stroke-linecap="round" stroke-linejoin="round" cx="23100" cy="6950" r="150"/>
   <circle fill="none" stroke="black" stroke-width="52.92" stroke-linecap="round" stroke-linejoin="round" cx="20850" cy="6950" r="375"/>
  </g>
  <g id="_1058466128">
   <path fill="none" stroke="lime" stroke-width="52.92" stroke-linecap="round" stroke-linejoin="round" d="M6050 14850l0 -3400c0,-276 224,-500 500,-500l3400 0c276,0 500,224 500,500l0 3400c0,276 -224,500 -500,500l-3400 0c-276,0 -500,-224 -500,-500z"/>
   <circle fill="none" stroke="black" stroke-width="52.92" stroke-linecap="round" stroke-linejoin="round" cx="8250" cy="11650" r="375"/>
   <circle fill="none" stroke="black" stroke-width="52.92" stroke-linecap="round" stroke-linejoin="round" cx="9750" cy="11650" r="375"/>
   <circle fill="none" stroke="black" stroke-width="52.92" stroke-linecap="round" stroke-linejoin="round" cx="7500" cy="11650" r="150"/>
   <circle fill="none" stroke="black" stroke-width="52.92" stroke-linecap="round" stroke-linejoin="round" cx="9000" cy="11650" r="150"/>
   <circle fill="none" stroke="black" stroke-width="52.92" stroke-linecap="round" stroke-linejoin="round" cx="6750" cy="11650" r="375"/>
  </g>
  <g id="_1058462480">
   <path fill="none" stroke="lime" stroke-width="52.92" stroke-linecap="round" stroke-linejoin="round" d="M10750 14850l0 -3400c0,-276 224,-500 500,-500l3400 0c276,0 500,224 500,500l0 3400c0,276 -224,500 -500,500l-3400 0c-276,0 -500,-224 -500,-500z"/>
   <circle fill="none" stroke="black" stroke-width="52.92" stroke-linecap="round" stroke-linejoin="round" cx="12950" cy="11650" r="375"/>
   <circle fill="none" stroke="black" stroke-width="52.92" stroke-linecap="round" stroke-linejoin="round" cx="14450" cy="11650" r="375"/>
   <circle fill="none" stroke="black" stroke-width="52.92" stroke-linecap="round" stroke-linejoin="round" cx="12200" cy="11650" r="150"/>
   <circle fill="none" stroke="black" stroke-width="52.92" stroke-linecap="round" stroke-linejoin="round" cx="13700" cy="11650" r="150"/>
   <circle fill="none" stroke="black" stroke-width="52.92" stroke-linecap="round" stroke-linejoin="round" cx="11450" cy="11650" r="375"/>
  </g>
  <g id="_1058461424">
   <path fill="none" stroke="lime" stroke-width="52.92" stroke-linecap="round" stroke-linejoin="round" d="M15450 14850l0 -3400c0,-276 224,-500 500,-500l3400 0c276,0 500,224 500,500l0 3400c0,276 -224,500 -500,500l-3400 0c-276,0 -500,-224 -500,-500z"/>
   <circle fill="none" stroke="black" stroke-width="52.92" stroke-linecap="round" stroke-linejoin="round" cx="17650" cy="11650" r="375"/>
   <circle fill="none" stroke="black" stroke-width="52.92" stroke-linecap="round" stroke-linejoin="round" cx="19150" cy="11650" r="375"/>
   <circle fill="none" stroke="black" stroke-width="52.92" stroke-linecap="round" stroke-linejoin="round" cx="16900" cy="11650" r="150"/>
   <circle fill="none" stroke="black" stroke-width="52.92" stroke-linecap="round" stroke-linejoin="round" cx="18400" cy="11650" r="150"/>
   <circle fill="none" stroke="black" stroke-width="52.92" stroke-linecap="round" stroke-linejoin="round" cx="16150" cy="11650" r="375"/>
  </g>
  <g id="_1058459856">
   <path fill="none" stroke="lime" stroke-width="52.92" stroke-linecap="round" stroke-linejoin="round" d="M20150 14850l0 -3400c0,-276 224,-500 500,-500l3400 0c276,0 500,224 500,500l0 3400c0,276 -224,500 -500,500l-3400 0c-276,0 -500,-224 -500,-500z"/>
   <circle fill="none" stroke="black" stroke-width="52.92" stroke-linecap="round" stroke-linejoin="round" cx="22350" cy="11650" r="375"/>
   <circle fill="none" stroke="black" stroke-width="52.92" stroke-linecap="round" stroke-linejoin="round" cx="23850" cy="11650" r="375"/>
   <circle fill="none" stroke="black" stroke-width="52.92" stroke-linecap="round" stroke-linejoin="round" cx="21600" cy="11650" r="150"/>
   <circle fill="none" stroke="black" stroke-width="52.92" stroke-linecap="round" stroke-linejoin="round" cx="23100" cy="11650" r="150"/>
   <circle fill="none" stroke="black" stroke-width="52.92" stroke-linecap="round" stroke-linejoin="round" cx="20850" cy="11650" r="375"/>
  </g>
  <g id="_1058454064">
   <path fill="none" stroke="lime" stroke-width="52.92" stroke-linecap="round" stroke-linejoin="round" d="M6050 19550l0 -3400c0,-276 224,-500 500,-500l3400 0c276,0 500,224 500,500l0 3400c0,276 -224,500 -500,500l-3400 0c-276,0 -500,-224 -500,-500z"/>
   <circle fill="none" stroke="black" stroke-width="52.92" stroke-linecap="round" stroke-linejoin="round" cx="8250" cy="16350" r="375"/>
   <circle fill="none" stroke="black" stroke-width="52.92" stroke-linecap="round" stroke-linejoin="round" cx="9750" cy="16350" r="375"/>
   <circle fill="none" stroke="black" stroke-width="52.92" stroke-linecap="round" stroke-linejoin="round" cx="7500" cy="16350" r="150"/>
   <circle fill="none" stroke="black" stroke-width="52.92" stroke-linecap="round" stroke-linejoin="round" cx="9000" cy="16350" r="150"/>
   <circle fill="none" stroke="black" stroke-width="52.92" stroke-linecap="round" stroke-linejoin="round" cx="6750" cy="16350" r="375"/>
  </g>
  <g id="_1058453616">
   <path fill="none" stroke="lime" stroke-width="52.92" stroke-linecap="round" stroke-linejoin="round" d="M10750 19550l0 -3400c0,-276 224,-500 500,-500l3400 0c276,0 500,224 500,500l0 3400c0,276 -224,500 -500,500l-3400 0c-276,0 -500,-224 -500,-500z"/>
   <circle fill="none" stroke="black" stroke-width="52.92" stroke-linecap="round" stroke-linejoin="round" cx="12950" cy="16350" r="375"/>
   <circle fill="none" stroke="black" stroke-width="52.92" stroke-linecap="round" stroke-linejoin="round" cx="14450" cy="16350" r="375"/>
   <circle fill="none" stroke="black" stroke-width="52.92" stroke-linecap="round" stroke-linejoin="round" cx="12200" cy="16350" r="150"/>
   <circle fill="none" stroke="black" stroke-width="52.92" stroke-linecap="round" stroke-linejoin="round" cx="13700" cy="16350" r="150"/>
   <circle fill="none" stroke="black" stroke-width="52.92" stroke-linecap="round" stroke-linejoin="round" cx="11450" cy="16350" r="375"/>
  </g>
  <g id="_1058448720">
   <path fill="none" stroke="lime" stroke-width="52.92" stroke-linecap="round" stroke-linejoin="round" d="M15450 19550l0 -3400c0,-276 224,-500 500,-500l3400 0c276,0 500,224 500,500l0 3400c0,276 -224,500 -500,500l-3400 0c-276,0 -500,-224 -500,-500z"/>
   <circle fill="none" stroke="black" stroke-width="52.92" stroke-linecap="round" stroke-linejoin="round" cx="17650" cy="16350" r="375"/>
   <circle fill="none" stroke="black" stroke-width="52.92" stroke-linecap="round" stroke-linejoin="round" cx="19150" cy="16350" r="375"/>
   <circle fill="none" stroke="black" stroke-width="52.92" stroke-linecap="round" stroke-linejoin="round" cx="16900" cy="16350" r="150"/>
   <circle fill="none" stroke="black" stroke-width="52.92" stroke-linecap="round" stroke-linejoin="round" cx="18400" cy="16350" r="150"/>
   <circle fill="none" stroke="black" stroke-width="52.92" stroke-linecap="round" stroke-linejoin="round" cx="16150" cy="16350" r="375"/>
  </g>
  <g id="_1058446512">
   <path fill="none" stroke="lime" stroke-width="52.92" stroke-linecap="round" stroke-linejoin="round" d="M20150 19550l0 -3400c0,-276 224,-500 500,-500l3400 0c276,0 500,224 500,500l0 3400c0,276 -224,500 -500,500l-3400 0c-276,0 -500,-224 -500,-500z"/>
   <circle fill="none" stroke="black" stroke-width="52.92" stroke-linecap="round" stroke-linejoin="round" cx="22350" cy="16350" r="375"/>
   <circle fill="none" stroke="black" stroke-width="52.92" stroke-linecap="round" stroke-linejoin="round" cx="23850" cy="16350" r="375"/>
   <circle fill="none" stroke="black" stroke-width="52.92" stroke-linecap="round" stroke-linejoin="round" cx="21600" cy="16350" r="150"/>
   <circle fill="none" stroke="black" stroke-width="52.92" stroke-linecap="round" stroke-linejoin="round" cx="23100" cy="16350" r="150"/>
   <circle fill="none" stroke="black" stroke-width="52.92" stroke-linecap="round" stroke-linejoin="round" cx="20850" cy="16350" r="375"/>
  </g>
  <g id="_887496496">
   <path fill="none" stroke="lime" stroke-width="52.92" stroke-linecap="round" stroke-linejoin="round" d="M6050 24250l0 -3400c0,-276 224,-500 500,-500l3400 0c276,0 500,224 500,500l0 3400c0,276 -224,500 -500,500l-3400 0c-276,0 -500,-224 -500,-500z"/>
   <circle fill="none" stroke="black" stroke-width="52.92" stroke-linecap="round" stroke-linejoin="round" cx="8250" cy="21050" r="375"/>
   <circle fill="none" stroke="black" stroke-width="52.92" stroke-linecap="round" stroke-linejoin="round" cx="9750" cy="21050" r="375"/>
   <circle fill="none" stroke="black" stroke-width="52.92" stroke-linecap="round" stroke-linejoin="round" cx="7500" cy="21050" r="150"/>
   <circle fill="none" stroke="black" stroke-width="52.92" stroke-linecap="round" stroke-linejoin="round" cx="9000" cy="21050" r="150"/>
   <circle fill="none" stroke="black" stroke-width="52.92" stroke-linecap="round" stroke-linejoin="round" cx="6750" cy="21050" r="375"/>
  </g>
  <g id="_887493072">
   <path fill="none" stroke="lime" stroke-width="52.92" stroke-linecap="round" stroke-linejoin="round" d="M10750 24250l0 -3400c0,-276 224,-500 500,-500l3400 0c276,0 500,224 500,500l0 3400c0,276 -224,500 -500,500l-3400 0c-276,0 -500,-224 -500,-500z"/>
   <circle fill="none" stroke="black" stroke-width="52.92" stroke-linecap="round" stroke-linejoin="round" cx="12950" cy="21050" r="375"/>
   <circle fill="none" stroke="black" stroke-width="52.92" stroke-linecap="round" stroke-linejoin="round" cx="14450" cy="21050" r="375"/>
   <circle fill="none" stroke="black" stroke-width="52.92" stroke-linecap="round" stroke-linejoin="round" cx="12200" cy="21050" r="150"/>
   <circle fill="none" stroke="black" stroke-width="52.92" stroke-linecap="round" stroke-linejoin="round" cx="13700" cy="21050" r="150"/>
   <circle fill="none" stroke="black" stroke-width="52.92" stroke-linecap="round" stroke-linejoin="round" cx="11450" cy="21050" r="375"/>
  </g>
  <g id="_1053219952">
   <path fill="none" stroke="lime" stroke-width="52.92" stroke-linecap="round" stroke-linejoin="round" d="M15450 24250l0 -3400c0,-276 224,-500 500,-500l3400 0c276,0 500,224 500,500l0 3400c0,276 -224,500 -500,500l-3400 0c-276,0 -500,-224 -500,-500z"/>
   <circle fill="none" stroke="black" stroke-width="52.92" stroke-linecap="round" stroke-linejoin="round" cx="17650" cy="21050" r="375"/>
   <circle fill="none" stroke="black" stroke-width="52.92" stroke-linecap="round" stroke-linejoin="round" cx="19150" cy="21050" r="375"/>
   <circle fill="none" stroke="black" stroke-width="52.92" stroke-linecap="round" stroke-linejoin="round" cx="16900" cy="21050" r="150"/>
   <circle fill="none" stroke="black" stroke-width="52.92" stroke-linecap="round" stroke-linejoin="round" cx="18400" cy="21050" r="150"/>
   <circle fill="none" stroke="black" stroke-width="52.92" stroke-linecap="round" stroke-linejoin="round" cx="16150" cy="21050" r="375"/>
  </g>
  <g id="_1053214672">
   <path fill="none" stroke="lime" stroke-width="52.92" stroke-linecap="round" stroke-linejoin="round" d="M20150 24250l0 -3400c0,-276 224,-500 500,-500l3400 0c276,0 500,224 500,500l0 3400c0,276 -224,500 -500,500l-3400 0c-276,0 -500,-224 -500,-500z"/>
   <circle fill="none" stroke="black" stroke-width="52.92" stroke-linecap="round" stroke-linejoin="round" cx="22350" cy="21050" r="375"/>
   <circle fill="none" stroke="black" stroke-width="52.92" stroke-linecap="round" stroke-linejoin="round" cx="23850" cy="21050" r="375"/>
   <circle fill="none" stroke="black" stroke-width="52.92" stroke-linecap="round" stroke-linejoin="round" cx="21600" cy="21050" r="150"/>
   <circle fill="none" stroke="black" stroke-width="52.92" stroke-linecap="round" stroke-linejoin="round" cx="23100" cy="21050" r="150"/>
   <circle fill="none" stroke="black" stroke-width="52.92" stroke-linecap="round" stroke-linejoin="round" cx="20850" cy="21050" r="375"/>
  </g>
  <g id="_885655488">
   <path fill="none" stroke="lime" stroke-width="52.92" stroke-linecap="round" stroke-linejoin="round" d="M6050 28950l0 -3400c0,-276 224,-500 500,-500l3400 0c276,0 500,224 500,500l0 3400c0,276 -224,500 -500,500l-3400 0c-276,0 -500,-224 -500,-500z"/>
   <circle fill="none" stroke="black" stroke-width="52.92" stroke-linecap="round" stroke-linejoin="round" cx="8250" cy="25750" r="375"/>
   <circle fill="none" stroke="black" stroke-width="52.92" stroke-linecap="round" stroke-linejoin="round" cx="9750" cy="25750" r="375"/>
   <circle fill="none" stroke="black" stroke-width="52.92" stroke-linecap="round" stroke-linejoin="round" cx="7500" cy="25750" r="150"/>
   <circle fill="none" stroke="black" stroke-width="52.92" stroke-linecap="round" stroke-linejoin="round" cx="9000" cy="25750" r="150"/>
   <circle fill="none" stroke="black" stroke-width="52.92" stroke-linecap="round" stroke-linejoin="round" cx="6750" cy="25750" r="375"/>
  </g>
  <g id="_885663520">
   <path fill="none" stroke="lime" stroke-width="52.92" stroke-linecap="round" stroke-linejoin="round" d="M10750 28950l0 -3400c0,-276 224,-500 500,-500l3400 0c276,0 500,224 500,500l0 3400c0,276 -224,500 -500,500l-3400 0c-276,0 -500,-224 -500,-500z"/>
   <circle fill="none" stroke="black" stroke-width="52.92" stroke-linecap="round" stroke-linejoin="round" cx="12950" cy="25750" r="375"/>
   <circle fill="none" stroke="black" stroke-width="52.92" stroke-linecap="round" stroke-linejoin="round" cx="14450" cy="25750" r="375"/>
   <circle fill="none" stroke="black" stroke-width="52.92" stroke-linecap="round" stroke-linejoin="round" cx="12200" cy="25750" r="150"/>
   <circle fill="none" stroke="black" stroke-width="52.92" stroke-linecap="round" stroke-linejoin="round" cx="13700" cy="25750" r="150"/>
   <circle fill="none" stroke="black" stroke-width="52.92" stroke-linecap="round" stroke-linejoin="round" cx="11450" cy="25750" r="375"/>
  </g>
  <g id="_885658848">
   <path fill="none" stroke="lime" stroke-width="52.92" stroke-linecap="round" stroke-linejoin="round" d="M15450 28950l0 -3400c0,-276 224,-500 500,-500l3400 0c276,0 500,224 500,500l0 3400c0,276 -224,500 -500,500l-3400 0c-276,0 -500,-224 -500,-500z"/>
   <circle fill="none" stroke="black" stroke-width="52.92" stroke-linecap="round" stroke-linejoin="round" cx="17650" cy="25750" r="375"/>
   <circle fill="none" stroke="black" stroke-width="52.92" stroke-linecap="round" stroke-linejoin="round" cx="19150" cy="25750" r="375"/>
   <circle fill="none" stroke="black" stroke-width="52.92" stroke-linecap="round" stroke-linejoin="round" cx="16900" cy="25750" r="150"/>
   <circle fill="none" stroke="black" stroke-width="52.92" stroke-linecap="round" stroke-linejoin="round" cx="18400" cy="25750" r="150"/>
   <circle fill="none" stroke="black" stroke-width="52.92" stroke-linecap="round" stroke-linejoin="round" cx="16150" cy="25750" r="375"/>
  </g>
  <g id="_885656704">
   <path fill="none" stroke="lime" stroke-width="52.92" stroke-linecap="round" stroke-linejoin="round" d="M20150 28950l0 -3400c0,-276 224,-500 500,-500l3400 0c276,0 500,224 500,500l0 3400c0,276 -224,500 -500,500l-3400 0c-276,0 -500,-224 -500,-500z"/>
   <circle fill="none" stroke="black" stroke-width="52.92" stroke-linecap="round" stroke-linejoin="round" cx="22350" cy="25750" r="375"/>
   <circle fill="none" stroke="black" stroke-width="52.92" stroke-linecap="round" stroke-linejoin="round" cx="23850" cy="25750" r="375"/>
   <circle fill="none" stroke="black" stroke-width="52.92" stroke-linecap="round" stroke-linejoin="round" cx="21600" cy="25750" r="150"/>
   <circle fill="none" stroke="black" stroke-width="52.92" stroke-linecap="round" stroke-linejoin="round" cx="23100" cy="25750" r="150"/>
   <circle fill="none" stroke="black" stroke-width="52.92" stroke-linecap="round" stroke-linejoin="round" cx="20850" cy="25750" r="375"/>
  </g>
 </g>
</svg>
