  0
SECTION
  2
HEADER
  9
$ACADVER
  1
AC1021
  9
$ACADMAINTVER
 70
    25
  9
$DWGCODEPAGE
  3
ANSI_1252
  9
$INSBASE
 10
0.0
 20
0.0
 30
0.0
  9
$EXTMIN
 10
-6.72646
 20
-2.22646
 30
0.0
  9
$EXTMAX
 10
6.72646
 20
2.22646
 30
0.0
  9
$LIMMIN
 10
0.0
 20
0.0
  9
$LIMMAX
 10
12.0
 20
9.0
  9
$ORTHOMODE
 70
     0
  9
$REGENMODE
 70
     1
  9
$FILLMODE
 70
     1
  9
$QTEXTMODE
 70
     0
  9
$MIRRTEXT
 70
     1
  9
$LTSCALE
 40
1.0
  9
$ATTMODE
 70
     1
  9
$TEXTSIZE
 40
0.2
  9
$TRACEWID
 40
0.05
  9
$TEXTSTYLE
  7
Standard
  9
$CLAYER
  8
0
  9
$CELTYPE
  6
ByLayer
  9
$CECOLOR
 62
   256
  9
$CELTSCALE
 40
1.0
  9
$DISPSILH
 70
     0
  9
$DIMSCALE
 40
1.0
  9
$DIMASZ
 40
0.18
  9
$DIMEXO
 40
0.0625
  9
$DIMDLI
 40
0.38
  9
$DIMRND
 40
0.0
  9
$DIMDLE
 40
0.0
  9
$DIMEXE
 40
0.18
  9
$DIMTP
 40
0.0
  9
$DIMTM
 40
0.0
  9
$DIMTXT
 40
0.18
  9
$DIMCEN
 40
0.09
  9
$DIMTSZ
 40
0.0
  9
$DIMTOL
 70
     0
  9
$DIMLIM
 70
     0
  9
$DIMTIH
 70
     1
  9
$DIMTOH
 70
     1
  9
$DIMSE1
 70
     0
  9
$DIMSE2
 70
     0
  9
$DIMTAD
 70
     0
  9
$DIMZIN
 70
     0
  9
$DIMBLK
  1

  9
$DIMASO
 70
     1
  9
$DIMSHO
 70
     1
  9
$DIMPOST
  1

  9
$DIMAPOST
  1

  9
$DIMALT
 70
     0
  9
$DIMALTD
 70
     2
  9
$DIMALTF
 40
25.4
  9
$DIMLFAC
 40
1.0
  9
$DIMTOFL
 70
     0
  9
$DIMTVP
 40
0.0
  9
$DIMTIX
 70
     0
  9
$DIMSOXD
 70
     0
  9
$DIMSAH
 70
     0
  9
$DIMBLK1
  1

  9
$DIMBLK2
  1

  9
$DIMSTYLE
  2
Standard
  9
$DIMCLRD
 70
     0
  9
$DIMCLRE
 70
     0
  9
$DIMCLRT
 70
     0
  9
$DIMTFAC
 40
1.0
  9
$DIMGAP
 40
0.09
  9
$DIMJUST
 70
     0
  9
$DIMSD1
 70
     0
  9
$DIMSD2
 70
     0
  9
$DIMTOLJ
 70
     1
  9
$DIMTZIN
 70
     0
  9
$DIMALTZ
 70
     0
  9
$DIMALTTZ
 70
     0
  9
$DIMUPT
 70
     0
  9
$DIMDEC
 70
     4
  9
$DIMTDEC
 70
     4
  9
$DIMALTU
 70
     2
  9
$DIMALTTD
 70
     2
  9
$DIMTXSTY
  7
Standard
  9
$DIMAUNIT
 70
     0
  9
$DIMADEC
 70
     0
  9
$DIMALTRND
 40
0.0
  9
$DIMAZIN
 70
     0
  9
$DIMDSEP
 70
    46
  9
$DIMATFIT
 70
     3
  9
$DIMFRAC
 70
     0
  9
$DIMLDRBLK
  1

  9
$DIMLUNIT
 70
     2
  9
$DIMLWD
 70
    -2
  9
$DIMLWE
 70
    -2
  9
$DIMTMOVE
 70
     0
  9
$DIMFXL
 40
1.0
  9
$DIMFXLON
 70
     0
  9
$DIMJOGANG
 40
0.7853981633974483
  9
$DIMTFILL
 70
     0
  9
$DIMTFILLCLR
 70
     0
  9
$DIMARCSYM
 70
     0
  9
$DIMLTYPE
  6

  9
$DIMLTEX1
  6

  9
$DIMLTEX2
  6

  9
$LUNITS
 70
     2
  9
$LUPREC
 70
     4
  9
$SKETCHINC
 40
0.1
  9
$FILLETRAD
 40
0.5
  9
$AUNITS
 70
     0
  9
$AUPREC
 70
     0
  9
$MENU
  1
.
  9
$ELEVATION
 40
0.0
  9
$PELEVATION
 40
0.0
  9
$THICKNESS
 40
0.0
  9
$LIMCHECK
 70
     0
  9
$CHAMFERA
 40
0.5
  9
$CHAMFERB
 40
0.5
  9
$CHAMFERC
 40
1.0
  9
$CHAMFERD
 40
0.0
  9
$SKPOLY
 70
     0
  9
$TDCREATE
 40
2460566.724518831
  9
$TDUCREATE
 40
2460566.682852164
  9
$TDUPDATE
 40
2460566.724518947
  9
$TDUUPDATE
 40
2460566.68285228
  9
$TDINDWG
 40
0.0000000116
  9
$TDUSRTIMER
 40
0.0000000116
  9
$USRTIMER
 70
     1
  9
$ANGBASE
 50
0.0
  9
$ANGDIR
 70
     0
  9
$PDMODE
 70
     0
  9
$PDSIZE
 40
0.0
  9
$PLINEWID
 40
0.0
  9
$SPLFRAME
 70
     0
  9
$SPLINETYPE
 70
     6
  9
$SPLINESEGS
 70
     8
  9
$HANDSEED
  5
81
  9
$SURFTAB1
 70
     6
  9
$SURFTAB2
 70
     6
  9
$SURFTYPE
 70
     6
  9
$SURFU
 70
     6
  9
$SURFV
 70
     6
  9
$UCSBASE
  2

  9
$UCSNAME
  2

  9
$UCSORG
 10
0.0
 20
0.0
 30
0.0
  9
$UCSXDIR
 10
1.0
 20
0.0
 30
0.0
  9
$UCSYDIR
 10
0.0
 20
1.0
 30
0.0
  9
$UCSORTHOREF
  2

  9
$UCSORTHOVIEW
 70
     0
  9
$UCSORGTOP
 10
0.0
 20
0.0
 30
0.0
  9
$UCSORGBOTTOM
 10
0.0
 20
0.0
 30
0.0
  9
$UCSORGLEFT
 10
0.0
 20
0.0
 30
0.0
  9
$UCSORGRIGHT
 10
0.0
 20
0.0
 30
0.0
  9
$UCSORGFRONT
 10
0.0
 20
0.0
 30
0.0
  9
$UCSORGBACK
 10
0.0
 20
0.0
 30
0.0
  9
$PUCSBASE
  2

  9
$PUCSNAME
  2

  9
$PUCSORG
 10
0.0
 20
0.0
 30
0.0
  9
$PUCSXDIR
 10
1.0
 20
0.0
 30
0.0
  9
$PUCSYDIR
 10
0.0
 20
1.0
 30
0.0
  9
$PUCSORTHOREF
  2

  9
$PUCSORTHOVIEW
 70
     0
  9
$PUCSORGTOP
 10
0.0
 20
0.0
 30
0.0
  9
$PUCSORGBOTTOM
 10
0.0
 20
0.0
 30
0.0
  9
$PUCSORGLEFT
 10
0.0
 20
0.0
 30
0.0
  9
$PUCSORGRIGHT
 10
0.0
 20
0.0
 30
0.0
  9
$PUCSORGFRONT
 10
0.0
 20
0.0
 30
0.0
  9
$PUCSORGBACK
 10
0.0
 20
0.0
 30
0.0
  9
$USERI1
 70
     0
  9
$USERI2
 70
     0
  9
$USERI3
 70
     0
  9
$USERI4
 70
     0
  9
$USERI5
 70
     0
  9
$USERR1
 40
0.0
  9
$USERR2
 40
0.0
  9
$USERR3
 40
0.0
  9
$USERR4
 40
0.0
  9
$USERR5
 40
0.0
  9
$WORLDVIEW
 70
     1
  9
$SHADEDGE
 70
     3
  9
$SHADEDIF
 70
    70
  9
$TILEMODE
 70
     1
  9
$MAXACTVP
 70
    64
  9
$PINSBASE
 10
0.0
 20
0.0
 30
0.0
  9
$PLIMCHECK
 70
     0
  9
$PEXTMIN
 10
1.000000000000000E+20
 20
1.000000000000000E+20
 30
1.000000000000000E+20
  9
$PEXTMAX
 10
-1.000000000000000E+20
 20
-1.000000000000000E+20
 30
-1.000000000000000E+20
  9
$PLIMMIN
 10
0.0
 20
0.0
  9
$PLIMMAX
 10
12.0
 20
9.0
  9
$UNITMODE
 70
     0
  9
$VISRETAIN
 70
     1
  9
$PLINEGEN
 70
     0
  9
$PSLTSCALE
 70
     1
  9
$TREEDEPTH
 70
  3020
  9
$CMLSTYLE
  2
Standard
  9
$CMLJUST
 70
     0
  9
$CMLSCALE
 40
1.0
  9
$PROXYGRAPHICS
 70
     1
  9
$MEASUREMENT
 70
     0
  9
$CELWEIGHT
370
    -1
  9
$ENDCAPS
280
     0
  9
$JOINSTYLE
280
     0
  9
$LWDISPLAY
290
     0
  9
$INSUNITS
 70
     5
  9
$HYPERLINKBASE
  1

  9
$STYLESHEET
  1

  9
$XEDIT
290
     1
  9
$CEPSNTYPE
380
     0
  9
$PSTYLEMODE
290
     1
  9
$FINGERPRINTGUID
  2
{2DF89393-6AB3-49B3-896F-10BED4CF7275}
  9
$VERSIONGUID
  2
{FAEB1C32-E019-11D5-929B-00C0DF256EC4}
  9
$EXTNAMES
290
     1
  9
$PSVPSCALE
 40
0.0
  9
$OLESTARTUP
290
     0
  9
$SORTENTS
280
   127
  9
$INDEXCTL
280
     0
  9
$HIDETEXT
280
     1
  9
$XCLIPFRAME
290
     0
  9
$HALOGAP
280
     0
  9
$OBSCOLOR
 70
   257
  9
$OBSLTYPE
280
     0
  9
$INTERSECTIONDISPLAY
280
     0
  9
$INTERSECTIONCOLOR
 70
   257
  9
$DIMASSOC
280
     2
  9
$PROJECTNAME
  1

  9
$CAMERADISPLAY
290
     0
  9
$LENSLENGTH
 40
50.0
  9
$CAMERAHEIGHT
 40
0.0
  9
$STEPSPERSEC
 40
2.0
  9
$STEPSIZE
 40
6.0
  9
$3DDWFPREC
 40
2.0
  9
$PSOLWIDTH
 40
0.25
  9
$PSOLHEIGHT
 40
4.0
  9
$LOFTANG1
 40
1.570796326794897
  9
$LOFTANG2
 40
1.570796326794897
  9
$LOFTMAG1
 40
0.0
  9
$LOFTMAG2
 40
0.0
  9
$LOFTPARAM
 70
     7
  9
$LOFTNORMALS
280
     1
  9
$LATITUDE
 40
37.795
  9
$LONGITUDE
 40
-122.394
  9
$NORTHDIRECTION
 40
0.0
  9
$TIMEZONE
 70
 -8000
  9
$LIGHTGLYPHDISPLAY
280
     1
  9
$TILEMODELIGHTSYNCH
280
     1
  9
$SOLIDHIST
280
     1
  9
$SHOWHIST
280
     1
  9
$DWFFRAME
280
     2
  9
$DGNFRAME
280
     2
  9
$REALWORLDSCALE
290
     1
  9
$INTERFERECOLOR
 62
   256
  9
$CSHADOW
280
     0
  9
$SHADOWPLANELOCATION
 40
0.0
  0
ENDSEC
  0
SECTION
  2
CLASSES
  0
CLASS
  1
ACDBDICTIONARYWDFLT
  2
AcDbDictionaryWithDefault
  3
ObjectDBX Classes
 90
        0
 91
        4
280
     0
281
     0
  0
CLASS
  1
VISUALSTYLE
  2
AcDbVisualStyle
  3
ObjectDBX Classes
 90
     4095
 91
        4
280
     0
281
     0
  0
CLASS
  1
MATERIAL
  2
AcDbMaterial
  3
ObjectDBX Classes
 90
     1153
 91
        4
280
     0
281
     0
  0
ENDSEC
  0
SECTION
  2
TABLES
  0
TABLE
  2
VPORT
  5
8
330
0
100
AcDbSymbolTable
 70
     1
  0
VPORT
  5
29
330
8
100
AcDbSymbolTableRecord
100
AcDbViewportTableRecord
  2
*Active
 70
     0
 10
0.0
 20
0.0
 11
1.0
 21
1.0
 12
10.42990654205607
 22
4.5
 13
0.0
 23
0.0
 14
0.5
 24
0.5
 15
0.5
 25
0.5
 16
0.0
 26
0.0
 36
1.0
 17
0.0
 27
0.0
 37
0.0
 40
9.0
 41
1.972972972850329
 42
50.0
 43
0.0
 44
0.0
 50
0.0
 51
0.0
 71
     0
 72
   100
 73
     1
 74
     3
 75
     0
 76
     0
 77
     0
 78
     0
281
     0
 65
     1
110
0.0
120
0.0
130
0.0
111
1.0
121
0.0
131
0.0
112
0.0
122
1.0
132
0.0
 79
     0
146
0.0
 60
     3
 61
     5
292
     1
282
     1
141
0.0
142
0.0
 63
   250
  0
ENDTAB
  0
TABLE
  2
LTYPE
  5
5
330
0
100
AcDbSymbolTable
 70
     1
  0
LTYPE
  5
14
330
5
100
AcDbSymbolTableRecord
100
AcDbLinetypeTableRecord
  2
ByBlock
 70
     0
  3

 72
    65
 73
     0
 40
0.0
  0
LTYPE
  5
15
330
5
100
AcDbSymbolTableRecord
100
AcDbLinetypeTableRecord
  2
ByLayer
 70
     0
  3

 72
    65
 73
     0
 40
0.0
  0
LTYPE
  5
16
330
5
100
AcDbSymbolTableRecord
100
AcDbLinetypeTableRecord
  2
Continuous
 70
     0
  3
Solid line
 72
    65
 73
     0
 40
0.0
  0
ENDTAB
  0
TABLE
  2
LAYER
  5
2
330
0
100
AcDbSymbolTable
 70
     2
  0
LAYER
  5
10
330
2
100
AcDbSymbolTableRecord
100
AcDbLayerTableRecord
  2
0
 70
     0
 62
     7
  6
Continuous
370
    -3
390
F
347
3E
  0
LAYER
  5
40
330
2
100
AcDbSymbolTableRecord
100
AcDbLayerTableRecord
  2
Layer 1
 70
     0
 62
     7
  6
Continuous
370
    -3
390
F
347
3E
  0
ENDTAB
  0
TABLE
  2
STYLE
  5
3
330
0
100
AcDbSymbolTable
 70
     1
  0
STYLE
  5
11
330
3
100
AcDbSymbolTableRecord
100
AcDbTextStyleTableRecord
  2
Standard
 70
     0
 40
0.0
 41
1.0
 50
0.0
 71
     0
 42
0.2
  3
txt
  4

  0
ENDTAB
  0
TABLE
  2
VIEW
  5
6
330
0
100
AcDbSymbolTable
 70
     0
  0
ENDTAB
  0
TABLE
  2
UCS
  5
7
330
0
100
AcDbSymbolTable
 70
     0
  0
ENDTAB
  0
TABLE
  2
APPID
  5
9
330
0
100
AcDbSymbolTable
 70
     2
  0
APPID
  5
12
330
9
100
AcDbSymbolTableRecord
100
AcDbRegAppTableRecord
  2
ACAD
 70
     0
  0
APPID
  5
3F
330
9
100
AcDbSymbolTableRecord
100
AcDbRegAppTableRecord
  2
ODA
 70
     0
  0
ENDTAB
  0
TABLE
  2
DIMSTYLE
  5
A
330
0
100
AcDbSymbolTable
 70
     1
100
AcDbDimStyleTable
  0
DIMSTYLE
105
27
330
A
100
AcDbSymbolTableRecord
100
AcDbDimStyleTableRecord
  2
Standard
 70
     0
178
     0
340
11
  0
ENDTAB
  0
TABLE
  2
BLOCK_RECORD
  5
1
330
0
100
AcDbSymbolTable
 70
     1
  0
BLOCK_RECORD
  5
1F
330
1
100
AcDbSymbolTableRecord
100
AcDbBlockTableRecord
  2
*Model_Space
340
22
 70
     0
280
     1
281
     0
  0
BLOCK_RECORD
  5
1B
330
1
100
AcDbSymbolTableRecord
100
AcDbBlockTableRecord
  2
*Paper_Space
340
1E
 70
     0
280
     1
281
     0
  0
BLOCK_RECORD
  5
23
330
1
100
AcDbSymbolTableRecord
100
AcDbBlockTableRecord
  2
*Paper_Space0
340
26
 70
     0
280
     1
281
     0
  0
ENDTAB
  0
ENDSEC
  0
SECTION
  2
BLOCKS
  0
BLOCK
  5
20
330
1F
100
AcDbEntity
  8
0
100
AcDbBlockBegin
  2
*Model_Space
 70
     0
 10
0.0
 20
0.0
 30
0.0
  3
*Model_Space
  1

  0
ENDBLK
  5
21
330
1F
100
AcDbEntity
  8
0
100
AcDbBlockEnd
  0
BLOCK
  5
1C
330
1B
100
AcDbEntity
 67
     1
  8
0
100
AcDbBlockBegin
  2
*Paper_Space
 70
     0
 10
0.0
 20
0.0
 30
0.0
  3
*Paper_Space
  1

  0
ENDBLK
  5
1D
330
1B
100
AcDbEntity
 67
     1
  8
0
100
AcDbBlockEnd
  0
BLOCK
  5
24
330
23
100
AcDbEntity
  8
0
100
AcDbBlockBegin
  2
*Paper_Space0
 70
     0
 10
0.0
 20
0.0
 30
0.0
  3
*Paper_Space0
  1

  0
ENDBLK
  5
25
330
23
100
AcDbEntity
  8
0
100
AcDbBlockEnd
  0
ENDSEC
  0
SECTION
  2
ENTITIES
  0
SPLINE
  5
41
330
1F
100
AcDbEntity
  8
Layer 1
370
    53
100
AcDbSpline
210
0.0
220
0.0
230
1.0
 70
    11
 71
     3
 72
    36
 73
    32
 74
     0
 42
0.0000000001
 43
0.0000000001
 12
1.0
 22
0.0
 32
0.0
 13
1.0
 23
0.0
 33
0.0
 40
0.0
 40
0.0
 40
0.0
 40
0.0
 40
0.1111111111111111
 40
0.1111111111111111
 40
0.1111111111111111
 40
0.1111111111111111
 40
0.2222222222222222
 40
0.2222222222222222
 40
0.2222222222222222
 40
0.2222222222222222
 40
0.3333333333333333
 40
0.3333333333333333
 40
0.3333333333333333
 40
0.3333333333333333
 40
0.4444444444444444
 40
0.4444444444444444
 40
0.4444444444444444
 40
0.4444444444444444
 40
0.5555555555555556
 40
0.5555555555555556
 40
0.5555555555555556
 40
0.5555555555555556
 40
0.6666666666666666
 40
0.6666666666666666
 40
0.6666666666666666
 40
0.6666666666666666
 40
0.7777777777777778
 40
0.7777777777777778
 40
0.7777777777777778
 40
0.7777777777777778
 40
1.0
 40
1.0
 40
1.0
 40
1.0
 10
-6.7
 20
-1.7
 30
0.0
 10
-6.7
 20
-1.7
 30
0.0
 10
-6.7
 20
1.7
 30
0.0
 10
-6.7
 20
1.7
 30
0.0
 10
-6.7
 20
1.7
 30
0.0
 10
-6.7
 20
1.97614
 30
0.0
 10
-6.47614
 20
2.2
 30
0.0
 10
-6.2
 20
2.2
 30
0.0
 10
-6.2
 20
2.2
 30
0.0
 10
-6.2
 20
2.2
 30
0.0
 10
6.2
 20
2.2
 30
0.0
 10
6.2
 20
2.2
 30
0.0
 10
6.2
 20
2.2
 30
0.0
 10
6.47614
 20
2.2
 30
0.0
 10
6.7
 20
1.97614
 30
0.0
 10
6.7
 20
1.7
 30
0.0
 10
6.7
 20
1.7
 30
0.0
 10
6.7
 20
1.7
 30
0.0
 10
6.7
 20
-1.7
 30
0.0
 10
6.7
 20
-1.7
 30
0.0
 10
6.7
 20
-1.7
 30
0.0
 10
6.7
 20
-1.97614
 30
0.0
 10
6.47614
 20
-2.2
 30
0.0
 10
6.2
 20
-2.2
 30
0.0
 10
6.2
 20
-2.2
 30
0.0
 10
6.2
 20
-2.2
 30
0.0
 10
-6.2
 20
-2.2
 30
0.0
 10
-6.2
 20
-2.2
 30
0.0
 10
-6.2
 20
-2.2
 30
0.0
 10
-6.47614
 20
-2.2
 30
0.0
 10
-6.7
 20
-1.97614
 30
0.0
 10
-6.7
 20
-1.7
 30
0.0
  0
ELLIPSE
  5
42
330
1F
100
AcDbEntity
  8
Layer 1
370
    53
100
AcDbEllipse
 10
4.50001
 20
1.49999
 30
0.0
 11
0.0
 21
0.37501
 31
0.0
210
0.0
220
0.0
230
1.0
 40
1.0
 41
0.0
 42
6.283185307179586
  0
ELLIPSE
  5
43
330
1F
100
AcDbEntity
  8
Layer 1
370
    53
100
AcDbEllipse
 10
6.00001
 20
1.49999
 30
0.0
 11
0.0
 21
0.37501
 31
0.0
210
0.0
220
0.0
230
1.0
 40
1.0
 41
0.0
 42
6.283185307179586
  0
ELLIPSE
  5
44
330
1F
100
AcDbEntity
  8
Layer 1
370
    53
100
AcDbEllipse
 10
3.75
 20
1.5
 30
0.0
 11
0.0
 21
0.15
 31
0.0
210
0.0
220
0.0
230
1.0
 40
1.0
 41
0.0
 42
6.283185307179586
  0
ELLIPSE
  5
45
330
1F
100
AcDbEntity
  8
Layer 1
370
    53
100
AcDbEllipse
 10
5.25
 20
1.5
 30
0.0
 11
0.0
 21
0.15
 31
0.0
210
0.0
220
0.0
230
1.0
 40
1.0
 41
0.0
 42
6.283185307179586
  0
ELLIPSE
  5
46
330
1F
100
AcDbEntity
  8
Layer 1
370
    53
100
AcDbEllipse
 10
3.00001
 20
1.49999
 30
0.0
 11
0.0
 21
0.37501
 31
0.0
210
0.0
220
0.0
230
1.0
 40
1.0
 41
0.0
 42
6.283185307179586
  0
ELLIPSE
  5
47
330
1F
100
AcDbEntity
  8
Layer 1
370
    53
100
AcDbEllipse
 10
2.25
 20
1.5
 30
0.0
 11
0.0
 21
0.15
 31
0.0
210
0.0
220
0.0
230
1.0
 40
1.0
 41
0.0
 42
6.283185307179586
  0
ELLIPSE
  5
48
330
1F
100
AcDbEntity
  8
Layer 1
370
    53
100
AcDbEllipse
 10
1.50001
 20
1.49999
 30
0.0
 11
0.0
 21
0.37501
 31
0.0
210
0.0
220
0.0
230
1.0
 40
1.0
 41
0.0
 42
6.283185307179586
  0
ELLIPSE
  5
49
330
1F
100
AcDbEntity
  8
Layer 1
370
    53
100
AcDbEllipse
 10
0.75
 20
1.5
 30
0.0
 11
0.0
 21
0.15
 31
0.0
210
0.0
220
0.0
230
1.0
 40
1.0
 41
0.0
 42
6.283185307179586
  0
ELLIPSE
  5
4A
330
1F
100
AcDbEntity
  8
Layer 1
370
    53
100
AcDbEllipse
 10
0.00001
 20
1.49999
 30
0.0
 11
0.0
 21
0.37501
 31
0.0
210
0.0
220
0.0
230
1.0
 40
1.0
 41
0.0
 42
6.283185307179586
  0
ELLIPSE
  5
4B
330
1F
100
AcDbEntity
  8
Layer 1
370
    53
100
AcDbEllipse
 10
-0.75
 20
1.5
 30
0.0
 11
0.0
 21
0.15
 31
0.0
210
0.0
220
0.0
230
1.0
 40
1.0
 41
0.0
 42
6.283185307179586
  0
ELLIPSE
  5
4C
330
1F
100
AcDbEntity
  8
Layer 1
370
    53
100
AcDbEllipse
 10
-1.49999
 20
1.49999
 30
0.0
 11
0.0
 21
0.37501
 31
0.0
210
0.0
220
0.0
230
1.0
 40
1.0
 41
0.0
 42
6.283185307179586
  0
ELLIPSE
  5
4D
330
1F
100
AcDbEntity
  8
Layer 1
370
    53
100
AcDbEllipse
 10
-2.25
 20
1.5
 30
0.0
 11
0.0
 21
0.15
 31
0.0
210
0.0
220
0.0
230
1.0
 40
1.0
 41
0.0
 42
6.283185307179586
  0
ELLIPSE
  5
4E
330
1F
100
AcDbEntity
  8
Layer 1
370
    53
100
AcDbEllipse
 10
-2.99999
 20
1.49999
 30
0.0
 11
0.0
 21
0.37501
 31
0.0
210
0.0
220
0.0
230
1.0
 40
1.0
 41
0.0
 42
6.283185307179586
  0
ELLIPSE
  5
4F
330
1F
100
AcDbEntity
  8
Layer 1
370
    53
100
AcDbEllipse
 10
-3.75
 20
1.5
 30
0.0
 11
0.0
 21
0.15
 31
0.0
210
0.0
220
0.0
230
1.0
 40
1.0
 41
0.0
 42
6.283185307179586
  0
ELLIPSE
  5
50
330
1F
100
AcDbEntity
  8
Layer 1
370
    53
100
AcDbEllipse
 10
-4.49999
 20
1.49999
 30
0.0
 11
0.0
 21
0.37501
 31
0.0
210
0.0
220
0.0
230
1.0
 40
1.0
 41
0.0
 42
6.283185307179586
  0
ELLIPSE
  5
51
330
1F
100
AcDbEntity
  8
Layer 1
370
    53
100
AcDbEllipse
 10
-5.25
 20
1.5
 30
0.0
 11
0.0
 21
0.15
 31
0.0
210
0.0
220
0.0
230
1.0
 40
1.0
 41
0.0
 42
6.283185307179586
  0
ELLIPSE
  5
52
330
1F
100
AcDbEntity
  8
Layer 1
370
    53
100
AcDbEllipse
 10
-5.99999
 20
1.49999
 30
0.0
 11
0.0
 21
0.37501
 31
0.0
210
0.0
220
0.0
230
1.0
 40
1.0
 41
0.0
 42
6.283185307179586
  0
SPLINE
  5
53
330
1F
100
AcDbEntity
  8
Layer 1
 62
     5
370
    53
100
AcDbSpline
210
0.0
220
0.0
230
1.0
 70
    11
 71
     3
 72
    56
 73
    52
 74
     0
 42
0.0000000001
 43
0.0000000001
 12
1.0
 22
0.0
 32
0.0
 13
1.0
 23
0.0
 33
0.0
 40
0.0
 40
0.0
 40
0.0
 40
0.0
 40
0.0714285714285714
 40
0.0714285714285714
 40
0.0714285714285714
 40
0.0714285714285714
 40
0.1428571428571428
 40
0.1428571428571428
 40
0.1428571428571428
 40
0.1428571428571428
 40
0.2142857142857143
 40
0.2142857142857143
 40
0.2142857142857143
 40
0.2142857142857143
 40
0.2857142857142857
 40
0.2857142857142857
 40
0.2857142857142857
 40
0.2857142857142857
 40
0.3571428571428572
 40
0.3571428571428572
 40
0.3571428571428572
 40
0.3571428571428572
 40
0.4285714285714285
 40
0.4285714285714285
 40
0.4285714285714285
 40
0.4285714285714285
 40
0.5
 40
0.5
 40
0.5
 40
0.5
 40
0.5714285714285714
 40
0.5714285714285714
 40
0.5714285714285714
 40
0.5714285714285714
 40
0.6428571428571429
 40
0.6428571428571429
 40
0.6428571428571429
 40
0.6428571428571429
 40
0.7142857142857143
 40
0.7142857142857143
 40
0.7142857142857143
 40
0.7142857142857143
 40
0.7857142857142857
 40
0.7857142857142857
 40
0.7857142857142857
 40
0.7857142857142857
 40
0.8571428571428571
 40
0.8571428571428571
 40
0.8571428571428571
 40
0.8571428571428571
 40
1.0
 40
1.0
 40
1.0
 40
1.0
 10
-4.34531
 20
-0.55421
 30
0.0
 10
-4.34531
 20
-0.69955
 30
0.0
 10
-4.39611
 20
-0.81174
 30
0.0
 10
-4.49806
 20
-0.89076
 30
0.0
 10
-4.49806
 20
-0.89076
 30
0.0
 10
-4.60002
 20
-0.96943
 30
0.0
 10
-4.74571
 20
-1.00894
 30
0.0
 10
-4.93516
 20
-1.00894
 30
0.0
 10
-4.93516
 20
-1.00894
 30
0.0
 10
-4.93516
 20
-1.00894
 30
0.0
 10
-5.61108
 20
-1.00894
 30
0.0
 10
-5.61108
 20
-1.00894
 30
0.0
 10
-5.61108
 20
-1.00894
 30
0.0
 10
-5.61108
 20
-1.00894
 30
0.0
 10
-5.61108
 20
0.47273
 30
0.0
 10
-5.61108
 20
0.47273
 30
0.0
 10
-5.61108
 20
0.47273
 30
0.0
 10
-5.61108
 20
0.47273
 30
0.0
 10
-4.98172
 20
0.47273
 30
0.0
 10
-4.98172
 20
0.47273
 30
0.0
 10
-4.98172
 20
0.47273
 30
0.0
 10
-4.58838
 20
0.47273
 30
0.0
 10
-4.39188
 20
0.35314
 30
0.0
 10
-4.39188
 20
0.11431
 30
0.0
 10
-4.39188
 20
0.11431
 30
0.0
 10
-4.39188
 20
0.06245
 30
0.0
 10
-4.40423
 20
0.01518
 30
0.0
 10
-4.42927
 20
-0.02786
 30
0.0
 10
-4.42927
 20
-0.02786
 30
0.0
 10
-4.45397
 20
-0.0709
 30
0.0
 10
-4.49171
 20
-0.10865
 30
0.0
 10
-4.54251
 20
-0.14111
 30
0.0
 10
-4.54251
 20
-0.14111
 30
0.0
 10
-4.59296
 20
-0.17356
 30
0.0
 10
-4.6487
 20
-0.19543
 30
0.0
 10
-4.70938
 20
-0.20707
 30
0.0
 10
-4.70938
 20
-0.20707
 30
0.0
 10
-4.70938
 20
-0.20707
 30
0.0
 10
-4.70938
 20
-0.21131
 30
0.0
 10
-4.70938
 20
-0.21131
 30
0.0
 10
-4.70938
 20
-0.21131
 30
0.0
 10
-4.63918
 20
-0.21942
 30
0.0
 10
-4.57603
 20
-0.24024
 30
0.0
 10
-4.51994
 20
-0.27375
 30
0.0
 10
-4.51994
 20
-0.27375
 30
0.0
 10
-4.4642
 20
-0.30726
 30
0.0
 10
-4.42116
 20
-0.34889
 30
0.0
 10
-4.39082
 20
-0.39863
 30
0.0
 10
-4.39082
 20
-0.39863
 30
0.0
 10
-4.36048
 20
-0.44873
 30
0.0
 10
-4.34531
 20
-0.50059
 30
0.0
 10
-4.34531
 20
-0.55421
 30
0.0
  0
SPLINE
  5
54
330
1F
100
AcDbEntity
  8
Layer 1
 62
     5
370
    53
100
AcDbSpline
210
0.0
220
0.0
230
1.0
 70
    11
 71
     3
 72
    28
 73
    24
 74
     0
 42
0.0000000001
 43
0.0000000001
 12
1.0
 22
0.0
 32
0.0
 13
1.0
 23
0.0
 33
0.0
 40
0.0
 40
0.0
 40
0.0
 40
0.0
 40
0.1428571428571428
 40
0.1428571428571428
 40
0.1428571428571428
 40
0.1428571428571428
 40
0.2857142857142857
 40
0.2857142857142857
 40
0.2857142857142857
 40
0.2857142857142857
 40
0.4285714285714285
 40
0.4285714285714285
 40
0.4285714285714285
 40
0.4285714285714285
 40
0.5714285714285714
 40
0.5714285714285714
 40
0.5714285714285714
 40
0.5714285714285714
 40
0.7142857142857143
 40
0.7142857142857143
 40
0.7142857142857143
 40
0.7142857142857143
 40
1.0
 40
1.0
 40
1.0
 40
1.0
 10
-4.86601
 20
0.03705
 30
0.0
 10
-4.86601
 20
0.12842
 30
0.0
 10
-4.93798
 20
0.17428
 30
0.0
 10
-5.08191
 20
0.17428
 30
0.0
 10
-5.08191
 20
0.17428
 30
0.0
 10
-5.08191
 20
0.17428
 30
0.0
 10
-5.16446
 20
0.17428
 30
0.0
 10
-5.16446
 20
0.17428
 30
0.0
 10
-5.16446
 20
0.17428
 30
0.0
 10
-5.16446
 20
0.17428
 30
0.0
 10
-5.16446
 20
-0.10512
 30
0.0
 10
-5.16446
 20
-0.10512
 30
0.0
 10
-5.16446
 20
-0.10512
 30
0.0
 10
-5.16446
 20
-0.10512
 30
0.0
 10
-5.03535
 20
-0.10512
 30
0.0
 10
-5.03535
 20
-0.10512
 30
0.0
 10
-5.03535
 20
-0.10512
 30
0.0
 10
-4.98596
 20
-0.10512
 30
0.0
 10
-4.94503
 20
-0.09172
 30
0.0
 10
-4.91364
 20
-0.06526
 30
0.0
 10
-4.91364
 20
-0.06526
 30
0.0
 10
-4.88189
 20
-0.0388
 30
0.0
 10
-4.86601
 20
-0.00493
 30
0.0
 10
-4.86601
 20
0.03705
 30
0.0
  0
SPLINE
  5
55
330
1F
100
AcDbEntity
  8
Layer 1
 62
     5
370
    53
100
AcDbSpline
210
0.0
220
0.0
230
1.0
 70
    11
 71
     3
 72
    32
 73
    28
 74
     0
 42
0.0000000001
 43
0.0000000001
 12
1.0
 22
0.0
 32
0.0
 13
1.0
 23
0.0
 33
0.0
 40
0.0
 40
0.0
 40
0.0
 40
0.0
 40
0.125
 40
0.125
 40
0.125
 40
0.125
 40
0.25
 40
0.25
 40
0.25
 40
0.25
 40
0.375
 40
0.375
 40
0.375
 40
0.375
 40
0.5
 40
0.5
 40
0.5
 40
0.5
 40
0.625
 40
0.625
 40
0.625
 40
0.625
 40
0.75
 40
0.75
 40
0.75
 40
0.75
 40
1.0
 40
1.0
 40
1.0
 40
1.0
 10
-4.81945
 20
-0.55244
 30
0.0
 10
-4.81945
 20
-0.50976
 30
0.0
 10
-4.83497
 20
-0.47448
 30
0.0
 10
-4.86601
 20
-0.44696
 30
0.0
 10
-4.86601
 20
-0.44696
 30
0.0
 10
-4.89706
 20
-0.41945
 30
0.0
 10
-4.93798
 20
-0.40569
 30
0.0
 10
-4.98878
 20
-0.40569
 30
0.0
 10
-4.98878
 20
-0.40569
 30
0.0
 10
-4.98878
 20
-0.40569
 30
0.0
 10
-5.16446
 20
-0.40569
 30
0.0
 10
-5.16446
 20
-0.40569
 30
0.0
 10
-5.16446
 20
-0.40569
 30
0.0
 10
-5.16446
 20
-0.40569
 30
0.0
 10
-5.16446
 20
-0.70837
 30
0.0
 10
-5.16446
 20
-0.70837
 30
0.0
 10
-5.16446
 20
-0.70837
 30
0.0
 10
-5.16446
 20
-0.70837
 30
0.0
 10
-5.01559
 20
-0.70837
 30
0.0
 10
-5.01559
 20
-0.70837
 30
0.0
 10
-5.01559
 20
-0.70837
 30
0.0
 10
-4.95526
 20
-0.70837
 30
0.0
 10
-4.90729
 20
-0.69426
 30
0.0
 10
-4.87201
 20
-0.66639
 30
0.0
 10
-4.87201
 20
-0.66639
 30
0.0
 10
-4.83708
 20
-0.63852
 30
0.0
 10
-4.81945
 20
-0.60042
 30
0.0
 10
-4.81945
 20
-0.55244
 30
0.0
  0
SPLINE
  5
56
330
1F
100
AcDbEntity
  8
Layer 1
 62
     5
370
    53
100
AcDbSpline
210
0.0
220
0.0
230
1.0
 70
    11
 71
     3
 72
    72
 73
    68
 74
     0
 42
0.0000000001
 43
0.0000000001
 12
1.0
 22
0.0
 32
0.0
 13
1.0
 23
0.0
 33
0.0
 40
0.0
 40
0.0
 40
0.0
 40
0.0
 40
0.0555555555555556
 40
0.0555555555555556
 40
0.0555555555555556
 40
0.0555555555555556
 40
0.1111111111111111
 40
0.1111111111111111
 40
0.1111111111111111
 40
0.1111111111111111
 40
0.1666666666666667
 40
0.1666666666666667
 40
0.1666666666666667
 40
0.1666666666666667
 40
0.2222222222222222
 40
0.2222222222222222
 40
0.2222222222222222
 40
0.2222222222222222
 40
0.2777777777777778
 40
0.2777777777777778
 40
0.2777777777777778
 40
0.2777777777777778
 40
0.3333333333333333
 40
0.3333333333333333
 40
0.3333333333333333
 40
0.3333333333333333
 40
0.3888888888888889
 40
0.3888888888888889
 40
0.3888888888888889
 40
0.3888888888888889
 40
0.4444444444444444
 40
0.4444444444444444
 40
0.4444444444444444
 40
0.4444444444444444
 40
0.5
 40
0.5
 40
0.5
 40
0.5
 40
0.5555555555555556
 40
0.5555555555555556
 40
0.5555555555555556
 40
0.5555555555555556
 40
0.6111111111111112
 40
0.6111111111111112
 40
0.6111111111111112
 40
0.6111111111111112
 40
0.6666666666666666
 40
0.6666666666666666
 40
0.6666666666666666
 40
0.6666666666666666
 40
0.7222222222222222
 40
0.7222222222222222
 40
0.7222222222222222
 40
0.7222222222222222
 40
0.7777777777777778
 40
0.7777777777777778
 40
0.7777777777777778
 40
0.7777777777777778
 40
0.8333333333333334
 40
0.8333333333333334
 40
0.8333333333333334
 40
0.8333333333333334
 40
0.8888888888888888
 40
0.8888888888888888
 40
0.8888888888888888
 40
0.8888888888888888
 40
1.0
 40
1.0
 40
1.0
 40
1.0
 10
-3.51558
 20
-1.00894
 30
0.0
 10
-3.51558
 20
-1.00894
 30
0.0
 10
-3.51558
 20
-0.84596
 30
0.0
 10
-3.51558
 20
-0.84596
 30
0.0
 10
-3.51558
 20
-0.84596
 30
0.0
 10
-3.51558
 20
-0.84596
 30
0.0
 10
-3.51981
 20
-0.84596
 30
0.0
 10
-3.51981
 20
-0.84596
 30
0.0
 10
-3.51981
 20
-0.84596
 30
0.0
 10
-3.55614
 20
-0.89605
 30
0.0
 10
-3.58895
 20
-0.93274
 30
0.0
 10
-3.61823
 20
-0.95602
 30
0.0
 10
-3.61823
 20
-0.95602
 30
0.0
 10
-3.64751
 20
-0.97931
 30
0.0
 10
-3.68068
 20
-0.99836
 30
0.0
 10
-3.71736
 20
-1.01282
 30
0.0
 10
-3.71736
 20
-1.01282
 30
0.0
 10
-3.75441
 20
-1.02728
 30
0.0
 10
-3.79709
 20
-1.03434
 30
0.0
 10
-3.84613
 20
-1.03434
 30
0.0
 10
-3.84613
 20
-1.03434
 30
0.0
 10
-3.96184
 20
-1.03434
 30
0.0
 10
-4.05003
 20
-0.99695
 30
0.0
 10
-4.11036
 20
-0.9218
 30
0.0
 10
-4.11036
 20
-0.9218
 30
0.0
 10
-4.17104
 20
-0.84666
 30
0.0
 10
-4.20138
 20
-0.73589
 30
0.0
 10
-4.20138
 20
-0.58913
 30
0.0
 10
-4.20138
 20
-0.58913
 30
0.0
 10
-4.20138
 20
-0.58913
 30
0.0
 10
-4.20138
 20
0.0494
 30
0.0
 10
-4.20138
 20
0.0494
 30
0.0
 10
-4.20138
 20
0.0494
 30
0.0
 10
-4.20138
 20
0.0494
 30
0.0
 10
-3.76111
 20
0.0494
 30
0.0
 10
-3.76111
 20
0.0494
 30
0.0
 10
-3.76111
 20
0.0494
 30
0.0
 10
-3.76111
 20
0.0494
 30
0.0
 10
-3.76111
 20
-0.55633
 30
0.0
 10
-3.76111
 20
-0.55633
 30
0.0
 10
-3.76111
 20
-0.55633
 30
0.0
 10
-3.76111
 20
-0.6604
 30
0.0
 10
-3.7223
 20
-0.71261
 30
0.0
 10
-3.64469
 20
-0.71261
 30
0.0
 10
-3.64469
 20
-0.71261
 30
0.0
 10
-3.60201
 20
-0.71261
 30
0.0
 10
-3.5699
 20
-0.6985
 30
0.0
 10
-3.54803
 20
-0.67027
 30
0.0
 10
-3.54803
 20
-0.67027
 30
0.0
 10
-3.52651
 20
-0.64205
 30
0.0
 10
-3.51558
 20
-0.60183
 30
0.0
 10
-3.51558
 20
-0.55033
 30
0.0
 10
-3.51558
 20
-0.55033
 30
0.0
 10
-3.51558
 20
-0.55033
 30
0.0
 10
-3.51558
 20
0.0494
 30
0.0
 10
-3.51558
 20
0.0494
 30
0.0
 10
-3.51558
 20
0.0494
 30
0.0
 10
-3.51558
 20
0.0494
 30
0.0
 10
-3.07531
 20
0.0494
 30
0.0
 10
-3.07531
 20
0.0494
 30
0.0
 10
-3.07531
 20
0.0494
 30
0.0
 10
-3.07531
 20
0.0494
 30
0.0
 10
-3.07531
 20
-1.00894
 30
0.0
 10
-3.07531
 20
-1.00894
 30
0.0
 10
-3.07531
 20
-1.00894
 30
0.0
 10
-3.07531
 20
-1.00894
 30
0.0
 10
-3.51558
 20
-1.00894
 30
0.0
 10
-3.51558
 20
-1.00894
 30
0.0
  0
SPLINE
  5
57
330
1F
100
AcDbEntity
  8
Layer 1
 62
     5
370
    53
100
AcDbSpline
210
0.0
220
0.0
230
1.0
 70
    11
 71
     3
 72
    96
 73
    92
 74
     0
 42
0.0000000001
 43
0.0000000001
 12
1.0
 22
0.0
 32
0.0
 13
1.0
 23
0.0
 33
0.0
 40
0.0
 40
0.0
 40
0.0
 40
0.0
 40
0.0416666666666667
 40
0.0416666666666667
 40
0.0416666666666667
 40
0.0416666666666667
 40
0.0833333333333333
 40
0.0833333333333333
 40
0.0833333333333333
 40
0.0833333333333333
 40
0.125
 40
0.125
 40
0.125
 40
0.125
 40
0.1666666666666667
 40
0.1666666666666667
 40
0.1666666666666667
 40
0.1666666666666667
 40
0.2083333333333333
 40
0.2083333333333333
 40
0.2083333333333333
 40
0.2083333333333333
 40
0.25
 40
0.25
 40
0.25
 40
0.25
 40
0.2916666666666667
 40
0.2916666666666667
 40
0.2916666666666667
 40
0.2916666666666667
 40
0.3333333333333333
 40
0.3333333333333333
 40
0.3333333333333333
 40
0.3333333333333333
 40
0.375
 40
0.375
 40
0.375
 40
0.375
 40
0.4166666666666667
 40
0.4166666666666667
 40
0.4166666666666667
 40
0.4166666666666667
 40
0.4583333333333333
 40
0.4583333333333333
 40
0.4583333333333333
 40
0.4583333333333333
 40
0.5
 40
0.5
 40
0.5
 40
0.5
 40
0.5416666666666666
 40
0.5416666666666666
 40
0.5416666666666666
 40
0.5416666666666666
 40
0.5833333333333334
 40
0.5833333333333334
 40
0.5833333333333334
 40
0.5833333333333334
 40
0.625
 40
0.625
 40
0.625
 40
0.625
 40
0.6666666666666666
 40
0.6666666666666666
 40
0.6666666666666666
 40
0.6666666666666666
 40
0.7083333333333334
 40
0.7083333333333334
 40
0.7083333333333334
 40
0.7083333333333334
 40
0.75
 40
0.75
 40
0.75
 40
0.75
 40
0.7916666666666666
 40
0.7916666666666666
 40
0.7916666666666666
 40
0.7916666666666666
 40
0.8333333333333334
 40
0.8333333333333334
 40
0.8333333333333334
 40
0.8333333333333334
 40
0.875
 40
0.875
 40
0.875
 40
0.875
 40
0.9166666666666666
 40
0.9166666666666666
 40
0.9166666666666666
 40
0.9166666666666666
 40
1.0
 40
1.0
 40
1.0
 40
1.0
 10
-2.00427
 20
-0.65722
 30
0.0
 10
-2.00427
 20
-0.77681
 30
0.0
 10
-2.04978
 20
-0.86995
 30
0.0
 10
-2.14115
 20
-0.93556
 30
0.0
 10
-2.14115
 20
-0.93556
 30
0.0
 10
-2.23252
 20
-1.00153
 30
0.0
 10
-2.35952
 20
-1.03434
 30
0.0
 10
-2.52285
 20
-1.03434
 30
0.0
 10
-2.52285
 20
-1.03434
 30
0.0
 10
-2.57048
 20
-1.03434
 30
0.0
 10
-2.62904
 20
-1.0294
 30
0.0
 10
-2.69889
 20
-1.01988
 30
0.0
 10
-2.69889
 20
-1.01988
 30
0.0
 10
-2.76909
 20
-1.01035
 30
0.0
 10
-2.82589
 20
-0.99871
 30
0.0
 10
-2.86999
 20
-0.98495
 30
0.0
 10
-2.86999
 20
-0.98495
 30
0.0
 10
-2.86999
 20
-0.98495
 30
0.0
 10
-2.86999
 20
-0.67662
 30
0.0
 10
-2.86999
 20
-0.67662
 30
0.0
 10
-2.86999
 20
-0.67662
 30
0.0
 10
-2.73981
 20
-0.73448
 30
0.0
 10
-2.63116
 20
-0.76341
 30
0.0
 10
-2.54402
 20
-0.76341
 30
0.0
 10
-2.54402
 20
-0.76341
 30
0.0
 10
-2.45794
 20
-0.76341
 30
0.0
 10
-2.4149
 20
-0.74118
 30
0.0
 10
-2.4149
 20
-0.69638
 30
0.0
 10
-2.4149
 20
-0.69638
 30
0.0
 10
-2.4149
 20
-0.67768
 30
0.0
 10
-2.42478
 20
-0.66216
 30
0.0
 10
-2.44489
 20
-0.65016
 30
0.0
 10
-2.44489
 20
-0.65016
 30
0.0
 10
-2.46464
 20
-0.63817
 30
0.0
 10
-2.51721
 20
-0.61806
 30
0.0
 10
-2.60152
 20
-0.58984
 30
0.0
 10
-2.60152
 20
-0.58984
 30
0.0
 10
-2.69536
 20
-0.56021
 30
0.0
 10
-2.76345
 20
-0.52069
 30
0.0
 10
-2.80613
 20
-0.47201
 30
0.0
 10
-2.80613
 20
-0.47201
 30
0.0
 10
-2.84882
 20
-0.42298
 30
0.0
 10
-2.86999
 20
-0.35912
 30
0.0
 10
-2.86999
 20
-0.28081
 30
0.0
 10
-2.86999
 20
-0.28081
 30
0.0
 10
-2.86999
 20
-0.17109
 30
0.0
 10
-2.82624
 20
-0.08466
 30
0.0
 10
-2.73911
 20
-0.02081
 30
0.0
 10
-2.73911
 20
-0.02081
 30
0.0
 10
-2.65197
 20
0.04304
 30
0.0
 10
-2.52956
 20
0.0748
 30
0.0
 10
-2.37186
 20
0.0748
 30
0.0
 10
-2.37186
 20
0.0748
 30
0.0
 10
-2.27944
 20
0.0748
 30
0.0
 10
-2.18172
 20
0.06139
 30
0.0
 10
-2.07835
 20
0.03458
 30
0.0
 10
-2.07835
 20
0.03458
 30
0.0
 10
-2.07835
 20
0.03458
 30
0.0
 10
-2.07835
 20
-0.26176
 30
0.0
 10
-2.07835
 20
-0.26176
 30
0.0
 10
-2.07835
 20
-0.26176
 30
0.0
 10
-2.12174
 20
-0.24306
 30
0.0
 10
-2.16937
 20
-0.22754
 30
0.0
 10
-2.22123
 20
-0.21484
 30
0.0
 10
-2.22123
 20
-0.21484
 30
0.0
 10
-2.27273
 20
-0.20249
 30
0.0
 10
-2.31612
 20
-0.19614
 30
0.0
 10
-2.3514
 20
-0.19614
 30
0.0
 10
-2.3514
 20
-0.19614
 30
0.0
 10
-2.38033
 20
-0.19614
 30
0.0
 10
-2.40361
 20
-0.20108
 30
0.0
 10
-2.4209
 20
-0.2106
 30
0.0
 10
-2.4209
 20
-0.2106
 30
0.0
 10
-2.43819
 20
-0.22013
 30
0.0
 10
-2.44665
 20
-0.23353
 30
0.0
 10
-2.44665
 20
-0.25082
 30
0.0
 10
-2.44665
 20
-0.25082
 30
0.0
 10
-2.44665
 20
-0.27093
 30
0.0
 10
-2.43748
 20
-0.28716
 30
0.0
 10
-2.41878
 20
-0.2995
 30
0.0
 10
-2.41878
 20
-0.2995
 30
0.0
 10
-2.40009
 20
-0.31185
 30
0.0
 10
-2.36304
 20
-0.32667
 30
0.0
 10
-2.30695
 20
-0.34395
 30
0.0
 10
-2.30695
 20
-0.34395
 30
0.0
 10
-2.199
 20
-0.3757
 30
0.0
 10
-2.12139
 20
-0.41627
 30
0.0
 10
-2.07447
 20
-0.46601
 30
0.0
 10
-2.07447
 20
-0.46601
 30
0.0
 10
-2.02755
 20
-0.5154
 30
0.0
 10
-2.00427
 20
-0.57926
 30
0.0
 10
-2.00427
 20
-0.65722
 30
0.0
  0
SPLINE
  5
58
330
1F
100
AcDbEntity
  8
Layer 1
 62
     5
370
    53
100
AcDbSpline
210
0.0
220
0.0
230
1.0
 70
    11
 71
     3
 72
    76
 73
    72
 74
     0
 42
0.0000000001
 43
0.0000000001
 12
1.0
 22
0.0
 32
0.0
 13
1.0
 23
0.0
 33
0.0
 40
0.0
 40
0.0
 40
0.0
 40
0.0
 40
0.0526315789473684
 40
0.0526315789473684
 40
0.0526315789473684
 40
0.0526315789473684
 40
0.1052631578947368
 40
0.1052631578947368
 40
0.1052631578947368
 40
0.1052631578947368
 40
0.1578947368421053
 40
0.1578947368421053
 40
0.1578947368421053
 40
0.1578947368421053
 40
0.2105263157894737
 40
0.2105263157894737
 40
0.2105263157894737
 40
0.2105263157894737
 40
0.2631578947368421
 40
0.2631578947368421
 40
0.2631578947368421
 40
0.2631578947368421
 40
0.3157894736842105
 40
0.3157894736842105
 40
0.3157894736842105
 40
0.3157894736842105
 40
0.3684210526315789
 40
0.3684210526315789
 40
0.3684210526315789
 40
0.3684210526315789
 40
0.4210526315789473
 40
0.4210526315789473
 40
0.4210526315789473
 40
0.4210526315789473
 40
0.4736842105263158
 40
0.4736842105263158
 40
0.4736842105263158
 40
0.4736842105263158
 40
0.5263157894736842
 40
0.5263157894736842
 40
0.5263157894736842
 40
0.5263157894736842
 40
0.5789473684210527
 40
0.5789473684210527
 40
0.5789473684210527
 40
0.5789473684210527
 40
0.631578947368421
 40
0.631578947368421
 40
0.631578947368421
 40
0.631578947368421
 40
0.6842105263157895
 40
0.6842105263157895
 40
0.6842105263157895
 40
0.6842105263157895
 40
0.7368421052631579
 40
0.7368421052631579
 40
0.7368421052631579
 40
0.7368421052631579
 40
0.7894736842105263
 40
0.7894736842105263
 40
0.7894736842105263
 40
0.7894736842105263
 40
0.8421052631578947
 40
0.8421052631578947
 40
0.8421052631578947
 40
0.8421052631578947
 40
0.8947368421052632
 40
0.8947368421052632
 40
0.8947368421052632
 40
0.8947368421052632
 40
1.0
 40
1.0
 40
1.0
 40
1.0
 10
-1.63632
 20
-1.50636
 30
0.0
 10
-1.67759
 20
-1.50636
 30
0.0
 10
-1.72204
 20
-1.50283
 30
0.0
 10
-1.76967
 20
-1.49542
 30
0.0
 10
-1.76967
 20
-1.49542
 30
0.0
 10
-1.81694
 20
-1.48837
 30
0.0
 10
-1.85963
 20
-1.47778
 30
0.0
 10
-1.89667
 20
-1.46402
 30
0.0
 10
-1.89667
 20
-1.46402
 30
0.0
 10
-1.89667
 20
-1.46402
 30
0.0
 10
-1.89667
 20
-1.13171
 30
0.0
 10
-1.89667
 20
-1.13171
 30
0.0
 10
-1.89667
 20
-1.13171
 30
0.0
 10
-1.87938
 20
-1.14476
 30
0.0
 10
-1.85398
 20
-1.15711
 30
0.0
 10
-1.81976
 20
-1.16804
 30
0.0
 10
-1.81976
 20
-1.16804
 30
0.0
 10
-1.7859
 20
-1.17898
 30
0.0
 10
-1.75344
 20
-1.18462
 30
0.0
 10
-1.72346
 20
-1.18462
 30
0.0
 10
-1.72346
 20
-1.18462
 30
0.0
 10
-1.64161
 20
-1.18462
 30
0.0
 10
-1.58728
 20
-1.15217
 30
0.0
 10
-1.56047
 20
-1.08761
 30
0.0
 10
-1.56047
 20
-1.08761
 30
0.0
 10
-1.56047
 20
-1.08761
 30
0.0
 10
-1.52625
 20
-1.00471
 30
0.0
 10
-1.52625
 20
-1.00471
 30
0.0
 10
-1.52625
 20
-1.00471
 30
0.0
 10
-1.52625
 20
-1.00471
 30
0.0
 10
-1.96864
 20
0.0494
 30
0.0
 10
-1.96864
 20
0.0494
 30
0.0
 10
-1.96864
 20
0.0494
 30
0.0
 10
-1.96864
 20
0.0494
 30
0.0
 10
-1.4818
 20
0.0494
 30
0.0
 10
-1.4818
 20
0.0494
 30
0.0
 10
-1.4818
 20
0.0494
 30
0.0
 10
-1.4818
 20
0.0494
 30
0.0
 10
-1.35339
 20
-0.46108
 30
0.0
 10
-1.35339
 20
-0.46108
 30
0.0
 10
-1.35339
 20
-0.46108
 30
0.0
 10
-1.3287
 20
-0.55633
 30
0.0
 10
-1.31529
 20
-0.62018
 30
0.0
 10
-1.31317
 20
-0.65334
 30
0.0
 10
-1.31317
 20
-0.65334
 30
0.0
 10
-1.31317
 20
-0.65334
 30
0.0
 10
-1.30894
 20
-0.65334
 30
0.0
 10
-1.30894
 20
-0.65334
 30
0.0
 10
-1.30894
 20
-0.65334
 30
0.0
 10
-1.30682
 20
-0.63817
 30
0.0
 10
-1.304
 20
-0.62124
 30
0.0
 10
-1.30012
 20
-0.60254
 30
0.0
 10
-1.30012
 20
-0.60254
 30
0.0
 10
-1.29624
 20
-0.58419
 30
0.0
 10
-1.24262
 20
-0.36688
 30
0.0
 10
-1.13925
 20
0.0494
 30
0.0
 10
-1.13925
 20
0.0494
 30
0.0
 10
-1.13925
 20
0.0494
 30
0.0
 10
-0.71133
 20
0.0494
 30
0.0
 10
-0.71133
 20
0.0494
 30
0.0
 10
-0.71133
 20
0.0494
 30
0.0
 10
-0.71133
 20
0.0494
 30
0.0
 10
-1.1008
 20
-1.03928
 30
0.0
 10
-1.1008
 20
-1.03928
 30
0.0
 10
-1.1008
 20
-1.03928
 30
0.0
 10
-1.15936
 20
-1.20579
 30
0.0
 10
-1.23204
 20
-1.32538
 30
0.0
 10
-1.31847
 20
-1.3977
 30
0.0
 10
-1.31847
 20
-1.3977
 30
0.0
 10
-1.4049
 20
-1.47002
 30
0.0
 10
-1.51073
 20
-1.50636
 30
0.0
 10
-1.63632
 20
-1.50636
 30
0.0
  0
SPLINE
  5
59
330
1F
100
AcDbEntity
  8
Layer 1
 62
     5
370
    53
100
AcDbSpline
210
0.0
220
0.0
230
1.0
 70
    11
 71
     3
 72
   108
 73
   104
 74
     0
 42
0.0000000001
 43
0.0000000001
 12
1.0
 22
0.0
 32
0.0
 13
1.0
 23
0.0
 33
0.0
 40
0.0
 40
0.0
 40
0.0
 40
0.0
 40
0.037037037037037
 40
0.037037037037037
 40
0.037037037037037
 40
0.037037037037037
 40
0.0740740740740741
 40
0.0740740740740741
 40
0.0740740740740741
 40
0.0740740740740741
 40
0.1111111111111111
 40
0.1111111111111111
 40
0.1111111111111111
 40
0.1111111111111111
 40
0.1481481481481481
 40
0.1481481481481481
 40
0.1481481481481481
 40
0.1481481481481481
 40
0.1851851851851852
 40
0.1851851851851852
 40
0.1851851851851852
 40
0.1851851851851852
 40
0.2222222222222222
 40
0.2222222222222222
 40
0.2222222222222222
 40
0.2222222222222222
 40
0.2592592592592592
 40
0.2592592592592592
 40
0.2592592592592592
 40
0.2592592592592592
 40
0.2962962962962963
 40
0.2962962962962963
 40
0.2962962962962963
 40
0.2962962962962963
 40
0.3333333333333333
 40
0.3333333333333333
 40
0.3333333333333333
 40
0.3333333333333333
 40
0.3703703703703703
 40
0.3703703703703703
 40
0.3703703703703703
 40
0.3703703703703703
 40
0.4074074074074074
 40
0.4074074074074074
 40
0.4074074074074074
 40
0.4074074074074074
 40
0.4444444444444444
 40
0.4444444444444444
 40
0.4444444444444444
 40
0.4444444444444444
 40
0.4814814814814815
 40
0.4814814814814815
 40
0.4814814814814815
 40
0.4814814814814815
 40
0.5185185185185185
 40
0.5185185185185185
 40
0.5185185185185185
 40
0.5185185185185185
 40
0.5555555555555556
 40
0.5555555555555556
 40
0.5555555555555556
 40
0.5555555555555556
 40
0.5925925925925926
 40
0.5925925925925926
 40
0.5925925925925926
 40
0.5925925925925926
 40
0.6296296296296297
 40
0.6296296296296297
 40
0.6296296296296297
 40
0.6296296296296297
 40
0.6666666666666666
 40
0.6666666666666666
 40
0.6666666666666666
 40
0.6666666666666666
 40
0.7037037037037037
 40
0.7037037037037037
 40
0.7037037037037037
 40
0.7037037037037037
 40
0.7407407407407407
 40
0.7407407407407407
 40
0.7407407407407407
 40
0.7407407407407407
 40
0.7777777777777778
 40
0.7777777777777778
 40
0.7777777777777778
 40
0.7777777777777778
 40
0.8148148148148148
 40
0.8148148148148148
 40
0.8148148148148148
 40
0.8148148148148148
 40
0.8518518518518519
 40
0.8518518518518519
 40
0.8518518518518519
 40
0.8518518518518519
 40
0.8888888888888888
 40
0.8888888888888888
 40
0.8888888888888888
 40
0.8888888888888888
 40
0.9259259259259259
 40
0.9259259259259259
 40
0.9259259259259259
 40
0.9259259259259259
 40
1.0
 40
1.0
 40
1.0
 40
1.0
 10
1.68967
 20
-1.00894
 30
0.0
 10
1.68967
 20
-1.00894
 30
0.0
 10
1.21518
 20
-1.00894
 30
0.0
 10
1.21518
 20
-1.00894
 30
0.0
 10
1.21518
 20
-1.00894
 30
0.0
 10
1.21518
 20
-1.00894
 30
0.0
 10
1.00952
 20
-0.16439
 30
0.0
 10
1.00952
 20
-0.16439
 30
0.0
 10
1.00952
 20
-0.16439
 30
0.0
 10
1.00352
 20
-0.1404
 30
0.0
 10
0.99646
 20
-0.08043
 30
0.0
 10
0.98905
 20
0.01553
 30
0.0
 10
0.98905
 20
0.01553
 30
0.0
 10
0.98905
 20
0.01553
 30
0.0
 10
0.98482
 20
0.01553
 30
0.0
 10
0.98482
 20
0.01553
 30
0.0
 10
0.98482
 20
0.01553
 30
0.0
 10
0.97459
 20
-0.06914
 30
0.0
 10
0.96436
 20
-0.12911
 30
0.0
 10
0.95483
 20
-0.16439
 30
0.0
 10
0.95483
 20
-0.16439
 30
0.0
 10
0.95483
 20
-0.16439
 30
0.0
 10
0.73258
 20
-1.00894
 30
0.0
 10
0.73258
 20
-1.00894
 30
0.0
 10
0.73258
 20
-1.00894
 30
0.0
 10
0.73258
 20
-1.00894
 30
0.0
 10
0.23058
 20
-1.00894
 30
0.0
 10
0.23058
 20
-1.00894
 30
0.0
 10
0.23058
 20
-1.00894
 30
0.0
 10
0.23058
 20
-1.00894
 30
0.0
 10
-0.1229
 20
0.47273
 30
0.0
 10
-0.1229
 20
0.47273
 30
0.0
 10
-0.1229
 20
0.47273
 30
0.0
 10
-0.1229
 20
0.47273
 30
0.0
 10
0.36675
 20
0.47273
 30
0.0
 10
0.36675
 20
0.47273
 30
0.0
 10
0.36675
 20
0.47273
 30
0.0
 10
0.36675
 20
0.47273
 30
0.0
 10
0.49093
 20
-0.39934
 30
0.0
 10
0.49093
 20
-0.39934
 30
0.0
 10
0.49093
 20
-0.39934
 30
0.0
 10
0.49305
 20
-0.41063
 30
0.0
 10
0.49622
 20
-0.44238
 30
0.0
 10
0.5001
 20
-0.49565
 30
0.0
 10
0.5001
 20
-0.49565
 30
0.0
 10
0.5001
 20
-0.49565
 30
0.0
 10
0.50645
 20
-0.58137
 30
0.0
 10
0.50645
 20
-0.58137
 30
0.0
 10
0.50645
 20
-0.58137
 30
0.0
 10
0.50645
 20
-0.58137
 30
0.0
 10
0.51245
 20
-0.58137
 30
0.0
 10
0.51245
 20
-0.58137
 30
0.0
 10
0.51245
 20
-0.58137
 30
0.0
 10
0.51386
 20
-0.56338
 30
0.0
 10
0.51809
 20
-0.53304
 30
0.0
 10
0.52515
 20
-0.49
 30
0.0
 10
0.52515
 20
-0.49
 30
0.0
 10
0.53185
 20
-0.44696
 30
0.0
 10
0.53856
 20
-0.41451
 30
0.0
 10
0.54455
 20
-0.39334
 30
0.0
 10
0.54455
 20
-0.39334
 30
0.0
 10
0.54455
 20
-0.39334
 30
0.0
 10
0.77315
 20
0.47273
 30
0.0
 10
0.77315
 20
0.47273
 30
0.0
 10
0.77315
 20
0.47273
 30
0.0
 10
0.77315
 20
0.47273
 30
0.0
 10
1.25963
 20
0.47273
 30
0.0
 10
1.25963
 20
0.47273
 30
0.0
 10
1.25963
 20
0.47273
 30
0.0
 10
1.25963
 20
0.47273
 30
0.0
 10
1.44978
 20
-0.40569
 30
0.0
 10
1.44978
 20
-0.40569
 30
0.0
 10
1.44978
 20
-0.40569
 30
0.0
 10
1.44978
 20
-0.40569
 30
0.0
 10
1.46319
 20
-0.49353
 30
0.0
 10
1.46319
 20
-0.49353
 30
0.0
 10
1.46319
 20
-0.49353
 30
0.0
 10
1.46319
 20
-0.49353
 30
0.0
 10
1.47377
 20
-0.57926
 30
0.0
 10
1.47377
 20
-0.57926
 30
0.0
 10
1.47377
 20
-0.57926
 30
0.0
 10
1.47377
 20
-0.57926
 30
0.0
 10
1.47765
 20
-0.57926
 30
0.0
 10
1.47765
 20
-0.57926
 30
0.0
 10
1.47765
 20
-0.57926
 30
0.0
 10
1.47765
 20
-0.57926
 30
0.0
 10
1.48083
 20
-0.54327
 30
0.0
 10
1.48083
 20
-0.54327
 30
0.0
 10
1.48083
 20
-0.54327
 30
0.0
 10
1.48083
 20
-0.54327
 30
0.0
 10
1.49423
 20
-0.39934
 30
0.0
 10
1.49423
 20
-0.39934
 30
0.0
 10
1.49423
 20
-0.39934
 30
0.0
 10
1.49423
 20
-0.39934
 30
0.0
 10
1.62335
 20
0.47273
 30
0.0
 10
1.62335
 20
0.47273
 30
0.0
 10
1.62335
 20
0.47273
 30
0.0
 10
1.62335
 20
0.47273
 30
0.0
 10
2.06362
 20
0.47273
 30
0.0
 10
2.06362
 20
0.47273
 30
0.0
 10
2.06362
 20
0.47273
 30
0.0
 10
2.06362
 20
0.47273
 30
0.0
 10
1.68967
 20
-1.00894
 30
0.0
 10
1.68967
 20
-1.00894
 30
0.0
  0
SPLINE
  5
5A
330
1F
100
AcDbEntity
  8
Layer 1
 62
     5
370
    53
100
AcDbSpline
210
0.0
220
0.0
230
1.0
 70
    11
 71
     3
 72
    64
 73
    60
 74
     0
 42
0.0000000001
 43
0.0000000001
 12
1.0
 22
0.0
 32
0.0
 13
1.0
 23
0.0
 33
0.0
 40
0.0
 40
0.0
 40
0.0
 40
0.0
 40
0.0625
 40
0.0625
 40
0.0625
 40
0.0625
 40
0.125
 40
0.125
 40
0.125
 40
0.125
 40
0.1875
 40
0.1875
 40
0.1875
 40
0.1875
 40
0.25
 40
0.25
 40
0.25
 40
0.25
 40
0.3125
 40
0.3125
 40
0.3125
 40
0.3125
 40
0.375
 40
0.375
 40
0.375
 40
0.375
 40
0.4375
 40
0.4375
 40
0.4375
 40
0.4375
 40
0.5
 40
0.5
 40
0.5
 40
0.5
 40
0.5625
 40
0.5625
 40
0.5625
 40
0.5625
 40
0.625
 40
0.625
 40
0.625
 40
0.625
 40
0.6875
 40
0.6875
 40
0.6875
 40
0.6875
 40
0.75
 40
0.75
 40
0.75
 40
0.75
 40
0.8125
 40
0.8125
 40
0.8125
 40
0.8125
 40
0.875
 40
0.875
 40
0.875
 40
0.875
 40
1.0
 40
1.0
 40
1.0
 40
1.0
 10
2.56986
 20
-0.60466
 30
0.0
 10
2.57762
 20
-0.65016
 30
0.0
 10
2.60372
 20
-0.6858
 30
0.0
 10
2.64853
 20
-0.7119
 30
0.0
 10
2.64853
 20
-0.7119
 30
0.0
 10
2.69333
 20
-0.73765
 30
0.0
 10
2.7526
 20
-0.75071
 30
0.0
 10
2.82633
 20
-0.75071
 30
0.0
 10
2.82633
 20
-0.75071
 30
0.0
 10
2.92899
 20
-0.75071
 30
0.0
 10
3.02635
 20
-0.73095
 30
0.0
 10
3.11807
 20
-0.69144
 30
0.0
 10
3.11807
 20
-0.69144
 30
0.0
 10
3.11807
 20
-0.69144
 30
0.0
 10
3.11807
 20
-0.97013
 30
0.0
 10
3.11807
 20
-0.97013
 30
0.0
 10
3.11807
 20
-0.97013
 30
0.0
 10
3.01118
 20
-1.01282
 30
0.0
 10
2.88171
 20
-1.03434
 30
0.0
 10
2.72931
 20
-1.03434
 30
0.0
 10
2.72931
 20
-1.03434
 30
0.0
 10
2.54481
 20
-1.03434
 30
0.0
 10
2.40123
 20
-0.98707
 30
0.0
 10
2.29857
 20
-0.89288
 30
0.0
 10
2.29857
 20
-0.89288
 30
0.0
 10
2.19591
 20
-0.79868
 30
0.0
 10
2.14441
 20
-0.66886
 30
0.0
 10
2.14441
 20
-0.50341
 30
0.0
 10
2.14441
 20
-0.50341
 30
0.0
 10
2.14441
 20
-0.38981
 30
0.0
 10
2.16698
 20
-0.28962
 30
0.0
 10
2.21214
 20
-0.20284
 30
0.0
 10
2.21214
 20
-0.20284
 30
0.0
 10
2.2573
 20
-0.11641
 30
0.0
 10
2.32397
 20
-0.04832
 30
0.0
 10
2.41252
 20
0.00106
 30
0.0
 10
2.41252
 20
0.00106
 30
0.0
 10
2.50107
 20
0.0501
 30
0.0
 10
2.59843
 20
0.0748
 30
0.0
 10
2.70532
 20
0.0748
 30
0.0
 10
2.70532
 20
0.0748
 30
0.0
 10
2.81469
 20
0.0748
 30
0.0
 10
2.90852
 20
0.05363
 30
0.0
 10
2.98649
 20
0.01094
 30
0.0
 10
2.98649
 20
0.01094
 30
0.0
 10
3.0641
 20
-0.03174
 30
0.0
 10
3.12337
 20
-0.09172
 30
0.0
 10
3.16358
 20
-0.16897
 30
0.0
 10
3.16358
 20
-0.16897
 30
0.0
 10
3.2038
 20
-0.24588
 30
0.0
 10
3.22391
 20
-0.33619
 30
0.0
 10
3.22391
 20
-0.43956
 30
0.0
 10
3.22391
 20
-0.43956
 30
0.0
 10
3.22391
 20
-0.43956
 30
0.0
 10
3.22391
 20
-0.60466
 30
0.0
 10
3.22391
 20
-0.60466
 30
0.0
 10
3.22391
 20
-0.60466
 30
0.0
 10
3.22391
 20
-0.60466
 30
0.0
 10
2.56986
 20
-0.60466
 30
0.0
 10
2.56986
 20
-0.60466
 30
0.0
  0
SPLINE
  5
5B
330
1F
100
AcDbEntity
  8
Layer 1
 62
     5
370
    53
100
AcDbSpline
210
0.0
220
0.0
230
1.0
 70
    11
 71
     3
 72
    20
 73
    16
 74
     0
 42
0.0000000001
 43
0.0000000001
 12
1.0
 22
0.0
 32
0.0
 13
1.0
 23
0.0
 33
0.0
 40
0.0
 40
0.0
 40
0.0
 40
0.0
 40
0.2
 40
0.2
 40
0.2
 40
0.2
 40
0.4
 40
0.4
 40
0.4
 40
0.4
 40
0.6
 40
0.6
 40
0.6
 40
0.6
 40
1.0
 40
1.0
 40
1.0
 40
1.0
 10
2.83444
 20
-0.37394
 30
0.0
 10
2.83444
 20
-0.25258
 30
0.0
 10
2.7907
 20
-0.19191
 30
0.0
 10
2.70321
 20
-0.19191
 30
0.0
 10
2.70321
 20
-0.19191
 30
0.0
 10
2.66652
 20
-0.19191
 30
0.0
 10
2.63618
 20
-0.20849
 30
0.0
 10
2.61113
 20
-0.24165
 30
0.0
 10
2.61113
 20
-0.24165
 30
0.0
 10
2.58644
 20
-0.27516
 30
0.0
 10
2.57197
 20
-0.31891
 30
0.0
 10
2.56774
 20
-0.37394
 30
0.0
 10
2.56774
 20
-0.37394
 30
0.0
 10
2.56774
 20
-0.37394
 30
0.0
 10
2.83444
 20
-0.37394
 30
0.0
 10
2.83444
 20
-0.37394
 30
0.0
  0
SPLINE
  5
5C
330
1F
100
AcDbEntity
  8
Layer 1
 62
     5
370
    53
100
AcDbSpline
210
0.0
220
0.0
230
1.0
 70
    11
 71
     3
 72
    64
 73
    60
 74
     0
 42
0.0000000001
 43
0.0000000001
 12
1.0
 22
0.0
 32
0.0
 13
1.0
 23
0.0
 33
0.0
 40
0.0
 40
0.0
 40
0.0
 40
0.0
 40
0.0625
 40
0.0625
 40
0.0625
 40
0.0625
 40
0.125
 40
0.125
 40
0.125
 40
0.125
 40
0.1875
 40
0.1875
 40
0.1875
 40
0.1875
 40
0.25
 40
0.25
 40
0.25
 40
0.25
 40
0.3125
 40
0.3125
 40
0.3125
 40
0.3125
 40
0.375
 40
0.375
 40
0.375
 40
0.375
 40
0.4375
 40
0.4375
 40
0.4375
 40
0.4375
 40
0.5
 40
0.5
 40
0.5
 40
0.5
 40
0.5625
 40
0.5625
 40
0.5625
 40
0.5625
 40
0.625
 40
0.625
 40
0.625
 40
0.625
 40
0.6875
 40
0.6875
 40
0.6875
 40
0.6875
 40
0.75
 40
0.75
 40
0.75
 40
0.75
 40
0.8125
 40
0.8125
 40
0.8125
 40
0.8125
 40
0.875
 40
0.875
 40
0.875
 40
0.875
 40
1.0
 40
1.0
 40
1.0
 40
1.0
 10
3.7552
 20
-0.60466
 30
0.0
 10
3.76296
 20
-0.65016
 30
0.0
 10
3.78906
 20
-0.6858
 30
0.0
 10
3.83387
 20
-0.7119
 30
0.0
 10
3.83387
 20
-0.7119
 30
0.0
 10
3.87867
 20
-0.73765
 30
0.0
 10
3.93794
 20
-0.75071
 30
0.0
 10
4.01167
 20
-0.75071
 30
0.0
 10
4.01167
 20
-0.75071
 30
0.0
 10
4.11433
 20
-0.75071
 30
0.0
 10
4.21169
 20
-0.73095
 30
0.0
 10
4.30341
 20
-0.69144
 30
0.0
 10
4.30341
 20
-0.69144
 30
0.0
 10
4.30341
 20
-0.69144
 30
0.0
 10
4.30341
 20
-0.97013
 30
0.0
 10
4.30341
 20
-0.97013
 30
0.0
 10
4.30341
 20
-0.97013
 30
0.0
 10
4.19652
 20
-1.01282
 30
0.0
 10
4.06705
 20
-1.03434
 30
0.0
 10
3.91465
 20
-1.03434
 30
0.0
 10
3.91465
 20
-1.03434
 30
0.0
 10
3.73015
 20
-1.03434
 30
0.0
 10
3.58657
 20
-0.98707
 30
0.0
 10
3.48391
 20
-0.89288
 30
0.0
 10
3.48391
 20
-0.89288
 30
0.0
 10
3.38125
 20
-0.79868
 30
0.0
 10
3.32975
 20
-0.66886
 30
0.0
 10
3.32975
 20
-0.50341
 30
0.0
 10
3.32975
 20
-0.50341
 30
0.0
 10
3.32975
 20
-0.38981
 30
0.0
 10
3.35232
 20
-0.28962
 30
0.0
 10
3.39748
 20
-0.20284
 30
0.0
 10
3.39748
 20
-0.20284
 30
0.0
 10
3.44264
 20
-0.11641
 30
0.0
 10
3.50931
 20
-0.04832
 30
0.0
 10
3.59786
 20
0.00106
 30
0.0
 10
3.59786
 20
0.00106
 30
0.0
 10
3.68641
 20
0.0501
 30
0.0
 10
3.78377
 20
0.0748
 30
0.0
 10
3.89066
 20
0.0748
 30
0.0
 10
3.89066
 20
0.0748
 30
0.0
 10
4.00003
 20
0.0748
 30
0.0
 10
4.09386
 20
0.05363
 30
0.0
 10
4.17183
 20
0.01094
 30
0.0
 10
4.17183
 20
0.01094
 30
0.0
 10
4.24944
 20
-0.03174
 30
0.0
 10
4.30871
 20
-0.09172
 30
0.0
 10
4.34892
 20
-0.16897
 30
0.0
 10
4.34892
 20
-0.16897
 30
0.0
 10
4.38914
 20
-0.24588
 30
0.0
 10
4.40925
 20
-0.33619
 30
0.0
 10
4.40925
 20
-0.43956
 30
0.0
 10
4.40925
 20
-0.43956
 30
0.0
 10
4.40925
 20
-0.43956
 30
0.0
 10
4.40925
 20
-0.60466
 30
0.0
 10
4.40925
 20
-0.60466
 30
0.0
 10
4.40925
 20
-0.60466
 30
0.0
 10
4.40925
 20
-0.60466
 30
0.0
 10
3.7552
 20
-0.60466
 30
0.0
 10
3.7552
 20
-0.60466
 30
0.0
  0
SPLINE
  5
5D
330
1F
100
AcDbEntity
  8
Layer 1
 62
     5
370
    53
100
AcDbSpline
210
0.0
220
0.0
230
1.0
 70
    11
 71
     3
 72
    20
 73
    16
 74
     0
 42
0.0000000001
 43
0.0000000001
 12
1.0
 22
0.0
 32
0.0
 13
1.0
 23
0.0
 33
0.0
 40
0.0
 40
0.0
 40
0.0
 40
0.0
 40
0.2
 40
0.2
 40
0.2
 40
0.2
 40
0.4
 40
0.4
 40
0.4
 40
0.4
 40
0.6
 40
0.6
 40
0.6
 40
0.6
 40
1.0
 40
1.0
 40
1.0
 40
1.0
 10
4.01978
 20
-0.37394
 30
0.0
 10
4.01978
 20
-0.25258
 30
0.0
 10
3.97604
 20
-0.19191
 30
0.0
 10
3.88855
 20
-0.19191
 30
0.0
 10
3.88855
 20
-0.19191
 30
0.0
 10
3.85186
 20
-0.19191
 30
0.0
 10
3.82152
 20
-0.20849
 30
0.0
 10
3.79647
 20
-0.24165
 30
0.0
 10
3.79647
 20
-0.24165
 30
0.0
 10
3.77178
 20
-0.27516
 30
0.0
 10
3.75731
 20
-0.31891
 30
0.0
 10
3.75308
 20
-0.37394
 30
0.0
 10
3.75308
 20
-0.37394
 30
0.0
 10
3.75308
 20
-0.37394
 30
0.0
 10
4.01978
 20
-0.37394
 30
0.0
 10
4.01978
 20
-0.37394
 30
0.0
  0
SPLINE
  5
5E
330
1F
100
AcDbEntity
  8
Layer 1
 62
     5
370
    53
100
AcDbSpline
210
0.0
220
0.0
230
1.0
 70
    11
 71
     3
 72
    56
 73
    52
 74
     0
 42
0.0000000001
 43
0.0000000001
 12
1.0
 22
0.0
 32
0.0
 13
1.0
 23
0.0
 33
0.0
 40
0.0
 40
0.0
 40
0.0
 40
0.0
 40
0.0714285714285714
 40
0.0714285714285714
 40
0.0714285714285714
 40
0.0714285714285714
 40
0.1428571428571428
 40
0.1428571428571428
 40
0.1428571428571428
 40
0.1428571428571428
 40
0.2142857142857143
 40
0.2142857142857143
 40
0.2142857142857143
 40
0.2142857142857143
 40
0.2857142857142857
 40
0.2857142857142857
 40
0.2857142857142857
 40
0.2857142857142857
 40
0.3571428571428572
 40
0.3571428571428572
 40
0.3571428571428572
 40
0.3571428571428572
 40
0.4285714285714285
 40
0.4285714285714285
 40
0.4285714285714285
 40
0.4285714285714285
 40
0.5
 40
0.5
 40
0.5
 40
0.5
 40
0.5714285714285714
 40
0.5714285714285714
 40
0.5714285714285714
 40
0.5714285714285714
 40
0.6428571428571429
 40
0.6428571428571429
 40
0.6428571428571429
 40
0.6428571428571429
 40
0.7142857142857143
 40
0.7142857142857143
 40
0.7142857142857143
 40
0.7142857142857143
 40
0.7857142857142857
 40
0.7857142857142857
 40
0.7857142857142857
 40
0.7857142857142857
 40
0.8571428571428571
 40
0.8571428571428571
 40
0.8571428571428571
 40
0.8571428571428571
 40
1.0
 40
1.0
 40
1.0
 40
1.0
 10
5.24146
 20
-1.00894
 30
0.0
 10
5.24146
 20
-1.00894
 30
0.0
 10
5.00615
 20
-0.46496
 30
0.0
 10
5.00615
 20
-0.46496
 30
0.0
 10
5.00615
 20
-0.46496
 30
0.0
 10
5.00615
 20
-0.46496
 30
0.0
 10
5.00192
 20
-0.46496
 30
0.0
 10
5.00192
 20
-0.46496
 30
0.0
 10
5.00192
 20
-0.46496
 30
0.0
 10
5.00192
 20
-0.46496
 30
0.0
 10
5.00192
 20
-1.00894
 30
0.0
 10
5.00192
 20
-1.00894
 30
0.0
 10
5.00192
 20
-1.00894
 30
0.0
 10
5.00192
 20
-1.00894
 30
0.0
 10
4.56165
 20
-1.00894
 30
0.0
 10
4.56165
 20
-1.00894
 30
0.0
 10
4.56165
 20
-1.00894
 30
0.0
 10
4.56165
 20
-1.00894
 30
0.0
 10
4.56165
 20
0.5574
 30
0.0
 10
4.56165
 20
0.5574
 30
0.0
 10
4.56165
 20
0.5574
 30
0.0
 10
4.56165
 20
0.5574
 30
0.0
 10
5.00192
 20
0.5574
 30
0.0
 10
5.00192
 20
0.5574
 30
0.0
 10
5.00192
 20
0.5574
 30
0.0
 10
5.00192
 20
0.5574
 30
0.0
 10
5.00192
 20
-0.44802
 30
0.0
 10
5.00192
 20
-0.44802
 30
0.0
 10
5.00192
 20
-0.44802
 30
0.0
 10
5.00192
 20
-0.44802
 30
0.0
 10
5.00615
 20
-0.44802
 30
0.0
 10
5.00615
 20
-0.44802
 30
0.0
 10
5.00615
 20
-0.44802
 30
0.0
 10
5.00615
 20
-0.44802
 30
0.0
 10
5.21994
 20
0.0494
 30
0.0
 10
5.21994
 20
0.0494
 30
0.0
 10
5.21994
 20
0.0494
 30
0.0
 10
5.21994
 20
0.0494
 30
0.0
 10
5.71559
 20
0.0494
 30
0.0
 10
5.71559
 20
0.0494
 30
0.0
 10
5.71559
 20
0.0494
 30
0.0
 10
5.71559
 20
0.0494
 30
0.0
 10
5.42949
 20
-0.43532
 30
0.0
 10
5.42949
 20
-0.43532
 30
0.0
 10
5.42949
 20
-0.43532
 30
0.0
 10
5.42949
 20
-0.43532
 30
0.0
 10
5.73217
 20
-1.00894
 30
0.0
 10
5.73217
 20
-1.00894
 30
0.0
 10
5.73217
 20
-1.00894
 30
0.0
 10
5.73217
 20
-1.00894
 30
0.0
 10
5.24146
 20
-1.00894
 30
0.0
 10
5.24146
 20
-1.00894
 30
0.0
  0
ENDSEC
  0
SECTION
  2
OBJECTS
  0
DICTIONARY
  5
C
330
0
100
AcDbDictionary
281
     1
  3
ACAD_GROUP
350
D
  3
ACAD_LAYOUT
350
1A
  3
ACAD_MATERIAL
350
3B
  3
ACAD_MLEADERSTYLE
350
80
  3
ACAD_MLINESTYLE
350
17
  3
ACAD_PLOTSETTINGS
350
19
  3
ACAD_PLOTSTYLENAME
350
E
  3
ACAD_TABLESTYLE
350
7F
  3
ACAD_VISUALSTYLE
350
2A
  0
DICTIONARY
  5
D
102
{ACAD_REACTORS
330
C
102
}
330
C
100
AcDbDictionary
281
     1
  0
DICTIONARY
  5
1A
102
{ACAD_REACTORS
330
C
102
}
330
C
100
AcDbDictionary
281
     1
  3
Layout1
350
1E
  3
Layout2
350
26
  3
Model
350
22
  0
DICTIONARY
  5
3B
102
{ACAD_REACTORS
330
C
102
}
330
C
100
AcDbDictionary
281
     1
  3
ByBlock
350
3D
  3
ByLayer
350
3C
  3
Global
350
3E
  0
DICTIONARY
  5
80
102
{ACAD_REACTORS
330
C
102
}
330
C
100
AcDbDictionary
281
     1
  0
DICTIONARY
  5
17
102
{ACAD_REACTORS
330
C
102
}
330
C
100
AcDbDictionary
281
     1
  3
Standard
350
18
  0
DICTIONARY
  5
19
102
{ACAD_REACTORS
330
C
102
}
330
C
100
AcDbDictionary
281
     1
  0
ACDBDICTIONARYWDFLT
  5
E
102
{ACAD_REACTORS
330
C
102
}
330
C
100
AcDbDictionary
281
     1
  3
Normal
350
F
100
AcDbDictionaryWithDefault
340
F
  0
DICTIONARY
  5
7F
102
{ACAD_REACTORS
330
C
102
}
330
C
100
AcDbDictionary
281
     1
  0
DICTIONARY
  5
2A
102
{ACAD_REACTORS
330
C
102
}
330
C
100
AcDbDictionary
281
     1
  3
2dWireframe
350
2F
  3
3D Hidden
350
31
  3
3dWireframe
350
30
  3
Basic
350
32
  3
Brighten
350
36
  3
ColorChange
350
3A
  3
Conceptual
350
34
  3
Dim
350
35
  3
Facepattern
350
39
  3
Flat
350
2B
  3
FlatWithEdges
350
2C
  3
Gouraud
350
2D
  3
GouraudWithEdges
350
2E
  3
Linepattern
350
38
  3
Realistic
350
33
  3
Thicken
350
37
  0
LAYOUT
  5
1E
102
{ACAD_REACTORS
330
1A
102
}
330
1A
100
AcDbPlotSettings
  1

  2
none_device
  4

  6

 40
0.0
 41
0.0
 42
0.0
 43
0.0
 44
0.0
 45
0.0
 46
0.0
 47
0.0
 48
0.0
 49
0.0
140
0.0
141
0.0
142
1.0
143
1.0
 70
   688
 72
     0
 73
     0
 74
     5
  7

 75
    16
 76
     0
 77
     2
 78
   300
147
1.0
148
0.0
149
0.0
100
AcDbLayout
  1
Layout1
 70
     1
 71
     1
 10
0.0
 20
0.0
 11
12.0
 21
9.0
 12
0.0
 22
0.0
 32
0.0
 14
1.000000000000000E+20
 24
1.000000000000000E+20
 34
1.000000000000000E+20
 15
-1.000000000000000E+20
 25
-1.000000000000000E+20
 35
-1.000000000000000E+20
146
0.0
 13
0.0
 23
0.0
 33
0.0
 16
1.0
 26
0.0
 36
0.0
 17
0.0
 27
1.0
 37
0.0
 76
     0
330
1B
  0
LAYOUT
  5
26
102
{ACAD_REACTORS
330
1A
102
}
330
1A
100
AcDbPlotSettings
  1

  2
none_device
  4

  6

 40
0.0
 41
0.0
 42
0.0
 43
0.0
 44
0.0
 45
0.0
 46
0.0
 47
0.0
 48
0.0
 49
0.0
140
0.0
141
0.0
142
1.0
143
1.0
 70
   688
 72
     0
 73
     0
 74
     5
  7

 75
    16
 76
     0
 77
     2
 78
   300
147
1.0
148
0.0
149
0.0
100
AcDbLayout
  1
Layout2
 70
     1
 71
     2
 10
0.0
 20
0.0
 11
0.0
 21
0.0
 12
0.0
 22
0.0
 32
0.0
 14
0.0
 24
0.0
 34
0.0
 15
0.0
 25
0.0
 35
0.0
146
0.0
 13
0.0
 23
0.0
 33
0.0
 16
1.0
 26
0.0
 36
0.0
 17
0.0
 27
1.0
 37
0.0
 76
     0
330
23
  0
LAYOUT
  5
22
102
{ACAD_REACTORS
330
1A
102
}
330
1A
100
AcDbPlotSettings
  1

  2
none_device
  4

  6

 40
0.0
 41
0.0
 42
0.0
 43
0.0
 44
0.0
 45
0.0
 46
0.0
 47
0.0
 48
0.0
 49
0.0
140
0.0
141
0.0
142
1.0
143
1.0
 70
  1712
 72
     0
 73
     0
 74
     0
  7

 75
     0
 76
     0
 77
     2
 78
   300
147
1.0
148
0.0
149
0.0
100
AcDbLayout
  1
Model
 70
     1
 71
     0
 10
0.0
 20
0.0
 11
12.0
 21
9.0
 12
0.0
 22
0.0
 32
0.0
 14
-6.72646
 24
-2.22646
 34
0.0
 15
6.72646
 25
2.22646
 35
0.0
146
0.0
 13
0.0
 23
0.0
 33
0.0
 16
1.0
 26
0.0
 36
0.0
 17
0.0
 27
1.0
 37
0.0
 76
     0
330
1F
331
29
  0
MATERIAL
  5
3D
102
{ACAD_REACTORS
330
3B
102
}
330
3B
100
AcDbMaterial
  1
ByBlock
 72
     1
 94
      127
  0
MATERIAL
  5
3C
102
{ACAD_REACTORS
330
3B
102
}
330
3B
100
AcDbMaterial
  1
ByLayer
 72
     1
 94
      127
  0
MATERIAL
  5
3E
102
{ACAD_REACTORS
330
3B
102
}
330
3B
100
AcDbMaterial
  1
Global
 72
     1
 94
      127
  0
MLINESTYLE
  5
18
102
{ACAD_REACTORS
330
17
102
}
330
17
100
AcDbMlineStyle
  2
Standard
 70
     0
  3

 62
   256
 51
90.0
 52
90.0
 71
     2
 49
0.5
 62
   256
  6
BYLAYER
 49
-0.5
 62
   256
  6
BYLAYER
  0
ACDBPLACEHOLDER
  5
F
102
{ACAD_REACTORS
330
E
102
}
330
E
  0
VISUALSTYLE
  5
2F
102
{ACAD_REACTORS
330
2A
102
}
102
{ACAD_XDICTIONARY
360
67
102
}
330
2A
100
AcDbVisualStyle
  2
2dWireframe
 70
     4
 71
     0
 72
     2
 73
     0
 90
        0
 40
-0.6
 41
-30.0
 62
     5
 63
     7
421
 16777215
 74
     1
 91
        4
 64
     7
 65
   257
 75
     1
175
     1
 42
1.0
 92
        0
 66
   257
 43
1.0
 76
     1
 77
     6
 78
     2
 67
     7
 79
     5
170
     0
171
     0
290
     0
174
     0
 93
        1
 44
0.0
173
     0
291
     0
 45
0.0
  0
VISUALSTYLE
  5
31
102
{ACAD_REACTORS
330
2A
102
}
102
{ACAD_XDICTIONARY
360
6B
102
}
330
2A
100
AcDbVisualStyle
  2
3D Hidden
 70
     6
 71
     1
 72
     2
 73
     2
 90
        0
 40
-0.6
 41
-30.0
 62
     5
 63
     7
421
 16777215
 74
     2
 91
        2
 64
     7
 65
   257
 75
     2
175
     1
 42
40.0
 92
        0
 66
   257
 43
1.0
 76
     1
 77
     6
 78
     2
 67
     7
 79
     3
170
     0
171
     0
290
     0
174
     0
 93
        1
 44
0.0
173
     0
291
     0
 45
0.0
  0
VISUALSTYLE
  5
30
102
{ACAD_REACTORS
330
2A
102
}
102
{ACAD_XDICTIONARY
360
69
102
}
330
2A
100
AcDbVisualStyle
  2
3dWireframe
 70
     5
 71
     0
 72
     2
 73
     0
 90
        0
 40
-0.6
 41
-30.0
 62
     5
 63
     7
421
 16777215
 74
     1
 91
        4
 64
     7
 65
   257
 75
     1
175
     1
 42
1.0
 92
        0
 66
   257
 43
1.0
 76
     1
 77
     6
 78
     2
 67
     7
 79
     5
170
     0
171
     0
290
     0
174
     0
 93
        1
 44
0.0
173
     0
291
     0
 45
0.0
  0
VISUALSTYLE
  5
32
102
{ACAD_REACTORS
330
2A
102
}
102
{ACAD_XDICTIONARY
360
6D
102
}
330
2A
100
AcDbVisualStyle
  2
Basic
 70
     7
 71
     1
 72
     0
 73
     1
 90
        0
 40
-0.6
 41
-30.0
 62
     5
 63
     7
421
 16777215
 74
     0
 91
        4
 64
     7
 65
   257
 75
     1
175
     1
 42
1.0
 92
        8
 66
     7
 43
1.0
 76
     1
 77
     6
 78
     2
 67
     7
 79
     5
170
     0
171
     0
290
     0
174
     0
 93
        1
 44
0.0
173
     0
291
     1
 45
0.0
  0
VISUALSTYLE
  5
36
102
{ACAD_REACTORS
330
2A
102
}
102
{ACAD_XDICTIONARY
360
75
102
}
330
2A
100
AcDbVisualStyle
  2
Brighten
 70
    12
 71
     2
 72
     2
 73
     0
 90
        0
 40
-0.6
 41
-30.0
 62
     5
 63
     7
421
 16777215
 74
     1
 91
        4
 64
     7
 65
   257
 75
     1
175
     1
 42
1.0
 92
        8
 66
     7
 43
1.0
 76
     1
 77
     6
 78
     2
 67
     7
 79
     5
170
     0
171
     0
290
     0
174
     0
 93
        1
 44
50.0
173
     0
291
     1
 45
0.0
  0
VISUALSTYLE
  5
3A
102
{ACAD_REACTORS
330
2A
102
}
102
{ACAD_XDICTIONARY
360
7D
102
}
330
2A
100
AcDbVisualStyle
  2
ColorChange
 70
    16
 71
     2
 72
     2
 73
     3
 90
        0
 40
-0.6
 41
-30.0
 62
     5
 63
     8
421
  8421504
 74
     1
 91
        4
 64
     7
 65
   257
 75
     1
175
     1
 42
1.0
 92
        8
 66
     8
424
  8421504
 43
1.0
 76
     1
 77
     6
 78
     2
 67
     7
 79
     5
170
     0
171
     0
290
     0
174
     0
 93
        1
 44
0.0
173
     0
291
     1
 45
0.0
  0
VISUALSTYLE
  5
34
102
{ACAD_REACTORS
330
2A
102
}
102
{ACAD_XDICTIONARY
360
71
102
}
330
2A
100
AcDbVisualStyle
  2
Conceptual
 70
     9
 71
     3
 72
     2
 73
     0
 90
        0
 40
-0.6
 41
-30.0
 62
     5
 63
     7
421
 16777215
 74
     2
 91
        2
 64
     7
 65
   257
 75
     1
175
     1
 42
40.0
 92
        8
 66
     7
 43
1.0
 76
     1
 77
     6
 78
     2
 67
     7
 79
     3
170
     0
171
     0
290
     0
174
     0
 93
        1
 44
0.0
173
     0
291
     0
 45
0.0
  0
VISUALSTYLE
  5
35
102
{ACAD_REACTORS
330
2A
102
}
102
{ACAD_XDICTIONARY
360
73
102
}
330
2A
100
AcDbVisualStyle
  2
Dim
 70
    11
 71
     2
 72
     2
 73
     0
 90
        0
 40
-0.6
 41
-30.0
 62
     5
 63
     7
421
 16777215
 74
     1
 91
        4
 64
     7
 65
   257
 75
     1
175
     1
 42
1.0
 92
        8
 66
     7
 43
1.0
 76
     1
 77
     6
 78
     2
 67
     7
 79
     5
170
     0
171
     0
290
     0
174
     0
 93
        1
 44
-50.0
173
     0
291
     1
 45
0.0
  0
VISUALSTYLE
  5
39
102
{ACAD_REACTORS
330
2A
102
}
102
{ACAD_XDICTIONARY
360
7B
102
}
330
2A
100
AcDbVisualStyle
  2
Facepattern
 70
    15
 71
     2
 72
     2
 73
     0
 90
        0
 40
-0.6
 41
-30.0
 62
     5
 63
     7
421
 16777215
 74
     1
 91
        4
 64
     7
 65
   257
 75
     1
175
     1
 42
1.0
 92
        8
 66
     7
 43
1.0
 76
     1
 77
     6
 78
     2
 67
     7
 79
     5
170
     0
171
     0
290
     0
174
     0
 93
        1
 44
0.0
173
     0
291
     1
 45
0.0
  0
VISUALSTYLE
  5
2B
102
{ACAD_REACTORS
330
2A
102
}
102
{ACAD_XDICTIONARY
360
5F
102
}
330
2A
100
AcDbVisualStyle
  2
Flat
 70
     0
 71
     2
 72
     1
 73
     1
 90
        2
 40
-0.6
 41
30.0
 62
     5
 63
     7
421
 16777215
 74
     0
 91
        4
 64
     7
 65
   257
 75
     1
175
     1
 42
1.0
 92
        8
 66
     7
 43
1.0
 76
     1
 77
     6
 78
     2
 67
     7
 79
     5
170
     0
171
     0
290
     0
174
     0
 93
       13
 44
0.0
173
     0
291
     1
 45
0.0
  0
VISUALSTYLE
  5
2C
102
{ACAD_REACTORS
330
2A
102
}
102
{ACAD_XDICTIONARY
360
61
102
}
330
2A
100
AcDbVisualStyle
  2
FlatWithEdges
 70
     1
 71
     2
 72
     1
 73
     1
 90
        2
 40
-0.6
 41
30.0
 62
     5
 63
     7
421
 16777215
 74
     1
 91
        4
 64
     7
 65
   257
 75
     1
175
     1
 42
1.0
 92
        0
 66
   257
 43
1.0
 76
     1
 77
     6
 78
     2
 67
     7
 79
     5
170
     0
171
     0
290
     0
174
     0
 93
       13
 44
0.0
173
     0
291
     1
 45
0.0
  0
VISUALSTYLE
  5
2D
102
{ACAD_REACTORS
330
2A
102
}
102
{ACAD_XDICTIONARY
360
63
102
}
330
2A
100
AcDbVisualStyle
  2
Gouraud
 70
     2
 71
     2
 72
     2
 73
     1
 90
        2
 40
-0.6
 41
30.0
 62
     5
 63
     7
421
 16777215
 74
     0
 91
        4
 64
     7
 65
   257
 75
     1
175
     1
 42
1.0
 92
        0
 66
     7
 43
1.0
 76
     1
 77
     6
 78
     2
 67
     7
 79
     5
170
     0
171
     0
290
     0
174
     0
 93
       13
 44
0.0
173
     0
291
     1
 45
0.0
  0
VISUALSTYLE
  5
2E
102
{ACAD_REACTORS
330
2A
102
}
102
{ACAD_XDICTIONARY
360
65
102
}
330
2A
100
AcDbVisualStyle
  2
GouraudWithEdges
 70
     3
 71
     2
 72
     2
 73
     1
 90
        2
 40
-0.6
 41
30.0
 62
     5
 63
     7
421
 16777215
 74
     1
 91
        4
 64
     7
 65
   257
 75
     1
175
     1
 42
1.0
 92
        0
 66
   257
 43
1.0
 76
     1
 77
     6
 78
     2
 67
     7
 79
     5
170
     0
171
     0
290
     0
174
     0
 93
       13
 44
0.0
173
     0
291
     1
 45
0.0
  0
VISUALSTYLE
  5
38
102
{ACAD_REACTORS
330
2A
102
}
102
{ACAD_XDICTIONARY
360
79
102
}
330
2A
100
AcDbVisualStyle
  2
Linepattern
 70
    14
 71
     2
 72
     2
 73
     0
 90
        0
 40
-0.6
 41
-30.0
 62
     5
 63
     7
421
 16777215
 74
     1
 91
        4
 64
     7
 65
   257
 75
     7
175
     7
 42
1.0
 92
        8
 66
     7
 43
1.0
 76
     1
 77
     6
 78
     2
 67
     7
 79
     5
170
     0
171
     0
290
     0
174
     0
 93
        1
 44
0.0
173
     0
291
     1
 45
0.0
  0
VISUALSTYLE
  5
33
102
{ACAD_REACTORS
330
2A
102
}
102
{ACAD_XDICTIONARY
360
6F
102
}
330
2A
100
AcDbVisualStyle
  2
Realistic
 70
     8
 71
     2
 72
     2
 73
     0
 90
        0
 40
-0.6
 41
-30.0
 62
     5
 63
     7
421
 16777215
 74
     1
 91
        0
 64
     7
 65
   257
 75
     1
175
     1
 42
1.0
 92
        8
 66
     8
424
  7895160
 43
1.0
 76
     1
 77
     6
 78
     2
 67
     7
 79
     5
170
     0
171
     0
290
     0
174
     0
 93
       13
 44
0.0
173
     0
291
     0
 45
0.0
  0
VISUALSTYLE
  5
37
102
{ACAD_REACTORS
330
2A
102
}
102
{ACAD_XDICTIONARY
360
77
102
}
330
2A
100
AcDbVisualStyle
  2
Thicken
 70
    13
 71
     2
 72
     2
 73
     0
 90
        0
 40
-0.6
 41
-30.0
 62
     5
 63
     7
421
 16777215
 74
     1
 91
        4
 64
     7
 65
   257
 75
     1
175
     1
 42
1.0
 92
       12
 66
     7
 43
1.0
 76
     1
 77
     6
 78
     2
 67
     7
 79
     5
170
     0
171
     0
290
     0
174
     0
 93
        1
 44
0.0
173
     0
291
     1
 45
0.0
  0
DICTIONARY
  5
67
330
2F
100
AcDbDictionary
280
     1
281
     1
  3
ACAD_XREC_ROUNDTRIP
360
68
  0
DICTIONARY
  5
6B
330
31
100
AcDbDictionary
280
     1
281
     1
  3
ACAD_XREC_ROUNDTRIP
360
6C
  0
DICTIONARY
  5
69
330
30
100
AcDbDictionary
280
     1
281
     1
  3
ACAD_XREC_ROUNDTRIP
360
6A
  0
DICTIONARY
  5
6D
330
32
100
AcDbDictionary
280
     1
281
     1
  3
ACAD_XREC_ROUNDTRIP
360
6E
  0
DICTIONARY
  5
75
330
36
100
AcDbDictionary
280
     1
281
     1
  3
ACAD_XREC_ROUNDTRIP
360
76
  0
DICTIONARY
  5
7D
330
3A
100
AcDbDictionary
280
     1
281
     1
  3
ACAD_XREC_ROUNDTRIP
360
7E
  0
DICTIONARY
  5
71
330
34
100
AcDbDictionary
280
     1
281
     1
  3
ACAD_XREC_ROUNDTRIP
360
72
  0
DICTIONARY
  5
73
330
35
100
AcDbDictionary
280
     1
281
     1
  3
ACAD_XREC_ROUNDTRIP
360
74
  0
DICTIONARY
  5
7B
330
39
100
AcDbDictionary
280
     1
281
     1
  3
ACAD_XREC_ROUNDTRIP
360
7C
  0
DICTIONARY
  5
5F
330
2B
100
AcDbDictionary
280
     1
281
     1
  3
ACAD_XREC_ROUNDTRIP
360
60
  0
DICTIONARY
  5
61
330
2C
100
AcDbDictionary
280
     1
281
     1
  3
ACAD_XREC_ROUNDTRIP
360
62
  0
DICTIONARY
  5
63
330
2D
100
AcDbDictionary
280
     1
281
     1
  3
ACAD_XREC_ROUNDTRIP
360
64
  0
DICTIONARY
  5
65
330
2E
100
AcDbDictionary
280
     1
281
     1
  3
ACAD_XREC_ROUNDTRIP
360
66
  0
DICTIONARY
  5
79
330
38
100
AcDbDictionary
280
     1
281
     1
  3
ACAD_XREC_ROUNDTRIP
360
7A
  0
DICTIONARY
  5
6F
330
33
100
AcDbDictionary
280
     1
281
     1
  3
ACAD_XREC_ROUNDTRIP
360
70
  0
DICTIONARY
  5
77
330
37
100
AcDbDictionary
280
     1
281
     1
  3
ACAD_XREC_ROUNDTRIP
360
78
  0
XRECORD
  5
68
102
{ACAD_REACTORS
330
67
102
}
330
67
100
AcDbXrecord
280
     1
102
RTVSPropertyOp0
 70
     1
102
RTVSPropertyOp1
 70
     1
102
RTVSPropertyOp2
 70
     1
102
RTVSPropertyOp3
 70
     1
102
RTVSPropertyOp4
 70
     1
102
RTVSPropertyOp5
 70
     1
102
RTVSPropertyOp6
 70
     1
102
RTVSPropertyOp7
 70
     1
102
RTVSPropertyOp8
 70
     1
102
RTVSPropertyOp9
 70
     1
102
RTVSPropertyOp10
 70
     1
102
RTVSPropertyOp11
 70
     1
102
RTVSPropertyOp12
 70
     1
102
RTVSPropertyOp13
 70
     1
102
RTVSPropertyOp14
 70
     1
102
RTVSPropertyOp15
 70
     1
102
RTVSPropertyOp16
 70
     1
102
RTVSPropertyOp17
 70
     1
102
RTVSPropertyOp18
 70
     1
102
RTVSPropertyOp19
 70
     1
102
RTVSPropertyOp20
 70
     1
102
RTVSPropertyOp21
 70
     1
102
RTVSPropertyOp22
 70
     1
102
RTVSPropertyOp23
 70
     1
102
RTVSPropertyOp24
 70
     1
102
RTVSPropertyOp25
 70
     1
102
RTVSPropertyOp26
 70
     1
102
RTVSPropertyOp27
 70
     1
102
RTVSPropertyOp28
 70
     1
102
RTVSPropertyOp29
 70
     1
102
RTVSPropertyOp30
 70
     1
102
RTVSPropertyOp31
 70
     1
102
RTVSPropertyOp32
 70
     1
  0
XRECORD
  5
6C
102
{ACAD_REACTORS
330
6B
102
}
330
6B
100
AcDbXrecord
280
     1
102
RTVSPropertyOp0
 70
     1
102
RTVSPropertyOp1
 70
     1
102
RTVSPropertyOp2
 70
     1
102
RTVSPropertyOp3
 70
     1
102
RTVSPropertyOp4
 70
     1
102
RTVSPropertyOp5
 70
     1
102
RTVSPropertyOp6
 70
     1
102
RTVSPropertyOp7
 70
     1
102
RTVSPropertyOp8
 70
     1
102
RTVSPropertyOp9
 70
     1
102
RTVSPropertyOp10
 70
     1
102
RTVSPropertyOp11
 70
     1
102
RTVSPropertyOp12
 70
     1
102
RTVSPropertyOp13
 70
     1
102
RTVSPropertyOp14
 70
     1
102
RTVSPropertyOp15
 70
     1
102
RTVSPropertyOp16
 70
     1
102
RTVSPropertyOp17
 70
     1
102
RTVSPropertyOp18
 70
     1
102
RTVSPropertyOp19
 70
     1
102
RTVSPropertyOp20
 70
     1
102
RTVSPropertyOp21
 70
     1
102
RTVSPropertyOp22
 70
     1
102
RTVSPropertyOp23
 70
     1
102
RTVSPropertyOp24
 70
     1
102
RTVSPropertyOp25
 70
     1
102
RTVSPropertyOp26
 70
     1
102
RTVSPropertyOp27
 70
     1
102
RTVSPropertyOp28
 70
     1
102
RTVSPropertyOp29
 70
     1
102
RTVSPropertyOp30
 70
     1
102
RTVSPropertyOp31
 70
     1
102
RTVSPropertyOp32
 70
     1
  0
XRECORD
  5
6A
102
{ACAD_REACTORS
330
69
102
}
330
69
100
AcDbXrecord
280
     1
102
RTVSPropertyOp0
 70
     1
102
RTVSPropertyOp1
 70
     1
102
RTVSPropertyOp2
 70
     1
102
RTVSPropertyOp3
 70
     1
102
RTVSPropertyOp4
 70
     1
102
RTVSPropertyOp5
 70
     1
102
RTVSPropertyOp6
 70
     1
102
RTVSPropertyOp7
 70
     1
102
RTVSPropertyOp8
 70
     1
102
RTVSPropertyOp9
 70
     1
102
RTVSPropertyOp10
 70
     1
102
RTVSPropertyOp11
 70
     1
102
RTVSPropertyOp12
 70
     1
102
RTVSPropertyOp13
 70
     1
102
RTVSPropertyOp14
 70
     1
102
RTVSPropertyOp15
 70
     1
102
RTVSPropertyOp16
 70
     1
102
RTVSPropertyOp17
 70
     1
102
RTVSPropertyOp18
 70
     1
102
RTVSPropertyOp19
 70
     1
102
RTVSPropertyOp20
 70
     1
102
RTVSPropertyOp21
 70
     1
102
RTVSPropertyOp22
 70
     1
102
RTVSPropertyOp23
 70
     1
102
RTVSPropertyOp24
 70
     1
102
RTVSPropertyOp25
 70
     1
102
RTVSPropertyOp26
 70
     1
102
RTVSPropertyOp27
 70
     1
102
RTVSPropertyOp28
 70
     1
102
RTVSPropertyOp29
 70
     1
102
RTVSPropertyOp30
 70
     1
102
RTVSPropertyOp31
 70
     1
102
RTVSPropertyOp32
 70
     1
  0
XRECORD
  5
6E
102
{ACAD_REACTORS
330
6D
102
}
330
6D
100
AcDbXrecord
280
     1
102
RTVSPropertyOp0
 70
     1
102
RTVSPropertyOp1
 70
     1
102
RTVSPropertyOp2
 70
     1
102
RTVSPropertyOp3
 70
     1
102
RTVSPropertyOp4
 70
     1
102
RTVSPropertyOp5
 70
     1
102
RTVSPropertyOp6
 70
     1
102
RTVSPropertyOp7
 70
     1
102
RTVSPropertyOp8
 70
     1
102
RTVSPropertyOp9
 70
     1
102
RTVSPropertyOp10
 70
     1
102
RTVSPropertyOp11
 70
     1
102
RTVSPropertyOp12
 70
     1
102
RTVSPropertyOp13
 70
     1
102
RTVSPropertyOp14
 70
     1
102
RTVSPropertyOp15
 70
     1
102
RTVSPropertyOp16
 70
     1
102
RTVSPropertyOp17
 70
     1
102
RTVSPropertyOp18
 70
     1
102
RTVSPropertyOp19
 70
     1
102
RTVSPropertyOp20
 70
     1
102
RTVSPropertyOp21
 70
     1
102
RTVSPropertyOp22
 70
     1
102
RTVSPropertyOp23
 70
     1
102
RTVSPropertyOp24
 70
     1
102
RTVSPropertyOp25
 70
     1
102
RTVSPropertyOp26
 70
     1
102
RTVSPropertyOp27
 70
     1
102
RTVSPropertyOp28
 70
     1
102
RTVSPropertyOp29
 70
     1
102
RTVSPropertyOp30
 70
     1
102
RTVSPropertyOp31
 70
     1
102
RTVSPropertyOp32
 70
     1
  0
XRECORD
  5
76
102
{ACAD_REACTORS
330
75
102
}
330
75
100
AcDbXrecord
280
     1
102
RTVSPropertyOp0
 70
     1
102
RTVSPropertyOp1
 70
     1
102
RTVSPropertyOp2
 70
     1
102
RTVSPropertyOp3
 70
     1
102
RTVSPropertyOp4
 70
     1
102
RTVSPropertyOp5
 70
     1
102
RTVSPropertyOp6
 70
     1
102
RTVSPropertyOp7
 70
     1
102
RTVSPropertyOp8
 70
     1
102
RTVSPropertyOp9
 70
     1
102
RTVSPropertyOp10
 70
     1
102
RTVSPropertyOp11
 70
     1
102
RTVSPropertyOp12
 70
     1
102
RTVSPropertyOp13
 70
     1
102
RTVSPropertyOp14
 70
     1
102
RTVSPropertyOp15
 70
     1
102
RTVSPropertyOp16
 70
     1
102
RTVSPropertyOp17
 70
     1
102
RTVSPropertyOp18
 70
     1
102
RTVSPropertyOp19
 70
     1
102
RTVSPropertyOp20
 70
     1
102
RTVSPropertyOp21
 70
     1
102
RTVSPropertyOp22
 70
     1
102
RTVSPropertyOp23
 70
     1
102
RTVSPropertyOp24
 70
     1
102
RTVSPropertyOp25
 70
     1
102
RTVSPropertyOp26
 70
     1
102
RTVSPropertyOp27
 70
     1
102
RTVSPropertyOp28
 70
     1
102
RTVSPropertyOp29
 70
     1
102
RTVSPropertyOp30
 70
     1
102
RTVSPropertyOp31
 70
     1
102
RTVSPropertyOp32
 70
     1
  0
XRECORD
  5
7E
102
{ACAD_REACTORS
330
7D
102
}
330
7D
100
AcDbXrecord
280
     1
102
RTVSPropertyOp0
 70
     1
102
RTVSPropertyOp1
 70
     1
102
RTVSPropertyOp2
 70
     1
102
RTVSPropertyOp3
 70
     1
102
RTVSPropertyOp4
 70
     1
102
RTVSPropertyOp5
 70
     1
102
RTVSPropertyOp6
 70
     1
102
RTVSPropertyOp7
 70
     1
102
RTVSPropertyOp8
 70
     1
102
RTVSPropertyOp9
 70
     1
102
RTVSPropertyOp10
 70
     1
102
RTVSPropertyOp11
 70
     1
102
RTVSPropertyOp12
 70
     1
102
RTVSPropertyOp13
 70
     1
102
RTVSPropertyOp14
 70
     1
102
RTVSPropertyOp15
 70
     1
102
RTVSPropertyOp16
 70
     1
102
RTVSPropertyOp17
 70
     1
102
RTVSPropertyOp18
 70
     1
102
RTVSPropertyOp19
 70
     1
102
RTVSPropertyOp20
 70
     1
102
RTVSPropertyOp21
 70
     1
102
RTVSPropertyOp22
 70
     1
102
RTVSPropertyOp23
 70
     1
102
RTVSPropertyOp24
 70
     1
102
RTVSPropertyOp25
 70
     1
102
RTVSPropertyOp26
 70
     1
102
RTVSPropertyOp27
 70
     1
102
RTVSPropertyOp28
 70
     1
102
RTVSPropertyOp29
 70
     1
102
RTVSPropertyOp30
 70
     1
102
RTVSPropertyOp31
 70
     1
102
RTVSPropertyOp32
 70
     1
  0
XRECORD
  5
72
102
{ACAD_REACTORS
330
71
102
}
330
71
100
AcDbXrecord
280
     1
102
RTVSPropertyOp0
 70
     1
102
RTVSPropertyOp1
 70
     1
102
RTVSPropertyOp2
 70
     1
102
RTVSPropertyOp3
 70
     1
102
RTVSPropertyOp4
 70
     1
102
RTVSPropertyOp5
 70
     1
102
RTVSPropertyOp6
 70
     1
102
RTVSPropertyOp7
 70
     1
102
RTVSPropertyOp8
 70
     1
102
RTVSPropertyOp9
 70
     1
102
RTVSPropertyOp10
 70
     1
102
RTVSPropertyOp11
 70
     1
102
RTVSPropertyOp12
 70
     1
102
RTVSPropertyOp13
 70
     1
102
RTVSPropertyOp14
 70
     1
102
RTVSPropertyOp15
 70
     1
102
RTVSPropertyOp16
 70
     1
102
RTVSPropertyOp17
 70
     1
102
RTVSPropertyOp18
 70
     1
102
RTVSPropertyOp19
 70
     1
102
RTVSPropertyOp20
 70
     1
102
RTVSPropertyOp21
 70
     1
102
RTVSPropertyOp22
 70
     1
102
RTVSPropertyOp23
 70
     1
102
RTVSPropertyOp24
 70
     1
102
RTVSPropertyOp25
 70
     1
102
RTVSPropertyOp26
 70
     1
102
RTVSPropertyOp27
 70
     1
102
RTVSPropertyOp28
 70
     1
102
RTVSPropertyOp29
 70
     1
102
RTVSPropertyOp30
 70
     1
102
RTVSPropertyOp31
 70
     1
102
RTVSPropertyOp32
 70
     1
  0
XRECORD
  5
74
102
{ACAD_REACTORS
330
73
102
}
330
73
100
AcDbXrecord
280
     1
102
RTVSPropertyOp0
 70
     1
102
RTVSPropertyOp1
 70
     1
102
RTVSPropertyOp2
 70
     1
102
RTVSPropertyOp3
 70
     1
102
RTVSPropertyOp4
 70
     1
102
RTVSPropertyOp5
 70
     1
102
RTVSPropertyOp6
 70
     1
102
RTVSPropertyOp7
 70
     1
102
RTVSPropertyOp8
 70
     1
102
RTVSPropertyOp9
 70
     1
102
RTVSPropertyOp10
 70
     1
102
RTVSPropertyOp11
 70
     1
102
RTVSPropertyOp12
 70
     1
102
RTVSPropertyOp13
 70
     1
102
RTVSPropertyOp14
 70
     1
102
RTVSPropertyOp15
 70
     1
102
RTVSPropertyOp16
 70
     1
102
RTVSPropertyOp17
 70
     1
102
RTVSPropertyOp18
 70
     1
102
RTVSPropertyOp19
 70
     1
102
RTVSPropertyOp20
 70
     1
102
RTVSPropertyOp21
 70
     1
102
RTVSPropertyOp22
 70
     1
102
RTVSPropertyOp23
 70
     1
102
RTVSPropertyOp24
 70
     1
102
RTVSPropertyOp25
 70
     1
102
RTVSPropertyOp26
 70
     1
102
RTVSPropertyOp27
 70
     1
102
RTVSPropertyOp28
 70
     1
102
RTVSPropertyOp29
 70
     1
102
RTVSPropertyOp30
 70
     1
102
RTVSPropertyOp31
 70
     1
102
RTVSPropertyOp32
 70
     1
  0
XRECORD
  5
7C
102
{ACAD_REACTORS
330
7B
102
}
330
7B
100
AcDbXrecord
280
     1
102
RTVSPropertyOp0
 70
     1
102
RTVSPropertyOp1
 70
     1
102
RTVSPropertyOp2
 70
     1
102
RTVSPropertyOp3
 70
     1
102
RTVSPropertyOp4
 70
     1
102
RTVSPropertyOp5
 70
     1
102
RTVSPropertyOp6
 70
     1
102
RTVSPropertyOp7
 70
     1
102
RTVSPropertyOp8
 70
     1
102
RTVSPropertyOp9
 70
     1
102
RTVSPropertyOp10
 70
     1
102
RTVSPropertyOp11
 70
     1
102
RTVSPropertyOp12
 70
     1
102
RTVSPropertyOp13
 70
     1
102
RTVSPropertyOp14
 70
     1
102
RTVSPropertyOp15
 70
     1
102
RTVSPropertyOp16
 70
     1
102
RTVSPropertyOp17
 70
     1
102
RTVSPropertyOp18
 70
     1
102
RTVSPropertyOp19
 70
     1
102
RTVSPropertyOp20
 70
     1
102
RTVSPropertyOp21
 70
     1
102
RTVSPropertyOp22
 70
     1
102
RTVSPropertyOp23
 70
     1
102
RTVSPropertyOp24
 70
     1
102
RTVSPropertyOp25
 70
     1
102
RTVSPropertyOp26
 70
     1
102
RTVSPropertyOp27
 70
     1
102
RTVSPropertyOp28
 70
     1
102
RTVSPropertyOp29
 70
     1
102
RTVSPropertyOp30
 70
     1
102
RTVSPropertyOp31
 70
     1
102
RTVSPropertyOp32
 70
     1
  0
XRECORD
  5
60
102
{ACAD_REACTORS
330
5F
102
}
330
5F
100
AcDbXrecord
280
     1
102
RTVSPropertyOp0
 70
     1
102
RTVSPropertyOp1
 70
     1
102
RTVSPropertyOp2
 70
     1
102
RTVSPropertyOp3
 70
     1
102
RTVSPropertyOp4
 70
     1
102
RTVSPropertyOp5
 70
     1
102
RTVSPropertyOp6
 70
     1
102
RTVSPropertyOp7
 70
     1
102
RTVSPropertyOp8
 70
     1
102
RTVSPropertyOp9
 70
     1
102
RTVSPropertyOp10
 70
     1
102
RTVSPropertyOp11
 70
     1
102
RTVSPropertyOp12
 70
     1
102
RTVSPropertyOp13
 70
     1
102
RTVSPropertyOp14
 70
     1
102
RTVSPropertyOp15
 70
     1
102
RTVSPropertyOp16
 70
     1
102
RTVSPropertyOp17
 70
     1
102
RTVSPropertyOp18
 70
     1
102
RTVSPropertyOp19
 70
     1
102
RTVSPropertyOp20
 70
     1
102
RTVSPropertyOp21
 70
     1
102
RTVSPropertyOp22
 70
     1
102
RTVSPropertyOp23
 70
     1
102
RTVSPropertyOp24
 70
     1
102
RTVSPropertyOp25
 70
     1
102
RTVSPropertyOp26
 70
     1
102
RTVSPropertyOp27
 70
     1
102
RTVSPropertyOp28
 70
     1
102
RTVSPropertyOp29
 70
     1
102
RTVSPropertyOp30
 70
     1
102
RTVSPropertyOp31
 70
     1
102
RTVSPropertyOp32
 70
     1
  0
XRECORD
  5
62
102
{ACAD_REACTORS
330
61
102
}
330
61
100
AcDbXrecord
280
     1
102
RTVSPropertyOp0
 70
     1
102
RTVSPropertyOp1
 70
     1
102
RTVSPropertyOp2
 70
     1
102
RTVSPropertyOp3
 70
     1
102
RTVSPropertyOp4
 70
     1
102
RTVSPropertyOp5
 70
     1
102
RTVSPropertyOp6
 70
     1
102
RTVSPropertyOp7
 70
     1
102
RTVSPropertyOp8
 70
     1
102
RTVSPropertyOp9
 70
     1
102
RTVSPropertyOp10
 70
     1
102
RTVSPropertyOp11
 70
     1
102
RTVSPropertyOp12
 70
     1
102
RTVSPropertyOp13
 70
     1
102
RTVSPropertyOp14
 70
     1
102
RTVSPropertyOp15
 70
     1
102
RTVSPropertyOp16
 70
     1
102
RTVSPropertyOp17
 70
     1
102
RTVSPropertyOp18
 70
     1
102
RTVSPropertyOp19
 70
     1
102
RTVSPropertyOp20
 70
     1
102
RTVSPropertyOp21
 70
     1
102
RTVSPropertyOp22
 70
     1
102
RTVSPropertyOp23
 70
     1
102
RTVSPropertyOp24
 70
     1
102
RTVSPropertyOp25
 70
     1
102
RTVSPropertyOp26
 70
     1
102
RTVSPropertyOp27
 70
     1
102
RTVSPropertyOp28
 70
     1
102
RTVSPropertyOp29
 70
     1
102
RTVSPropertyOp30
 70
     1
102
RTVSPropertyOp31
 70
     1
102
RTVSPropertyOp32
 70
     1
  0
XRECORD
  5
64
102
{ACAD_REACTORS
330
63
102
}
330
63
100
AcDbXrecord
280
     1
102
RTVSPropertyOp0
 70
     1
102
RTVSPropertyOp1
 70
     1
102
RTVSPropertyOp2
 70
     1
102
RTVSPropertyOp3
 70
     1
102
RTVSPropertyOp4
 70
     1
102
RTVSPropertyOp5
 70
     1
102
RTVSPropertyOp6
 70
     1
102
RTVSPropertyOp7
 70
     1
102
RTVSPropertyOp8
 70
     1
102
RTVSPropertyOp9
 70
     1
102
RTVSPropertyOp10
 70
     1
102
RTVSPropertyOp11
 70
     1
102
RTVSPropertyOp12
 70
     1
102
RTVSPropertyOp13
 70
     1
102
RTVSPropertyOp14
 70
     1
102
RTVSPropertyOp15
 70
     1
102
RTVSPropertyOp16
 70
     1
102
RTVSPropertyOp17
 70
     1
102
RTVSPropertyOp18
 70
     1
102
RTVSPropertyOp19
 70
     1
102
RTVSPropertyOp20
 70
     1
102
RTVSPropertyOp21
 70
     1
102
RTVSPropertyOp22
 70
     1
102
RTVSPropertyOp23
 70
     1
102
RTVSPropertyOp24
 70
     1
102
RTVSPropertyOp25
 70
     1
102
RTVSPropertyOp26
 70
     1
102
RTVSPropertyOp27
 70
     1
102
RTVSPropertyOp28
 70
     1
102
RTVSPropertyOp29
 70
     1
102
RTVSPropertyOp30
 70
     1
102
RTVSPropertyOp31
 70
     1
102
RTVSPropertyOp32
 70
     1
  0
XRECORD
  5
66
102
{ACAD_REACTORS
330
65
102
}
330
65
100
AcDbXrecord
280
     1
102
RTVSPropertyOp0
 70
     1
102
RTVSPropertyOp1
 70
     1
102
RTVSPropertyOp2
 70
     1
102
RTVSPropertyOp3
 70
     1
102
RTVSPropertyOp4
 70
     1
102
RTVSPropertyOp5
 70
     1
102
RTVSPropertyOp6
 70
     1
102
RTVSPropertyOp7
 70
     1
102
RTVSPropertyOp8
 70
     1
102
RTVSPropertyOp9
 70
     1
102
RTVSPropertyOp10
 70
     1
102
RTVSPropertyOp11
 70
     1
102
RTVSPropertyOp12
 70
     1
102
RTVSPropertyOp13
 70
     1
102
RTVSPropertyOp14
 70
     1
102
RTVSPropertyOp15
 70
     1
102
RTVSPropertyOp16
 70
     1
102
RTVSPropertyOp17
 70
     1
102
RTVSPropertyOp18
 70
     1
102
RTVSPropertyOp19
 70
     1
102
RTVSPropertyOp20
 70
     1
102
RTVSPropertyOp21
 70
     1
102
RTVSPropertyOp22
 70
     1
102
RTVSPropertyOp23
 70
     1
102
RTVSPropertyOp24
 70
     1
102
RTVSPropertyOp25
 70
     1
102
RTVSPropertyOp26
 70
     1
102
RTVSPropertyOp27
 70
     1
102
RTVSPropertyOp28
 70
     1
102
RTVSPropertyOp29
 70
     1
102
RTVSPropertyOp30
 70
     1
102
RTVSPropertyOp31
 70
     1
102
RTVSPropertyOp32
 70
     1
  0
XRECORD
  5
7A
102
{ACAD_REACTORS
330
79
102
}
330
79
100
AcDbXrecord
280
     1
102
RTVSPropertyOp0
 70
     1
102
RTVSPropertyOp1
 70
     1
102
RTVSPropertyOp2
 70
     1
102
RTVSPropertyOp3
 70
     1
102
RTVSPropertyOp4
 70
     1
102
RTVSPropertyOp5
 70
     1
102
RTVSPropertyOp6
 70
     1
102
RTVSPropertyOp7
 70
     1
102
RTVSPropertyOp8
 70
     1
102
RTVSPropertyOp9
 70
     1
102
RTVSPropertyOp10
 70
     1
102
RTVSPropertyOp11
 70
     1
102
RTVSPropertyOp12
 70
     1
102
RTVSPropertyOp13
 70
     1
102
RTVSPropertyOp14
 70
     1
102
RTVSPropertyOp15
 70
     1
102
RTVSPropertyOp16
 70
     1
102
RTVSPropertyOp17
 70
     1
102
RTVSPropertyOp18
 70
     1
102
RTVSPropertyOp19
 70
     1
102
RTVSPropertyOp20
 70
     1
102
RTVSPropertyOp21
 70
     1
102
RTVSPropertyOp22
 70
     1
102
RTVSPropertyOp23
 70
     1
102
RTVSPropertyOp24
 70
     1
102
RTVSPropertyOp25
 70
     1
102
RTVSPropertyOp26
 70
     1
102
RTVSPropertyOp27
 70
     1
102
RTVSPropertyOp28
 70
     1
102
RTVSPropertyOp29
 70
     1
102
RTVSPropertyOp30
 70
     1
102
RTVSPropertyOp31
 70
     1
102
RTVSPropertyOp32
 70
     1
  0
XRECORD
  5
70
102
{ACAD_REACTORS
330
6F
102
}
330
6F
100
AcDbXrecord
280
     1
102
RTVSPropertyOp0
 70
     1
102
RTVSPropertyOp1
 70
     1
102
RTVSPropertyOp2
 70
     1
102
RTVSPropertyOp3
 70
     1
102
RTVSPropertyOp4
 70
     1
102
RTVSPropertyOp5
 70
     1
102
RTVSPropertyOp6
 70
     1
102
RTVSPropertyOp7
 70
     1
102
RTVSPropertyOp8
 70
     1
102
RTVSPropertyOp9
 70
     1
102
RTVSPropertyOp10
 70
     1
102
RTVSPropertyOp11
 70
     1
102
RTVSPropertyOp12
 70
     1
102
RTVSPropertyOp13
 70
     1
102
RTVSPropertyOp14
 70
     1
102
RTVSPropertyOp15
 70
     1
102
RTVSPropertyOp16
 70
     1
102
RTVSPropertyOp17
 70
     1
102
RTVSPropertyOp18
 70
     1
102
RTVSPropertyOp19
 70
     1
102
RTVSPropertyOp20
 70
     1
102
RTVSPropertyOp21
 70
     1
102
RTVSPropertyOp22
 70
     1
102
RTVSPropertyOp23
 70
     1
102
RTVSPropertyOp24
 70
     1
102
RTVSPropertyOp25
 70
     1
102
RTVSPropertyOp26
 70
     1
102
RTVSPropertyOp27
 70
     1
102
RTVSPropertyOp28
 70
     1
102
RTVSPropertyOp29
 70
     1
102
RTVSPropertyOp30
 70
     1
102
RTVSPropertyOp31
 70
     1
102
RTVSPropertyOp32
 70
     1
  0
XRECORD
  5
78
102
{ACAD_REACTORS
330
77
102
}
330
77
100
AcDbXrecord
280
     1
102
RTVSPropertyOp0
 70
     1
102
RTVSPropertyOp1
 70
     1
102
RTVSPropertyOp2
 70
     1
102
RTVSPropertyOp3
 70
     1
102
RTVSPropertyOp4
 70
     1
102
RTVSPropertyOp5
 70
     1
102
RTVSPropertyOp6
 70
     1
102
RTVSPropertyOp7
 70
     1
102
RTVSPropertyOp8
 70
     1
102
RTVSPropertyOp9
 70
     1
102
RTVSPropertyOp10
 70
     1
102
RTVSPropertyOp11
 70
     1
102
RTVSPropertyOp12
 70
     1
102
RTVSPropertyOp13
 70
     1
102
RTVSPropertyOp14
 70
     1
102
RTVSPropertyOp15
 70
     1
102
RTVSPropertyOp16
 70
     1
102
RTVSPropertyOp17
 70
     1
102
RTVSPropertyOp18
 70
     1
102
RTVSPropertyOp19
 70
     1
102
RTVSPropertyOp20
 70
     1
102
RTVSPropertyOp21
 70
     1
102
RTVSPropertyOp22
 70
     1
102
RTVSPropertyOp23
 70
     1
102
RTVSPropertyOp24
 70
     1
102
RTVSPropertyOp25
 70
     1
102
RTVSPropertyOp26
 70
     1
102
RTVSPropertyOp27
 70
     1
102
RTVSPropertyOp28
 70
     1
102
RTVSPropertyOp29
 70
     1
102
RTVSPropertyOp30
 70
     1
102
RTVSPropertyOp31
 70
     1
102
RTVSPropertyOp32
 70
     1
  0
ENDSEC
  0
EOF
