  0
SECTION
  2
HEADER
  9
$ACADVER
  1
AC1021
  9
$ACADMAINTVER
 70
    25
  9
$DWGCODEPAGE
  3
ANSI_1252
  9
$INSBASE
 10
0.0
 20
0.0
 30
0.0
  9
$EXTMIN
 10
-4.47646
 20
-1.47646
 30
0.0
  9
$EXTMAX
 10
4.47646
 20
1.47646
 30
0.0
  9
$LIMMIN
 10
0.0
 20
0.0
  9
$LIMMAX
 10
12.0
 20
9.0
  9
$ORTHOMODE
 70
     0
  9
$REGENMODE
 70
     1
  9
$FILLMODE
 70
     1
  9
$QTEXTMODE
 70
     0
  9
$MIRRTEXT
 70
     1
  9
$LTSCALE
 40
1.0
  9
$ATTMODE
 70
     1
  9
$TEXTSIZE
 40
0.2
  9
$TRACEWID
 40
0.05
  9
$TEXTSTYLE
  7
Standard
  9
$CLAYER
  8
0
  9
$CELTYPE
  6
ByLayer
  9
$CECOLOR
 62
   256
  9
$CELTSCALE
 40
1.0
  9
$DISPSILH
 70
     0
  9
$DIMSCALE
 40
1.0
  9
$DIMASZ
 40
0.18
  9
$DIMEXO
 40
0.0625
  9
$DIMDLI
 40
0.38
  9
$DIMRND
 40
0.0
  9
$DIMDLE
 40
0.0
  9
$DIMEXE
 40
0.18
  9
$DIMTP
 40
0.0
  9
$DIMTM
 40
0.0
  9
$DIMTXT
 40
0.18
  9
$DIMCEN
 40
0.09
  9
$DIMTSZ
 40
0.0
  9
$DIMTOL
 70
     0
  9
$DIMLIM
 70
     0
  9
$DIMTIH
 70
     1
  9
$DIMTOH
 70
     1
  9
$DIMSE1
 70
     0
  9
$DIMSE2
 70
     0
  9
$DIMTAD
 70
     0
  9
$DIMZIN
 70
     0
  9
$DIMBLK
  1

  9
$DIMASO
 70
     1
  9
$DIMSHO
 70
     1
  9
$DIMPOST
  1

  9
$DIMAPOST
  1

  9
$DIMALT
 70
     0
  9
$DIMALTD
 70
     2
  9
$DIMALTF
 40
25.4
  9
$DIMLFAC
 40
1.0
  9
$DIMTOFL
 70
     0
  9
$DIMTVP
 40
0.0
  9
$DIMTIX
 70
     0
  9
$DIMSOXD
 70
     0
  9
$DIMSAH
 70
     0
  9
$DIMBLK1
  1

  9
$DIMBLK2
  1

  9
$DIMSTYLE
  2
Standard
  9
$DIMCLRD
 70
     0
  9
$DIMCLRE
 70
     0
  9
$DIMCLRT
 70
     0
  9
$DIMTFAC
 40
1.0
  9
$DIMGAP
 40
0.09
  9
$DIMJUST
 70
     0
  9
$DIMSD1
 70
     0
  9
$DIMSD2
 70
     0
  9
$DIMTOLJ
 70
     1
  9
$DIMTZIN
 70
     0
  9
$DIMALTZ
 70
     0
  9
$DIMALTTZ
 70
     0
  9
$DIMUPT
 70
     0
  9
$DIMDEC
 70
     4
  9
$DIMTDEC
 70
     4
  9
$DIMALTU
 70
     2
  9
$DIMALTTD
 70
     2
  9
$DIMTXSTY
  7
Standard
  9
$DIMAUNIT
 70
     0
  9
$DIMADEC
 70
     0
  9
$DIMALTRND
 40
0.0
  9
$DIMAZIN
 70
     0
  9
$DIMDSEP
 70
    46
  9
$DIMATFIT
 70
     3
  9
$DIMFRAC
 70
     0
  9
$DIMLDRBLK
  1

  9
$DIMLUNIT
 70
     2
  9
$DIMLWD
 70
    -2
  9
$DIMLWE
 70
    -2
  9
$DIMTMOVE
 70
     0
  9
$DIMFXL
 40
1.0
  9
$DIMFXLON
 70
     0
  9
$DIMJOGANG
 40
0.7853981633974483
  9
$DIMTFILL
 70
     0
  9
$DIMTFILLCLR
 70
     0
  9
$DIMARCSYM
 70
     0
  9
$DIMLTYPE
  6

  9
$DIMLTEX1
  6

  9
$DIMLTEX2
  6

  9
$LUNITS
 70
     2
  9
$LUPREC
 70
     4
  9
$SKETCHINC
 40
0.1
  9
$FILLETRAD
 40
0.5
  9
$AUNITS
 70
     0
  9
$AUPREC
 70
     0
  9
$MENU
  1
.
  9
$ELEVATION
 40
0.0
  9
$PELEVATION
 40
0.0
  9
$THICKNESS
 40
0.0
  9
$LIMCHECK
 70
     0
  9
$CHAMFERA
 40
0.5
  9
$CHAMFERB
 40
0.5
  9
$CHAMFERC
 40
1.0
  9
$CHAMFERD
 40
0.0
  9
$SKPOLY
 70
     0
  9
$TDCREATE
 40
2460594.466286018
  9
$TDUCREATE
 40
2460594.424619352
  9
$TDUPDATE
 40
2460594.466286111
  9
$TDUUPDATE
 40
2460594.424619445
  9
$TDINDWG
 40
0.0000000116
  9
$TDUSRTIMER
 40
0.0000000116
  9
$USRTIMER
 70
     1
  9
$ANGBASE
 50
0.0
  9
$ANGDIR
 70
     0
  9
$PDMODE
 70
     0
  9
$PDSIZE
 40
0.0
  9
$PLINEWID
 40
0.0
  9
$SPLFRAME
 70
     0
  9
$SPLINETYPE
 70
     6
  9
$SPLINESEGS
 70
     8
  9
$HANDSEED
  5
83
  9
$SURFTAB1
 70
     6
  9
$SURFTAB2
 70
     6
  9
$SURFTYPE
 70
     6
  9
$SURFU
 70
     6
  9
$SURFV
 70
     6
  9
$UCSBASE
  2

  9
$UCSNAME
  2

  9
$UCSORG
 10
0.0
 20
0.0
 30
0.0
  9
$UCSXDIR
 10
1.0
 20
0.0
 30
0.0
  9
$UCSYDIR
 10
0.0
 20
1.0
 30
0.0
  9
$UCSORTHOREF
  2

  9
$UCSORTHOVIEW
 70
     0
  9
$UCSORGTOP
 10
0.0
 20
0.0
 30
0.0
  9
$UCSORGBOTTOM
 10
0.0
 20
0.0
 30
0.0
  9
$UCSORGLEFT
 10
0.0
 20
0.0
 30
0.0
  9
$UCSORGRIGHT
 10
0.0
 20
0.0
 30
0.0
  9
$UCSORGFRONT
 10
0.0
 20
0.0
 30
0.0
  9
$UCSORGBACK
 10
0.0
 20
0.0
 30
0.0
  9
$PUCSBASE
  2

  9
$PUCSNAME
  2

  9
$PUCSORG
 10
0.0
 20
0.0
 30
0.0
  9
$PUCSXDIR
 10
1.0
 20
0.0
 30
0.0
  9
$PUCSYDIR
 10
0.0
 20
1.0
 30
0.0
  9
$PUCSORTHOREF
  2

  9
$PUCSORTHOVIEW
 70
     0
  9
$PUCSORGTOP
 10
0.0
 20
0.0
 30
0.0
  9
$PUCSORGBOTTOM
 10
0.0
 20
0.0
 30
0.0
  9
$PUCSORGLEFT
 10
0.0
 20
0.0
 30
0.0
  9
$PUCSORGRIGHT
 10
0.0
 20
0.0
 30
0.0
  9
$PUCSORGFRONT
 10
0.0
 20
0.0
 30
0.0
  9
$PUCSORGBACK
 10
0.0
 20
0.0
 30
0.0
  9
$USERI1
 70
     0
  9
$USERI2
 70
     0
  9
$USERI3
 70
     0
  9
$USERI4
 70
     0
  9
$USERI5
 70
     0
  9
$USERR1
 40
0.0
  9
$USERR2
 40
0.0
  9
$USERR3
 40
0.0
  9
$USERR4
 40
0.0
  9
$USERR5
 40
0.0
  9
$WORLDVIEW
 70
     1
  9
$SHADEDGE
 70
     3
  9
$SHADEDIF
 70
    70
  9
$TILEMODE
 70
     1
  9
$MAXACTVP
 70
    64
  9
$PINSBASE
 10
0.0
 20
0.0
 30
0.0
  9
$PLIMCHECK
 70
     0
  9
$PEXTMIN
 10
1.000000000000000E+20
 20
1.000000000000000E+20
 30
1.000000000000000E+20
  9
$PEXTMAX
 10
-1.000000000000000E+20
 20
-1.000000000000000E+20
 30
-1.000000000000000E+20
  9
$PLIMMIN
 10
0.0
 20
0.0
  9
$PLIMMAX
 10
12.0
 20
9.0
  9
$UNITMODE
 70
     0
  9
$VISRETAIN
 70
     1
  9
$PLINEGEN
 70
     0
  9
$PSLTSCALE
 70
     1
  9
$TREEDEPTH
 70
  3020
  9
$CMLSTYLE
  2
Standard
  9
$CMLJUST
 70
     0
  9
$CMLSCALE
 40
1.0
  9
$PROXYGRAPHICS
 70
     1
  9
$MEASUREMENT
 70
     0
  9
$CELWEIGHT
370
    -1
  9
$ENDCAPS
280
     0
  9
$JOINSTYLE
280
     0
  9
$LWDISPLAY
290
     0
  9
$INSUNITS
 70
     5
  9
$HYPERLINKBASE
  1

  9
$STYLESHEET
  1

  9
$XEDIT
290
     1
  9
$CEPSNTYPE
380
     0
  9
$PSTYLEMODE
290
     1
  9
$FINGERPRINTGUID
  2
{6A8CD978-519C-45D5-9910-137D6DBEEAAE}
  9
$VERSIONGUID
  2
{FAEB1C32-E019-11D5-929B-00C0DF256EC4}
  9
$EXTNAMES
290
     1
  9
$PSVPSCALE
 40
0.0
  9
$OLESTARTUP
290
     0
  9
$SORTENTS
280
   127
  9
$INDEXCTL
280
     0
  9
$HIDETEXT
280
     1
  9
$XCLIPFRAME
290
     0
  9
$HALOGAP
280
     0
  9
$OBSCOLOR
 70
   257
  9
$OBSLTYPE
280
     0
  9
$INTERSECTIONDISPLAY
280
     0
  9
$INTERSECTIONCOLOR
 70
   257
  9
$DIMASSOC
280
     2
  9
$PROJECTNAME
  1

  9
$CAMERADISPLAY
290
     0
  9
$LENSLENGTH
 40
50.0
  9
$CAMERAHEIGHT
 40
0.0
  9
$STEPSPERSEC
 40
2.0
  9
$STEPSIZE
 40
6.0
  9
$3DDWFPREC
 40
2.0
  9
$PSOLWIDTH
 40
0.25
  9
$PSOLHEIGHT
 40
4.0
  9
$LOFTANG1
 40
1.570796326794897
  9
$LOFTANG2
 40
1.570796326794897
  9
$LOFTMAG1
 40
0.0
  9
$LOFTMAG2
 40
0.0
  9
$LOFTPARAM
 70
     7
  9
$LOFTNORMALS
280
     1
  9
$LATITUDE
 40
37.795
  9
$LONGITUDE
 40
-122.394
  9
$NORTHDIRECTION
 40
0.0
  9
$TIMEZONE
 70
 -8000
  9
$LIGHTGLYPHDISPLAY
280
     1
  9
$TILEMODELIGHTSYNCH
280
     1
  9
$SOLIDHIST
280
     1
  9
$SHOWHIST
280
     1
  9
$DWFFRAME
280
     2
  9
$DGNFRAME
280
     2
  9
$REALWORLDSCALE
290
     1
  9
$INTERFERECOLOR
 62
   256
  9
$CSHADOW
280
     0
  9
$SHADOWPLANELOCATION
 40
0.0
  0
ENDSEC
  0
SECTION
  2
CLASSES
  0
CLASS
  1
ACDBDICTIONARYWDFLT
  2
AcDbDictionaryWithDefault
  3
ObjectDBX Classes
 90
        0
 91
        4
280
     0
281
     0
  0
CLASS
  1
VISUALSTYLE
  2
AcDbVisualStyle
  3
ObjectDBX Classes
 90
     4095
 91
        4
280
     0
281
     0
  0
CLASS
  1
MATERIAL
  2
AcDbMaterial
  3
ObjectDBX Classes
 90
     1153
 91
        4
280
     0
281
     0
  0
ENDSEC
  0
SECTION
  2
TABLES
  0
TABLE
  2
VPORT
  5
8
330
0
100
AcDbSymbolTable
 70
     1
  0
VPORT
  5
29
330
8
100
AcDbSymbolTableRecord
100
AcDbViewportTableRecord
  2
*Active
 70
     0
 10
0.0
 20
0.0
 11
1.0
 21
1.0
 12
10.42990654205607
 22
4.5
 13
0.0
 23
0.0
 14
0.5
 24
0.5
 15
0.5
 25
0.5
 16
0.0
 26
0.0
 36
1.0
 17
0.0
 27
0.0
 37
0.0
 40
9.0
 41
1.972972972850329
 42
50.0
 43
0.0
 44
0.0
 50
0.0
 51
0.0
 71
     0
 72
   100
 73
     1
 74
     3
 75
     0
 76
     0
 77
     0
 78
     0
281
     0
 65
     1
110
0.0
120
0.0
130
0.0
111
1.0
121
0.0
131
0.0
112
0.0
122
1.0
132
0.0
 79
     0
146
0.0
 60
     3
 61
     5
292
     1
282
     1
141
0.0
142
0.0
 63
   250
  0
ENDTAB
  0
TABLE
  2
LTYPE
  5
5
330
0
100
AcDbSymbolTable
 70
     1
  0
LTYPE
  5
14
330
5
100
AcDbSymbolTableRecord
100
AcDbLinetypeTableRecord
  2
ByBlock
 70
     0
  3

 72
    65
 73
     0
 40
0.0
  0
LTYPE
  5
15
330
5
100
AcDbSymbolTableRecord
100
AcDbLinetypeTableRecord
  2
ByLayer
 70
     0
  3

 72
    65
 73
     0
 40
0.0
  0
LTYPE
  5
16
330
5
100
AcDbSymbolTableRecord
100
AcDbLinetypeTableRecord
  2
Continuous
 70
     0
  3
Solid line
 72
    65
 73
     0
 40
0.0
  0
ENDTAB
  0
TABLE
  2
LAYER
  5
2
330
0
100
AcDbSymbolTable
 70
     2
  0
LAYER
  5
10
330
2
100
AcDbSymbolTableRecord
100
AcDbLayerTableRecord
  2
0
 70
     0
 62
     7
  6
Continuous
370
    -3
390
F
347
3E
  0
LAYER
  5
40
330
2
100
AcDbSymbolTableRecord
100
AcDbLayerTableRecord
  2
Layer 1
 70
     0
 62
     7
  6
Continuous
370
    -3
390
F
347
3E
  0
ENDTAB
  0
TABLE
  2
STYLE
  5
3
330
0
100
AcDbSymbolTable
 70
     1
  0
STYLE
  5
11
330
3
100
AcDbSymbolTableRecord
100
AcDbTextStyleTableRecord
  2
Standard
 70
     0
 40
0.0
 41
1.0
 50
0.0
 71
     0
 42
0.2
  3
txt
  4

  0
ENDTAB
  0
TABLE
  2
VIEW
  5
6
330
0
100
AcDbSymbolTable
 70
     0
  0
ENDTAB
  0
TABLE
  2
UCS
  5
7
330
0
100
AcDbSymbolTable
 70
     0
  0
ENDTAB
  0
TABLE
  2
APPID
  5
9
330
0
100
AcDbSymbolTable
 70
     2
  0
APPID
  5
12
330
9
100
AcDbSymbolTableRecord
100
AcDbRegAppTableRecord
  2
ACAD
 70
     0
  0
APPID
  5
3F
330
9
100
AcDbSymbolTableRecord
100
AcDbRegAppTableRecord
  2
ODA
 70
     0
  0
ENDTAB
  0
TABLE
  2
DIMSTYLE
  5
A
330
0
100
AcDbSymbolTable
 70
     1
100
AcDbDimStyleTable
  0
DIMSTYLE
105
27
330
A
100
AcDbSymbolTableRecord
100
AcDbDimStyleTableRecord
  2
Standard
 70
     0
178
     0
340
11
  0
ENDTAB
  0
TABLE
  2
BLOCK_RECORD
  5
1
330
0
100
AcDbSymbolTable
 70
     1
  0
BLOCK_RECORD
  5
1F
330
1
100
AcDbSymbolTableRecord
100
AcDbBlockTableRecord
  2
*Model_Space
340
22
 70
     0
280
     1
281
     0
  0
BLOCK_RECORD
  5
1B
330
1
100
AcDbSymbolTableRecord
100
AcDbBlockTableRecord
  2
*Paper_Space
340
1E
 70
     0
280
     1
281
     0
  0
BLOCK_RECORD
  5
23
330
1
100
AcDbSymbolTableRecord
100
AcDbBlockTableRecord
  2
*Paper_Space0
340
26
 70
     0
280
     1
281
     0
  0
ENDTAB
  0
ENDSEC
  0
SECTION
  2
BLOCKS
  0
BLOCK
  5
20
330
1F
100
AcDbEntity
  8
0
100
AcDbBlockBegin
  2
*Model_Space
 70
     0
 10
0.0
 20
0.0
 30
0.0
  3
*Model_Space
  1

  0
ENDBLK
  5
21
330
1F
100
AcDbEntity
  8
0
100
AcDbBlockEnd
  0
BLOCK
  5
1C
330
1B
100
AcDbEntity
 67
     1
  8
0
100
AcDbBlockBegin
  2
*Paper_Space
 70
     0
 10
0.0
 20
0.0
 30
0.0
  3
*Paper_Space
  1

  0
ENDBLK
  5
1D
330
1B
100
AcDbEntity
 67
     1
  8
0
100
AcDbBlockEnd
  0
BLOCK
  5
24
330
23
100
AcDbEntity
  8
0
100
AcDbBlockBegin
  2
*Paper_Space0
 70
     0
 10
0.0
 20
0.0
 30
0.0
  3
*Paper_Space0
  1

  0
ENDBLK
  5
25
330
23
100
AcDbEntity
  8
0
100
AcDbBlockEnd
  0
ENDSEC
  0
SECTION
  2
ENTITIES
  0
SPLINE
  5
41
330
1F
100
AcDbEntity
  8
Layer 1
370
    53
100
AcDbSpline
210
0.0
220
0.0
230
1.0
 70
    11
 71
     3
 72
    36
 73
    32
 74
     0
 42
0.0000000001
 43
0.0000000001
 12
1.0
 22
0.0
 32
0.0
 13
1.0
 23
0.0
 33
0.0
 40
0.0
 40
0.0
 40
0.0
 40
0.0
 40
0.1111111111111111
 40
0.1111111111111111
 40
0.1111111111111111
 40
0.1111111111111111
 40
0.2222222222222222
 40
0.2222222222222222
 40
0.2222222222222222
 40
0.2222222222222222
 40
0.3333333333333333
 40
0.3333333333333333
 40
0.3333333333333333
 40
0.3333333333333333
 40
0.4444444444444444
 40
0.4444444444444444
 40
0.4444444444444444
 40
0.4444444444444444
 40
0.5555555555555556
 40
0.5555555555555556
 40
0.5555555555555556
 40
0.5555555555555556
 40
0.6666666666666666
 40
0.6666666666666666
 40
0.6666666666666666
 40
0.6666666666666666
 40
0.7777777777777778
 40
0.7777777777777778
 40
0.7777777777777778
 40
0.7777777777777778
 40
1.0
 40
1.0
 40
1.0
 40
1.0
 10
-4.45
 20
-0.95
 30
0.0
 10
-4.45
 20
-0.95
 30
0.0
 10
-4.45
 20
0.95
 30
0.0
 10
-4.45
 20
0.95
 30
0.0
 10
-4.45
 20
0.95
 30
0.0
 10
-4.45
 20
1.22614
 30
0.0
 10
-4.22614
 20
1.45
 30
0.0
 10
-3.95
 20
1.45
 30
0.0
 10
-3.95
 20
1.45
 30
0.0
 10
-3.95
 20
1.45
 30
0.0
 10
-0.55
 20
1.45
 30
0.0
 10
-0.55
 20
1.45
 30
0.0
 10
-0.55
 20
1.45
 30
0.0
 10
-0.27386
 20
1.45
 30
0.0
 10
-0.05
 20
1.22614
 30
0.0
 10
-0.05
 20
0.95
 30
0.0
 10
-0.05
 20
0.95
 30
0.0
 10
-0.05
 20
0.95
 30
0.0
 10
-0.05
 20
-0.95
 30
0.0
 10
-0.05
 20
-0.95
 30
0.0
 10
-0.05
 20
-0.95
 30
0.0
 10
-0.05
 20
-1.22614
 30
0.0
 10
-0.27386
 20
-1.45
 30
0.0
 10
-0.55
 20
-1.45
 30
0.0
 10
-0.55
 20
-1.45
 30
0.0
 10
-0.55
 20
-1.45
 30
0.0
 10
-3.95
 20
-1.45
 30
0.0
 10
-3.95
 20
-1.45
 30
0.0
 10
-3.95
 20
-1.45
 30
0.0
 10
-4.22614
 20
-1.45
 30
0.0
 10
-4.45
 20
-1.22614
 30
0.0
 10
-4.45
 20
-0.95
 30
0.0
  0
ELLIPSE
  5
42
330
1F
100
AcDbEntity
  8
Layer 1
370
    53
100
AcDbEllipse
 10
-2.24999
 20
0.74999
 30
0.0
 11
0.0
 21
0.37501
 31
0.0
210
0.0
220
0.0
230
1.0
 40
1.0
 41
0.0
 42
6.283185307179586
  0
ELLIPSE
  5
43
330
1F
100
AcDbEntity
  8
Layer 1
370
    53
100
AcDbEllipse
 10
-0.74999
 20
0.74999
 30
0.0
 11
0.0
 21
0.37501
 31
0.0
210
0.0
220
0.0
230
1.0
 40
1.0
 41
0.0
 42
6.283185307179586
  0
ELLIPSE
  5
44
330
1F
100
AcDbEntity
  8
Layer 1
370
    53
100
AcDbEllipse
 10
-3.0
 20
0.75
 30
0.0
 11
0.0
 21
0.15
 31
0.0
210
0.0
220
0.0
230
1.0
 40
1.0
 41
0.0
 42
6.283185307179586
  0
ELLIPSE
  5
45
330
1F
100
AcDbEntity
  8
Layer 1
370
    53
100
AcDbEllipse
 10
-1.5
 20
0.75
 30
0.0
 11
0.0
 21
0.15
 31
0.0
210
0.0
220
0.0
230
1.0
 40
1.0
 41
0.0
 42
6.283185307179586
  0
ELLIPSE
  5
46
330
1F
100
AcDbEntity
  8
Layer 1
370
    53
100
AcDbEllipse
 10
-3.74999
 20
0.74999
 30
0.0
 11
0.0
 21
0.37501
 31
0.0
210
0.0
220
0.0
230
1.0
 40
1.0
 41
0.0
 42
6.283185307179586
  0
SPLINE
  5
47
330
1F
100
AcDbEntity
  8
Layer 1
 62
     5
370
    53
100
AcDbSpline
210
0.0
220
0.0
230
1.0
 70
    11
 71
     3
 72
    44
 73
    40
 74
     0
 42
0.0000000001
 43
0.0000000001
 12
1.0
 22
0.0
 32
0.0
 13
1.0
 23
0.0
 33
0.0
 40
0.0
 40
0.0
 40
0.0
 40
0.0
 40
0.0909090909090909
 40
0.0909090909090909
 40
0.0909090909090909
 40
0.0909090909090909
 40
0.1818181818181818
 40
0.1818181818181818
 40
0.1818181818181818
 40
0.1818181818181818
 40
0.2727272727272727
 40
0.2727272727272727
 40
0.2727272727272727
 40
0.2727272727272727
 40
0.3636363636363636
 40
0.3636363636363636
 40
0.3636363636363636
 40
0.3636363636363636
 40
0.4545454545454545
 40
0.4545454545454545
 40
0.4545454545454545
 40
0.4545454545454545
 40
0.5454545454545454
 40
0.5454545454545454
 40
0.5454545454545454
 40
0.5454545454545454
 40
0.6363636363636364
 40
0.6363636363636364
 40
0.6363636363636364
 40
0.6363636363636364
 40
0.7272727272727273
 40
0.7272727272727273
 40
0.7272727272727273
 40
0.7272727272727273
 40
0.8181818181818182
 40
0.8181818181818182
 40
0.8181818181818182
 40
0.8181818181818182
 40
1.0
 40
1.0
 40
1.0
 40
1.0
 10
-2.95299
 20
-0.67645
 30
0.0
 10
-2.95299
 20
-0.70682
 30
0.0
 10
-2.96072
 20
-0.73381
 30
0.0
 10
-2.97607
 20
-0.75741
 30
0.0
 10
-2.97607
 20
-0.75741
 30
0.0
 10
-2.99141
 20
-0.78101
 30
0.0
 10
-3.01343
 20
-0.79922
 30
0.0
 10
-3.04189
 20
-0.81213
 30
0.0
 10
-3.04189
 20
-0.81213
 30
0.0
 10
-3.07036
 20
-0.82504
 30
0.0
 10
-3.1036
 20
-0.83149
 30
0.0
 10
-3.14138
 20
-0.83149
 30
0.0
 10
-3.14138
 20
-0.83149
 30
0.0
 10
-3.14138
 20
-0.83149
 30
0.0
 10
-3.18223
 20
-0.83149
 30
0.0
 10
-3.18223
 20
-0.83149
 30
0.0
 10
-3.18223
 20
-0.83149
 30
0.0
 10
-3.18223
 20
-0.83149
 30
0.0
 10
-3.18223
 20
-0.97437
 30
0.0
 10
-3.18223
 20
-0.97437
 30
0.0
 10
-3.18223
 20
-0.97437
 30
0.0
 10
-3.18223
 20
-0.97437
 30
0.0
 10
-3.31621
 20
-0.97437
 30
0.0
 10
-3.31621
 20
-0.97437
 30
0.0
 10
-3.31621
 20
-0.97437
 30
0.0
 10
-3.31621
 20
-0.97437
 30
0.0
 10
-3.31621
 20
-0.52987
 30
0.0
 10
-3.31621
 20
-0.52987
 30
0.0
 10
-3.31621
 20
-0.52987
 30
0.0
 10
-3.31621
 20
-0.52987
 30
0.0
 10
-3.13397
 20
-0.52987
 30
0.0
 10
-3.13397
 20
-0.52987
 30
0.0
 10
-3.13397
 20
-0.52987
 30
0.0
 10
-3.07142
 20
-0.52987
 30
0.0
 10
-3.0256
 20
-0.54172
 30
0.0
 10
-2.99649
 20
-0.56554
 30
0.0
 10
-2.99649
 20
-0.56554
 30
0.0
 10
-2.96749
 20
-0.58924
 30
0.0
 10
-2.95299
 20
-0.62628
 30
0.0
 10
-2.95299
 20
-0.67645
 30
0.0
  0
SPLINE
  5
48
330
1F
100
AcDbEntity
  8
Layer 1
 62
     5
370
    53
100
AcDbSpline
210
0.0
220
0.0
230
1.0
 70
    11
 71
     3
 72
    28
 73
    24
 74
     0
 42
0.0000000001
 43
0.0000000001
 12
1.0
 22
0.0
 32
0.0
 13
1.0
 23
0.0
 33
0.0
 40
0.0
 40
0.0
 40
0.0
 40
0.0
 40
0.1428571428571428
 40
0.1428571428571428
 40
0.1428571428571428
 40
0.1428571428571428
 40
0.2857142857142857
 40
0.2857142857142857
 40
0.2857142857142857
 40
0.2857142857142857
 40
0.4285714285714285
 40
0.4285714285714285
 40
0.4285714285714285
 40
0.4285714285714285
 40
0.5714285714285714
 40
0.5714285714285714
 40
0.5714285714285714
 40
0.5714285714285714
 40
0.7142857142857143
 40
0.7142857142857143
 40
0.7142857142857143
 40
0.7142857142857143
 40
1.0
 40
1.0
 40
1.0
 40
1.0
 10
-3.0946
 20
-0.681
 30
0.0
 10
-3.0946
 20
-0.6628
 30
0.0
 10
-3.09989
 20
-0.64904
 30
0.0
 10
-3.11037
 20
-0.63972
 30
0.0
 10
-3.11037
 20
-0.63972
 30
0.0
 10
-3.12095
 20
-0.63041
 30
0.0
 10
-3.1364
 20
-0.62575
 30
0.0
 10
-3.15683
 20
-0.62575
 30
0.0
 10
-3.15683
 20
-0.62575
 30
0.0
 10
-3.15683
 20
-0.62575
 30
0.0
 10
-3.18223
 20
-0.62575
 30
0.0
 10
-3.18223
 20
-0.62575
 30
0.0
 10
-3.18223
 20
-0.62575
 30
0.0
 10
-3.18223
 20
-0.62575
 30
0.0
 10
-3.18223
 20
-0.73561
 30
0.0
 10
-3.18223
 20
-0.73561
 30
0.0
 10
-3.18223
 20
-0.73561
 30
0.0
 10
-3.18223
 20
-0.73561
 30
0.0
 10
-3.15217
 20
-0.73561
 30
0.0
 10
-3.15217
 20
-0.73561
 30
0.0
 10
-3.15217
 20
-0.73561
 30
0.0
 10
-3.11376
 20
-0.73561
 30
0.0
 10
-3.0946
 20
-0.71741
 30
0.0
 10
-3.0946
 20
-0.681
 30
0.0
  0
SPLINE
  5
49
330
1F
100
AcDbEntity
  8
Layer 1
 62
     5
370
    53
100
AcDbSpline
210
0.0
220
0.0
230
1.0
 70
    11
 71
     3
 72
    52
 73
    48
 74
     0
 42
0.0000000001
 43
0.0000000001
 12
1.0
 22
0.0
 32
0.0
 13
1.0
 23
0.0
 33
0.0
 40
0.0
 40
0.0
 40
0.0
 40
0.0
 40
0.0769230769230769
 40
0.0769230769230769
 40
0.0769230769230769
 40
0.0769230769230769
 40
0.1538461538461539
 40
0.1538461538461539
 40
0.1538461538461539
 40
0.1538461538461539
 40
0.2307692307692308
 40
0.2307692307692308
 40
0.2307692307692308
 40
0.2307692307692308
 40
0.3076923076923077
 40
0.3076923076923077
 40
0.3076923076923077
 40
0.3076923076923077
 40
0.3846153846153846
 40
0.3846153846153846
 40
0.3846153846153846
 40
0.3846153846153846
 40
0.4615384615384616
 40
0.4615384615384616
 40
0.4615384615384616
 40
0.4615384615384616
 40
0.5384615384615384
 40
0.5384615384615384
 40
0.5384615384615384
 40
0.5384615384615384
 40
0.6153846153846154
 40
0.6153846153846154
 40
0.6153846153846154
 40
0.6153846153846154
 40
0.6923076923076923
 40
0.6923076923076923
 40
0.6923076923076923
 40
0.6923076923076923
 40
0.7692307692307693
 40
0.7692307692307693
 40
0.7692307692307693
 40
0.7692307692307693
 40
0.8461538461538461
 40
0.8461538461538461
 40
0.8461538461538461
 40
0.8461538461538461
 40
1.0
 40
1.0
 40
1.0
 40
1.0
 10
-2.89976
 20
-0.97437
 30
0.0
 10
-2.89976
 20
-0.97437
 30
0.0
 10
-2.89976
 20
-0.52987
 30
0.0
 10
-2.89976
 20
-0.52987
 30
0.0
 10
-2.89976
 20
-0.52987
 30
0.0
 10
-2.89976
 20
-0.52987
 30
0.0
 10
-2.62301
 20
-0.52987
 30
0.0
 10
-2.62301
 20
-0.52987
 30
0.0
 10
-2.62301
 20
-0.52987
 30
0.0
 10
-2.62301
 20
-0.52987
 30
0.0
 10
-2.62301
 20
-0.63464
 30
0.0
 10
-2.62301
 20
-0.63464
 30
0.0
 10
-2.62301
 20
-0.63464
 30
0.0
 10
-2.62301
 20
-0.63464
 30
0.0
 10
-2.76578
 20
-0.63464
 30
0.0
 10
-2.76578
 20
-0.63464
 30
0.0
 10
-2.76578
 20
-0.63464
 30
0.0
 10
-2.76578
 20
-0.63464
 30
0.0
 10
-2.76578
 20
-0.69941
 30
0.0
 10
-2.76578
 20
-0.69941
 30
0.0
 10
-2.76578
 20
-0.69941
 30
0.0
 10
-2.76578
 20
-0.69941
 30
0.0
 10
-2.63179
 20
-0.69941
 30
0.0
 10
-2.63179
 20
-0.69941
 30
0.0
 10
-2.63179
 20
-0.69941
 30
0.0
 10
-2.63179
 20
-0.69941
 30
0.0
 10
-2.63179
 20
-0.80419
 30
0.0
 10
-2.63179
 20
-0.80419
 30
0.0
 10
-2.63179
 20
-0.80419
 30
0.0
 10
-2.63179
 20
-0.80419
 30
0.0
 10
-2.76578
 20
-0.80419
 30
0.0
 10
-2.76578
 20
-0.80419
 30
0.0
 10
-2.76578
 20
-0.80419
 30
0.0
 10
-2.76578
 20
-0.80419
 30
0.0
 10
-2.76578
 20
-0.86959
 30
0.0
 10
-2.76578
 20
-0.86959
 30
0.0
 10
-2.76578
 20
-0.86959
 30
0.0
 10
-2.76578
 20
-0.86959
 30
0.0
 10
-2.61274
 20
-0.86959
 30
0.0
 10
-2.61274
 20
-0.86959
 30
0.0
 10
-2.61274
 20
-0.86959
 30
0.0
 10
-2.61274
 20
-0.86959
 30
0.0
 10
-2.61274
 20
-0.97437
 30
0.0
 10
-2.61274
 20
-0.97437
 30
0.0
 10
-2.61274
 20
-0.97437
 30
0.0
 10
-2.61274
 20
-0.97437
 30
0.0
 10
-2.89976
 20
-0.97437
 30
0.0
 10
-2.89976
 20
-0.97437
 30
0.0
  0
SPLINE
  5
4A
330
1F
100
AcDbEntity
  8
Layer 1
 62
     5
370
    53
100
AcDbSpline
210
0.0
220
0.0
230
1.0
 70
    11
 71
     3
 72
    32
 73
    28
 74
     0
 42
0.0000000001
 43
0.0000000001
 12
1.0
 22
0.0
 32
0.0
 13
1.0
 23
0.0
 33
0.0
 40
0.0
 40
0.0
 40
0.0
 40
0.0
 40
0.125
 40
0.125
 40
0.125
 40
0.125
 40
0.25
 40
0.25
 40
0.25
 40
0.25
 40
0.375
 40
0.375
 40
0.375
 40
0.375
 40
0.5
 40
0.5
 40
0.5
 40
0.5
 40
0.625
 40
0.625
 40
0.625
 40
0.625
 40
0.75
 40
0.75
 40
0.75
 40
0.75
 40
1.0
 40
1.0
 40
1.0
 40
1.0
 10
-1.95383
 20
-0.74651
 30
0.0
 10
-1.95383
 20
-0.7916
 30
0.0
 10
-1.96325
 20
-0.83139
 30
0.0
 10
-1.9822
 20
-0.866
 30
0.0
 10
-1.9822
 20
-0.866
 30
0.0
 10
-2.00114
 20
-0.9006
 30
0.0
 10
-2.02813
 20
-0.92738
 30
0.0
 10
-2.06327
 20
-0.94611
 30
0.0
 10
-2.06327
 20
-0.94611
 30
0.0
 10
-2.0984
 20
-0.96495
 30
0.0
 10
-2.13894
 20
-0.97437
 30
0.0
 10
-2.18476
 20
-0.97437
 30
0.0
 10
-2.18476
 20
-0.97437
 30
0.0
 10
-2.18476
 20
-0.97437
 30
0.0
 10
-2.37293
 20
-0.97437
 30
0.0
 10
-2.37293
 20
-0.97437
 30
0.0
 10
-2.37293
 20
-0.97437
 30
0.0
 10
-2.37293
 20
-0.97437
 30
0.0
 10
-2.37293
 20
-0.52987
 30
0.0
 10
-2.37293
 20
-0.52987
 30
0.0
 10
-2.37293
 20
-0.52987
 30
0.0
 10
-2.37293
 20
-0.52987
 30
0.0
 10
-2.18878
 20
-0.52987
 30
0.0
 10
-2.18878
 20
-0.52987
 30
0.0
 10
-2.18878
 20
-0.52987
 30
0.0
 10
-2.03215
 20
-0.52987
 30
0.0
 10
-1.95383
 20
-0.60205
 30
0.0
 10
-1.95383
 20
-0.74651
 30
0.0
  0
SPLINE
  5
4B
330
1F
100
AcDbEntity
  8
Layer 1
 62
     5
370
    53
100
AcDbSpline
210
0.0
220
0.0
230
1.0
 70
    11
 71
     3
 72
    36
 73
    32
 74
     0
 42
0.0000000001
 43
0.0000000001
 12
1.0
 22
0.0
 32
0.0
 13
1.0
 23
0.0
 33
0.0
 40
0.0
 40
0.0
 40
0.0
 40
0.0
 40
0.1111111111111111
 40
0.1111111111111111
 40
0.1111111111111111
 40
0.1111111111111111
 40
0.2222222222222222
 40
0.2222222222222222
 40
0.2222222222222222
 40
0.2222222222222222
 40
0.3333333333333333
 40
0.3333333333333333
 40
0.3333333333333333
 40
0.3333333333333333
 40
0.4444444444444444
 40
0.4444444444444444
 40
0.4444444444444444
 40
0.4444444444444444
 40
0.5555555555555556
 40
0.5555555555555556
 40
0.5555555555555556
 40
0.5555555555555556
 40
0.6666666666666666
 40
0.6666666666666666
 40
0.6666666666666666
 40
0.6666666666666666
 40
0.7777777777777778
 40
0.7777777777777778
 40
0.7777777777777778
 40
0.7777777777777778
 40
1.0
 40
1.0
 40
1.0
 40
1.0
 10
-2.09607
 20
-0.74778
 30
0.0
 10
-2.09607
 20
-0.72608
 30
0.0
 10
-2.10041
 20
-0.70651
 30
0.0
 10
-2.1092
 20
-0.68915
 30
0.0
 10
-2.1092
 20
-0.68915
 30
0.0
 10
-2.11798
 20
-0.67179
 30
0.0
 10
-2.13058
 20
-0.65846
 30
0.0
 10
-2.14687
 20
-0.64893
 30
0.0
 10
-2.14687
 20
-0.64893
 30
0.0
 10
-2.16317
 20
-0.63941
 30
0.0
 10
-2.18243
 20
-0.63464
 30
0.0
 10
-2.20455
 20
-0.63464
 30
0.0
 10
-2.20455
 20
-0.63464
 30
0.0
 10
-2.20455
 20
-0.63464
 30
0.0
 10
-2.23895
 20
-0.63464
 30
0.0
 10
-2.23895
 20
-0.63464
 30
0.0
 10
-2.23895
 20
-0.63464
 30
0.0
 10
-2.23895
 20
-0.63464
 30
0.0
 10
-2.23895
 20
-0.86959
 30
0.0
 10
-2.23895
 20
-0.86959
 30
0.0
 10
-2.23895
 20
-0.86959
 30
0.0
 10
-2.23895
 20
-0.86959
 30
0.0
 10
-2.20148
 20
-0.86959
 30
0.0
 10
-2.20148
 20
-0.86959
 30
0.0
 10
-2.20148
 20
-0.86959
 30
0.0
 10
-2.16942
 20
-0.86959
 30
0.0
 10
-2.14381
 20
-0.85859
 30
0.0
 10
-2.12476
 20
-0.83657
 30
0.0
 10
-2.12476
 20
-0.83657
 30
0.0
 10
-2.1056
 20
-0.81456
 30
0.0
 10
-2.09607
 20
-0.78493
 30
0.0
 10
-2.09607
 20
-0.74778
 30
0.0
  0
SPLINE
  5
4C
330
1F
100
AcDbEntity
  8
Layer 1
 62
     5
370
    53
100
AcDbSpline
210
0.0
220
0.0
230
1.0
 70
    11
 71
     3
 72
    72
 73
    68
 74
     0
 42
0.0000000001
 43
0.0000000001
 12
1.0
 22
0.0
 32
0.0
 13
1.0
 23
0.0
 33
0.0
 40
0.0
 40
0.0
 40
0.0
 40
0.0
 40
0.0555555555555556
 40
0.0555555555555556
 40
0.0555555555555556
 40
0.0555555555555556
 40
0.1111111111111111
 40
0.1111111111111111
 40
0.1111111111111111
 40
0.1111111111111111
 40
0.1666666666666667
 40
0.1666666666666667
 40
0.1666666666666667
 40
0.1666666666666667
 40
0.2222222222222222
 40
0.2222222222222222
 40
0.2222222222222222
 40
0.2222222222222222
 40
0.2777777777777778
 40
0.2777777777777778
 40
0.2777777777777778
 40
0.2777777777777778
 40
0.3333333333333333
 40
0.3333333333333333
 40
0.3333333333333333
 40
0.3333333333333333
 40
0.3888888888888889
 40
0.3888888888888889
 40
0.3888888888888889
 40
0.3888888888888889
 40
0.4444444444444444
 40
0.4444444444444444
 40
0.4444444444444444
 40
0.4444444444444444
 40
0.5
 40
0.5
 40
0.5
 40
0.5
 40
0.5555555555555556
 40
0.5555555555555556
 40
0.5555555555555556
 40
0.5555555555555556
 40
0.6111111111111112
 40
0.6111111111111112
 40
0.6111111111111112
 40
0.6111111111111112
 40
0.6666666666666666
 40
0.6666666666666666
 40
0.6666666666666666
 40
0.6666666666666666
 40
0.7222222222222222
 40
0.7222222222222222
 40
0.7222222222222222
 40
0.7222222222222222
 40
0.7777777777777778
 40
0.7777777777777778
 40
0.7777777777777778
 40
0.7777777777777778
 40
0.8333333333333334
 40
0.8333333333333334
 40
0.8333333333333334
 40
0.8333333333333334
 40
0.8888888888888888
 40
0.8888888888888888
 40
0.8888888888888888
 40
0.8888888888888888
 40
1.0
 40
1.0
 40
1.0
 40
1.0
 10
-1.72724
 20
-0.97437
 30
0.0
 10
-1.72724
 20
-0.97437
 30
0.0
 10
-1.72724
 20
-0.92611
 30
0.0
 10
-1.72724
 20
-0.92611
 30
0.0
 10
-1.72724
 20
-0.92611
 30
0.0
 10
-1.72724
 20
-0.92611
 30
0.0
 10
-1.72851
 20
-0.92611
 30
0.0
 10
-1.72851
 20
-0.92611
 30
0.0
 10
-1.72851
 20
-0.92611
 30
0.0
 10
-1.74958
 20
-0.96336
 30
0.0
 10
-1.78175
 20
-0.98199
 30
0.0
 10
-1.82514
 20
-0.98199
 30
0.0
 10
-1.82514
 20
-0.98199
 30
0.0
 10
-1.85509
 20
-0.98199
 30
0.0
 10
-1.87859
 20
-0.9731
 30
0.0
 10
-1.89552
 20
-0.95532
 30
0.0
 10
-1.89552
 20
-0.95532
 30
0.0
 10
-1.91245
 20
-0.93754
 30
0.0
 10
-1.92092
 20
-0.91383
 30
0.0
 10
-1.92092
 20
-0.88409
 30
0.0
 10
-1.92092
 20
-0.88409
 30
0.0
 10
-1.92092
 20
-0.82176
 30
0.0
 10
-1.88261
 20
-0.78556
 30
0.0
 10
-1.80598
 20
-0.77572
 30
0.0
 10
-1.80598
 20
-0.77572
 30
0.0
 10
-1.80598
 20
-0.77572
 30
0.0
 10
-1.72724
 20
-0.76545
 30
0.0
 10
-1.72724
 20
-0.76545
 30
0.0
 10
-1.72724
 20
-0.76545
 30
0.0
 10
-1.72724
 20
-0.75508
 30
0.0
 10
-1.7319
 20
-0.74651
 30
0.0
 10
-1.74121
 20
-0.73984
 30
0.0
 10
-1.74121
 20
-0.73984
 30
0.0
 10
-1.75042
 20
-0.73318
 30
0.0
 10
-1.76291
 20
-0.72989
 30
0.0
 10
-1.77868
 20
-0.72989
 30
0.0
 10
-1.77868
 20
-0.72989
 30
0.0
 10
-1.81413
 20
-0.72989
 30
0.0
 10
-1.8516
 20
-0.74005
 30
0.0
 10
-1.89107
 20
-0.76037
 30
0.0
 10
-1.89107
 20
-0.76037
 30
0.0
 10
-1.89107
 20
-0.76037
 30
0.0
 10
-1.89107
 20
-0.67465
 30
0.0
 10
-1.89107
 20
-0.67465
 30
0.0
 10
-1.89107
 20
-0.67465
 30
0.0
 10
-1.87393
 20
-0.66724
 30
0.0
 10
-1.85245
 20
-0.6611
 30
0.0
 10
-1.82662
 20
-0.65634
 30
0.0
 10
-1.82662
 20
-0.65634
 30
0.0
 10
-1.8008
 20
-0.65158
 30
0.0
 10
-1.77868
 20
-0.64925
 30
0.0
 10
-1.76026
 20
-0.64925
 30
0.0
 10
-1.76026
 20
-0.64925
 30
0.0
 10
-1.7064
 20
-0.64925
 30
0.0
 10
-1.66724
 20
-0.66079
 30
0.0
 10
-1.643
 20
-0.68386
 30
0.0
 10
-1.643
 20
-0.68386
 30
0.0
 10
-1.61877
 20
-0.70682
 30
0.0
 10
-1.60659
 20
-0.74535
 30
0.0
 10
-1.60659
 20
-0.79922
 30
0.0
 10
-1.60659
 20
-0.79922
 30
0.0
 10
-1.60659
 20
-0.79922
 30
0.0
 10
-1.60659
 20
-0.97437
 30
0.0
 10
-1.60659
 20
-0.97437
 30
0.0
 10
-1.60659
 20
-0.97437
 30
0.0
 10
-1.60659
 20
-0.97437
 30
0.0
 10
-1.72724
 20
-0.97437
 30
0.0
 10
-1.72724
 20
-0.97437
 30
0.0
  0
SPLINE
  5
4D
330
1F
100
AcDbEntity
  8
Layer 1
 62
     5
370
    53
100
AcDbSpline
210
0.0
220
0.0
230
1.0
 70
    11
 71
     3
 72
    32
 73
    28
 74
     0
 42
0.0000000001
 43
0.0000000001
 12
1.0
 22
0.0
 32
0.0
 13
1.0
 23
0.0
 33
0.0
 40
0.0
 40
0.0
 40
0.0
 40
0.0
 40
0.125
 40
0.125
 40
0.125
 40
0.125
 40
0.25
 40
0.25
 40
0.25
 40
0.25
 40
0.375
 40
0.375
 40
0.375
 40
0.375
 40
0.5
 40
0.5
 40
0.5
 40
0.5
 40
0.625
 40
0.625
 40
0.625
 40
0.625
 40
0.75
 40
0.75
 40
0.75
 40
0.75
 40
1.0
 40
1.0
 40
1.0
 40
1.0
 10
-1.80535
 20
-0.86653
 30
0.0
 10
-1.80535
 20
-0.8752
 30
0.0
 10
-1.8026
 20
-0.88229
 30
0.0
 10
-1.79709
 20
-0.8879
 30
0.0
 10
-1.79709
 20
-0.8879
 30
0.0
 10
-1.7917
 20
-0.89351
 30
0.0
 10
-1.78387
 20
-0.89626
 30
0.0
 10
-1.77371
 20
-0.89626
 30
0.0
 10
-1.77371
 20
-0.89626
 30
0.0
 10
-1.75984
 20
-0.89626
 30
0.0
 10
-1.74873
 20
-0.89108
 30
0.0
 10
-1.74016
 20
-0.88071
 30
0.0
 10
-1.74016
 20
-0.88071
 30
0.0
 10
-1.73158
 20
-0.87044
 30
0.0
 10
-1.72724
 20
-0.85721
 30
0.0
 10
-1.72724
 20
-0.84102
 30
0.0
 10
-1.72724
 20
-0.84102
 30
0.0
 10
-1.72724
 20
-0.84102
 30
0.0
 10
-1.72724
 20
-0.82895
 30
0.0
 10
-1.72724
 20
-0.82895
 30
0.0
 10
-1.72724
 20
-0.82895
 30
0.0
 10
-1.72724
 20
-0.82895
 30
0.0
 10
-1.77191
 20
-0.8352
 30
0.0
 10
-1.77191
 20
-0.8352
 30
0.0
 10
-1.77191
 20
-0.8352
 30
0.0
 10
-1.79424
 20
-0.8389
 30
0.0
 10
-1.80535
 20
-0.84927
 30
0.0
 10
-1.80535
 20
-0.86653
 30
0.0
  0
SPLINE
  5
4E
330
1F
100
AcDbEntity
  8
Layer 1
 62
     5
370
    53
100
AcDbSpline
210
0.0
220
0.0
230
1.0
 70
    11
 71
     3
 72
    76
 73
    72
 74
     0
 42
0.0000000001
 43
0.0000000001
 12
1.0
 22
0.0
 32
0.0
 13
1.0
 23
0.0
 33
0.0
 40
0.0
 40
0.0
 40
0.0
 40
0.0
 40
0.0526315789473684
 40
0.0526315789473684
 40
0.0526315789473684
 40
0.0526315789473684
 40
0.1052631578947368
 40
0.1052631578947368
 40
0.1052631578947368
 40
0.1052631578947368
 40
0.1578947368421053
 40
0.1578947368421053
 40
0.1578947368421053
 40
0.1578947368421053
 40
0.2105263157894737
 40
0.2105263157894737
 40
0.2105263157894737
 40
0.2105263157894737
 40
0.2631578947368421
 40
0.2631578947368421
 40
0.2631578947368421
 40
0.2631578947368421
 40
0.3157894736842105
 40
0.3157894736842105
 40
0.3157894736842105
 40
0.3157894736842105
 40
0.3684210526315789
 40
0.3684210526315789
 40
0.3684210526315789
 40
0.3684210526315789
 40
0.4210526315789473
 40
0.4210526315789473
 40
0.4210526315789473
 40
0.4210526315789473
 40
0.4736842105263158
 40
0.4736842105263158
 40
0.4736842105263158
 40
0.4736842105263158
 40
0.5263157894736842
 40
0.5263157894736842
 40
0.5263157894736842
 40
0.5263157894736842
 40
0.5789473684210527
 40
0.5789473684210527
 40
0.5789473684210527
 40
0.5789473684210527
 40
0.631578947368421
 40
0.631578947368421
 40
0.631578947368421
 40
0.631578947368421
 40
0.6842105263157895
 40
0.6842105263157895
 40
0.6842105263157895
 40
0.6842105263157895
 40
0.7368421052631579
 40
0.7368421052631579
 40
0.7368421052631579
 40
0.7368421052631579
 40
0.7894736842105263
 40
0.7894736842105263
 40
0.7894736842105263
 40
0.7894736842105263
 40
0.8421052631578947
 40
0.8421052631578947
 40
0.8421052631578947
 40
0.8421052631578947
 40
0.8947368421052632
 40
0.8947368421052632
 40
0.8947368421052632
 40
0.8947368421052632
 40
1.0
 40
1.0
 40
1.0
 40
1.0
 10
-1.4853
 20
-1.1236
 30
0.0
 10
-1.49769
 20
-1.1236
 30
0.0
 10
-1.51102
 20
-1.12254
 30
0.0
 10
-1.52531
 20
-1.12031
 30
0.0
 10
-1.52531
 20
-1.12031
 30
0.0
 10
-1.53949
 20
-1.1182
 30
0.0
 10
-1.5523
 20
-1.11502
 30
0.0
 10
-1.56341
 20
-1.1109
 30
0.0
 10
-1.56341
 20
-1.1109
 30
0.0
 10
-1.56341
 20
-1.1109
 30
0.0
 10
-1.56341
 20
-1.0112
 30
0.0
 10
-1.56341
 20
-1.0112
 30
0.0
 10
-1.56341
 20
-1.0112
 30
0.0
 10
-1.55822
 20
-1.01512
 30
0.0
 10
-1.5506
 20
-1.01882
 30
0.0
 10
-1.54034
 20
-1.0221
 30
0.0
 10
-1.54034
 20
-1.0221
 30
0.0
 10
-1.53018
 20
-1.02538
 30
0.0
 10
-1.52044
 20
-1.02708
 30
0.0
 10
-1.51145
 20
-1.02708
 30
0.0
 10
-1.51145
 20
-1.02708
 30
0.0
 10
-1.48689
 20
-1.02708
 30
0.0
 10
-1.47059
 20
-1.01734
 30
0.0
 10
-1.46255
 20
-0.99797
 30
0.0
 10
-1.46255
 20
-0.99797
 30
0.0
 10
-1.46255
 20
-0.99797
 30
0.0
 10
-1.45228
 20
-0.9731
 30
0.0
 10
-1.45228
 20
-0.9731
 30
0.0
 10
-1.45228
 20
-0.9731
 30
0.0
 10
-1.45228
 20
-0.9731
 30
0.0
 10
-1.585
 20
-0.65687
 30
0.0
 10
-1.585
 20
-0.65687
 30
0.0
 10
-1.585
 20
-0.65687
 30
0.0
 10
-1.585
 20
-0.65687
 30
0.0
 10
-1.43895
 20
-0.65687
 30
0.0
 10
-1.43895
 20
-0.65687
 30
0.0
 10
-1.43895
 20
-0.65687
 30
0.0
 10
-1.43895
 20
-0.65687
 30
0.0
 10
-1.40043
 20
-0.81001
 30
0.0
 10
-1.40043
 20
-0.81001
 30
0.0
 10
-1.40043
 20
-0.81001
 30
0.0
 10
-1.39302
 20
-0.83859
 30
0.0
 10
-1.389
 20
-0.85774
 30
0.0
 10
-1.38836
 20
-0.86769
 30
0.0
 10
-1.38836
 20
-0.86769
 30
0.0
 10
-1.38836
 20
-0.86769
 30
0.0
 10
-1.38709
 20
-0.86769
 30
0.0
 10
-1.38709
 20
-0.86769
 30
0.0
 10
-1.38709
 20
-0.86769
 30
0.0
 10
-1.38646
 20
-0.86314
 30
0.0
 10
-1.38561
 20
-0.85806
 30
0.0
 10
-1.38445
 20
-0.85245
 30
0.0
 10
-1.38445
 20
-0.85245
 30
0.0
 10
-1.38328
 20
-0.84695
 30
0.0
 10
-1.36719
 20
-0.78175
 30
0.0
 10
-1.33619
 20
-0.65687
 30
0.0
 10
-1.33619
 20
-0.65687
 30
0.0
 10
-1.33619
 20
-0.65687
 30
0.0
 10
-1.20781
 20
-0.65687
 30
0.0
 10
-1.20781
 20
-0.65687
 30
0.0
 10
-1.20781
 20
-0.65687
 30
0.0
 10
-1.20781
 20
-0.65687
 30
0.0
 10
-1.32465
 20
-0.98347
 30
0.0
 10
-1.32465
 20
-0.98347
 30
0.0
 10
-1.32465
 20
-0.98347
 30
0.0
 10
-1.34222
 20
-1.03343
 30
0.0
 10
-1.36402
 20
-1.0693
 30
0.0
 10
-1.38995
 20
-1.091
 30
0.0
 10
-1.38995
 20
-1.091
 30
0.0
 10
-1.41588
 20
-1.11269
 30
0.0
 10
-1.44763
 20
-1.1236
 30
0.0
 10
-1.4853
 20
-1.1236
 30
0.0
  0
SPLINE
  5
4F
330
1F
100
AcDbEntity
  8
Layer 1
370
    53
100
AcDbSpline
210
0.0
220
0.0
230
1.0
 70
    11
 71
     3
 72
    36
 73
    32
 74
     0
 42
0.0000000001
 43
0.0000000001
 12
1.0
 22
0.0
 32
0.0
 13
1.0
 23
0.0
 33
0.0
 40
0.0
 40
0.0
 40
0.0
 40
0.0
 40
0.1111111111111111
 40
0.1111111111111111
 40
0.1111111111111111
 40
0.1111111111111111
 40
0.2222222222222222
 40
0.2222222222222222
 40
0.2222222222222222
 40
0.2222222222222222
 40
0.3333333333333333
 40
0.3333333333333333
 40
0.3333333333333333
 40
0.3333333333333333
 40
0.4444444444444444
 40
0.4444444444444444
 40
0.4444444444444444
 40
0.4444444444444444
 40
0.5555555555555556
 40
0.5555555555555556
 40
0.5555555555555556
 40
0.5555555555555556
 40
0.6666666666666666
 40
0.6666666666666666
 40
0.6666666666666666
 40
0.6666666666666666
 40
0.7777777777777778
 40
0.7777777777777778
 40
0.7777777777777778
 40
0.7777777777777778
 40
1.0
 40
1.0
 40
1.0
 40
1.0
 10
0.05
 20
-0.95
 30
0.0
 10
0.05
 20
-0.95
 30
0.0
 10
0.05
 20
0.95
 30
0.0
 10
0.05
 20
0.95
 30
0.0
 10
0.05
 20
0.95
 30
0.0
 10
0.05
 20
1.22614
 30
0.0
 10
0.27386
 20
1.45
 30
0.0
 10
0.55
 20
1.45
 30
0.0
 10
0.55
 20
1.45
 30
0.0
 10
0.55
 20
1.45
 30
0.0
 10
3.95
 20
1.45
 30
0.0
 10
3.95
 20
1.45
 30
0.0
 10
3.95
 20
1.45
 30
0.0
 10
4.22614
 20
1.45
 30
0.0
 10
4.45
 20
1.22614
 30
0.0
 10
4.45
 20
0.95
 30
0.0
 10
4.45
 20
0.95
 30
0.0
 10
4.45
 20
0.95
 30
0.0
 10
4.45
 20
-0.95
 30
0.0
 10
4.45
 20
-0.95
 30
0.0
 10
4.45
 20
-0.95
 30
0.0
 10
4.45
 20
-1.22614
 30
0.0
 10
4.22614
 20
-1.45
 30
0.0
 10
3.95
 20
-1.45
 30
0.0
 10
3.95
 20
-1.45
 30
0.0
 10
3.95
 20
-1.45
 30
0.0
 10
0.55
 20
-1.45
 30
0.0
 10
0.55
 20
-1.45
 30
0.0
 10
0.55
 20
-1.45
 30
0.0
 10
0.27386
 20
-1.45
 30
0.0
 10
0.05
 20
-1.22614
 30
0.0
 10
0.05
 20
-0.95
 30
0.0
  0
ELLIPSE
  5
50
330
1F
100
AcDbEntity
  8
Layer 1
370
    53
100
AcDbEllipse
 10
2.25001
 20
0.74999
 30
0.0
 11
0.0
 21
0.37501
 31
0.0
210
0.0
220
0.0
230
1.0
 40
1.0
 41
0.0
 42
6.283185307179586
  0
ELLIPSE
  5
51
330
1F
100
AcDbEntity
  8
Layer 1
370
    53
100
AcDbEllipse
 10
3.75001
 20
0.74999
 30
0.0
 11
0.0
 21
0.37501
 31
0.0
210
0.0
220
0.0
230
1.0
 40
1.0
 41
0.0
 42
6.283185307179586
  0
ELLIPSE
  5
52
330
1F
100
AcDbEntity
  8
Layer 1
370
    53
100
AcDbEllipse
 10
1.5
 20
0.75
 30
0.0
 11
0.0
 21
0.15
 31
0.0
210
0.0
220
0.0
230
1.0
 40
1.0
 41
0.0
 42
6.283185307179586
  0
ELLIPSE
  5
53
330
1F
100
AcDbEntity
  8
Layer 1
370
    53
100
AcDbEllipse
 10
3.0
 20
0.75
 30
0.0
 11
0.0
 21
0.15
 31
0.0
210
0.0
220
0.0
230
1.0
 40
1.0
 41
0.0
 42
6.283185307179586
  0
ELLIPSE
  5
54
330
1F
100
AcDbEntity
  8
Layer 1
370
    53
100
AcDbEllipse
 10
0.75001
 20
0.74999
 30
0.0
 11
0.0
 21
0.37501
 31
0.0
210
0.0
220
0.0
230
1.0
 40
1.0
 41
0.0
 42
6.283185307179586
  0
SPLINE
  5
55
330
1F
100
AcDbEntity
  8
Layer 1
 62
     5
370
    53
100
AcDbSpline
210
0.0
220
0.0
230
1.0
 70
    11
 71
     3
 72
    88
 73
    84
 74
     0
 42
0.0000000001
 43
0.0000000001
 12
1.0
 22
0.0
 32
0.0
 13
1.0
 23
0.0
 33
0.0
 40
0.0
 40
0.0
 40
0.0
 40
0.0
 40
0.0454545454545455
 40
0.0454545454545455
 40
0.0454545454545455
 40
0.0454545454545455
 40
0.0909090909090909
 40
0.0909090909090909
 40
0.0909090909090909
 40
0.0909090909090909
 40
0.1363636363636364
 40
0.1363636363636364
 40
0.1363636363636364
 40
0.1363636363636364
 40
0.1818181818181818
 40
0.1818181818181818
 40
0.1818181818181818
 40
0.1818181818181818
 40
0.2272727272727273
 40
0.2272727272727273
 40
0.2272727272727273
 40
0.2272727272727273
 40
0.2727272727272727
 40
0.2727272727272727
 40
0.2727272727272727
 40
0.2727272727272727
 40
0.3181818181818182
 40
0.3181818181818182
 40
0.3181818181818182
 40
0.3181818181818182
 40
0.3636363636363636
 40
0.3636363636363636
 40
0.3636363636363636
 40
0.3636363636363636
 40
0.4090909090909091
 40
0.4090909090909091
 40
0.4090909090909091
 40
0.4090909090909091
 40
0.4545454545454545
 40
0.4545454545454545
 40
0.4545454545454545
 40
0.4545454545454545
 40
0.5
 40
0.5
 40
0.5
 40
0.5
 40
0.5454545454545454
 40
0.5454545454545454
 40
0.5454545454545454
 40
0.5454545454545454
 40
0.5909090909090909
 40
0.5909090909090909
 40
0.5909090909090909
 40
0.5909090909090909
 40
0.6363636363636364
 40
0.6363636363636364
 40
0.6363636363636364
 40
0.6363636363636364
 40
0.6818181818181818
 40
0.6818181818181818
 40
0.6818181818181818
 40
0.6818181818181818
 40
0.7272727272727273
 40
0.7272727272727273
 40
0.7272727272727273
 40
0.7272727272727273
 40
0.7727272727272727
 40
0.7727272727272727
 40
0.7727272727272727
 40
0.7727272727272727
 40
0.8181818181818182
 40
0.8181818181818182
 40
0.8181818181818182
 40
0.8181818181818182
 40
0.8636363636363636
 40
0.8636363636363636
 40
0.8636363636363636
 40
0.8636363636363636
 40
0.9090909090909091
 40
0.9090909090909091
 40
0.9090909090909091
 40
0.9090909090909091
 40
1.0
 40
1.0
 40
1.0
 40
1.0
 10
0.8466
 20
-0.95707
 30
0.0
 10
0.82988
 20
-0.9666
 30
0.0
 10
0.8049
 20
-0.97517
 30
0.0
 10
0.77156
 20
-0.98269
 30
0.0
 10
0.77156
 20
-0.98269
 30
0.0
 10
0.73833
 20
-0.9902
 30
0.0
 10
0.70658
 20
-0.99401
 30
0.0
 10
0.67642
 20
-0.99401
 30
0.0
 10
0.67642
 20
-0.99401
 30
0.0
 10
0.59863
 20
-0.99401
 30
0.0
 10
0.53841
 20
-0.97454
 30
0.0
 10
0.49608
 20
-0.93559
 30
0.0
 10
0.49608
 20
-0.93559
 30
0.0
 10
0.45375
 20
-0.89664
 30
0.0
 10
0.43258
 20
-0.84203
 30
0.0
 10
0.43258
 20
-0.77176
 30
0.0
 10
0.43258
 20
-0.77176
 30
0.0
 10
0.43258
 20
-0.72466
 30
0.0
 10
0.44327
 20
-0.68275
 30
0.0
 10
0.46465
 20
-0.64614
 30
0.0
 10
0.46465
 20
-0.64614
 30
0.0
 10
0.48603
 20
-0.60962
 30
0.0
 10
0.51619
 20
-0.58179
 30
0.0
 10
0.55503
 20
-0.56274
 30
0.0
 10
0.55503
 20
-0.56274
 30
0.0
 10
0.59387
 20
-0.54379
 30
0.0
 10
0.6397
 20
-0.53427
 30
0.0
 10
0.6924
 20
-0.53427
 30
0.0
 10
0.6924
 20
-0.53427
 30
0.0
 10
0.73103
 20
-0.53427
 30
0.0
 10
0.77231
 20
-0.53977
 30
0.0
 10
0.81612
 20
-0.55067
 30
0.0
 10
0.81612
 20
-0.55067
 30
0.0
 10
0.81612
 20
-0.55067
 30
0.0
 10
0.81612
 20
-0.66762
 30
0.0
 10
0.81612
 20
-0.66762
 30
0.0
 10
0.81612
 20
-0.66762
 30
0.0
 10
0.79569
 20
-0.65831
 30
0.0
 10
0.77601
 20
-0.65185
 30
0.0
 10
0.75717
 20
-0.64825
 30
0.0
 10
0.75717
 20
-0.64825
 30
0.0
 10
0.73833
 20
-0.64465
 30
0.0
 10
0.7178
 20
-0.64285
 30
0.0
 10
0.69547
 20
-0.64285
 30
0.0
 10
0.69547
 20
-0.64285
 30
0.0
 10
0.65864
 20
-0.64285
 30
0.0
 10
0.62932
 20
-0.65397
 30
0.0
 10
0.60752
 20
-0.67609
 30
0.0
 10
0.60752
 20
-0.67609
 30
0.0
 10
0.58572
 20
-0.69821
 30
0.0
 10
0.57482
 20
-0.72858
 30
0.0
 10
0.57482
 20
-0.76721
 30
0.0
 10
0.57482
 20
-0.76721
 30
0.0
 10
0.57482
 20
-0.80425
 30
0.0
 10
0.58392
 20
-0.83325
 30
0.0
 10
0.60223
 20
-0.8541
 30
0.0
 10
0.60223
 20
-0.8541
 30
0.0
 10
0.62054
 20
-0.87495
 30
0.0
 10
0.64605
 20
-0.88542
 30
0.0
 10
0.67885
 20
-0.88542
 30
0.0
 10
0.67885
 20
-0.88542
 30
0.0
 10
0.69409
 20
-0.88542
 30
0.0
 10
0.70542
 20
-0.88458
 30
0.0
 10
0.71262
 20
-0.88288
 30
0.0
 10
0.71262
 20
-0.88288
 30
0.0
 10
0.71262
 20
-0.88288
 30
0.0
 10
0.71262
 20
-0.81938
 30
0.0
 10
0.71262
 20
-0.81938
 30
0.0
 10
0.71262
 20
-0.81938
 30
0.0
 10
0.71262
 20
-0.81938
 30
0.0
 10
0.62753
 20
-0.81938
 30
0.0
 10
0.62753
 20
-0.81938
 30
0.0
 10
0.62753
 20
-0.81938
 30
0.0
 10
0.62753
 20
-0.81938
 30
0.0
 10
0.62753
 20
-0.71778
 30
0.0
 10
0.62753
 20
-0.71778
 30
0.0
 10
0.62753
 20
-0.71778
 30
0.0
 10
0.62753
 20
-0.71778
 30
0.0
 10
0.8466
 20
-0.71778
 30
0.0
 10
0.8466
 20
-0.71778
 30
0.0
 10
0.8466
 20
-0.71778
 30
0.0
 10
0.8466
 20
-0.71778
 30
0.0
 10
0.8466
 20
-0.95707
 30
0.0
 10
0.8466
 20
-0.95707
 30
0.0
  0
SPLINE
  5
56
330
1F
100
AcDbEntity
  8
Layer 1
 62
     5
370
    53
100
AcDbSpline
210
0.0
220
0.0
230
1.0
 70
    11
 71
     3
 72
    76
 73
    72
 74
     0
 42
0.0000000001
 43
0.0000000001
 12
1.0
 22
0.0
 32
0.0
 13
1.0
 23
0.0
 33
0.0
 40
0.0
 40
0.0
 40
0.0
 40
0.0
 40
0.0526315789473684
 40
0.0526315789473684
 40
0.0526315789473684
 40
0.0526315789473684
 40
0.1052631578947368
 40
0.1052631578947368
 40
0.1052631578947368
 40
0.1052631578947368
 40
0.1578947368421053
 40
0.1578947368421053
 40
0.1578947368421053
 40
0.1578947368421053
 40
0.2105263157894737
 40
0.2105263157894737
 40
0.2105263157894737
 40
0.2105263157894737
 40
0.2631578947368421
 40
0.2631578947368421
 40
0.2631578947368421
 40
0.2631578947368421
 40
0.3157894736842105
 40
0.3157894736842105
 40
0.3157894736842105
 40
0.3157894736842105
 40
0.3684210526315789
 40
0.3684210526315789
 40
0.3684210526315789
 40
0.3684210526315789
 40
0.4210526315789473
 40
0.4210526315789473
 40
0.4210526315789473
 40
0.4210526315789473
 40
0.4736842105263158
 40
0.4736842105263158
 40
0.4736842105263158
 40
0.4736842105263158
 40
0.5263157894736842
 40
0.5263157894736842
 40
0.5263157894736842
 40
0.5263157894736842
 40
0.5789473684210527
 40
0.5789473684210527
 40
0.5789473684210527
 40
0.5789473684210527
 40
0.631578947368421
 40
0.631578947368421
 40
0.631578947368421
 40
0.631578947368421
 40
0.6842105263157895
 40
0.6842105263157895
 40
0.6842105263157895
 40
0.6842105263157895
 40
0.7368421052631579
 40
0.7368421052631579
 40
0.7368421052631579
 40
0.7368421052631579
 40
0.7894736842105263
 40
0.7894736842105263
 40
0.7894736842105263
 40
0.7894736842105263
 40
0.8421052631578947
 40
0.8421052631578947
 40
0.8421052631578947
 40
0.8421052631578947
 40
0.8947368421052632
 40
0.8947368421052632
 40
0.8947368421052632
 40
0.8947368421052632
 40
1.0
 40
1.0
 40
1.0
 40
1.0
 10
0.96853
 20
-1.13562
 30
0.0
 10
0.95614
 20
-1.13562
 30
0.0
 10
0.94281
 20
-1.13456
 30
0.0
 10
0.92852
 20
-1.13233
 30
0.0
 10
0.92852
 20
-1.13233
 30
0.0
 10
0.91434
 20
-1.13022
 30
0.0
 10
0.90153
 20
-1.12704
 30
0.0
 10
0.89042
 20
-1.12292
 30
0.0
 10
0.89042
 20
-1.12292
 30
0.0
 10
0.89042
 20
-1.12292
 30
0.0
 10
0.89042
 20
-1.02322
 30
0.0
 10
0.89042
 20
-1.02322
 30
0.0
 10
0.89042
 20
-1.02322
 30
0.0
 10
0.89561
 20
-1.02714
 30
0.0
 10
0.90323
 20
-1.03084
 30
0.0
 10
0.91349
 20
-1.03412
 30
0.0
 10
0.91349
 20
-1.03412
 30
0.0
 10
0.92365
 20
-1.0374
 30
0.0
 10
0.93339
 20
-1.0391
 30
0.0
 10
0.94238
 20
-1.0391
 30
0.0
 10
0.94238
 20
-1.0391
 30
0.0
 10
0.96694
 20
-1.0391
 30
0.0
 10
0.98324
 20
-1.02936
 30
0.0
 10
0.99128
 20
-1.00999
 30
0.0
 10
0.99128
 20
-1.00999
 30
0.0
 10
0.99128
 20
-1.00999
 30
0.0
 10
1.00155
 20
-0.98512
 30
0.0
 10
1.00155
 20
-0.98512
 30
0.0
 10
1.00155
 20
-0.98512
 30
0.0
 10
1.00155
 20
-0.98512
 30
0.0
 10
0.86883
 20
-0.66889
 30
0.0
 10
0.86883
 20
-0.66889
 30
0.0
 10
0.86883
 20
-0.66889
 30
0.0
 10
0.86883
 20
-0.66889
 30
0.0
 10
1.01488
 20
-0.66889
 30
0.0
 10
1.01488
 20
-0.66889
 30
0.0
 10
1.01488
 20
-0.66889
 30
0.0
 10
1.01488
 20
-0.66889
 30
0.0
 10
1.0534
 20
-0.82203
 30
0.0
 10
1.0534
 20
-0.82203
 30
0.0
 10
1.0534
 20
-0.82203
 30
0.0
 10
1.06081
 20
-0.85061
 30
0.0
 10
1.06483
 20
-0.86976
 30
0.0
 10
1.06547
 20
-0.87971
 30
0.0
 10
1.06547
 20
-0.87971
 30
0.0
 10
1.06547
 20
-0.87971
 30
0.0
 10
1.06674
 20
-0.87971
 30
0.0
 10
1.06674
 20
-0.87971
 30
0.0
 10
1.06674
 20
-0.87971
 30
0.0
 10
1.06737
 20
-0.87516
 30
0.0
 10
1.06822
 20
-0.87008
 30
0.0
 10
1.06938
 20
-0.86447
 30
0.0
 10
1.06938
 20
-0.86447
 30
0.0
 10
1.07055
 20
-0.85897
 30
0.0
 10
1.08664
 20
-0.79377
 30
0.0
 10
1.11764
 20
-0.66889
 30
0.0
 10
1.11764
 20
-0.66889
 30
0.0
 10
1.11764
 20
-0.66889
 30
0.0
 10
1.24602
 20
-0.66889
 30
0.0
 10
1.24602
 20
-0.66889
 30
0.0
 10
1.24602
 20
-0.66889
 30
0.0
 10
1.24602
 20
-0.66889
 30
0.0
 10
1.12918
 20
-0.99549
 30
0.0
 10
1.12918
 20
-0.99549
 30
0.0
 10
1.12918
 20
-0.99549
 30
0.0
 10
1.11161
 20
-1.04545
 30
0.0
 10
1.08981
 20
-1.08132
 30
0.0
 10
1.06388
 20
-1.10302
 30
0.0
 10
1.06388
 20
-1.10302
 30
0.0
 10
1.03795
 20
-1.12471
 30
0.0
 10
1.0062
 20
-1.13562
 30
0.0
 10
0.96853
 20
-1.13562
 30
0.0
  0
SPLINE
  5
57
330
1F
100
AcDbEntity
  8
Layer 1
 62
     5
370
    53
100
AcDbSpline
210
0.0
220
0.0
230
1.0
 70
    11
 71
     3
 72
   116
 73
   112
 74
     0
 42
0.0000000001
 43
0.0000000001
 12
1.0
 22
0.0
 32
0.0
 13
1.0
 23
0.0
 33
0.0
 40
0.0
 40
0.0
 40
0.0
 40
0.0
 40
0.0344827586206897
 40
0.0344827586206897
 40
0.0344827586206897
 40
0.0344827586206897
 40
0.0689655172413793
 40
0.0689655172413793
 40
0.0689655172413793
 40
0.0689655172413793
 40
0.103448275862069
 40
0.103448275862069
 40
0.103448275862069
 40
0.103448275862069
 40
0.1379310344827586
 40
0.1379310344827586
 40
0.1379310344827586
 40
0.1379310344827586
 40
0.1724137931034483
 40
0.1724137931034483
 40
0.1724137931034483
 40
0.1724137931034483
 40
0.2068965517241379
 40
0.2068965517241379
 40
0.2068965517241379
 40
0.2068965517241379
 40
0.2413793103448276
 40
0.2413793103448276
 40
0.2413793103448276
 40
0.2413793103448276
 40
0.2758620689655172
 40
0.2758620689655172
 40
0.2758620689655172
 40
0.2758620689655172
 40
0.3103448275862069
 40
0.3103448275862069
 40
0.3103448275862069
 40
0.3103448275862069
 40
0.3448275862068966
 40
0.3448275862068966
 40
0.3448275862068966
 40
0.3448275862068966
 40
0.3793103448275862
 40
0.3793103448275862
 40
0.3793103448275862
 40
0.3793103448275862
 40
0.4137931034482759
 40
0.4137931034482759
 40
0.4137931034482759
 40
0.4137931034482759
 40
0.4482758620689655
 40
0.4482758620689655
 40
0.4482758620689655
 40
0.4482758620689655
 40
0.4827586206896552
 40
0.4827586206896552
 40
0.4827586206896552
 40
0.4827586206896552
 40
0.5172413793103449
 40
0.5172413793103449
 40
0.5172413793103449
 40
0.5172413793103449
 40
0.5517241379310345
 40
0.5517241379310345
 40
0.5517241379310345
 40
0.5517241379310345
 40
0.5862068965517241
 40
0.5862068965517241
 40
0.5862068965517241
 40
0.5862068965517241
 40
0.6206896551724138
 40
0.6206896551724138
 40
0.6206896551724138
 40
0.6206896551724138
 40
0.6551724137931034
 40
0.6551724137931034
 40
0.6551724137931034
 40
0.6551724137931034
 40
0.6896551724137931
 40
0.6896551724137931
 40
0.6896551724137931
 40
0.6896551724137931
 40
0.7241379310344828
 40
0.7241379310344828
 40
0.7241379310344828
 40
0.7241379310344828
 40
0.7586206896551724
 40
0.7586206896551724
 40
0.7586206896551724
 40
0.7586206896551724
 40
0.7931034482758621
 40
0.7931034482758621
 40
0.7931034482758621
 40
0.7931034482758621
 40
0.8275862068965517
 40
0.8275862068965517
 40
0.8275862068965517
 40
0.8275862068965517
 40
0.8620689655172413
 40
0.8620689655172413
 40
0.8620689655172413
 40
0.8620689655172413
 40
0.896551724137931
 40
0.896551724137931
 40
0.896551724137931
 40
0.896551724137931
 40
0.9310344827586207
 40
0.9310344827586207
 40
0.9310344827586207
 40
0.9310344827586207
 40
1.0
 40
1.0
 40
1.0
 40
1.0
 10
1.68301
 20
-0.98639
 30
0.0
 10
1.68301
 20
-0.98639
 30
0.0
 10
1.68301
 20
-0.8034
 30
0.0
 10
1.68301
 20
-0.8034
 30
0.0
 10
1.68301
 20
-0.8034
 30
0.0
 10
1.68301
 20
-0.78806
 30
0.0
 10
1.68026
 20
-0.77663
 30
0.0
 10
1.67486
 20
-0.76911
 30
0.0
 10
1.67486
 20
-0.76911
 30
0.0
 10
1.66936
 20
-0.7616
 30
0.0
 10
1.66047
 20
-0.75779
 30
0.0
 10
1.64809
 20
-0.75779
 30
0.0
 10
1.64809
 20
-0.75779
 30
0.0
 10
1.63591
 20
-0.75779
 30
0.0
 10
1.62639
 20
-0.76234
 30
0.0
 10
1.61962
 20
-0.77155
 30
0.0
 10
1.61962
 20
-0.77155
 30
0.0
 10
1.61274
 20
-0.78076
 30
0.0
 10
1.60935
 20
-0.79356
 30
0.0
 10
1.60935
 20
-0.80986
 30
0.0
 10
1.60935
 20
-0.80986
 30
0.0
 10
1.60935
 20
-0.80986
 30
0.0
 10
1.60935
 20
-0.98639
 30
0.0
 10
1.60935
 20
-0.98639
 30
0.0
 10
1.60935
 20
-0.98639
 30
0.0
 10
1.60935
 20
-0.98639
 30
0.0
 10
1.47727
 20
-0.98639
 30
0.0
 10
1.47727
 20
-0.98639
 30
0.0
 10
1.47727
 20
-0.98639
 30
0.0
 10
1.47727
 20
-0.98639
 30
0.0
 10
1.47727
 20
-0.80647
 30
0.0
 10
1.47727
 20
-0.80647
 30
0.0
 10
1.47727
 20
-0.80647
 30
0.0
 10
1.47727
 20
-0.77398
 30
0.0
 10
1.46626
 20
-0.75779
 30
0.0
 10
1.44414
 20
-0.75779
 30
0.0
 10
1.44414
 20
-0.75779
 30
0.0
 10
1.4307
 20
-0.75779
 30
0.0
 10
1.42065
 20
-0.76245
 30
0.0
 10
1.41388
 20
-0.77187
 30
0.0
 10
1.41388
 20
-0.77187
 30
0.0
 10
1.407
 20
-0.78128
 30
0.0
 10
1.40361
 20
-0.79483
 30
0.0
 10
1.40361
 20
-0.8124
 30
0.0
 10
1.40361
 20
-0.8124
 30
0.0
 10
1.40361
 20
-0.8124
 30
0.0
 10
1.40361
 20
-0.98639
 30
0.0
 10
1.40361
 20
-0.98639
 30
0.0
 10
1.40361
 20
-0.98639
 30
0.0
 10
1.40361
 20
-0.98639
 30
0.0
 10
1.27153
 20
-0.98639
 30
0.0
 10
1.27153
 20
-0.98639
 30
0.0
 10
1.27153
 20
-0.98639
 30
0.0
 10
1.27153
 20
-0.98639
 30
0.0
 10
1.27153
 20
-0.66889
 30
0.0
 10
1.27153
 20
-0.66889
 30
0.0
 10
1.27153
 20
-0.66889
 30
0.0
 10
1.27153
 20
-0.66889
 30
0.0
 10
1.40361
 20
-0.66889
 30
0.0
 10
1.40361
 20
-0.66889
 30
0.0
 10
1.40361
 20
-0.66889
 30
0.0
 10
1.40361
 20
-0.66889
 30
0.0
 10
1.40361
 20
-0.71905
 30
0.0
 10
1.40361
 20
-0.71905
 30
0.0
 10
1.40361
 20
-0.71905
 30
0.0
 10
1.40361
 20
-0.71905
 30
0.0
 10
1.40488
 20
-0.71905
 30
0.0
 10
1.40488
 20
-0.71905
 30
0.0
 10
1.40488
 20
-0.71905
 30
0.0
 10
1.40985
 20
-0.71016
 30
0.0
 10
1.41769
 20
-0.70117
 30
0.0
 10
1.42859
 20
-0.69207
 30
0.0
 10
1.42859
 20
-0.69207
 30
0.0
 10
1.43938
 20
-0.68286
 30
0.0
 10
1.45166
 20
-0.67545
 30
0.0
 10
1.46531
 20
-0.66974
 30
0.0
 10
1.46531
 20
-0.66974
 30
0.0
 10
1.47886
 20
-0.66413
 30
0.0
 10
1.49367
 20
-0.66127
 30
0.0
 10
1.50955
 20
-0.66127
 30
0.0
 10
1.50955
 20
-0.66127
 30
0.0
 10
1.53209
 20
-0.66127
 30
0.0
 10
1.55104
 20
-0.66571
 30
0.0
 10
1.56649
 20
-0.6746
 30
0.0
 10
1.56649
 20
-0.6746
 30
0.0
 10
1.58183
 20
-0.68339
 30
0.0
 10
1.59464
 20
-0.69746
 30
0.0
 10
1.60501
 20
-0.71662
 30
0.0
 10
1.60501
 20
-0.71662
 30
0.0
 10
1.61623
 20
-0.69884
 30
0.0
 10
1.63105
 20
-0.68519
 30
0.0
 10
1.64967
 20
-0.67566
 30
0.0
 10
1.64967
 20
-0.67566
 30
0.0
 10
1.6683
 20
-0.66603
 30
0.0
 10
1.68904
 20
-0.66127
 30
0.0
 10
1.7118
 20
-0.66127
 30
0.0
 10
1.7118
 20
-0.66127
 30
0.0
 10
1.74503
 20
-0.66127
 30
0.0
 10
1.77064
 20
-0.67206
 30
0.0
 10
1.78842
 20
-0.69376
 30
0.0
 10
1.78842
 20
-0.69376
 30
0.0
 10
1.8062
 20
-0.71546
 30
0.0
 10
1.81509
 20
-0.74678
 30
0.0
 10
1.81509
 20
-0.78774
 30
0.0
 10
1.81509
 20
-0.78774
 30
0.0
 10
1.81509
 20
-0.78774
 30
0.0
 10
1.81509
 20
-0.98639
 30
0.0
 10
1.81509
 20
-0.98639
 30
0.0
 10
1.81509
 20
-0.98639
 30
0.0
 10
1.81509
 20
-0.98639
 30
0.0
 10
1.68301
 20
-0.98639
 30
0.0
 10
1.68301
 20
-0.98639
 30
0.0
  0
SPLINE
  5
58
330
1F
100
AcDbEntity
  8
Layer 1
 62
     5
370
    53
100
AcDbSpline
210
0.0
220
0.0
230
1.0
 70
    11
 71
     3
 72
    68
 73
    64
 74
     0
 42
0.0000000001
 43
0.0000000001
 12
1.0
 22
0.0
 32
0.0
 13
1.0
 23
0.0
 33
0.0
 40
0.0
 40
0.0
 40
0.0
 40
0.0
 40
0.0588235294117647
 40
0.0588235294117647
 40
0.0588235294117647
 40
0.0588235294117647
 40
0.1176470588235294
 40
0.1176470588235294
 40
0.1176470588235294
 40
0.1176470588235294
 40
0.1764705882352941
 40
0.1764705882352941
 40
0.1764705882352941
 40
0.1764705882352941
 40
0.2352941176470588
 40
0.2352941176470588
 40
0.2352941176470588
 40
0.2352941176470588
 40
0.2941176470588235
 40
0.2941176470588235
 40
0.2941176470588235
 40
0.2941176470588235
 40
0.3529411764705883
 40
0.3529411764705883
 40
0.3529411764705883
 40
0.3529411764705883
 40
0.4117647058823529
 40
0.4117647058823529
 40
0.4117647058823529
 40
0.4117647058823529
 40
0.4705882352941176
 40
0.4705882352941176
 40
0.4705882352941176
 40
0.4705882352941176
 40
0.5294117647058824
 40
0.5294117647058824
 40
0.5294117647058824
 40
0.5294117647058824
 40
0.5882352941176471
 40
0.5882352941176471
 40
0.5882352941176471
 40
0.5882352941176471
 40
0.6470588235294118
 40
0.6470588235294118
 40
0.6470588235294118
 40
0.6470588235294118
 40
0.7058823529411765
 40
0.7058823529411765
 40
0.7058823529411765
 40
0.7058823529411765
 40
0.7647058823529411
 40
0.7647058823529411
 40
0.7647058823529411
 40
0.7647058823529411
 40
0.8235294117647058
 40
0.8235294117647058
 40
0.8235294117647058
 40
0.8235294117647058
 40
0.8823529411764706
 40
0.8823529411764706
 40
0.8823529411764706
 40
0.8823529411764706
 40
1.0
 40
1.0
 40
1.0
 40
1.0
 10
2.08063
 20
-0.98639
 30
0.0
 10
2.08063
 20
-0.98639
 30
0.0
 10
2.08063
 20
-0.81303
 30
0.0
 10
2.08063
 20
-0.81303
 30
0.0
 10
2.08063
 20
-0.81303
 30
0.0
 10
2.08063
 20
-0.79335
 30
0.0
 10
2.07767
 20
-0.77927
 30
0.0
 10
2.07185
 20
-0.7707
 30
0.0
 10
2.07185
 20
-0.7707
 30
0.0
 10
2.06592
 20
-0.76213
 30
0.0
 10
2.05639
 20
-0.75779
 30
0.0
 10
2.04317
 20
-0.75779
 30
0.0
 10
2.04317
 20
-0.75779
 30
0.0
 10
2.03184
 20
-0.75779
 30
0.0
 10
2.02295
 20
-0.76223
 30
0.0
 10
2.0166
 20
-0.77112
 30
0.0
 10
2.0166
 20
-0.77112
 30
0.0
 10
2.01015
 20
-0.78001
 30
0.0
 10
2.00697
 20
-0.79144
 30
0.0
 10
2.00697
 20
-0.8052
 30
0.0
 10
2.00697
 20
-0.8052
 30
0.0
 10
2.00697
 20
-0.8052
 30
0.0
 10
2.00697
 20
-0.98639
 30
0.0
 10
2.00697
 20
-0.98639
 30
0.0
 10
2.00697
 20
-0.98639
 30
0.0
 10
2.00697
 20
-0.98639
 30
0.0
 10
1.87489
 20
-0.98639
 30
0.0
 10
1.87489
 20
-0.98639
 30
0.0
 10
1.87489
 20
-0.98639
 30
0.0
 10
1.87489
 20
-0.98639
 30
0.0
 10
1.87489
 20
-0.66889
 30
0.0
 10
1.87489
 20
-0.66889
 30
0.0
 10
1.87489
 20
-0.66889
 30
0.0
 10
1.87489
 20
-0.66889
 30
0.0
 10
2.00697
 20
-0.66889
 30
0.0
 10
2.00697
 20
-0.66889
 30
0.0
 10
2.00697
 20
-0.66889
 30
0.0
 10
2.00697
 20
-0.66889
 30
0.0
 10
2.00697
 20
-0.71842
 30
0.0
 10
2.00697
 20
-0.71842
 30
0.0
 10
2.00697
 20
-0.71842
 30
0.0
 10
2.00697
 20
-0.71842
 30
0.0
 10
2.00824
 20
-0.71842
 30
0.0
 10
2.00824
 20
-0.71842
 30
0.0
 10
2.00824
 20
-0.71842
 30
0.0
 10
2.01872
 20
-0.70032
 30
0.0
 10
2.0329
 20
-0.68625
 30
0.0
 10
2.05068
 20
-0.6763
 30
0.0
 10
2.05068
 20
-0.6763
 30
0.0
 10
2.06846
 20
-0.66624
 30
0.0
 10
2.08772
 20
-0.66127
 30
0.0
 10
2.10857
 20
-0.66127
 30
0.0
 10
2.10857
 20
-0.66127
 30
0.0
 10
2.178
 20
-0.66127
 30
0.0
 10
2.21271
 20
-0.70508
 30
0.0
 10
2.21271
 20
-0.79271
 30
0.0
 10
2.21271
 20
-0.79271
 30
0.0
 10
2.21271
 20
-0.79271
 30
0.0
 10
2.21271
 20
-0.98639
 30
0.0
 10
2.21271
 20
-0.98639
 30
0.0
 10
2.21271
 20
-0.98639
 30
0.0
 10
2.21271
 20
-0.98639
 30
0.0
 10
2.08063
 20
-0.98639
 30
0.0
 10
2.08063
 20
-0.98639
 30
0.0
  0
SPLINE
  5
59
330
1F
100
AcDbEntity
  8
Layer 1
 62
     5
370
    53
100
AcDbSpline
210
0.0
220
0.0
230
1.0
 70
    11
 71
     3
 72
    72
 73
    68
 74
     0
 42
0.0000000001
 43
0.0000000001
 12
1.0
 22
0.0
 32
0.0
 13
1.0
 23
0.0
 33
0.0
 40
0.0
 40
0.0
 40
0.0
 40
0.0
 40
0.0555555555555556
 40
0.0555555555555556
 40
0.0555555555555556
 40
0.0555555555555556
 40
0.1111111111111111
 40
0.1111111111111111
 40
0.1111111111111111
 40
0.1111111111111111
 40
0.1666666666666667
 40
0.1666666666666667
 40
0.1666666666666667
 40
0.1666666666666667
 40
0.2222222222222222
 40
0.2222222222222222
 40
0.2222222222222222
 40
0.2222222222222222
 40
0.2777777777777778
 40
0.2777777777777778
 40
0.2777777777777778
 40
0.2777777777777778
 40
0.3333333333333333
 40
0.3333333333333333
 40
0.3333333333333333
 40
0.3333333333333333
 40
0.3888888888888889
 40
0.3888888888888889
 40
0.3888888888888889
 40
0.3888888888888889
 40
0.4444444444444444
 40
0.4444444444444444
 40
0.4444444444444444
 40
0.4444444444444444
 40
0.5
 40
0.5
 40
0.5
 40
0.5
 40
0.5555555555555556
 40
0.5555555555555556
 40
0.5555555555555556
 40
0.5555555555555556
 40
0.6111111111111112
 40
0.6111111111111112
 40
0.6111111111111112
 40
0.6111111111111112
 40
0.6666666666666666
 40
0.6666666666666666
 40
0.6666666666666666
 40
0.6666666666666666
 40
0.7222222222222222
 40
0.7222222222222222
 40
0.7222222222222222
 40
0.7222222222222222
 40
0.7777777777777778
 40
0.7777777777777778
 40
0.7777777777777778
 40
0.7777777777777778
 40
0.8333333333333334
 40
0.8333333333333334
 40
0.8333333333333334
 40
0.8333333333333334
 40
0.8888888888888888
 40
0.8888888888888888
 40
0.8888888888888888
 40
0.8888888888888888
 40
1.0
 40
1.0
 40
1.0
 40
1.0
 10
2.4483
 20
-0.98639
 30
0.0
 10
2.4483
 20
-0.98639
 30
0.0
 10
2.4483
 20
-0.93813
 30
0.0
 10
2.4483
 20
-0.93813
 30
0.0
 10
2.4483
 20
-0.93813
 30
0.0
 10
2.4483
 20
-0.93813
 30
0.0
 10
2.44703
 20
-0.93813
 30
0.0
 10
2.44703
 20
-0.93813
 30
0.0
 10
2.44703
 20
-0.93813
 30
0.0
 10
2.42596
 20
-0.97538
 30
0.0
 10
2.39379
 20
-0.99401
 30
0.0
 10
2.3504
 20
-0.99401
 30
0.0
 10
2.3504
 20
-0.99401
 30
0.0
 10
2.32045
 20
-0.99401
 30
0.0
 10
2.29695
 20
-0.98512
 30
0.0
 10
2.28002
 20
-0.96734
 30
0.0
 10
2.28002
 20
-0.96734
 30
0.0
 10
2.26309
 20
-0.94956
 30
0.0
 10
2.25462
 20
-0.92585
 30
0.0
 10
2.25462
 20
-0.89611
 30
0.0
 10
2.25462
 20
-0.89611
 30
0.0
 10
2.25462
 20
-0.83378
 30
0.0
 10
2.29293
 20
-0.79758
 30
0.0
 10
2.36956
 20
-0.78774
 30
0.0
 10
2.36956
 20
-0.78774
 30
0.0
 10
2.36956
 20
-0.78774
 30
0.0
 10
2.4483
 20
-0.77747
 30
0.0
 10
2.4483
 20
-0.77747
 30
0.0
 10
2.4483
 20
-0.77747
 30
0.0
 10
2.4483
 20
-0.7671
 30
0.0
 10
2.44364
 20
-0.75853
 30
0.0
 10
2.43433
 20
-0.75186
 30
0.0
 10
2.43433
 20
-0.75186
 30
0.0
 10
2.42512
 20
-0.7452
 30
0.0
 10
2.41263
 20
-0.74191
 30
0.0
 10
2.39686
 20
-0.74191
 30
0.0
 10
2.39686
 20
-0.74191
 30
0.0
 10
2.36141
 20
-0.74191
 30
0.0
 10
2.32394
 20
-0.75207
 30
0.0
 10
2.28447
 20
-0.77239
 30
0.0
 10
2.28447
 20
-0.77239
 30
0.0
 10
2.28447
 20
-0.77239
 30
0.0
 10
2.28447
 20
-0.68667
 30
0.0
 10
2.28447
 20
-0.68667
 30
0.0
 10
2.28447
 20
-0.68667
 30
0.0
 10
2.30161
 20
-0.67926
 30
0.0
 10
2.32309
 20
-0.67312
 30
0.0
 10
2.34892
 20
-0.66836
 30
0.0
 10
2.34892
 20
-0.66836
 30
0.0
 10
2.37474
 20
-0.6636
 30
0.0
 10
2.39686
 20
-0.66127
 30
0.0
 10
2.41528
 20
-0.66127
 30
0.0
 10
2.41528
 20
-0.66127
 30
0.0
 10
2.46914
 20
-0.66127
 30
0.0
 10
2.5083
 20
-0.67281
 30
0.0
 10
2.53254
 20
-0.69588
 30
0.0
 10
2.53254
 20
-0.69588
 30
0.0
 10
2.55677
 20
-0.71884
 30
0.0
 10
2.56895
 20
-0.75737
 30
0.0
 10
2.56895
 20
-0.81124
 30
0.0
 10
2.56895
 20
-0.81124
 30
0.0
 10
2.56895
 20
-0.81124
 30
0.0
 10
2.56895
 20
-0.98639
 30
0.0
 10
2.56895
 20
-0.98639
 30
0.0
 10
2.56895
 20
-0.98639
 30
0.0
 10
2.56895
 20
-0.98639
 30
0.0
 10
2.4483
 20
-0.98639
 30
0.0
 10
2.4483
 20
-0.98639
 30
0.0
  0
SPLINE
  5
5A
330
1F
100
AcDbEntity
  8
Layer 1
 62
     5
370
    53
100
AcDbSpline
210
0.0
220
0.0
230
1.0
 70
    11
 71
     3
 72
    32
 73
    28
 74
     0
 42
0.0000000001
 43
0.0000000001
 12
1.0
 22
0.0
 32
0.0
 13
1.0
 23
0.0
 33
0.0
 40
0.0
 40
0.0
 40
0.0
 40
0.0
 40
0.125
 40
0.125
 40
0.125
 40
0.125
 40
0.25
 40
0.25
 40
0.25
 40
0.25
 40
0.375
 40
0.375
 40
0.375
 40
0.375
 40
0.5
 40
0.5
 40
0.5
 40
0.5
 40
0.625
 40
0.625
 40
0.625
 40
0.625
 40
0.75
 40
0.75
 40
0.75
 40
0.75
 40
1.0
 40
1.0
 40
1.0
 40
1.0
 10
2.37019
 20
-0.87855
 30
0.0
 10
2.37019
 20
-0.88722
 30
0.0
 10
2.37294
 20
-0.89431
 30
0.0
 10
2.37845
 20
-0.89992
 30
0.0
 10
2.37845
 20
-0.89992
 30
0.0
 10
2.38384
 20
-0.90553
 30
0.0
 10
2.39167
 20
-0.90828
 30
0.0
 10
2.40183
 20
-0.90828
 30
0.0
 10
2.40183
 20
-0.90828
 30
0.0
 10
2.4157
 20
-0.90828
 30
0.0
 10
2.42681
 20
-0.9031
 30
0.0
 10
2.43538
 20
-0.89273
 30
0.0
 10
2.43538
 20
-0.89273
 30
0.0
 10
2.44396
 20
-0.88246
 30
0.0
 10
2.4483
 20
-0.86923
 30
0.0
 10
2.4483
 20
-0.85304
 30
0.0
 10
2.4483
 20
-0.85304
 30
0.0
 10
2.4483
 20
-0.85304
 30
0.0
 10
2.4483
 20
-0.84097
 30
0.0
 10
2.4483
 20
-0.84097
 30
0.0
 10
2.4483
 20
-0.84097
 30
0.0
 10
2.4483
 20
-0.84097
 30
0.0
 10
2.40363
 20
-0.84722
 30
0.0
 10
2.40363
 20
-0.84722
 30
0.0
 10
2.40363
 20
-0.84722
 30
0.0
 10
2.3813
 20
-0.85092
 30
0.0
 10
2.37019
 20
-0.86129
 30
0.0
 10
2.37019
 20
-0.87855
 30
0.0
  0
SPLINE
  5
5B
330
1F
100
AcDbEntity
  8
Layer 1
 62
     5
370
    53
100
AcDbSpline
210
0.0
220
0.0
230
1.0
 70
    11
 71
     3
 72
    96
 73
    92
 74
     0
 42
0.0000000001
 43
0.0000000001
 12
1.0
 22
0.0
 32
0.0
 13
1.0
 23
0.0
 33
0.0
 40
0.0
 40
0.0
 40
0.0
 40
0.0
 40
0.0416666666666667
 40
0.0416666666666667
 40
0.0416666666666667
 40
0.0416666666666667
 40
0.0833333333333333
 40
0.0833333333333333
 40
0.0833333333333333
 40
0.0833333333333333
 40
0.125
 40
0.125
 40
0.125
 40
0.125
 40
0.1666666666666667
 40
0.1666666666666667
 40
0.1666666666666667
 40
0.1666666666666667
 40
0.2083333333333333
 40
0.2083333333333333
 40
0.2083333333333333
 40
0.2083333333333333
 40
0.25
 40
0.25
 40
0.25
 40
0.25
 40
0.2916666666666667
 40
0.2916666666666667
 40
0.2916666666666667
 40
0.2916666666666667
 40
0.3333333333333333
 40
0.3333333333333333
 40
0.3333333333333333
 40
0.3333333333333333
 40
0.375
 40
0.375
 40
0.375
 40
0.375
 40
0.4166666666666667
 40
0.4166666666666667
 40
0.4166666666666667
 40
0.4166666666666667
 40
0.4583333333333333
 40
0.4583333333333333
 40
0.4583333333333333
 40
0.4583333333333333
 40
0.5
 40
0.5
 40
0.5
 40
0.5
 40
0.5416666666666666
 40
0.5416666666666666
 40
0.5416666666666666
 40
0.5416666666666666
 40
0.5833333333333334
 40
0.5833333333333334
 40
0.5833333333333334
 40
0.5833333333333334
 40
0.625
 40
0.625
 40
0.625
 40
0.625
 40
0.6666666666666666
 40
0.6666666666666666
 40
0.6666666666666666
 40
0.6666666666666666
 40
0.7083333333333334
 40
0.7083333333333334
 40
0.7083333333333334
 40
0.7083333333333334
 40
0.75
 40
0.75
 40
0.75
 40
0.75
 40
0.7916666666666666
 40
0.7916666666666666
 40
0.7916666666666666
 40
0.7916666666666666
 40
0.8333333333333334
 40
0.8333333333333334
 40
0.8333333333333334
 40
0.8333333333333334
 40
0.875
 40
0.875
 40
0.875
 40
0.875
 40
0.9166666666666666
 40
0.9166666666666666
 40
0.9166666666666666
 40
0.9166666666666666
 40
1.0
 40
1.0
 40
1.0
 40
1.0
 10
2.88645
 20
-0.88087
 30
0.0
 10
2.88645
 20
-0.91675
 30
0.0
 10
2.8728
 20
-0.94469
 30
0.0
 10
2.84539
 20
-0.96438
 30
0.0
 10
2.84539
 20
-0.96438
 30
0.0
 10
2.81798
 20
-0.98417
 30
0.0
 10
2.77988
 20
-0.99401
 30
0.0
 10
2.73088
 20
-0.99401
 30
0.0
 10
2.73088
 20
-0.99401
 30
0.0
 10
2.71659
 20
-0.99401
 30
0.0
 10
2.69902
 20
-0.99253
 30
0.0
 10
2.67806
 20
-0.98967
 30
0.0
 10
2.67806
 20
-0.98967
 30
0.0
 10
2.657
 20
-0.98681
 30
0.0
 10
2.63996
 20
-0.98332
 30
0.0
 10
2.62674
 20
-0.97919
 30
0.0
 10
2.62674
 20
-0.97919
 30
0.0
 10
2.62674
 20
-0.97919
 30
0.0
 10
2.62674
 20
-0.88669
 30
0.0
 10
2.62674
 20
-0.88669
 30
0.0
 10
2.62674
 20
-0.88669
 30
0.0
 10
2.66579
 20
-0.90405
 30
0.0
 10
2.69838
 20
-0.91273
 30
0.0
 10
2.72453
 20
-0.91273
 30
0.0
 10
2.72453
 20
-0.91273
 30
0.0
 10
2.75035
 20
-0.91273
 30
0.0
 10
2.76326
 20
-0.90606
 30
0.0
 10
2.76326
 20
-0.89262
 30
0.0
 10
2.76326
 20
-0.89262
 30
0.0
 10
2.76326
 20
-0.88701
 30
0.0
 10
2.7603
 20
-0.88236
 30
0.0
 10
2.75426
 20
-0.87876
 30
0.0
 10
2.75426
 20
-0.87876
 30
0.0
 10
2.74834
 20
-0.87516
 30
0.0
 10
2.73257
 20
-0.86913
 30
0.0
 10
2.70727
 20
-0.86066
 30
0.0
 10
2.70727
 20
-0.86066
 30
0.0
 10
2.67912
 20
-0.85177
 30
0.0
 10
2.6587
 20
-0.83992
 30
0.0
 10
2.64589
 20
-0.82531
 30
0.0
 10
2.64589
 20
-0.82531
 30
0.0
 10
2.63309
 20
-0.8106
 30
0.0
 10
2.62674
 20
-0.79144
 30
0.0
 10
2.62674
 20
-0.76795
 30
0.0
 10
2.62674
 20
-0.76795
 30
0.0
 10
2.62674
 20
-0.73504
 30
0.0
 10
2.63986
 20
-0.70911
 30
0.0
 10
2.666
 20
-0.68995
 30
0.0
 10
2.666
 20
-0.68995
 30
0.0
 10
2.69214
 20
-0.67079
 30
0.0
 10
2.72886
 20
-0.66127
 30
0.0
 10
2.77617
 20
-0.66127
 30
0.0
 10
2.77617
 20
-0.66127
 30
0.0
 10
2.8039
 20
-0.66127
 30
0.0
 10
2.83322
 20
-0.66529
 30
0.0
 10
2.86423
 20
-0.67333
 30
0.0
 10
2.86423
 20
-0.67333
 30
0.0
 10
2.86423
 20
-0.67333
 30
0.0
 10
2.86423
 20
-0.76223
 30
0.0
 10
2.86423
 20
-0.76223
 30
0.0
 10
2.86423
 20
-0.76223
 30
0.0
 10
2.85121
 20
-0.75663
 30
0.0
 10
2.83692
 20
-0.75197
 30
0.0
 10
2.82136
 20
-0.74816
 30
0.0
 10
2.82136
 20
-0.74816
 30
0.0
 10
2.80591
 20
-0.74445
 30
0.0
 10
2.79289
 20
-0.74255
 30
0.0
 10
2.78231
 20
-0.74255
 30
0.0
 10
2.78231
 20
-0.74255
 30
0.0
 10
2.77363
 20
-0.74255
 30
0.0
 10
2.76665
 20
-0.74403
 30
0.0
 10
2.76146
 20
-0.74689
 30
0.0
 10
2.76146
 20
-0.74689
 30
0.0
 10
2.75628
 20
-0.74975
 30
0.0
 10
2.75374
 20
-0.75377
 30
0.0
 10
2.75374
 20
-0.75895
 30
0.0
 10
2.75374
 20
-0.75895
 30
0.0
 10
2.75374
 20
-0.76499
 30
0.0
 10
2.75649
 20
-0.76985
 30
0.0
 10
2.7621
 20
-0.77356
 30
0.0
 10
2.7621
 20
-0.77356
 30
0.0
 10
2.76771
 20
-0.77726
 30
0.0
 10
2.77882
 20
-0.78171
 30
0.0
 10
2.79565
 20
-0.78689
 30
0.0
 10
2.79565
 20
-0.78689
 30
0.0
 10
2.82803
 20
-0.79642
 30
0.0
 10
2.85131
 20
-0.80859
 30
0.0
 10
2.86539
 20
-0.82351
 30
0.0
 10
2.86539
 20
-0.82351
 30
0.0
 10
2.87947
 20
-0.83833
 30
0.0
 10
2.88645
 20
-0.85748
 30
0.0
 10
2.88645
 20
-0.88087
 30
0.0
  0
SPLINE
  5
5C
330
1F
100
AcDbEntity
  8
Layer 1
 62
     5
370
    53
100
AcDbSpline
210
0.0
220
0.0
230
1.0
 70
    11
 71
     3
 72
    76
 73
    72
 74
     0
 42
0.0000000001
 43
0.0000000001
 12
1.0
 22
0.0
 32
0.0
 13
1.0
 23
0.0
 33
0.0
 40
0.0
 40
0.0
 40
0.0
 40
0.0
 40
0.0526315789473684
 40
0.0526315789473684
 40
0.0526315789473684
 40
0.0526315789473684
 40
0.1052631578947368
 40
0.1052631578947368
 40
0.1052631578947368
 40
0.1052631578947368
 40
0.1578947368421053
 40
0.1578947368421053
 40
0.1578947368421053
 40
0.1578947368421053
 40
0.2105263157894737
 40
0.2105263157894737
 40
0.2105263157894737
 40
0.2105263157894737
 40
0.2631578947368421
 40
0.2631578947368421
 40
0.2631578947368421
 40
0.2631578947368421
 40
0.3157894736842105
 40
0.3157894736842105
 40
0.3157894736842105
 40
0.3157894736842105
 40
0.3684210526315789
 40
0.3684210526315789
 40
0.3684210526315789
 40
0.3684210526315789
 40
0.4210526315789473
 40
0.4210526315789473
 40
0.4210526315789473
 40
0.4210526315789473
 40
0.4736842105263158
 40
0.4736842105263158
 40
0.4736842105263158
 40
0.4736842105263158
 40
0.5263157894736842
 40
0.5263157894736842
 40
0.5263157894736842
 40
0.5263157894736842
 40
0.5789473684210527
 40
0.5789473684210527
 40
0.5789473684210527
 40
0.5789473684210527
 40
0.631578947368421
 40
0.631578947368421
 40
0.631578947368421
 40
0.631578947368421
 40
0.6842105263157895
 40
0.6842105263157895
 40
0.6842105263157895
 40
0.6842105263157895
 40
0.7368421052631579
 40
0.7368421052631579
 40
0.7368421052631579
 40
0.7368421052631579
 40
0.7894736842105263
 40
0.7894736842105263
 40
0.7894736842105263
 40
0.7894736842105263
 40
0.8421052631578947
 40
0.8421052631578947
 40
0.8421052631578947
 40
0.8421052631578947
 40
0.8947368421052632
 40
0.8947368421052632
 40
0.8947368421052632
 40
0.8947368421052632
 40
1.0
 40
1.0
 40
1.0
 40
1.0
 10
3.15876
 20
-0.98194
 30
0.0
 10
3.15273
 20
-0.9848
 30
0.0
 10
3.14299
 20
-0.98755
 30
0.0
 10
3.12934
 20
-0.99009
 30
0.0
 10
3.12934
 20
-0.99009
 30
0.0
 10
3.11569
 20
-0.99274
 30
0.0
 10
3.09928
 20
-0.99401
 30
0.0
 10
3.08002
 20
-0.99401
 30
0.0
 10
3.08002
 20
-0.99401
 30
0.0
 10
3.0433
 20
-0.99401
 30
0.0
 10
3.01451
 20
-0.98385
 30
0.0
 10
2.99366
 20
-0.96364
 30
0.0
 10
2.99366
 20
-0.96364
 30
0.0
 10
2.97292
 20
-0.94342
 30
0.0
 10
2.96255
 20
-0.91453
 30
0.0
 10
2.96255
 20
-0.87717
 30
0.0
 10
2.96255
 20
-0.87717
 30
0.0
 10
2.96255
 20
-0.87717
 30
0.0
 10
2.96255
 20
-0.76033
 30
0.0
 10
2.96255
 20
-0.76033
 30
0.0
 10
2.96255
 20
-0.76033
 30
0.0
 10
2.96255
 20
-0.76033
 30
0.0
 10
2.91238
 20
-0.76033
 30
0.0
 10
2.91238
 20
-0.76033
 30
0.0
 10
2.91238
 20
-0.76033
 30
0.0
 10
2.91238
 20
-0.76033
 30
0.0
 10
2.91238
 20
-0.66889
 30
0.0
 10
2.91238
 20
-0.66889
 30
0.0
 10
2.91238
 20
-0.66889
 30
0.0
 10
2.91238
 20
-0.66889
 30
0.0
 10
2.96255
 20
-0.66889
 30
0.0
 10
2.96255
 20
-0.66889
 30
0.0
 10
2.96255
 20
-0.66889
 30
0.0
 10
2.96255
 20
-0.66889
 30
0.0
 10
2.96255
 20
-0.60645
 30
0.0
 10
2.96255
 20
-0.60645
 30
0.0
 10
2.96255
 20
-0.60645
 30
0.0
 10
2.96255
 20
-0.60645
 30
0.0
 10
3.09272
 20
-0.57046
 30
0.0
 10
3.09272
 20
-0.57046
 30
0.0
 10
3.09272
 20
-0.57046
 30
0.0
 10
3.09272
 20
-0.57046
 30
0.0
 10
3.09272
 20
-0.66889
 30
0.0
 10
3.09272
 20
-0.66889
 30
0.0
 10
3.09272
 20
-0.66889
 30
0.0
 10
3.09272
 20
-0.66889
 30
0.0
 10
3.15876
 20
-0.66889
 30
0.0
 10
3.15876
 20
-0.66889
 30
0.0
 10
3.15876
 20
-0.66889
 30
0.0
 10
3.15876
 20
-0.66889
 30
0.0
 10
3.15876
 20
-0.76033
 30
0.0
 10
3.15876
 20
-0.76033
 30
0.0
 10
3.15876
 20
-0.76033
 30
0.0
 10
3.15876
 20
-0.76033
 30
0.0
 10
3.09272
 20
-0.76033
 30
0.0
 10
3.09272
 20
-0.76033
 30
0.0
 10
3.09272
 20
-0.76033
 30
0.0
 10
3.09272
 20
-0.76033
 30
0.0
 10
3.09272
 20
-0.85558
 30
0.0
 10
3.09272
 20
-0.85558
 30
0.0
 10
3.09272
 20
-0.85558
 30
0.0
 10
3.09272
 20
-0.88352
 30
0.0
 10
3.10383
 20
-0.89749
 30
0.0
 10
3.12595
 20
-0.89749
 30
0.0
 10
3.12595
 20
-0.89749
 30
0.0
 10
3.13622
 20
-0.89749
 30
0.0
 10
3.14722
 20
-0.89516
 30
0.0
 10
3.15876
 20
-0.8905
 30
0.0
 10
3.15876
 20
-0.8905
 30
0.0
 10
3.15876
 20
-0.8905
 30
0.0
 10
3.15876
 20
-0.98194
 30
0.0
 10
3.15876
 20
-0.98194
 30
0.0
  0
SPLINE
  5
5D
330
1F
100
AcDbEntity
  8
Layer 1
 62
     5
370
    53
100
AcDbSpline
210
0.0
220
0.0
230
1.0
 70
    11
 71
     3
 72
    36
 73
    32
 74
     0
 42
0.0000000001
 43
0.0000000001
 12
1.0
 22
0.0
 32
0.0
 13
1.0
 23
0.0
 33
0.0
 40
0.0
 40
0.0
 40
0.0
 40
0.0
 40
0.1111111111111111
 40
0.1111111111111111
 40
0.1111111111111111
 40
0.1111111111111111
 40
0.2222222222222222
 40
0.2222222222222222
 40
0.2222222222222222
 40
0.2222222222222222
 40
0.3333333333333333
 40
0.3333333333333333
 40
0.3333333333333333
 40
0.3333333333333333
 40
0.4444444444444444
 40
0.4444444444444444
 40
0.4444444444444444
 40
0.4444444444444444
 40
0.5555555555555556
 40
0.5555555555555556
 40
0.5555555555555556
 40
0.5555555555555556
 40
0.6666666666666666
 40
0.6666666666666666
 40
0.6666666666666666
 40
0.6666666666666666
 40
0.7777777777777778
 40
0.7777777777777778
 40
0.7777777777777778
 40
0.7777777777777778
 40
1.0
 40
1.0
 40
1.0
 40
1.0
 10
3.33985
 20
-0.58338
 30
0.0
 10
3.33985
 20
-0.602
 30
0.0
 10
3.33307
 20
-0.61703
 30
0.0
 10
3.31953
 20
-0.62867
 30
0.0
 10
3.31953
 20
-0.62867
 30
0.0
 10
3.30598
 20
-0.64021
 30
0.0
 10
3.2882
 20
-0.64603
 30
0.0
 10
3.26608
 20
-0.64603
 30
0.0
 10
3.26608
 20
-0.64603
 30
0.0
 10
3.2446
 20
-0.64603
 30
0.0
 10
3.22692
 20
-0.64
 30
0.0
 10
3.21327
 20
-0.62804
 30
0.0
 10
3.21327
 20
-0.62804
 30
0.0
 10
3.19951
 20
-0.61608
 30
0.0
 10
3.19263
 20
-0.60116
 30
0.0
 10
3.19263
 20
-0.58338
 30
0.0
 10
3.19263
 20
-0.58338
 30
0.0
 10
3.19263
 20
-0.56517
 30
0.0
 10
3.1993
 20
-0.55036
 30
0.0
 10
3.21263
 20
-0.53914
 30
0.0
 10
3.21263
 20
-0.53914
 30
0.0
 10
3.22597
 20
-0.52781
 30
0.0
 10
3.24375
 20
-0.5222
 30
0.0
 10
3.26608
 20
-0.5222
 30
0.0
 10
3.26608
 20
-0.5222
 30
0.0
 10
3.2882
 20
-0.5222
 30
0.0
 10
3.30598
 20
-0.52781
 30
0.0
 10
3.31953
 20
-0.53914
 30
0.0
 10
3.31953
 20
-0.53914
 30
0.0
 10
3.33307
 20
-0.55036
 30
0.0
 10
3.33985
 20
-0.56517
 30
0.0
 10
3.33985
 20
-0.58338
 30
0.0
  0
SPLINE
  5
5E
330
1F
100
AcDbEntity
  8
Layer 1
 62
     5
370
    53
100
AcDbSpline
210
0.0
220
0.0
230
1.0
 70
    11
 71
     3
 72
    20
 73
    16
 74
     0
 42
0.0000000001
 43
0.0000000001
 12
1.0
 22
0.0
 32
0.0
 13
1.0
 23
0.0
 33
0.0
 40
0.0
 40
0.0
 40
0.0
 40
0.0
 40
0.2
 40
0.2
 40
0.2
 40
0.2
 40
0.4
 40
0.4
 40
0.4
 40
0.4
 40
0.6
 40
0.6
 40
0.6
 40
0.6
 40
1.0
 40
1.0
 40
1.0
 40
1.0
 10
3.20004
 20
-0.98639
 30
0.0
 10
3.20004
 20
-0.98639
 30
0.0
 10
3.20004
 20
-0.66889
 30
0.0
 10
3.20004
 20
-0.66889
 30
0.0
 10
3.20004
 20
-0.66889
 30
0.0
 10
3.20004
 20
-0.66889
 30
0.0
 10
3.33212
 20
-0.66889
 30
0.0
 10
3.33212
 20
-0.66889
 30
0.0
 10
3.33212
 20
-0.66889
 30
0.0
 10
3.33212
 20
-0.66889
 30
0.0
 10
3.33212
 20
-0.98639
 30
0.0
 10
3.33212
 20
-0.98639
 30
0.0
 10
3.33212
 20
-0.98639
 30
0.0
 10
3.33212
 20
-0.98639
 30
0.0
 10
3.20004
 20
-0.98639
 30
0.0
 10
3.20004
 20
-0.98639
 30
0.0
  0
SPLINE
  5
5F
330
1F
100
AcDbEntity
  8
Layer 1
 62
     5
370
    53
100
AcDbSpline
210
0.0
220
0.0
230
1.0
 70
    11
 71
     3
 72
    80
 73
    76
 74
     0
 42
0.0000000001
 43
0.0000000001
 12
1.0
 22
0.0
 32
0.0
 13
1.0
 23
0.0
 33
0.0
 40
0.0
 40
0.0
 40
0.0
 40
0.0
 40
0.05
 40
0.05
 40
0.05
 40
0.05
 40
0.1
 40
0.1
 40
0.1
 40
0.1
 40
0.15
 40
0.15
 40
0.15
 40
0.15
 40
0.2
 40
0.2
 40
0.2
 40
0.2
 40
0.25
 40
0.25
 40
0.25
 40
0.25
 40
0.3
 40
0.3
 40
0.3
 40
0.3
 40
0.35
 40
0.35
 40
0.35
 40
0.35
 40
0.4
 40
0.4
 40
0.4
 40
0.4
 40
0.45
 40
0.45
 40
0.45
 40
0.45
 40
0.5
 40
0.5
 40
0.5
 40
0.5
 40
0.55
 40
0.55
 40
0.55
 40
0.55
 40
0.6
 40
0.6
 40
0.6
 40
0.6
 40
0.65
 40
0.65
 40
0.65
 40
0.65
 40
0.7
 40
0.7
 40
0.7
 40
0.7
 40
0.75
 40
0.75
 40
0.75
 40
0.75
 40
0.8
 40
0.8
 40
0.8
 40
0.8
 40
0.85
 40
0.85
 40
0.85
 40
0.85
 40
0.9
 40
0.9
 40
0.9
 40
0.9
 40
1.0
 40
1.0
 40
1.0
 40
1.0
 10
3.65735
 20
-0.97729
 30
0.0
 10
3.64888
 20
-0.98226
 30
0.0
 10
3.63555
 20
-0.98628
 30
0.0
 10
3.61735
 20
-0.98935
 30
0.0
 10
3.61735
 20
-0.98935
 30
0.0
 10
3.59914
 20
-0.99242
 30
0.0
 10
3.57819
 20
-0.99401
 30
0.0
 10
3.55448
 20
-0.99401
 30
0.0
 10
3.55448
 20
-0.99401
 30
0.0
 10
3.52093
 20
-0.99401
 30
0.0
 10
3.49098
 20
-0.98724
 30
0.0
 10
3.46473
 20
-0.97369
 30
0.0
 10
3.46473
 20
-0.97369
 30
0.0
 10
3.43838
 20
-0.96014
 30
0.0
 10
3.41796
 20
-0.9412
 30
0.0
 10
3.40346
 20
-0.91686
 30
0.0
 10
3.40346
 20
-0.91686
 30
0.0
 10
3.38896
 20
-0.89252
 30
0.0
 10
3.38176
 20
-0.8651
 30
0.0
 10
3.38176
 20
-0.83473
 30
0.0
 10
3.38176
 20
-0.83473
 30
0.0
 10
3.38176
 20
-0.79843
 30
0.0
 10
3.38949
 20
-0.76731
 30
0.0
 10
3.40483
 20
-0.74139
 30
0.0
 10
3.40483
 20
-0.74139
 30
0.0
 10
3.42028
 20
-0.71546
 30
0.0
 10
3.44219
 20
-0.69556
 30
0.0
 10
3.47077
 20
-0.68191
 30
0.0
 10
3.47077
 20
-0.68191
 30
0.0
 10
3.49924
 20
-0.66815
 30
0.0
 10
3.53236
 20
-0.66127
 30
0.0
 10
3.56993
 20
-0.66127
 30
0.0
 10
3.56993
 20
-0.66127
 30
0.0
 10
3.59057
 20
-0.66127
 30
0.0
 10
3.6092
 20
-0.66265
 30
0.0
 10
3.6256
 20
-0.66529
 30
0.0
 10
3.6256
 20
-0.66529
 30
0.0
 10
3.642
 20
-0.66794
 30
0.0
 10
3.65259
 20
-0.67111
 30
0.0
 10
3.65735
 20
-0.6746
 30
0.0
 10
3.65735
 20
-0.6746
 30
0.0
 10
3.65735
 20
-0.6746
 30
0.0
 10
3.65735
 20
-0.77747
 30
0.0
 10
3.65735
 20
-0.77747
 30
0.0
 10
3.65735
 20
-0.77747
 30
0.0
 10
3.65079
 20
-0.77229
 30
0.0
 10
3.64126
 20
-0.76774
 30
0.0
 10
3.62888
 20
-0.76372
 30
0.0
 10
3.62888
 20
-0.76372
 30
0.0
 10
3.6165
 20
-0.7598
 30
0.0
 10
3.60496
 20
-0.75779
 30
0.0
 10
3.59449
 20
-0.75779
 30
0.0
 10
3.59449
 20
-0.75779
 30
0.0
 10
3.56866
 20
-0.75779
 30
0.0
 10
3.54908
 20
-0.76393
 30
0.0
 10
3.53575
 20
-0.77631
 30
0.0
 10
3.53575
 20
-0.77631
 30
0.0
 10
3.52241
 20
-0.78859
 30
0.0
 10
3.51575
 20
-0.80594
 30
0.0
 10
3.51575
 20
-0.82827
 30
0.0
 10
3.51575
 20
-0.82827
 30
0.0
 10
3.51575
 20
-0.85018
 30
0.0
 10
3.52231
 20
-0.86722
 30
0.0
 10
3.53543
 20
-0.87929
 30
0.0
 10
3.53543
 20
-0.87929
 30
0.0
 10
3.54855
 20
-0.89146
 30
0.0
 10
3.56655
 20
-0.89749
 30
0.0
 10
3.58951
 20
-0.89749
 30
0.0
 10
3.58951
 20
-0.89749
 30
0.0
 10
3.61406
 20
-0.89749
 30
0.0
 10
3.63671
 20
-0.89156
 30
0.0
 10
3.65735
 20
-0.87971
 30
0.0
 10
3.65735
 20
-0.87971
 30
0.0
 10
3.65735
 20
-0.87971
 30
0.0
 10
3.65735
 20
-0.97729
 30
0.0
 10
3.65735
 20
-0.97729
 30
0.0
  0
SPLINE
  5
60
330
1F
100
AcDbEntity
  8
Layer 1
 62
     5
370
    53
100
AcDbSpline
210
0.0
220
0.0
230
1.0
 70
    11
 71
     3
 72
    96
 73
    92
 74
     0
 42
0.0000000001
 43
0.0000000001
 12
1.0
 22
0.0
 32
0.0
 13
1.0
 23
0.0
 33
0.0
 40
0.0
 40
0.0
 40
0.0
 40
0.0
 40
0.0416666666666667
 40
0.0416666666666667
 40
0.0416666666666667
 40
0.0416666666666667
 40
0.0833333333333333
 40
0.0833333333333333
 40
0.0833333333333333
 40
0.0833333333333333
 40
0.125
 40
0.125
 40
0.125
 40
0.125
 40
0.1666666666666667
 40
0.1666666666666667
 40
0.1666666666666667
 40
0.1666666666666667
 40
0.2083333333333333
 40
0.2083333333333333
 40
0.2083333333333333
 40
0.2083333333333333
 40
0.25
 40
0.25
 40
0.25
 40
0.25
 40
0.2916666666666667
 40
0.2916666666666667
 40
0.2916666666666667
 40
0.2916666666666667
 40
0.3333333333333333
 40
0.3333333333333333
 40
0.3333333333333333
 40
0.3333333333333333
 40
0.375
 40
0.375
 40
0.375
 40
0.375
 40
0.4166666666666667
 40
0.4166666666666667
 40
0.4166666666666667
 40
0.4166666666666667
 40
0.4583333333333333
 40
0.4583333333333333
 40
0.4583333333333333
 40
0.4583333333333333
 40
0.5
 40
0.5
 40
0.5
 40
0.5
 40
0.5416666666666666
 40
0.5416666666666666
 40
0.5416666666666666
 40
0.5416666666666666
 40
0.5833333333333334
 40
0.5833333333333334
 40
0.5833333333333334
 40
0.5833333333333334
 40
0.625
 40
0.625
 40
0.625
 40
0.625
 40
0.6666666666666666
 40
0.6666666666666666
 40
0.6666666666666666
 40
0.6666666666666666
 40
0.7083333333333334
 40
0.7083333333333334
 40
0.7083333333333334
 40
0.7083333333333334
 40
0.75
 40
0.75
 40
0.75
 40
0.75
 40
0.7916666666666666
 40
0.7916666666666666
 40
0.7916666666666666
 40
0.7916666666666666
 40
0.8333333333333334
 40
0.8333333333333334
 40
0.8333333333333334
 40
0.8333333333333334
 40
0.875
 40
0.875
 40
0.875
 40
0.875
 40
0.9166666666666666
 40
0.9166666666666666
 40
0.9166666666666666
 40
0.9166666666666666
 40
1.0
 40
1.0
 40
1.0
 40
1.0
 10
3.96797
 20
-0.88087
 30
0.0
 10
3.96797
 20
-0.91675
 30
0.0
 10
3.95432
 20
-0.94469
 30
0.0
 10
3.92691
 20
-0.96438
 30
0.0
 10
3.92691
 20
-0.96438
 30
0.0
 10
3.8995
 20
-0.98417
 30
0.0
 10
3.8614
 20
-0.99401
 30
0.0
 10
3.8124
 20
-0.99401
 30
0.0
 10
3.8124
 20
-0.99401
 30
0.0
 10
3.79811
 20
-0.99401
 30
0.0
 10
3.78054
 20
-0.99253
 30
0.0
 10
3.75958
 20
-0.98967
 30
0.0
 10
3.75958
 20
-0.98967
 30
0.0
 10
3.73852
 20
-0.98681
 30
0.0
 10
3.72148
 20
-0.98332
 30
0.0
 10
3.70826
 20
-0.97919
 30
0.0
 10
3.70826
 20
-0.97919
 30
0.0
 10
3.70826
 20
-0.97919
 30
0.0
 10
3.70826
 20
-0.88669
 30
0.0
 10
3.70826
 20
-0.88669
 30
0.0
 10
3.70826
 20
-0.88669
 30
0.0
 10
3.74731
 20
-0.90405
 30
0.0
 10
3.7799
 20
-0.91273
 30
0.0
 10
3.80605
 20
-0.91273
 30
0.0
 10
3.80605
 20
-0.91273
 30
0.0
 10
3.83187
 20
-0.91273
 30
0.0
 10
3.84478
 20
-0.90606
 30
0.0
 10
3.84478
 20
-0.89262
 30
0.0
 10
3.84478
 20
-0.89262
 30
0.0
 10
3.84478
 20
-0.88701
 30
0.0
 10
3.84182
 20
-0.88236
 30
0.0
 10
3.83578
 20
-0.87876
 30
0.0
 10
3.83578
 20
-0.87876
 30
0.0
 10
3.82986
 20
-0.87516
 30
0.0
 10
3.81409
 20
-0.86913
 30
0.0
 10
3.78879
 20
-0.86066
 30
0.0
 10
3.78879
 20
-0.86066
 30
0.0
 10
3.76064
 20
-0.85177
 30
0.0
 10
3.74022
 20
-0.83992
 30
0.0
 10
3.72741
 20
-0.82531
 30
0.0
 10
3.72741
 20
-0.82531
 30
0.0
 10
3.71461
 20
-0.8106
 30
0.0
 10
3.70826
 20
-0.79144
 30
0.0
 10
3.70826
 20
-0.76795
 30
0.0
 10
3.70826
 20
-0.76795
 30
0.0
 10
3.70826
 20
-0.73504
 30
0.0
 10
3.72138
 20
-0.70911
 30
0.0
 10
3.74752
 20
-0.68995
 30
0.0
 10
3.74752
 20
-0.68995
 30
0.0
 10
3.77366
 20
-0.67079
 30
0.0
 10
3.81038
 20
-0.66127
 30
0.0
 10
3.85769
 20
-0.66127
 30
0.0
 10
3.85769
 20
-0.66127
 30
0.0
 10
3.88542
 20
-0.66127
 30
0.0
 10
3.91474
 20
-0.66529
 30
0.0
 10
3.94575
 20
-0.67333
 30
0.0
 10
3.94575
 20
-0.67333
 30
0.0
 10
3.94575
 20
-0.67333
 30
0.0
 10
3.94575
 20
-0.76223
 30
0.0
 10
3.94575
 20
-0.76223
 30
0.0
 10
3.94575
 20
-0.76223
 30
0.0
 10
3.93273
 20
-0.75663
 30
0.0
 10
3.91844
 20
-0.75197
 30
0.0
 10
3.90288
 20
-0.74816
 30
0.0
 10
3.90288
 20
-0.74816
 30
0.0
 10
3.88743
 20
-0.74445
 30
0.0
 10
3.87441
 20
-0.74255
 30
0.0
 10
3.86383
 20
-0.74255
 30
0.0
 10
3.86383
 20
-0.74255
 30
0.0
 10
3.85515
 20
-0.74255
 30
0.0
 10
3.84817
 20
-0.74403
 30
0.0
 10
3.84298
 20
-0.74689
 30
0.0
 10
3.84298
 20
-0.74689
 30
0.0
 10
3.8378
 20
-0.74975
 30
0.0
 10
3.83526
 20
-0.75377
 30
0.0
 10
3.83526
 20
-0.75895
 30
0.0
 10
3.83526
 20
-0.75895
 30
0.0
 10
3.83526
 20
-0.76499
 30
0.0
 10
3.83801
 20
-0.76985
 30
0.0
 10
3.84362
 20
-0.77356
 30
0.0
 10
3.84362
 20
-0.77356
 30
0.0
 10
3.84923
 20
-0.77726
 30
0.0
 10
3.86034
 20
-0.78171
 30
0.0
 10
3.87717
 20
-0.78689
 30
0.0
 10
3.87717
 20
-0.78689
 30
0.0
 10
3.90955
 20
-0.79642
 30
0.0
 10
3.93283
 20
-0.80859
 30
0.0
 10
3.94691
 20
-0.82351
 30
0.0
 10
3.94691
 20
-0.82351
 30
0.0
 10
3.96099
 20
-0.83833
 30
0.0
 10
3.96797
 20
-0.85748
 30
0.0
 10
3.96797
 20
-0.88087
 30
0.0
  0
ENDSEC
  0
SECTION
  2
OBJECTS
  0
DICTIONARY
  5
C
330
0
100
AcDbDictionary
281
     1
  3
ACAD_GROUP
350
D
  3
ACAD_LAYOUT
350
1A
  3
ACAD_MATERIAL
350
3B
  3
ACAD_MLEADERSTYLE
350
82
  3
ACAD_MLINESTYLE
350
17
  3
ACAD_PLOTSETTINGS
350
19
  3
ACAD_PLOTSTYLENAME
350
E
  3
ACAD_TABLESTYLE
350
81
  3
ACAD_VISUALSTYLE
350
2A
  0
DICTIONARY
  5
D
102
{ACAD_REACTORS
330
C
102
}
330
C
100
AcDbDictionary
281
     1
  0
DICTIONARY
  5
1A
102
{ACAD_REACTORS
330
C
102
}
330
C
100
AcDbDictionary
281
     1
  3
Layout1
350
1E
  3
Layout2
350
26
  3
Model
350
22
  0
DICTIONARY
  5
3B
102
{ACAD_REACTORS
330
C
102
}
330
C
100
AcDbDictionary
281
     1
  3
ByBlock
350
3D
  3
ByLayer
350
3C
  3
Global
350
3E
  0
DICTIONARY
  5
82
102
{ACAD_REACTORS
330
C
102
}
330
C
100
AcDbDictionary
281
     1
  0
DICTIONARY
  5
17
102
{ACAD_REACTORS
330
C
102
}
330
C
100
AcDbDictionary
281
     1
  3
Standard
350
18
  0
DICTIONARY
  5
19
102
{ACAD_REACTORS
330
C
102
}
330
C
100
AcDbDictionary
281
     1
  0
ACDBDICTIONARYWDFLT
  5
E
102
{ACAD_REACTORS
330
C
102
}
330
C
100
AcDbDictionary
281
     1
  3
Normal
350
F
100
AcDbDictionaryWithDefault
340
F
  0
DICTIONARY
  5
81
102
{ACAD_REACTORS
330
C
102
}
330
C
100
AcDbDictionary
281
     1
  0
DICTIONARY
  5
2A
102
{ACAD_REACTORS
330
C
102
}
330
C
100
AcDbDictionary
281
     1
  3
2dWireframe
350
2F
  3
3D Hidden
350
31
  3
3dWireframe
350
30
  3
Basic
350
32
  3
Brighten
350
36
  3
ColorChange
350
3A
  3
Conceptual
350
34
  3
Dim
350
35
  3
Facepattern
350
39
  3
Flat
350
2B
  3
FlatWithEdges
350
2C
  3
Gouraud
350
2D
  3
GouraudWithEdges
350
2E
  3
Linepattern
350
38
  3
Realistic
350
33
  3
Thicken
350
37
  0
LAYOUT
  5
1E
102
{ACAD_REACTORS
330
1A
102
}
330
1A
100
AcDbPlotSettings
  1

  2
none_device
  4

  6

 40
0.0
 41
0.0
 42
0.0
 43
0.0
 44
0.0
 45
0.0
 46
0.0
 47
0.0
 48
0.0
 49
0.0
140
0.0
141
0.0
142
1.0
143
1.0
 70
   688
 72
     0
 73
     0
 74
     5
  7

 75
    16
 76
     0
 77
     2
 78
   300
147
1.0
148
0.0
149
0.0
100
AcDbLayout
  1
Layout1
 70
     1
 71
     1
 10
0.0
 20
0.0
 11
12.0
 21
9.0
 12
0.0
 22
0.0
 32
0.0
 14
1.000000000000000E+20
 24
1.000000000000000E+20
 34
1.000000000000000E+20
 15
-1.000000000000000E+20
 25
-1.000000000000000E+20
 35
-1.000000000000000E+20
146
0.0
 13
0.0
 23
0.0
 33
0.0
 16
1.0
 26
0.0
 36
0.0
 17
0.0
 27
1.0
 37
0.0
 76
     0
330
1B
  0
LAYOUT
  5
26
102
{ACAD_REACTORS
330
1A
102
}
330
1A
100
AcDbPlotSettings
  1

  2
none_device
  4

  6

 40
0.0
 41
0.0
 42
0.0
 43
0.0
 44
0.0
 45
0.0
 46
0.0
 47
0.0
 48
0.0
 49
0.0
140
0.0
141
0.0
142
1.0
143
1.0
 70
   688
 72
     0
 73
     0
 74
     5
  7

 75
    16
 76
     0
 77
     2
 78
   300
147
1.0
148
0.0
149
0.0
100
AcDbLayout
  1
Layout2
 70
     1
 71
     2
 10
0.0
 20
0.0
 11
0.0
 21
0.0
 12
0.0
 22
0.0
 32
0.0
 14
0.0
 24
0.0
 34
0.0
 15
0.0
 25
0.0
 35
0.0
146
0.0
 13
0.0
 23
0.0
 33
0.0
 16
1.0
 26
0.0
 36
0.0
 17
0.0
 27
1.0
 37
0.0
 76
     0
330
23
  0
LAYOUT
  5
22
102
{ACAD_REACTORS
330
1A
102
}
330
1A
100
AcDbPlotSettings
  1

  2
none_device
  4

  6

 40
0.0
 41
0.0
 42
0.0
 43
0.0
 44
0.0
 45
0.0
 46
0.0
 47
0.0
 48
0.0
 49
0.0
140
0.0
141
0.0
142
1.0
143
1.0
 70
  1712
 72
     0
 73
     0
 74
     0
  7

 75
     0
 76
     0
 77
     2
 78
   300
147
1.0
148
0.0
149
0.0
100
AcDbLayout
  1
Model
 70
     1
 71
     0
 10
0.0
 20
0.0
 11
12.0
 21
9.0
 12
0.0
 22
0.0
 32
0.0
 14
-4.47646
 24
-1.47646
 34
0.0
 15
4.47646
 25
1.47646
 35
0.0
146
0.0
 13
0.0
 23
0.0
 33
0.0
 16
1.0
 26
0.0
 36
0.0
 17
0.0
 27
1.0
 37
0.0
 76
     0
330
1F
331
29
  0
MATERIAL
  5
3D
102
{ACAD_REACTORS
330
3B
102
}
330
3B
100
AcDbMaterial
  1
ByBlock
 72
     1
 94
      127
  0
MATERIAL
  5
3C
102
{ACAD_REACTORS
330
3B
102
}
330
3B
100
AcDbMaterial
  1
ByLayer
 72
     1
 94
      127
  0
MATERIAL
  5
3E
102
{ACAD_REACTORS
330
3B
102
}
330
3B
100
AcDbMaterial
  1
Global
 72
     1
 94
      127
  0
MLINESTYLE
  5
18
102
{ACAD_REACTORS
330
17
102
}
330
17
100
AcDbMlineStyle
  2
Standard
 70
     0
  3

 62
   256
 51
90.0
 52
90.0
 71
     2
 49
0.5
 62
   256
  6
BYLAYER
 49
-0.5
 62
   256
  6
BYLAYER
  0
ACDBPLACEHOLDER
  5
F
102
{ACAD_REACTORS
330
E
102
}
330
E
  0
VISUALSTYLE
  5
2F
102
{ACAD_REACTORS
330
2A
102
}
102
{ACAD_XDICTIONARY
360
69
102
}
330
2A
100
AcDbVisualStyle
  2
2dWireframe
 70
     4
 71
     0
 72
     2
 73
     0
 90
        0
 40
-0.6
 41
-30.0
 62
     5
 63
     7
421
 16777215
 74
     1
 91
        4
 64
     7
 65
   257
 75
     1
175
     1
 42
1.0
 92
        0
 66
   257
 43
1.0
 76
     1
 77
     6
 78
     2
 67
     7
 79
     5
170
     0
171
     0
290
     0
174
     0
 93
        1
 44
0.0
173
     0
291
     0
 45
0.0
  0
VISUALSTYLE
  5
31
102
{ACAD_REACTORS
330
2A
102
}
102
{ACAD_XDICTIONARY
360
6D
102
}
330
2A
100
AcDbVisualStyle
  2
3D Hidden
 70
     6
 71
     1
 72
     2
 73
     2
 90
        0
 40
-0.6
 41
-30.0
 62
     5
 63
     7
421
 16777215
 74
     2
 91
        2
 64
     7
 65
   257
 75
     2
175
     1
 42
40.0
 92
        0
 66
   257
 43
1.0
 76
     1
 77
     6
 78
     2
 67
     7
 79
     3
170
     0
171
     0
290
     0
174
     0
 93
        1
 44
0.0
173
     0
291
     0
 45
0.0
  0
VISUALSTYLE
  5
30
102
{ACAD_REACTORS
330
2A
102
}
102
{ACAD_XDICTIONARY
360
6B
102
}
330
2A
100
AcDbVisualStyle
  2
3dWireframe
 70
     5
 71
     0
 72
     2
 73
     0
 90
        0
 40
-0.6
 41
-30.0
 62
     5
 63
     7
421
 16777215
 74
     1
 91
        4
 64
     7
 65
   257
 75
     1
175
     1
 42
1.0
 92
        0
 66
   257
 43
1.0
 76
     1
 77
     6
 78
     2
 67
     7
 79
     5
170
     0
171
     0
290
     0
174
     0
 93
        1
 44
0.0
173
     0
291
     0
 45
0.0
  0
VISUALSTYLE
  5
32
102
{ACAD_REACTORS
330
2A
102
}
102
{ACAD_XDICTIONARY
360
6F
102
}
330
2A
100
AcDbVisualStyle
  2
Basic
 70
     7
 71
     1
 72
     0
 73
     1
 90
        0
 40
-0.6
 41
-30.0
 62
     5
 63
     7
421
 16777215
 74
     0
 91
        4
 64
     7
 65
   257
 75
     1
175
     1
 42
1.0
 92
        8
 66
     7
 43
1.0
 76
     1
 77
     6
 78
     2
 67
     7
 79
     5
170
     0
171
     0
290
     0
174
     0
 93
        1
 44
0.0
173
     0
291
     1
 45
0.0
  0
VISUALSTYLE
  5
36
102
{ACAD_REACTORS
330
2A
102
}
102
{ACAD_XDICTIONARY
360
77
102
}
330
2A
100
AcDbVisualStyle
  2
Brighten
 70
    12
 71
     2
 72
     2
 73
     0
 90
        0
 40
-0.6
 41
-30.0
 62
     5
 63
     7
421
 16777215
 74
     1
 91
        4
 64
     7
 65
   257
 75
     1
175
     1
 42
1.0
 92
        8
 66
     7
 43
1.0
 76
     1
 77
     6
 78
     2
 67
     7
 79
     5
170
     0
171
     0
290
     0
174
     0
 93
        1
 44
50.0
173
     0
291
     1
 45
0.0
  0
VISUALSTYLE
  5
3A
102
{ACAD_REACTORS
330
2A
102
}
102
{ACAD_XDICTIONARY
360
7F
102
}
330
2A
100
AcDbVisualStyle
  2
ColorChange
 70
    16
 71
     2
 72
     2
 73
     3
 90
        0
 40
-0.6
 41
-30.0
 62
     5
 63
     8
421
  8421504
 74
     1
 91
        4
 64
     7
 65
   257
 75
     1
175
     1
 42
1.0
 92
        8
 66
     8
424
  8421504
 43
1.0
 76
     1
 77
     6
 78
     2
 67
     7
 79
     5
170
     0
171
     0
290
     0
174
     0
 93
        1
 44
0.0
173
     0
291
     1
 45
0.0
  0
VISUALSTYLE
  5
34
102
{ACAD_REACTORS
330
2A
102
}
102
{ACAD_XDICTIONARY
360
73
102
}
330
2A
100
AcDbVisualStyle
  2
Conceptual
 70
     9
 71
     3
 72
     2
 73
     0
 90
        0
 40
-0.6
 41
-30.0
 62
     5
 63
     7
421
 16777215
 74
     2
 91
        2
 64
     7
 65
   257
 75
     1
175
     1
 42
40.0
 92
        8
 66
     7
 43
1.0
 76
     1
 77
     6
 78
     2
 67
     7
 79
     3
170
     0
171
     0
290
     0
174
     0
 93
        1
 44
0.0
173
     0
291
     0
 45
0.0
  0
VISUALSTYLE
  5
35
102
{ACAD_REACTORS
330
2A
102
}
102
{ACAD_XDICTIONARY
360
75
102
}
330
2A
100
AcDbVisualStyle
  2
Dim
 70
    11
 71
     2
 72
     2
 73
     0
 90
        0
 40
-0.6
 41
-30.0
 62
     5
 63
     7
421
 16777215
 74
     1
 91
        4
 64
     7
 65
   257
 75
     1
175
     1
 42
1.0
 92
        8
 66
     7
 43
1.0
 76
     1
 77
     6
 78
     2
 67
     7
 79
     5
170
     0
171
     0
290
     0
174
     0
 93
        1
 44
-50.0
173
     0
291
     1
 45
0.0
  0
VISUALSTYLE
  5
39
102
{ACAD_REACTORS
330
2A
102
}
102
{ACAD_XDICTIONARY
360
7D
102
}
330
2A
100
AcDbVisualStyle
  2
Facepattern
 70
    15
 71
     2
 72
     2
 73
     0
 90
        0
 40
-0.6
 41
-30.0
 62
     5
 63
     7
421
 16777215
 74
     1
 91
        4
 64
     7
 65
   257
 75
     1
175
     1
 42
1.0
 92
        8
 66
     7
 43
1.0
 76
     1
 77
     6
 78
     2
 67
     7
 79
     5
170
     0
171
     0
290
     0
174
     0
 93
        1
 44
0.0
173
     0
291
     1
 45
0.0
  0
VISUALSTYLE
  5
2B
102
{ACAD_REACTORS
330
2A
102
}
102
{ACAD_XDICTIONARY
360
61
102
}
330
2A
100
AcDbVisualStyle
  2
Flat
 70
     0
 71
     2
 72
     1
 73
     1
 90
        2
 40
-0.6
 41
30.0
 62
     5
 63
     7
421
 16777215
 74
     0
 91
        4
 64
     7
 65
   257
 75
     1
175
     1
 42
1.0
 92
        8
 66
     7
 43
1.0
 76
     1
 77
     6
 78
     2
 67
     7
 79
     5
170
     0
171
     0
290
     0
174
     0
 93
       13
 44
0.0
173
     0
291
     1
 45
0.0
  0
VISUALSTYLE
  5
2C
102
{ACAD_REACTORS
330
2A
102
}
102
{ACAD_XDICTIONARY
360
63
102
}
330
2A
100
AcDbVisualStyle
  2
FlatWithEdges
 70
     1
 71
     2
 72
     1
 73
     1
 90
        2
 40
-0.6
 41
30.0
 62
     5
 63
     7
421
 16777215
 74
     1
 91
        4
 64
     7
 65
   257
 75
     1
175
     1
 42
1.0
 92
        0
 66
   257
 43
1.0
 76
     1
 77
     6
 78
     2
 67
     7
 79
     5
170
     0
171
     0
290
     0
174
     0
 93
       13
 44
0.0
173
     0
291
     1
 45
0.0
  0
VISUALSTYLE
  5
2D
102
{ACAD_REACTORS
330
2A
102
}
102
{ACAD_XDICTIONARY
360
65
102
}
330
2A
100
AcDbVisualStyle
  2
Gouraud
 70
     2
 71
     2
 72
     2
 73
     1
 90
        2
 40
-0.6
 41
30.0
 62
     5
 63
     7
421
 16777215
 74
     0
 91
        4
 64
     7
 65
   257
 75
     1
175
     1
 42
1.0
 92
        0
 66
     7
 43
1.0
 76
     1
 77
     6
 78
     2
 67
     7
 79
     5
170
     0
171
     0
290
     0
174
     0
 93
       13
 44
0.0
173
     0
291
     1
 45
0.0
  0
VISUALSTYLE
  5
2E
102
{ACAD_REACTORS
330
2A
102
}
102
{ACAD_XDICTIONARY
360
67
102
}
330
2A
100
AcDbVisualStyle
  2
GouraudWithEdges
 70
     3
 71
     2
 72
     2
 73
     1
 90
        2
 40
-0.6
 41
30.0
 62
     5
 63
     7
421
 16777215
 74
     1
 91
        4
 64
     7
 65
   257
 75
     1
175
     1
 42
1.0
 92
        0
 66
   257
 43
1.0
 76
     1
 77
     6
 78
     2
 67
     7
 79
     5
170
     0
171
     0
290
     0
174
     0
 93
       13
 44
0.0
173
     0
291
     1
 45
0.0
  0
VISUALSTYLE
  5
38
102
{ACAD_REACTORS
330
2A
102
}
102
{ACAD_XDICTIONARY
360
7B
102
}
330
2A
100
AcDbVisualStyle
  2
Linepattern
 70
    14
 71
     2
 72
     2
 73
     0
 90
        0
 40
-0.6
 41
-30.0
 62
     5
 63
     7
421
 16777215
 74
     1
 91
        4
 64
     7
 65
   257
 75
     7
175
     7
 42
1.0
 92
        8
 66
     7
 43
1.0
 76
     1
 77
     6
 78
     2
 67
     7
 79
     5
170
     0
171
     0
290
     0
174
     0
 93
        1
 44
0.0
173
     0
291
     1
 45
0.0
  0
VISUALSTYLE
  5
33
102
{ACAD_REACTORS
330
2A
102
}
102
{ACAD_XDICTIONARY
360
71
102
}
330
2A
100
AcDbVisualStyle
  2
Realistic
 70
     8
 71
     2
 72
     2
 73
     0
 90
        0
 40
-0.6
 41
-30.0
 62
     5
 63
     7
421
 16777215
 74
     1
 91
        0
 64
     7
 65
   257
 75
     1
175
     1
 42
1.0
 92
        8
 66
     8
424
  7895160
 43
1.0
 76
     1
 77
     6
 78
     2
 67
     7
 79
     5
170
     0
171
     0
290
     0
174
     0
 93
       13
 44
0.0
173
     0
291
     0
 45
0.0
  0
VISUALSTYLE
  5
37
102
{ACAD_REACTORS
330
2A
102
}
102
{ACAD_XDICTIONARY
360
79
102
}
330
2A
100
AcDbVisualStyle
  2
Thicken
 70
    13
 71
     2
 72
     2
 73
     0
 90
        0
 40
-0.6
 41
-30.0
 62
     5
 63
     7
421
 16777215
 74
     1
 91
        4
 64
     7
 65
   257
 75
     1
175
     1
 42
1.0
 92
       12
 66
     7
 43
1.0
 76
     1
 77
     6
 78
     2
 67
     7
 79
     5
170
     0
171
     0
290
     0
174
     0
 93
        1
 44
0.0
173
     0
291
     1
 45
0.0
  0
DICTIONARY
  5
69
330
2F
100
AcDbDictionary
280
     1
281
     1
  3
ACAD_XREC_ROUNDTRIP
360
6A
  0
DICTIONARY
  5
6D
330
31
100
AcDbDictionary
280
     1
281
     1
  3
ACAD_XREC_ROUNDTRIP
360
6E
  0
DICTIONARY
  5
6B
330
30
100
AcDbDictionary
280
     1
281
     1
  3
ACAD_XREC_ROUNDTRIP
360
6C
  0
DICTIONARY
  5
6F
330
32
100
AcDbDictionary
280
     1
281
     1
  3
ACAD_XREC_ROUNDTRIP
360
70
  0
DICTIONARY
  5
77
330
36
100
AcDbDictionary
280
     1
281
     1
  3
ACAD_XREC_ROUNDTRIP
360
78
  0
DICTIONARY
  5
7F
330
3A
100
AcDbDictionary
280
     1
281
     1
  3
ACAD_XREC_ROUNDTRIP
360
80
  0
DICTIONARY
  5
73
330
34
100
AcDbDictionary
280
     1
281
     1
  3
ACAD_XREC_ROUNDTRIP
360
74
  0
DICTIONARY
  5
75
330
35
100
AcDbDictionary
280
     1
281
     1
  3
ACAD_XREC_ROUNDTRIP
360
76
  0
DICTIONARY
  5
7D
330
39
100
AcDbDictionary
280
     1
281
     1
  3
ACAD_XREC_ROUNDTRIP
360
7E
  0
DICTIONARY
  5
61
330
2B
100
AcDbDictionary
280
     1
281
     1
  3
ACAD_XREC_ROUNDTRIP
360
62
  0
DICTIONARY
  5
63
330
2C
100
AcDbDictionary
280
     1
281
     1
  3
ACAD_XREC_ROUNDTRIP
360
64
  0
DICTIONARY
  5
65
330
2D
100
AcDbDictionary
280
     1
281
     1
  3
ACAD_XREC_ROUNDTRIP
360
66
  0
DICTIONARY
  5
67
330
2E
100
AcDbDictionary
280
     1
281
     1
  3
ACAD_XREC_ROUNDTRIP
360
68
  0
DICTIONARY
  5
7B
330
38
100
AcDbDictionary
280
     1
281
     1
  3
ACAD_XREC_ROUNDTRIP
360
7C
  0
DICTIONARY
  5
71
330
33
100
AcDbDictionary
280
     1
281
     1
  3
ACAD_XREC_ROUNDTRIP
360
72
  0
DICTIONARY
  5
79
330
37
100
AcDbDictionary
280
     1
281
     1
  3
ACAD_XREC_ROUNDTRIP
360
7A
  0
XRECORD
  5
6A
102
{ACAD_REACTORS
330
69
102
}
330
69
100
AcDbXrecord
280
     1
102
RTVSPropertyOp0
 70
     1
102
RTVSPropertyOp1
 70
     1
102
RTVSPropertyOp2
 70
     1
102
RTVSPropertyOp3
 70
     1
102
RTVSPropertyOp4
 70
     1
102
RTVSPropertyOp5
 70
     1
102
RTVSPropertyOp6
 70
     1
102
RTVSPropertyOp7
 70
     1
102
RTVSPropertyOp8
 70
     1
102
RTVSPropertyOp9
 70
     1
102
RTVSPropertyOp10
 70
     1
102
RTVSPropertyOp11
 70
     1
102
RTVSPropertyOp12
 70
     1
102
RTVSPropertyOp13
 70
     1
102
RTVSPropertyOp14
 70
     1
102
RTVSPropertyOp15
 70
     1
102
RTVSPropertyOp16
 70
     1
102
RTVSPropertyOp17
 70
     1
102
RTVSPropertyOp18
 70
     1
102
RTVSPropertyOp19
 70
     1
102
RTVSPropertyOp20
 70
     1
102
RTVSPropertyOp21
 70
     1
102
RTVSPropertyOp22
 70
     1
102
RTVSPropertyOp23
 70
     1
102
RTVSPropertyOp24
 70
     1
102
RTVSPropertyOp25
 70
     1
102
RTVSPropertyOp26
 70
     1
102
RTVSPropertyOp27
 70
     1
102
RTVSPropertyOp28
 70
     1
102
RTVSPropertyOp29
 70
     1
102
RTVSPropertyOp30
 70
     1
102
RTVSPropertyOp31
 70
     1
102
RTVSPropertyOp32
 70
     1
  0
XRECORD
  5
6E
102
{ACAD_REACTORS
330
6D
102
}
330
6D
100
AcDbXrecord
280
     1
102
RTVSPropertyOp0
 70
     1
102
RTVSPropertyOp1
 70
     1
102
RTVSPropertyOp2
 70
     1
102
RTVSPropertyOp3
 70
     1
102
RTVSPropertyOp4
 70
     1
102
RTVSPropertyOp5
 70
     1
102
RTVSPropertyOp6
 70
     1
102
RTVSPropertyOp7
 70
     1
102
RTVSPropertyOp8
 70
     1
102
RTVSPropertyOp9
 70
     1
102
RTVSPropertyOp10
 70
     1
102
RTVSPropertyOp11
 70
     1
102
RTVSPropertyOp12
 70
     1
102
RTVSPropertyOp13
 70
     1
102
RTVSPropertyOp14
 70
     1
102
RTVSPropertyOp15
 70
     1
102
RTVSPropertyOp16
 70
     1
102
RTVSPropertyOp17
 70
     1
102
RTVSPropertyOp18
 70
     1
102
RTVSPropertyOp19
 70
     1
102
RTVSPropertyOp20
 70
     1
102
RTVSPropertyOp21
 70
     1
102
RTVSPropertyOp22
 70
     1
102
RTVSPropertyOp23
 70
     1
102
RTVSPropertyOp24
 70
     1
102
RTVSPropertyOp25
 70
     1
102
RTVSPropertyOp26
 70
     1
102
RTVSPropertyOp27
 70
     1
102
RTVSPropertyOp28
 70
     1
102
RTVSPropertyOp29
 70
     1
102
RTVSPropertyOp30
 70
     1
102
RTVSPropertyOp31
 70
     1
102
RTVSPropertyOp32
 70
     1
  0
XRECORD
  5
6C
102
{ACAD_REACTORS
330
6B
102
}
330
6B
100
AcDbXrecord
280
     1
102
RTVSPropertyOp0
 70
     1
102
RTVSPropertyOp1
 70
     1
102
RTVSPropertyOp2
 70
     1
102
RTVSPropertyOp3
 70
     1
102
RTVSPropertyOp4
 70
     1
102
RTVSPropertyOp5
 70
     1
102
RTVSPropertyOp6
 70
     1
102
RTVSPropertyOp7
 70
     1
102
RTVSPropertyOp8
 70
     1
102
RTVSPropertyOp9
 70
     1
102
RTVSPropertyOp10
 70
     1
102
RTVSPropertyOp11
 70
     1
102
RTVSPropertyOp12
 70
     1
102
RTVSPropertyOp13
 70
     1
102
RTVSPropertyOp14
 70
     1
102
RTVSPropertyOp15
 70
     1
102
RTVSPropertyOp16
 70
     1
102
RTVSPropertyOp17
 70
     1
102
RTVSPropertyOp18
 70
     1
102
RTVSPropertyOp19
 70
     1
102
RTVSPropertyOp20
 70
     1
102
RTVSPropertyOp21
 70
     1
102
RTVSPropertyOp22
 70
     1
102
RTVSPropertyOp23
 70
     1
102
RTVSPropertyOp24
 70
     1
102
RTVSPropertyOp25
 70
     1
102
RTVSPropertyOp26
 70
     1
102
RTVSPropertyOp27
 70
     1
102
RTVSPropertyOp28
 70
     1
102
RTVSPropertyOp29
 70
     1
102
RTVSPropertyOp30
 70
     1
102
RTVSPropertyOp31
 70
     1
102
RTVSPropertyOp32
 70
     1
  0
XRECORD
  5
70
102
{ACAD_REACTORS
330
6F
102
}
330
6F
100
AcDbXrecord
280
     1
102
RTVSPropertyOp0
 70
     1
102
RTVSPropertyOp1
 70
     1
102
RTVSPropertyOp2
 70
     1
102
RTVSPropertyOp3
 70
     1
102
RTVSPropertyOp4
 70
     1
102
RTVSPropertyOp5
 70
     1
102
RTVSPropertyOp6
 70
     1
102
RTVSPropertyOp7
 70
     1
102
RTVSPropertyOp8
 70
     1
102
RTVSPropertyOp9
 70
     1
102
RTVSPropertyOp10
 70
     1
102
RTVSPropertyOp11
 70
     1
102
RTVSPropertyOp12
 70
     1
102
RTVSPropertyOp13
 70
     1
102
RTVSPropertyOp14
 70
     1
102
RTVSPropertyOp15
 70
     1
102
RTVSPropertyOp16
 70
     1
102
RTVSPropertyOp17
 70
     1
102
RTVSPropertyOp18
 70
     1
102
RTVSPropertyOp19
 70
     1
102
RTVSPropertyOp20
 70
     1
102
RTVSPropertyOp21
 70
     1
102
RTVSPropertyOp22
 70
     1
102
RTVSPropertyOp23
 70
     1
102
RTVSPropertyOp24
 70
     1
102
RTVSPropertyOp25
 70
     1
102
RTVSPropertyOp26
 70
     1
102
RTVSPropertyOp27
 70
     1
102
RTVSPropertyOp28
 70
     1
102
RTVSPropertyOp29
 70
     1
102
RTVSPropertyOp30
 70
     1
102
RTVSPropertyOp31
 70
     1
102
RTVSPropertyOp32
 70
     1
  0
XRECORD
  5
78
102
{ACAD_REACTORS
330
77
102
}
330
77
100
AcDbXrecord
280
     1
102
RTVSPropertyOp0
 70
     1
102
RTVSPropertyOp1
 70
     1
102
RTVSPropertyOp2
 70
     1
102
RTVSPropertyOp3
 70
     1
102
RTVSPropertyOp4
 70
     1
102
RTVSPropertyOp5
 70
     1
102
RTVSPropertyOp6
 70
     1
102
RTVSPropertyOp7
 70
     1
102
RTVSPropertyOp8
 70
     1
102
RTVSPropertyOp9
 70
     1
102
RTVSPropertyOp10
 70
     1
102
RTVSPropertyOp11
 70
     1
102
RTVSPropertyOp12
 70
     1
102
RTVSPropertyOp13
 70
     1
102
RTVSPropertyOp14
 70
     1
102
RTVSPropertyOp15
 70
     1
102
RTVSPropertyOp16
 70
     1
102
RTVSPropertyOp17
 70
     1
102
RTVSPropertyOp18
 70
     1
102
RTVSPropertyOp19
 70
     1
102
RTVSPropertyOp20
 70
     1
102
RTVSPropertyOp21
 70
     1
102
RTVSPropertyOp22
 70
     1
102
RTVSPropertyOp23
 70
     1
102
RTVSPropertyOp24
 70
     1
102
RTVSPropertyOp25
 70
     1
102
RTVSPropertyOp26
 70
     1
102
RTVSPropertyOp27
 70
     1
102
RTVSPropertyOp28
 70
     1
102
RTVSPropertyOp29
 70
     1
102
RTVSPropertyOp30
 70
     1
102
RTVSPropertyOp31
 70
     1
102
RTVSPropertyOp32
 70
     1
  0
XRECORD
  5
80
102
{ACAD_REACTORS
330
7F
102
}
330
7F
100
AcDbXrecord
280
     1
102
RTVSPropertyOp0
 70
     1
102
RTVSPropertyOp1
 70
     1
102
RTVSPropertyOp2
 70
     1
102
RTVSPropertyOp3
 70
     1
102
RTVSPropertyOp4
 70
     1
102
RTVSPropertyOp5
 70
     1
102
RTVSPropertyOp6
 70
     1
102
RTVSPropertyOp7
 70
     1
102
RTVSPropertyOp8
 70
     1
102
RTVSPropertyOp9
 70
     1
102
RTVSPropertyOp10
 70
     1
102
RTVSPropertyOp11
 70
     1
102
RTVSPropertyOp12
 70
     1
102
RTVSPropertyOp13
 70
     1
102
RTVSPropertyOp14
 70
     1
102
RTVSPropertyOp15
 70
     1
102
RTVSPropertyOp16
 70
     1
102
RTVSPropertyOp17
 70
     1
102
RTVSPropertyOp18
 70
     1
102
RTVSPropertyOp19
 70
     1
102
RTVSPropertyOp20
 70
     1
102
RTVSPropertyOp21
 70
     1
102
RTVSPropertyOp22
 70
     1
102
RTVSPropertyOp23
 70
     1
102
RTVSPropertyOp24
 70
     1
102
RTVSPropertyOp25
 70
     1
102
RTVSPropertyOp26
 70
     1
102
RTVSPropertyOp27
 70
     1
102
RTVSPropertyOp28
 70
     1
102
RTVSPropertyOp29
 70
     1
102
RTVSPropertyOp30
 70
     1
102
RTVSPropertyOp31
 70
     1
102
RTVSPropertyOp32
 70
     1
  0
XRECORD
  5
74
102
{ACAD_REACTORS
330
73
102
}
330
73
100
AcDbXrecord
280
     1
102
RTVSPropertyOp0
 70
     1
102
RTVSPropertyOp1
 70
     1
102
RTVSPropertyOp2
 70
     1
102
RTVSPropertyOp3
 70
     1
102
RTVSPropertyOp4
 70
     1
102
RTVSPropertyOp5
 70
     1
102
RTVSPropertyOp6
 70
     1
102
RTVSPropertyOp7
 70
     1
102
RTVSPropertyOp8
 70
     1
102
RTVSPropertyOp9
 70
     1
102
RTVSPropertyOp10
 70
     1
102
RTVSPropertyOp11
 70
     1
102
RTVSPropertyOp12
 70
     1
102
RTVSPropertyOp13
 70
     1
102
RTVSPropertyOp14
 70
     1
102
RTVSPropertyOp15
 70
     1
102
RTVSPropertyOp16
 70
     1
102
RTVSPropertyOp17
 70
     1
102
RTVSPropertyOp18
 70
     1
102
RTVSPropertyOp19
 70
     1
102
RTVSPropertyOp20
 70
     1
102
RTVSPropertyOp21
 70
     1
102
RTVSPropertyOp22
 70
     1
102
RTVSPropertyOp23
 70
     1
102
RTVSPropertyOp24
 70
     1
102
RTVSPropertyOp25
 70
     1
102
RTVSPropertyOp26
 70
     1
102
RTVSPropertyOp27
 70
     1
102
RTVSPropertyOp28
 70
     1
102
RTVSPropertyOp29
 70
     1
102
RTVSPropertyOp30
 70
     1
102
RTVSPropertyOp31
 70
     1
102
RTVSPropertyOp32
 70
     1
  0
XRECORD
  5
76
102
{ACAD_REACTORS
330
75
102
}
330
75
100
AcDbXrecord
280
     1
102
RTVSPropertyOp0
 70
     1
102
RTVSPropertyOp1
 70
     1
102
RTVSPropertyOp2
 70
     1
102
RTVSPropertyOp3
 70
     1
102
RTVSPropertyOp4
 70
     1
102
RTVSPropertyOp5
 70
     1
102
RTVSPropertyOp6
 70
     1
102
RTVSPropertyOp7
 70
     1
102
RTVSPropertyOp8
 70
     1
102
RTVSPropertyOp9
 70
     1
102
RTVSPropertyOp10
 70
     1
102
RTVSPropertyOp11
 70
     1
102
RTVSPropertyOp12
 70
     1
102
RTVSPropertyOp13
 70
     1
102
RTVSPropertyOp14
 70
     1
102
RTVSPropertyOp15
 70
     1
102
RTVSPropertyOp16
 70
     1
102
RTVSPropertyOp17
 70
     1
102
RTVSPropertyOp18
 70
     1
102
RTVSPropertyOp19
 70
     1
102
RTVSPropertyOp20
 70
     1
102
RTVSPropertyOp21
 70
     1
102
RTVSPropertyOp22
 70
     1
102
RTVSPropertyOp23
 70
     1
102
RTVSPropertyOp24
 70
     1
102
RTVSPropertyOp25
 70
     1
102
RTVSPropertyOp26
 70
     1
102
RTVSPropertyOp27
 70
     1
102
RTVSPropertyOp28
 70
     1
102
RTVSPropertyOp29
 70
     1
102
RTVSPropertyOp30
 70
     1
102
RTVSPropertyOp31
 70
     1
102
RTVSPropertyOp32
 70
     1
  0
XRECORD
  5
7E
102
{ACAD_REACTORS
330
7D
102
}
330
7D
100
AcDbXrecord
280
     1
102
RTVSPropertyOp0
 70
     1
102
RTVSPropertyOp1
 70
     1
102
RTVSPropertyOp2
 70
     1
102
RTVSPropertyOp3
 70
     1
102
RTVSPropertyOp4
 70
     1
102
RTVSPropertyOp5
 70
     1
102
RTVSPropertyOp6
 70
     1
102
RTVSPropertyOp7
 70
     1
102
RTVSPropertyOp8
 70
     1
102
RTVSPropertyOp9
 70
     1
102
RTVSPropertyOp10
 70
     1
102
RTVSPropertyOp11
 70
     1
102
RTVSPropertyOp12
 70
     1
102
RTVSPropertyOp13
 70
     1
102
RTVSPropertyOp14
 70
     1
102
RTVSPropertyOp15
 70
     1
102
RTVSPropertyOp16
 70
     1
102
RTVSPropertyOp17
 70
     1
102
RTVSPropertyOp18
 70
     1
102
RTVSPropertyOp19
 70
     1
102
RTVSPropertyOp20
 70
     1
102
RTVSPropertyOp21
 70
     1
102
RTVSPropertyOp22
 70
     1
102
RTVSPropertyOp23
 70
     1
102
RTVSPropertyOp24
 70
     1
102
RTVSPropertyOp25
 70
     1
102
RTVSPropertyOp26
 70
     1
102
RTVSPropertyOp27
 70
     1
102
RTVSPropertyOp28
 70
     1
102
RTVSPropertyOp29
 70
     1
102
RTVSPropertyOp30
 70
     1
102
RTVSPropertyOp31
 70
     1
102
RTVSPropertyOp32
 70
     1
  0
XRECORD
  5
62
102
{ACAD_REACTORS
330
61
102
}
330
61
100
AcDbXrecord
280
     1
102
RTVSPropertyOp0
 70
     1
102
RTVSPropertyOp1
 70
     1
102
RTVSPropertyOp2
 70
     1
102
RTVSPropertyOp3
 70
     1
102
RTVSPropertyOp4
 70
     1
102
RTVSPropertyOp5
 70
     1
102
RTVSPropertyOp6
 70
     1
102
RTVSPropertyOp7
 70
     1
102
RTVSPropertyOp8
 70
     1
102
RTVSPropertyOp9
 70
     1
102
RTVSPropertyOp10
 70
     1
102
RTVSPropertyOp11
 70
     1
102
RTVSPropertyOp12
 70
     1
102
RTVSPropertyOp13
 70
     1
102
RTVSPropertyOp14
 70
     1
102
RTVSPropertyOp15
 70
     1
102
RTVSPropertyOp16
 70
     1
102
RTVSPropertyOp17
 70
     1
102
RTVSPropertyOp18
 70
     1
102
RTVSPropertyOp19
 70
     1
102
RTVSPropertyOp20
 70
     1
102
RTVSPropertyOp21
 70
     1
102
RTVSPropertyOp22
 70
     1
102
RTVSPropertyOp23
 70
     1
102
RTVSPropertyOp24
 70
     1
102
RTVSPropertyOp25
 70
     1
102
RTVSPropertyOp26
 70
     1
102
RTVSPropertyOp27
 70
     1
102
RTVSPropertyOp28
 70
     1
102
RTVSPropertyOp29
 70
     1
102
RTVSPropertyOp30
 70
     1
102
RTVSPropertyOp31
 70
     1
102
RTVSPropertyOp32
 70
     1
  0
XRECORD
  5
64
102
{ACAD_REACTORS
330
63
102
}
330
63
100
AcDbXrecord
280
     1
102
RTVSPropertyOp0
 70
     1
102
RTVSPropertyOp1
 70
     1
102
RTVSPropertyOp2
 70
     1
102
RTVSPropertyOp3
 70
     1
102
RTVSPropertyOp4
 70
     1
102
RTVSPropertyOp5
 70
     1
102
RTVSPropertyOp6
 70
     1
102
RTVSPropertyOp7
 70
     1
102
RTVSPropertyOp8
 70
     1
102
RTVSPropertyOp9
 70
     1
102
RTVSPropertyOp10
 70
     1
102
RTVSPropertyOp11
 70
     1
102
RTVSPropertyOp12
 70
     1
102
RTVSPropertyOp13
 70
     1
102
RTVSPropertyOp14
 70
     1
102
RTVSPropertyOp15
 70
     1
102
RTVSPropertyOp16
 70
     1
102
RTVSPropertyOp17
 70
     1
102
RTVSPropertyOp18
 70
     1
102
RTVSPropertyOp19
 70
     1
102
RTVSPropertyOp20
 70
     1
102
RTVSPropertyOp21
 70
     1
102
RTVSPropertyOp22
 70
     1
102
RTVSPropertyOp23
 70
     1
102
RTVSPropertyOp24
 70
     1
102
RTVSPropertyOp25
 70
     1
102
RTVSPropertyOp26
 70
     1
102
RTVSPropertyOp27
 70
     1
102
RTVSPropertyOp28
 70
     1
102
RTVSPropertyOp29
 70
     1
102
RTVSPropertyOp30
 70
     1
102
RTVSPropertyOp31
 70
     1
102
RTVSPropertyOp32
 70
     1
  0
XRECORD
  5
66
102
{ACAD_REACTORS
330
65
102
}
330
65
100
AcDbXrecord
280
     1
102
RTVSPropertyOp0
 70
     1
102
RTVSPropertyOp1
 70
     1
102
RTVSPropertyOp2
 70
     1
102
RTVSPropertyOp3
 70
     1
102
RTVSPropertyOp4
 70
     1
102
RTVSPropertyOp5
 70
     1
102
RTVSPropertyOp6
 70
     1
102
RTVSPropertyOp7
 70
     1
102
RTVSPropertyOp8
 70
     1
102
RTVSPropertyOp9
 70
     1
102
RTVSPropertyOp10
 70
     1
102
RTVSPropertyOp11
 70
     1
102
RTVSPropertyOp12
 70
     1
102
RTVSPropertyOp13
 70
     1
102
RTVSPropertyOp14
 70
     1
102
RTVSPropertyOp15
 70
     1
102
RTVSPropertyOp16
 70
     1
102
RTVSPropertyOp17
 70
     1
102
RTVSPropertyOp18
 70
     1
102
RTVSPropertyOp19
 70
     1
102
RTVSPropertyOp20
 70
     1
102
RTVSPropertyOp21
 70
     1
102
RTVSPropertyOp22
 70
     1
102
RTVSPropertyOp23
 70
     1
102
RTVSPropertyOp24
 70
     1
102
RTVSPropertyOp25
 70
     1
102
RTVSPropertyOp26
 70
     1
102
RTVSPropertyOp27
 70
     1
102
RTVSPropertyOp28
 70
     1
102
RTVSPropertyOp29
 70
     1
102
RTVSPropertyOp30
 70
     1
102
RTVSPropertyOp31
 70
     1
102
RTVSPropertyOp32
 70
     1
  0
XRECORD
  5
68
102
{ACAD_REACTORS
330
67
102
}
330
67
100
AcDbXrecord
280
     1
102
RTVSPropertyOp0
 70
     1
102
RTVSPropertyOp1
 70
     1
102
RTVSPropertyOp2
 70
     1
102
RTVSPropertyOp3
 70
     1
102
RTVSPropertyOp4
 70
     1
102
RTVSPropertyOp5
 70
     1
102
RTVSPropertyOp6
 70
     1
102
RTVSPropertyOp7
 70
     1
102
RTVSPropertyOp8
 70
     1
102
RTVSPropertyOp9
 70
     1
102
RTVSPropertyOp10
 70
     1
102
RTVSPropertyOp11
 70
     1
102
RTVSPropertyOp12
 70
     1
102
RTVSPropertyOp13
 70
     1
102
RTVSPropertyOp14
 70
     1
102
RTVSPropertyOp15
 70
     1
102
RTVSPropertyOp16
 70
     1
102
RTVSPropertyOp17
 70
     1
102
RTVSPropertyOp18
 70
     1
102
RTVSPropertyOp19
 70
     1
102
RTVSPropertyOp20
 70
     1
102
RTVSPropertyOp21
 70
     1
102
RTVSPropertyOp22
 70
     1
102
RTVSPropertyOp23
 70
     1
102
RTVSPropertyOp24
 70
     1
102
RTVSPropertyOp25
 70
     1
102
RTVSPropertyOp26
 70
     1
102
RTVSPropertyOp27
 70
     1
102
RTVSPropertyOp28
 70
     1
102
RTVSPropertyOp29
 70
     1
102
RTVSPropertyOp30
 70
     1
102
RTVSPropertyOp31
 70
     1
102
RTVSPropertyOp32
 70
     1
  0
XRECORD
  5
7C
102
{ACAD_REACTORS
330
7B
102
}
330
7B
100
AcDbXrecord
280
     1
102
RTVSPropertyOp0
 70
     1
102
RTVSPropertyOp1
 70
     1
102
RTVSPropertyOp2
 70
     1
102
RTVSPropertyOp3
 70
     1
102
RTVSPropertyOp4
 70
     1
102
RTVSPropertyOp5
 70
     1
102
RTVSPropertyOp6
 70
     1
102
RTVSPropertyOp7
 70
     1
102
RTVSPropertyOp8
 70
     1
102
RTVSPropertyOp9
 70
     1
102
RTVSPropertyOp10
 70
     1
102
RTVSPropertyOp11
 70
     1
102
RTVSPropertyOp12
 70
     1
102
RTVSPropertyOp13
 70
     1
102
RTVSPropertyOp14
 70
     1
102
RTVSPropertyOp15
 70
     1
102
RTVSPropertyOp16
 70
     1
102
RTVSPropertyOp17
 70
     1
102
RTVSPropertyOp18
 70
     1
102
RTVSPropertyOp19
 70
     1
102
RTVSPropertyOp20
 70
     1
102
RTVSPropertyOp21
 70
     1
102
RTVSPropertyOp22
 70
     1
102
RTVSPropertyOp23
 70
     1
102
RTVSPropertyOp24
 70
     1
102
RTVSPropertyOp25
 70
     1
102
RTVSPropertyOp26
 70
     1
102
RTVSPropertyOp27
 70
     1
102
RTVSPropertyOp28
 70
     1
102
RTVSPropertyOp29
 70
     1
102
RTVSPropertyOp30
 70
     1
102
RTVSPropertyOp31
 70
     1
102
RTVSPropertyOp32
 70
     1
  0
XRECORD
  5
72
102
{ACAD_REACTORS
330
71
102
}
330
71
100
AcDbXrecord
280
     1
102
RTVSPropertyOp0
 70
     1
102
RTVSPropertyOp1
 70
     1
102
RTVSPropertyOp2
 70
     1
102
RTVSPropertyOp3
 70
     1
102
RTVSPropertyOp4
 70
     1
102
RTVSPropertyOp5
 70
     1
102
RTVSPropertyOp6
 70
     1
102
RTVSPropertyOp7
 70
     1
102
RTVSPropertyOp8
 70
     1
102
RTVSPropertyOp9
 70
     1
102
RTVSPropertyOp10
 70
     1
102
RTVSPropertyOp11
 70
     1
102
RTVSPropertyOp12
 70
     1
102
RTVSPropertyOp13
 70
     1
102
RTVSPropertyOp14
 70
     1
102
RTVSPropertyOp15
 70
     1
102
RTVSPropertyOp16
 70
     1
102
RTVSPropertyOp17
 70
     1
102
RTVSPropertyOp18
 70
     1
102
RTVSPropertyOp19
 70
     1
102
RTVSPropertyOp20
 70
     1
102
RTVSPropertyOp21
 70
     1
102
RTVSPropertyOp22
 70
     1
102
RTVSPropertyOp23
 70
     1
102
RTVSPropertyOp24
 70
     1
102
RTVSPropertyOp25
 70
     1
102
RTVSPropertyOp26
 70
     1
102
RTVSPropertyOp27
 70
     1
102
RTVSPropertyOp28
 70
     1
102
RTVSPropertyOp29
 70
     1
102
RTVSPropertyOp30
 70
     1
102
RTVSPropertyOp31
 70
     1
102
RTVSPropertyOp32
 70
     1
  0
XRECORD
  5
7A
102
{ACAD_REACTORS
330
79
102
}
330
79
100
AcDbXrecord
280
     1
102
RTVSPropertyOp0
 70
     1
102
RTVSPropertyOp1
 70
     1
102
RTVSPropertyOp2
 70
     1
102
RTVSPropertyOp3
 70
     1
102
RTVSPropertyOp4
 70
     1
102
RTVSPropertyOp5
 70
     1
102
RTVSPropertyOp6
 70
     1
102
RTVSPropertyOp7
 70
     1
102
RTVSPropertyOp8
 70
     1
102
RTVSPropertyOp9
 70
     1
102
RTVSPropertyOp10
 70
     1
102
RTVSPropertyOp11
 70
     1
102
RTVSPropertyOp12
 70
     1
102
RTVSPropertyOp13
 70
     1
102
RTVSPropertyOp14
 70
     1
102
RTVSPropertyOp15
 70
     1
102
RTVSPropertyOp16
 70
     1
102
RTVSPropertyOp17
 70
     1
102
RTVSPropertyOp18
 70
     1
102
RTVSPropertyOp19
 70
     1
102
RTVSPropertyOp20
 70
     1
102
RTVSPropertyOp21
 70
     1
102
RTVSPropertyOp22
 70
     1
102
RTVSPropertyOp23
 70
     1
102
RTVSPropertyOp24
 70
     1
102
RTVSPropertyOp25
 70
     1
102
RTVSPropertyOp26
 70
     1
102
RTVSPropertyOp27
 70
     1
102
RTVSPropertyOp28
 70
     1
102
RTVSPropertyOp29
 70
     1
102
RTVSPropertyOp30
 70
     1
102
RTVSPropertyOp31
 70
     1
102
RTVSPropertyOp32
 70
     1
  0
ENDSEC
  0
EOF
